<?xml version="1.0" encoding="utf-8"?>
<!-- Generator: Adobe Illustrator 23.0.3, SVG Export Plug-In . SVG Version: 6.00 Build 0)  -->
<svg xmlns="http://www.w3.org/2000/svg" xmlns:xlink="http://www.w3.org/1999/xlink" x="0px" y="0px"
	 viewBox="0 0 1342.8 1166.1" style="enable-background:new 0 0 1342.8 1166.1;" xml:space="preserve">
<style type="text/css">
	.app-user-0{fill:#E7EAF3;}
	.app-user-1{fill:#FFFFFF;}
	.app-user-2{fill:#FFFFFF;stroke:#1E2022;}
	.app-user-3{fill:#377DFF;}
	.app-user-4{fill:#1E2022;}
	.app-user-5{fill:none;stroke:#1E2022;}
	.app-user-6{fill:none;stroke:#E7EAF3;}
</style>
<path class="app-user-0 fill-gray-300" opacity=".3" d="M160.5,485c87.6-86.8,198.9-157.7,303.2-228.2c50.1-33.9,100.8-67,151.8-99.8c49.1-31.5,98.8-62.2,149.7-91.3
	c173.5-99.4,489.7-103.6,557.5,112.6c0.9,2.9,1.8,5.9,2.6,8.8c28.8,103.8,16.6,218.8,2.4,323.7c-0.5,3.8-1,7.5-1.6,11.3
	c-9.6,67.7-20.4,135.5-20.6,203.9c-0.2,40.7,2.7,81.8,15.2,120.9c19.5,61.5,35.8,128.2-3.6,186.1c-32.7,48.1-89.1,80.6-145.7,101.7
	c-84.5,31.5-178.3,37.9-268.2,25.5c-114.9-15.8-220.6-63-334.3-82.9c-66.5-11.6-133.5-21-200.7-28.4c-95.2-10.5-218.1,1.6-296.1-59
	c-79.6-61.9-81.3-167-61.5-253C33.7,636.7,89.2,555.6,160.5,485z"/>
<path class="app-user-1 fill-white" d="M1065.3,610.5v427.7c0,31.3-25.3,56.6-56.6,56.6H676.3c-31.3,0-56.6-25.3-56.6-56.6l0,0V189.5
	c0-31.3,25.3-56.6,56.6-56.6h332.4c31.3,0,56.6,25.3,56.6,56.6v0V610.5"/>
<path class="app-user-0 fill-gray-300" d="M866.6,610.8c-6.7,3.7-64.8,100.3-61.3,179.5c9.1-2.6,30.5-13.8,30.5-13.8l9.8-5.8l6.2-33.8l8.1-38.3l15-48
	l18-35l14-20l-13,4L866.6,610.8z"/>
<path class="app-user-0 fill-gray-300" d="M1032.3,760c0,0.5,0,1.2,0,2.1c0.6,22.3,7.4,154-84,207.9c41,46,108,5,108,5l9-10V808l-2-4l-11-40l-14,1
	L1032.3,760z"/>
<path class="app-user-3 fill-primary" d="M983.4,1112.7l-73.5-101.8c0,0-48.1-43.5-67.4-58.2c-0.2,15,0.8,122.6,5.4,159.9H983.4z"/>
<path class="app-user-4 fill-dark" opacity=".2" d="M983.4,1112.7l-73.5-101.8c0,0-48.1-43.5-67.4-58.2c-0.2,15,0.8,122.6,5.4,159.9H983.4z"/>
<path class="app-user-3 fill-primary" d="M1051.6,1096.4h13.6V962.5c-34.4,11-201.4,12-222.8-9.7c0,1.7,32,88.6,89.7,156h119.4V1096.4z"/>
<path class="app-user-5 fill-none stroke-dark" stroke-width="2.5" stroke-linecap="round" stroke-linejoin="round" d="M804.8,692.6c-3.6,4-3.7,11.7-3.7,11.7c-4.5-13.4-102.7-257.7-102.7-257.7s-20.3,8.6,3.1,54.8
	c-7.6,4.5-28.7,21.4-20,48.6c6.6,20.4,21,27.6,30,27.6c-1.5,15.3,31.2,171.6,35.5,179.1c10,17.7,29.3,37,40.7,37.5
	c13,0.7,39.6-11.3,57.7-22.8"/>
<path class="app-user-5 fill-none stroke-dark" stroke-width="2.5" stroke-linecap="round" stroke-miterlimit="10" d="M905.9,595.6c-49.4,9.2-112.1,67.3-110.5,79.8c1.5,11.8,32.3,46,55.7,62.3"/>
<path class="app-user-5 fill-none stroke-dark" stroke-width="2.5" stroke-linecap="round" stroke-miterlimit="10" d="M936.9,568.1c-106,59.8-108,366-94.4,384.7c13.3,18.4,171.8,23.2,222.8,10.5"/>
<path class="app-user-5 fill-none stroke-dark" stroke-width="2.5" stroke-linecap="round" stroke-miterlimit="10" d="M1061.4,604.5c-14.5-21.2-33.7-36.6-58.5-43"/>
<path class="app-user-5 fill-none stroke-dark" stroke-width="2.5" stroke-linecap="round" stroke-miterlimit="10" d="M1052.7,763.5c2.7,11.5,8.2,33,13.7,53.4"/>
<path class="app-user-5 fill-none stroke-dark" stroke-width="2.5" stroke-linecap="round" stroke-miterlimit="10" d="M1020.8,737.7c5.2,14.9,10.8,25.2,14.9,26.5c5,1.6,16.4,0,29.6-3.5"/>
<path class="app-user-5 fill-none stroke-dark" stroke-width="2.5" stroke-linecap="round" stroke-miterlimit="10" d="M1065.3,607.1c-8.8-6.4-17.6-9.6-26-7.6"/>
<path class="app-user-5 fill-none stroke-dark" stroke-width="2.5" stroke-linecap="round" stroke-miterlimit="10" d="M936.9,568.1v-17.2"/>
<path class="app-user-5 fill-none stroke-dark" stroke-width="2.5" stroke-linecap="round" stroke-miterlimit="10" d="M1002.8,519.4v71.4c0,5.8-15.5,9.3-31.5,9.8"/>
<path class="app-user-5 fill-none stroke-dark" stroke-width="2.5" stroke-linecap="round" stroke-miterlimit="10" d="M1002.6,519.4c6,3.3,15.1-0.2,20.8-8.3c6.1-8.5,6.2-18.9,0.3-23.1c-1.6-1.1-3.4-1.7-5.3-1.8"/>
<path class="app-user-5 fill-none stroke-dark" stroke-width="2.5" stroke-linecap="round" stroke-miterlimit="10" d="M907.8,446.8c-1,2.1-2,4.3-2.8,6.6c-16.1,40.8-4.6,83.5,25.8,95.5c2,0.8,4.1,1.5,6.2,2"/>
<path class="app-user-5 fill-none stroke-dark" stroke-width="2.5" stroke-linecap="round" stroke-miterlimit="10" d="M1040.4,495.4c12.3-3.7,27.7-12.4,27.7-30c0-11-10.3-23.1-12.2-36.9c-1-7,1.2-36.1-7-46c-17-20.4-27-16.3-40-21
	c-22.6-8.3-31.3-22-50-22c-21.2,0-29.8,11-45,11c-17.4,0-31.6-8-56-8c-13,0-30,17-30,32c0,35.5,33,30.4,33,39c0,6-2,10.8-2,19
	c0,4.4,2.3,8,5.6,10.8"/>
<path class="app-user-0 fill-gray-300" d="M673.3,333.3h49.9c14.8,0,26.8,12,26.8,26.8V410c0,14.8-12,26.8-26.8,26.8h-49.9c-14.8,0-26.8-12-26.8-26.8
	v-49.9C646.5,345.3,658.5,333.3,673.3,333.3z"/>
<circle class="app-user-3 fill-primary" cx="737.6" cy="341.5" r="21.2"/>
<path class="app-user-2 fill-white stroke-dark" stroke-width="2.5" stroke-miterlimit="10" d="M1010.4,102.5H674.5c-45.2,0-81.9,36.7-81.9,81.9v858.8c0,45.2,36.7,81.9,81.9,81.9l0,0h335.9
	c45.2,0,81.9-36.7,81.9-81.9V184.4C1092.3,139.1,1055.7,102.5,1010.4,102.5z M1065.3,610.5v427.7c0,31.3-25.3,56.6-56.6,56.6H676.3
	c-31.3,0-56.6-25.3-56.6-56.6l0,0V189.5c0-31.3,25.3-56.6,56.6-56.6h55.1v17.4c0,8.7,7,15.7,15.7,15.7h190.8c8.7,0,15.7-7,15.7-15.7
	v-17.4h55.1c31.3,0,56.6,25.3,56.6,56.6c0,0,0,0,0,0L1065.3,610.5z"/>
<path class="app-user-3 fill-primary" d="M1183.8,229.5h-121.3c-21.9,0-39.7,17.8-39.7,39.7c0,11.5,4.9,21.9,12.8,29.1v26.6l17.2-17.2
	c3.1,0.8,6.4,1.2,9.7,1.2h121.3c21.9,0,39.7-17.8,39.7-39.7S1205.7,229.5,1183.8,229.5z"/>
<circle class="app-user-1 fill-white" cx="1082.2" cy="270.5" r="10"/>
<circle class="app-user-1 fill-white" cx="1123.1" cy="270.5" r="10"/>
<circle class="app-user-1 fill-white" cx="1164.1" cy="270.5" r="10"/>
<path class="app-user-5 fill-none stroke-dark" stroke-width="9" stroke-linecap="round" stroke-miterlimit="10" d="M543.4,1012.8c2-5.7,3.2-12.8,3.2-21.7c0-133.5-158-97.5-158-208.4"/>
<path class="app-user-3 fill-primary" d="M416.3,781.9c8.5,11.2-20.1,23.9-24.3,18.6S407.1,770,416.3,781.9z"/>
<path class="app-user-3 fill-primary" d="M556.2,585.6c10.4,13.6-20.4,26-25.4,19.5S545.1,571.1,556.2,585.6z"/>
<path class="app-user-3 fill-primary" d="M547.8,641.8c8.3,15-32,27.1-36,19.9S539,625.8,547.8,641.8z"/>
<path class="app-user-3 fill-primary" d="M550.3,684.5c10.9,13.2-26.6,32.4-31.8,26.1C513.3,704.3,538.7,670.4,550.3,684.5z"/>
<path class="app-user-3 fill-primary" d="M563,732.5c10.9,13.2-26.6,32.4-31.8,26.1C526.1,752.3,551.4,718.4,563,732.5z"/>
<path class="app-user-3 fill-primary" d="M574.2,777.1c9.9,12-22.9,28.4-27.6,22.6S563.6,764.3,574.2,777.1z"/>
<path class="app-user-3 fill-primary" d="M589.2,826.1c9.9,12-22.9,28.4-27.6,22.6S578.7,813.2,589.2,826.1z"/>
<path class="app-user-3 fill-primary" d="M361.8,773.1c3.6-13.6,31.3,1.3,29.6,7.8C389.7,787.3,358,787.6,361.8,773.1z"/>
<path class="app-user-3 fill-primary" d="M361.4,821c-1.8-13.9,29.5-10.5,30.3-3.8C392.5,823.9,363.2,835.9,361.4,821z"/>
<path class="app-user-3 fill-primary" d="M389,864.5c-9.1-10.7,18.9-25,23.3-19.9S398.7,875.9,389,864.5z"/>
<path class="app-user-3 fill-primary" d="M423.6,887.9c-5.5-12.9,25.5-18.1,28.1-11.9S429.5,901.8,423.6,887.9z"/>
<path class="app-user-3 fill-primary" d="M470.2,912.3c-5.5-12.9,25.5-18.1,28.1-11.9S476,926.2,470.2,912.3z"/>
<path d="M505,947.8c-1.2-14,29.9-9.3,30.5-2.6S506.3,962.8,505,947.8z"/>
<path class="app-user-3 fill-primary" d="M431.3,811.9c11,8.8-13.8,28.1-19.1,23.9S419.6,802.5,431.3,811.9z"/>
<path class="app-user-3 fill-primary" d="M456.3,837c12.1,7.2-9.7,29.7-15.5,26.3C434.9,859.9,443.3,829.3,456.3,837z"/>
<path class="app-user-3 fill-primary" d="M501.9,861.6c11.4,8.3-12.5,28.7-18,24.7S489.8,852.7,501.9,861.6z"/>
<path class="app-user-5 fill-none stroke-dark" stroke-width="9" stroke-linecap="round" stroke-miterlimit="10" d="M540.4,1012.5c13.9-22.9,30.8-57.5,30.8-96.6c0-107.8-60.2-161.8-60.2-238.8c0-14.6,1.3-60.4,24.5-79"/>
<path class="app-user-2 fill-white stroke-dark" stroke-width="2.5" stroke-linecap="round" stroke-miterlimit="10" d="M588.6,1164.9h-88.4c-4.1,0-7.8-2.6-9.1-6.6l-44-133.3c-1.6-5,1.1-10.4,6.1-12.1c1-0.3,2-0.5,3-0.5H633
	c5.3,0,9.6,4.3,9.6,9.6c0,1-0.2,2-0.5,3l-44.4,133.3C596.4,1162.3,592.7,1164.9,588.6,1164.9z"/>
<path class="app-user-0 fill-gray-300" d="M581.4,1012.8c2.5,3.7,21.1,108.6-74.7,152.1c26.3-0.9,33.2,0.6,33.2,0.6h50l8-5l19-57l13.5-42l12.5-39l-3-7.1
	l-6-3.9L581.4,1012.8z"/>
<path class="app-user-3 fill-primary" d="M603.5,882.1c5.2,14.7-31.2,18.9-33.6,11.9C567.3,887,597.9,866.4,603.5,882.1z"/>
<path class="app-user-3 fill-primary" d="M544,903.8c11.5-10.4,29.5,21.5,23.9,26.5C562.4,935.3,531.7,915,544,903.8z"/>
<path class="app-user-3 fill-primary" d="M534.7,864c7.7-13.5,34.7,11.1,31.1,17.5C562.1,888,526.5,878.5,534.7,864z"/>
<path class="app-user-3 fill-primary" d="M526,816.8c7.7-13.5,34.7,11.1,31.1,17.5S517.8,831.3,526,816.8z"/>
<path class="app-user-3 fill-primary" d="M510.5,779.2c5-14.8,36.2,4.3,33.8,11.4S505.2,795,510.5,779.2z"/>
<path class="app-user-3 fill-primary" d="M488.6,727.5c7.3-13.8,35,10.1,31.5,16.7S480.8,742.2,488.6,727.5z"/>
<path class="app-user-3 fill-primary" d="M478.2,669.9c8.5-13,34,13.3,29.9,19.5S469.1,683.8,478.2,669.9z"/>
<path class="app-user-3 fill-primary" d="M483.3,620.3c8.5-13,34,13.3,29.9,19.5C509.1,646.1,474.2,634.2,483.3,620.3z"/>
<path class="app-user-3 fill-primary" d="M603.5,933.2c5.2,14.7-31.2,18.9-33.6,11.9C567.3,938,597.9,917.5,603.5,933.2z"/>
<path class="app-user-5 fill-none stroke-dark" stroke-width="2.5" stroke-linecap="round" stroke-miterlimit="10" d="M925.8,458.5c0,5-1,21-7,25"/>
<path class="app-user-5 fill-none stroke-dark" stroke-width="2.5" stroke-linecap="round" stroke-miterlimit="10" d="M922.3,510c10,0,19-6,19-10"/>
<ellipse class="app-user-4 fill-dark" cx="947.8" cy="461" rx="3.5" ry="6"/>
<path class="app-user-5 fill-none stroke-dark" stroke-width="2.5" stroke-linecap="round" stroke-miterlimit="10" d="M588.6,1164.9h-88.4c-4.1,0-7.8-2.6-9.1-6.6l-44-133.3c-1.6-5,1.1-10.4,6.1-12.1c1-0.3,2-0.5,3-0.5H633
	c5.3,0,9.6,4.3,9.6,9.6c0,1-0.2,2-0.5,3l-44.4,133.3C596.4,1162.3,592.7,1164.9,588.6,1164.9z"/>
<circle class="app-user-6 fill-none stroke-gray-300" stroke-width="13" stroke-miterlimit="10" cx="260.1" cy="53.5" r="25.5"/>
<circle class="app-user-6 fill-none stroke-gray-300" stroke-width="13" stroke-miterlimit="10" cx="376.5" cy="1094.7" r="22"/>
<circle class="app-user-6 fill-none stroke-gray-300" stroke-width="13" stroke-miterlimit="10" cx="1301.9" cy="35.4" r="18"/>
</svg>
