<?xml version="1.0" encoding="utf-8"?>
<!-- Generator: Adobe Illustrator 23.0.3, SVG Export Plug-In . SVG Version: 6.00 Build 0)  -->
<svg xmlns="http://www.w3.org/2000/svg" xmlns:xlink="http://www.w3.org/1999/xlink" x="0px" y="0px"
	 viewBox="0 0 807.7 887.5" style="enable-background:new 0 0 807.7 887.5;" xml:space="preserve">
<style type="text/css">
	.charts-and-graphs-0{fill:#E7EAF3;}
	.charts-and-graphs-1{fill:#377DFF;}
	.charts-and-graphs-2{fill:none;stroke:#1e2022;}
	.charts-and-graphs-3{fill:#00C9A7;}
	.charts-and-graphs-4{fill:#BDC5D1;}
</style>
<title>Artboard 1</title>
<path class="charts-and-graphs-0 fill-gray-300" d="M104.3,288.6C102.5,295.4,74,426.5,93.4,473c0.9-6,2.2-13.4,2.2-13.4l10-15.5l0.7-25.7l3.1-50.7l7.2-38.2
	l4.1-17.4l8.5-19.4l12.5-21.4l-7.3-1.2l-13.2,4.1L104.3,288.6z"/>
<path class="charts-and-graphs-0 fill-gray-300" d="M220.4,336.7c0,8.9-6.8,112.9-63.7,138.9c53.1,13.7,100.2-16,100.2-16l2-5.8l-0.7-41.3l-1.3-42.1l-3-11.8
	L220.4,336.7z"/>
<path class="charts-and-graphs-1 fill-primary" d="M86.5,562.8c1.7,4.4,3.2,9.4,2.7,14.2c-1,9.4-3.8,15.2-9.4,17.9c-4.7-4.4-18.6-18.2-19.4-20.7
	c-0.2-0.6-0.4-8.2-0.5-19.4l-41-12.2L2.2,598.7l97.7,29l16.6-56.1L86.5,562.8z"/>
<path class="charts-and-graphs-1 fill-primary" d="M391,62.7c-48.6-0.1-88.1,39.3-88.1,87.9c0,30.7,15.9,59.2,42.1,75.2l5.9-11.9l-2.1-10.4l0.1-4.9l3.1-4.8l7-7.1
	l7.2-6.9l5.6-5l6-3.6l2.6,1l0.4,3.2l-1.1,3.5l-2.1,3.9l-2.1,3.1l-2.8,3.7l-3.8,4.4h4.3l5.7,0.8l3,2.1l2.2,4.4l1.9,4.5l2,5.2l0.4,3.7
	l0.4,2.9l-3.2,3.2l-9.4,8.4l-2.5,4l-1.2,3.7c47.6,10.1,94.3-20.2,104.5-67.8c10.1-47.6-20.2-94.3-67.8-104.5
	C403.3,63.4,397.2,62.8,391,62.7L391,62.7z"/>
<path class="charts-and-graphs-2 fill-none stroke-dark" stroke-width="2" stroke-linecap="round" stroke-linejoin="round" d="M255.1,359.6c3.3,26.7,4.3,58.4,3.3,94.9c-24.4,19.4-45,19-76.4,19s-64.7-6.9-76.3-16.7
	c-1.4-108.2,15-202.2,74.3-202.2c19.2,0,34.6,7.2,46.5,21.5"/>
<path class="charts-and-graphs-2 fill-none stroke-dark" stroke-width="2" stroke-linecap="round" stroke-linejoin="round" d="M208.8,278.2c26.2-9.1,76.1,17.2,86.9,24.2c3.1,14.9-17,55.6-30.1,61.1c-3.6-1.1-7.1-2.6-10.4-4.2"/>
<path class="charts-and-graphs-2 fill-none stroke-dark" stroke-width="2" stroke-linecap="round" stroke-linejoin="round" d="M255.2,359.2c-14.2-7-27.3-15.9-39.2-26.3"/>
<path class="charts-and-graphs-2 fill-none stroke-dark" stroke-width="2" stroke-linecap="round" stroke-linejoin="round" d="M109.4,368.8c-16.8-6-35.6-17.5-39.2-26.1c1.1-3.6,2.5-7.1,4.2-10.5"/>
<path class="charts-and-graphs-2 fill-none stroke-dark" stroke-width="2" stroke-linecap="round" stroke-linejoin="round" d="M74.4,332.2c12-25.2,43.8-69.4,67.9-60.4"/>
<path class="charts-and-graphs-2 fill-none stroke-dark" stroke-width="2" stroke-linecap="round" stroke-linejoin="round" d="M105.6,445.2c-1.3,1.8-9.5,13.4-10,14.4c-0.6,1-13.1,86.4-12.6,92.5c0.5,6,7.1,15.7,6.1,25
	c-1,9.4-3.8,15.1-9.4,17.8c-4.7-4.4-18.6-18.2-19.4-20.7c-0.9-2.5-0.9-116.2-1-120.5c-0.1-4.3,16.8-100.4,17.7-102.8"/>
<path class="charts-and-graphs-2 fill-none stroke-dark" stroke-width="2" stroke-linecap="round" stroke-linejoin="round" d="M158.1,259.4c0.1-4.8-0.2-29.3-0.1-32.3c-4.6-0.1-32.9-22.9-32.9-54.8c-0.1-65.8,73-62.6,96.3-99.6"/>
<path class="charts-and-graphs-2 fill-none stroke-dark" stroke-width="2" stroke-linecap="round" stroke-linejoin="round" d="M225.1,86.2c-1.8,4.4-15.7,27.8-20.8,33.6"/>
<path class="charts-and-graphs-2 fill-none stroke-dark" stroke-width="2" stroke-linecap="round" stroke-linejoin="round" d="M231.4,96.1c-1.4,3.9-9.4,24.8-17.6,37.7"/>
<path class="charts-and-graphs-2 fill-none stroke-dark" stroke-width="2" stroke-linecap="round" stroke-linejoin="round" d="M194.5,229.8c19.3-10.6,25.9-29.1,26.3-45.4c4-3.8,7.2-5.1,6.9-8c-0.3-3.2-14.8-9.2-16.9-23.6"/>
<path class="charts-and-graphs-2 fill-none stroke-dark" stroke-width="2" stroke-linecap="round" stroke-linejoin="round" d="M295.3,312.3c1.3,0.7,2.7,1.3,4.1,1.8c1.3-2.7,50.6-97.6,51.7-100.6c-0.8-3.6-2.7-11.7-1.8-15.4
	c1-3.7,25.9-30.4,30.5-26.4c4.6,4-7,18.1-11.1,22c4.4,0.2,12.2-2.7,16.2,7.9c0.2,0.5,0.4,1,0.5,1.4c3.5,9.6,4.3,13.3,2.4,15.4
	c-1.9,2.1-12.1,9.5-13.6,13.2c-1.5,3.7-45.4,121.5-55.7,135.5c-6.4,6.5-30.2-2.8-43.9-10.5"/>
<path class="charts-and-graphs-2 fill-none stroke-dark" stroke-width="2" stroke-linecap="round" stroke-linejoin="round" d="M115.4,829.7v17.7l-54.7,0.7L93.5,835l0.1-5.1"/>
<path class="charts-and-graphs-2 fill-none stroke-dark" stroke-width="2" stroke-linecap="round" stroke-linejoin="round" d="M228.9,828.8h25.2v18.8h-25.2V828.8z"/>
<path class="charts-and-graphs-3 fill-success" d="M390,159.5l14.1-60l14.1-60l27.3,14.3L472.8,68l-41.3,45.8L390,159.5z"/>
<path class="charts-and-graphs-0 fill-gray-300" d="M535,66.5h270.6v166.4H535V66.5z"/>
<path class="charts-and-graphs-4 fill-gray-400" d="M551.3,79.8h24v139.6h-24V79.8z"/>
<path class="charts-and-graphs-4 fill-gray-400" d="M586.9,100.1h24v119.4h-24V100.1z"/>
<path class="charts-and-graphs-4 fill-gray-400" d="M622.6,130.8h24v88.7h-24V130.8z"/>
<path class="charts-and-graphs-4 fill-gray-400" d="M658.3,172.5h24v47h-24V172.5z"/>
<path class="charts-and-graphs-4 fill-gray-400" d="M693.9,132.1h24v87.4h-24V132.1z"/>
<path class="charts-and-graphs-4 fill-gray-400" d="M729.6,101.7h24v117.9h-24V101.7z"/>
<path class="charts-and-graphs-4 fill-gray-400" d="M765.2,79.8h24v139.6h-24V79.8z"/>
<g id="Pants">
	<path d="M87.9,831.1c0.2-4,17-372.4,17.3-374c68.5,29.6,133.9,16.3,153.9-2.3c0.4,9.4-0.2,376.1-0.2,376.1l-31.5,0.5l-53.4-220
		L119.2,831C119.2,831,91.6,831.1,87.9,831.1z"/>
</g>
</svg>
