<?xml version="1.0" encoding="utf-8"?>
<!-- Generator: Adobe Illustrator 23.0.3, SVG Export Plug-In . SVG Version: 6.00 Build 0)  -->
<svg xmlns="http://www.w3.org/2000/svg" xmlns:xlink="http://www.w3.org/1999/xlink" x="0px" y="0px"
	 viewBox="0 0 1452.6 1118.7" style="enable-background:new 0 0 1452.6 1118.7;" xml:space="preserve">
<style type="text/css">
	.drawing-woman-0{fill:#E7EAF3;}
	.drawing-woman-1{fill:none;stroke:#000000;stroke-width:2.5;stroke-linecap:round;stroke-miterlimit:10;}
	.drawing-woman-2{fill:none;stroke:#000000;stroke-width:2.5;stroke-linecap:round;stroke-linejoin:round;}
	.drawing-woman-3{fill:none;stroke:#377DFF;stroke-width:7;stroke-linecap:square;stroke-linejoin:round;}
	.drawing-woman-4{fill:none;stroke:#BDC5D1;stroke-width:2.5;stroke-linecap:round;stroke-linejoin:round;}
	.drawing-woman-5{fill:#BDC5D1;}
	.drawing-woman-6{fill:#949494;}
	.drawing-woman-7{fill:none;stroke:#1E2022;stroke-width:9;stroke-linecap:round;stroke-miterlimit:10;}
	.drawing-woman-8{fill:none;stroke:#1E2022;stroke-width:2.5;stroke-linecap:round;stroke-miterlimit:10;}
	.drawing-woman-9{fill:#377DFF;}
	.drawing-woman-10{fill:#FFFFFF;stroke:#1E2022;stroke-width:2.5;stroke-linecap:round;stroke-miterlimit:10;}
</style>
<g id="Shadow">
	<path class="drawing-woman-0" d="M318.6,373.5c0,15-46.3,117.4-145.5,130.2c-1.3,5.8-2.3,21-2.3,21l-0.5,13.5l8.5,6.3l82,23l67,7l31-14l7-12
		l4.8-11.8l12.3-31.2l5-11.9c2-5.1,5-13.1,5-13.1l5-17l-10-16l-10-18l-9-16l-3-9l-10,3l-10,1h-7l-5-3l-6-9l-6-14L318.6,373.5z"/>
	<polygon class="drawing-woman-0" points="428.8,310.5 435.8,317.5 443.8,328.5 446.8,337.5 438.8,341.5 432.8,332.5 427.8,325.5 428.8,321.5
		427.8,309.5 	"/>
	<polygon class="drawing-woman-0" points="426.8,368.5 433.8,379.5 442.8,395.5 447.8,409.5 473.8,400.5 467.8,390.5 455.8,373.5 438.8,355.5
		"/>
	<path class="drawing-woman-0" d="M521.8,486.5c0-4,47-24,89-24c-17-3-40-6-40-6l-35-4l-24-2l-18,7l-21,8l-23,8l4,6l8,8L521.8,486.5z"/>
</g>
<path d="M359.3,14c-22.5,0-40.5,21-60,21c-33.5,0-57.5-35-108-35c-22.5,0-50,34-55,39c-12,12-72,15.5-72,84c0,11,8.5,84,75,84
	c45.5,0,90.5-55,131-55c19.5,0,18.5,7,52,7c2.5-6.5,6.5-14.5,6.5-22.5c0-10-11-12-11-25c0-25,62-18,62-67c3,0,6,8,6,12c2,0,5-6,5-11
	C390.8,35.5,381.8,14,359.3,14z"/>
<path class="drawing-woman-1" d="M377.3,39c11,10,14,41,14,60c0,47-22,60-31,60s-9.5-2.5-12-5"/>
<path class="drawing-woman-1" d="M364.8,158.1c0,6.9-2.6,15.9-2.6,26.9c0,11.8,64.4,68.7,66.9,142.5"/>
<path class="drawing-woman-1" d="M325.3,143c0,79-155,249-155,396"/>
<path class="drawing-woman-1" d="M347.3,200c-14,0-29.9-9.7-29.9-19.9"/>
<path class="drawing-woman-1" d="M302.3,282c0,55,24.6,123.2,34,126c30,9,103-44,105-59c1.5-11.3-49-64-53-67"/>
<path class="drawing-woman-1" d="M427.2,308.9c4,3.1,19,20.1,20,28.1c-3,2-8.3,4.8-8.3,4.8"/>
<path class="drawing-woman-2" d="M365.5,404.5c1.8,5.5,31.1,70.3,50.8,73.5c43,7,216-87,248-95c11.1-2.8,26-7,30-9s16-12,14-26c-0.7-5-8-3-12-3
	c-3-2-5-6-9-6s-21,15-31,18s-198,45-209,52c-2-9-10-27-21.5-41"/>
<line class="drawing-woman-3" x1="697.8" y1="375.5" x2="705.2" y2="400.1"/>
<line class="drawing-woman-3" x1="681.6" y1="321.7" x2="686.1" y2="336.8"/>
<path class="drawing-woman-2" d="M438.6,354.6c3.6,4.4,27.3,30.8,35.5,46.1"/>
<path class="drawing-woman-2" d="M508.6,451.7c68.7,0,165.7,23.3,172.7,23.3s20-9,26-9s32,11,32,19c-8,5-270,4-276,2s-13.9-13.6-13.9-13.6"/>
<path class="drawing-woman-2" d="M397.8,462.9c0,6.1-37.6,109.1-48.6,109.1"/>
<polygon class="drawing-woman-2" points="435,1043.6 420.4,1066.3 500.5,1117.4 505.4,1109.8 454.3,1055.9 "/>
<rect x="440.6" y="1030.4" transform="matrix(0.5471 -0.8371 0.8371 0.5471 -668.2982 848.669)" class="drawing-woman-2" width="19" height="23.1"/>
<polyline class="drawing-woman-4" points="172.6,288 1.3,288 202.3,746 354.3,746 "/>
<line class="drawing-woman-4" x1="172.6" y1="288" x2="213.7" y2="381.6"/>
<line class="drawing-woman-4" x1="251" y1="746" x2="167.3" y2="1057"/>
<line class="drawing-woman-4" x1="396" y1="746" x2="312.3" y2="1057"/>
<line class="drawing-woman-4" x1="431.3" y1="746" x2="515" y2="1057"/>
<rect x="398.3" y="485" class="drawing-woman-5" width="530" height="21"/>
<line class="drawing-woman-4" x1="900.8" y1="1029.5" x2="900.8" y2="501.5"/>
<line class="drawing-woman-4" x1="485.3" y1="1030" x2="485.3" y2="502"/>
<line class="drawing-woman-4" x1="839.3" y1="961" x2="839.3" y2="502"/>
<circle class="drawing-woman-6" cx="920.8" cy="177.5" r="2"/>
<path class="drawing-woman-7" d="M1297.8,911.3c2-5.7,3.2-12.8,3.2-21.7c0-133.5-158-97.5-158-208.4"/>
<polygon class="drawing-woman-2" points="557.3,1043 557.3,1070 652.3,1070 652.3,1061 580.3,1043 "/>
<rect x="557.5" y="1023.5" class="drawing-woman-2" width="21.7" height="19"/>
<path class="drawing-woman-8" opacity=".1" d="M703,587.8c0,116.2-115.2,430.7-120.7,436.2c-6,1-22.5,1.5-25-1v-62"/>
<path class="drawing-woman-9" d="M703,587.8c0,116.2-115.2,430.7-120.7,436.2c-6,1-22.5,1.5-25-1v-62"/>
<path class="drawing-woman-9" d="M170.3,536c13,11,128,47,189,25c82-19,317-22,340,6c11.4,13.9-6,112-17,139c20,12,47.6,28.4,44,46
	c-15,73-221,268-259,292c-8-4-23-13-23-17s117-232,124-237c-34-3-310-44-367-101C177.8,665.5,170.3,624,170.3,536z"/>
<line class="drawing-woman-4" x1="427.3" y1="961" x2="427.3" y2="502"/>
<path class="drawing-woman-9" d="M1178.4,683.2c8.5,11.2-20.1,23.9-24.3,18.6C1149.9,696.5,1169.2,671.3,1178.4,683.2z"/>
<path class="drawing-woman-9" d="M1310.6,484.1c10.4,13.6-20.4,26-25.4,19.5S1299.5,469.6,1310.6,484.1z"/>
<path class="drawing-woman-9" d="M1302.2,540.3c8.3,15-32,27.1-36,19.9S1293.4,524.3,1302.2,540.3z"/>
<path class="drawing-woman-9" d="M1304.7,583c10.9,13.2-26.6,32.4-31.8,26.1C1267.7,602.8,1293.1,568.9,1304.7,583z"/>
<path class="drawing-woman-9" d="M1317.4,631c10.9,13.2-26.6,32.4-31.8,26.1C1280.5,650.8,1305.8,616.9,1317.4,631z"/>
<path class="drawing-woman-9" d="M1328.6,675.6c9.9,12-22.9,28.4-27.6,22.6S1318,662.8,1328.6,675.6z"/>
<path class="drawing-woman-9" d="M1343.6,724.6c9.9,12-22.9,28.4-27.6,22.6S1333.1,711.7,1343.6,724.6z"/>
<path class="drawing-woman-9" d="M1114,672.2c3.6-13.6,31.3,1.3,29.6,7.8C1141.9,686.4,1110.2,686.7,1114,672.2z"/>
<path class="drawing-woman-9" d="M1123.5,722.3c-1.8-13.9,29.5-10.5,30.3-3.8S1125.3,737.2,1123.5,722.3z"/>
<path class="drawing-woman-9" d="M1151.1,765.8c-9.1-10.7,18.9-25,23.3-19.9S1160.8,777.2,1151.1,765.8z"/>
<path class="drawing-woman-9" d="M1185.7,789.2c-5.5-12.9,25.5-18.1,28.1-11.9S1191.6,803.1,1185.7,789.2z"/>
<path class="drawing-woman-9" d="M1224.6,810.8c-5.5-12.9,25.5-18.1,28.1-11.9C1255.3,805.1,1230.4,824.7,1224.6,810.8z"/>
<path class="drawing-woman-9" d="M1259.4,846.3c-1.2-14,29.9-9.3,30.5-2.6S1260.7,861.3,1259.4,846.3z"/>
<path class="drawing-woman-9" d="M1193.4,713.2c11,8.8-13.8,28.1-19.1,23.9S1181.7,703.8,1193.4,713.2z"/>
<path class="drawing-woman-9" d="M1218.4,738.3c12.1,7.2-9.7,29.7-15.5,26.3C1197,761.2,1205.4,730.6,1218.4,738.3z"/>
<path class="drawing-woman-9" d="M1256.3,760.1c11.4,8.3-12.5,28.7-18,24.7S1244.2,751.2,1256.3,760.1z"/>
<path class="drawing-woman-7" d="M1294.8,911c13.9-22.9,30.8-57.5,30.8-96.6c0-107.8-60.2-161.8-60.2-238.8c0-14.6,1.3-60.4,24.5-79"/>
<path class="drawing-woman-10" d="M1343,1063.4h-88.4c-4.1,0-7.8-2.6-9.1-6.6l-44-133.3c-1.6-5,1.1-10.4,6.1-12.1c1-0.3,2-0.5,3-0.5h176.8
	c5.3,0,9.6,4.3,9.6,9.6c0,1-0.2,2-0.5,3l-44.4,133.3C1350.8,1060.8,1347.1,1063.4,1343,1063.4z"/>
<path class="drawing-woman-0" d="M1335.8,911.3c2.5,3.7,21.1,108.6-74.7,152.1c26.3-0.9,33.2,0.6,33.2,0.6h50l8-5l19-57l13.5-42l12.5-39l-3-7.1
	l-6-3.9L1335.8,911.3z"/>
<path class="drawing-woman-9" d="M1357.9,780.6c5.2,14.7-31.2,18.9-33.6,11.9C1321.7,785.5,1352.3,764.9,1357.9,780.6z"/>
<path class="drawing-woman-9" d="M1298.4,802.3c11.5-10.4,29.5,21.5,23.9,26.5C1316.8,833.8,1286.1,813.5,1298.4,802.3z"/>
<path class="drawing-woman-9" d="M1289.1,762.5c7.7-13.5,34.7,11.1,31.1,17.5C1316.5,786.5,1280.9,777,1289.1,762.5z"/>
<path class="drawing-woman-9" d="M1280.4,715.3c7.7-13.5,34.7,11.1,31.1,17.5S1272.2,729.8,1280.4,715.3z"/>
<path class="drawing-woman-9" d="M1264.9,677.7c5-14.8,36.2,4.3,33.8,11.4S1259.6,693.5,1264.9,677.7z"/>
<path class="drawing-woman-9" d="M1243,626c7.3-13.8,35,10.1,31.5,16.7S1235.2,640.7,1243,626z"/>
<path class="drawing-woman-9" d="M1232.6,568.4c8.5-13,34,13.3,29.9,19.5S1223.5,582.3,1232.6,568.4z"/>
<path class="drawing-woman-9" d="M1237.7,518.8c8.5-13,34,13.3,29.9,19.5C1263.5,544.6,1228.6,532.7,1237.7,518.8z"/>
<path class="drawing-woman-9" d="M1357.9,831.7c5.2,14.7-31.2,18.9-33.6,11.9C1321.7,836.5,1352.3,816,1357.9,831.7z"/>
<path class="drawing-woman-8" d="M1343,1063.4h-88.4c-4.1,0-7.8-2.6-9.1-6.6l-44-133.3c-1.6-5,1.1-10.4,6.1-12.1c1-0.3,2-0.5,3-0.5h176.8
	c5.3,0,9.6,4.3,9.6,9.6c0,1-0.2,2-0.5,3l-44.4,133.3C1350.8,1060.8,1347.1,1063.4,1343,1063.4z"/>
</svg>
