<?xml version="1.0" encoding="utf-8"?>
<!-- Generator: Adobe Illustrator 23.0.3, SVG Export Plug-In . SVG Version: 6.00 Build 0)  -->
<svg xmlns="http://www.w3.org/2000/svg" xmlns:xlink="http://www.w3.org/1999/xlink" x="0px" y="0px"
	 viewBox="0 0 807.7 887.5" style="enable-background:new 0 0 807.7 887.5;" xml:space="preserve">
<style type="text/css">
	.drawing-man-0{fill:#E7EAF3;}
	.drawing-man-1{fill:none;stroke:#1E2022;}
	.drawing-man-2{fill:#1E2022;}
	.drawing-man-3{fill:#377DFF;}
	.drawing-man-4{fill:#FFFFFF;stroke:#1E2022;}
	.drawing-man-5{fill:#FFFFFF;}
</style>
<g id="Shadows">
	<path class="drawing-man-0 fill-gray-gray-300" d="M157.9,286.4c0,9.3-18.2,153.9,74,208c-31.5,5.9-51.7,5.8-51.7,5.8l-9.3-1.1l-8.7-12.1l-42.9-60.4L114,419
		l-1.1-37.2v-11.6l6-13.2l15.5-42.1l9.2-2.2l5.6-8.7L157.9,286.4z"/>
	<path class="drawing-man-0 fill-gray-gray-300" d="M328.7,225.7c5.3,11.1,32.6,106.3,8.5,173.8c-5.8-4.6-16-14.5-16-14.5l-14.5-16l-0.1-6.3l-1.3-50.9l-4.2-35.5
		l-7.9-37.1l-6.4-15.5l-12.9-24l-4.5-5.7l14.1,2.8l23,11.5L328.7,225.7z"/>
</g>
<path class="drawing-man-1 fill-none stroke-dark" stroke-width="2.5" stroke-linejoin="round" d="M273,477.6l-12.1,5.4l-25.8,7l-28,6.7l-35.1,2.3l5.3,3.8c9.9,13.9,3,9.2,3,9.2s-4.9,23-6.9,31
	c0,0-24-18.8-51.5-43.8L1.3,530.7v177.7l158.8,88.2l264-70l3.3-180.5L273,477.6z"/>
<line class="drawing-man-1 fill-none stroke-dark" stroke-width="8" stroke-linecap="round" stroke-miterlimit="10" x1="481.7" y1="294.7" x2="513.5" y2="295.6"/>
<line class="drawing-man-1 fill-none stroke-dark" stroke-width="8" stroke-linecap="round" stroke-miterlimit="10" x1="403.8" y1="292.8" x2="431.6" y2="293.5"/>
<path class="drawing-man-2 fill-dark" d="M293.8,463c5-5.7,138.3,49.4,157.3,75.9S338,765.4,284.3,805.2c-6-4.1-20.5-14.5-20.5-14.5S309,652,350,605.2
	c-10.4-2.8-44.2-11.7-44.2-11.7l-37.1-116C274.6,475.1,287.2,470.5,293.8,463z"/>
<path class="drawing-man-2 fill-dark" d="M293.8,463c5-5.7,138.3,49.4,157.3,75.9S338,765.4,284.3,805.2c-6-4.1-20.5-14.5-20.5-14.5S309,652,350,605.2
	c-10.4-2.8-44.2-11.7-44.2-11.7l-37.1-116C274.6,475.1,287.2,470.5,293.8,463z"/>
<path class="drawing-man-1 fill-none stroke-dark" stroke-width="2.5" stroke-linecap="round" stroke-linejoin="round" d="M306.7,368.5c14.3,17.9,35.5,39.7,46.3,37.3c19.2-4.2,79-64,94.6-80.5c10.5,2.8,22.6-3.7,28.3-15.8
	c6.2-13.3,2.3-28.3-8.7-33.5c-11-5.2-25,1.4-31.3,14.7c-3,6.3-3.7,13.4-2,20.2c-15.2,7.3-59.7,28.5-68.6,32.6
	c-4.3-38.2-11.5-57.2-19.2-67.8"/>
<path class="drawing-man-1 fill-none stroke-dark" stroke-width="2.5" stroke-linecap="round" stroke-linejoin="round" d="M269.3,194.1c35.8,1.8,86.6,53.9,85.1,65.1c-1.3,10.2-25.8,43.6-49.2,52.6"/>
<path class="drawing-man-1 fill-none stroke-dark" stroke-width="2.5" stroke-linecap="round" stroke-linejoin="round" d="M171.3,499.5c47.8-1.8,111.1-20.8,122.4-36.5c11.7-16.8,40.2-265.1-59.4-292.8"/>
<path class="drawing-man-1 fill-none stroke-dark" stroke-width="2.5" stroke-linecap="round" stroke-linejoin="round" d="M112.9,370.2c-0.2,17.3,0.4,34,1.4,49.2"/>
<path class="drawing-man-1 fill-none stroke-dark" stroke-width="2.5" stroke-linecap="round" stroke-linejoin="round" d="M191.5,171.4c-16.5,5.4-29.8,16.5-40.5,31.5"/>
<path class="drawing-man-1 fill-none stroke-dark" stroke-width="2.5" stroke-linecap="round" stroke-linejoin="round" d="M69.4,293.6c-13.2,32.4-32.5,92-25.5,112.7c16.4,48,129.4,136.8,129.4,136.8c2-8,6.9-31,6.9-31
	S103,404.7,99,396.7c5.6-8.7,28.3-52.9,34.9-82.3"/>
<path class="drawing-man-1 fill-none stroke-dark" stroke-width="2.5" stroke-linecap="round" stroke-linejoin="round" d="M216.9,195.5c-11.9,0.6-25.5-1.9-25.5-7.1v-60.1"/>
<path class="drawing-man-1 fill-none stroke-dark" stroke-width="2.5" stroke-linecap="round" stroke-linejoin="round" d="M234.4,162.5v7.8"/>
<path class="drawing-man-1 fill-none stroke-dark" stroke-width="2.5" stroke-linecap="round" stroke-linejoin="round" d="M234.4,162.5c20.6-3.1,36.4-29.1,35.8-60.5c-0.1-5.5-0.7-10.9-1.8-16.2"/>
<path class="drawing-man-1 fill-none stroke-dark" stroke-width="2.5" stroke-linecap="round" stroke-linejoin="round" d="M189.2,105.5c-0.3,0-0.6,0-0.9,0c-6.5,0-11.7,5.2-11.7,11.7c0,6.5,5.2,11.7,11.7,11.7c0.8,0,1.7-0.1,2.5-0.3"/>
<path class="drawing-man-1 fill-none stroke-dark" stroke-width="2.5" stroke-miterlimit="10" d="M279.4,81.9c13-1.8,17.9-9.4,17.9-14.6c0-9-8-12.3-8-18c0-10,14-8.8,14-27c0-14.4-11-21-20-21
	c-16.2,0-25.3,13-40,13c-15.8,0-19.5-9-36-9c-31.9,0-28.7,32.9-35.3,43.3c-8.3,13-13.7,26.3-13.7,35.7c0,11.8,4.9,19.1,10.8,23.5"/>
<path class="drawing-man-1 fill-none stroke-dark" stroke-width="2.5" stroke-linecap="round" stroke-linejoin="round" d="M149.3,303.6c-2.6,5.3-5.1,8.8-7.3,9.6c-12.3,4.8-77.2-4.8-79.2-33.2s55.7-93.3,81.5-81.5c2.2,1,4.3,2.4,6.1,4"
	/>
<path class="drawing-man-1 fill-none stroke-dark" stroke-width="2.5" stroke-linecap="round" stroke-linejoin="round" d="M150.5,202.5c2.2,2,4.1,4.3,5.5,6.8"/>
<polygon class="drawing-man-1 fill-none stroke-dark" stroke-width="2.5" stroke-miterlimit="10" points="424.1,860.7 448.9,850.3 500.4,850.3 503.6,858.8 434.5,885.9 "/>
<polygon class="drawing-man-1 fill-none stroke-dark" stroke-width="2.5" stroke-miterlimit="10" points="264.1,790.2 285.7,806.3 311.9,850.6 306.3,857.7 247.7,812 "/>
<path class="drawing-man-3 fill-primary" d="M805,325.6c5,16.4-37,19.8-39.3,11.9C763.2,329.7,799.6,308,805,325.6z"/>
<path class="drawing-man-3 fill-primary" d="M798.4,367.8c7.8,15.2-32.8,26.1-36.5,18.8S790,351.5,798.4,367.8z"/>
<path class="drawing-man-3 fill-primary" d="M800.8,417.4c7.8,15.2-32.8,26.1-36.5,18.8S792.4,401.1,800.8,417.4z"/>
<path class="drawing-man-3 fill-primary" d="M802.3,463.4c7.1,13.8-28.3,23-31.7,16.3C767.2,473.1,794.7,448.6,802.3,463.4z"/>
<path class="drawing-man-3 fill-primary" d="M806.8,514.4c7.1,13.8-28.3,23-31.7,16.3C771.7,524.1,799.1,499.6,806.8,514.4z"/>
<path class="drawing-man-1 fill-none stroke-dark" stroke-width="9" stroke-linecap="round" stroke-miterlimit="10" d="M696.7,710.5c1.2-5.6,59.8-47.4,73.7-112.1c22.6-105.4-24.9-170.8-8.8-246.1c3-14.2,14-58.8,40.5-72"/>
<path class="drawing-man-3 fill-primary" d="M746.3,580.9c13.5-7.8,24.3,27.2,17.8,30.9S731.8,589.3,746.3,580.9z"/>
<path class="drawing-man-3 fill-primary" d="M745.5,540c10.3-11.7,31.7,18.1,26.7,23.7C767.3,569.2,734.5,552.5,745.5,540z"/>
<path class="drawing-man-3 fill-primary" d="M746.9,492c10.3-11.7,31.7,18.1,26.7,23.7C768.7,521.3,735.9,504.5,746.9,492z"/>
<path class="drawing-man-3 fill-primary" d="M739.6,452.1c8-13.4,34.5,11.8,30.7,18.3C766.5,476.7,731.1,466.4,739.6,452.1z"/>
<path class="drawing-man-3 fill-primary" d="M729,396.9c10-11.9,32.1,17.2,27.3,22.9C751.6,425.5,718.3,409.7,729,396.9z"/>
<path class="drawing-man-3 fill-primary" d="M731,338.4c11-11,30.4,20.1,25.1,25.4C750.8,369,719.1,350.1,731,338.4z"/>
<path class="drawing-man-3 fill-primary" d="M766.4,263.6c11-11,30.4,20.1,25.1,25.3S754.5,275.3,766.4,263.6z"/>
<path class="drawing-man-3 fill-primary" d="M695.5,535c-2.9-7.8-5-29.3-5-39.7c0-69.9-41.5-83-62.7-83c-41.3,0-64.6,38.2-64.6,69.5
	c0,27.7,11.8,52.4,26.2,73.2c7.8-9.5,21.8-10.9,31.3-3.1c9.5,7.8,10.9,21.8,3.1,31.3c-1.9,2.4-4.3,4.3-7,5.7
	c11.9,13.3,21.8,23.6,24.2,30.5c8.3,23.1,6.8,33.8,9.4,45.3c6.8,29,23.2,41.8,37.2,40.6c32.4-2.8,45.3-30.3,45.3-101.4
	C732.9,583.8,706.7,564.8,695.5,535z"/>
<path class="drawing-man-4 fill-white stroke-dark" stroke-width="2.5" stroke-miterlimit="10" d="M748.6,838.4h-88.4c-4.1,0-7.8-2.6-9.1-6.6l-43.9-133.3c-1.7-5,1.1-10.4,6.1-12.1c1-0.3,2-0.5,3-0.5H793
	c5.3,0,9.6,4.3,9.6,9.6c0,1-0.2,2-0.5,3l-44.4,133.3C756.4,835.8,752.7,838.4,748.6,838.4z"/>
<path class="drawing-man-2 fill-dark" d="M268.7,477.5c-23,11.8-65.6,19.1-97.8,21.6l9.3,12.9c0,0-4.9,23-6.9,31c0,0-15.2-11.9-35.3-29.4
	c26.5,71.9,140.4,161.9,147.8,166.3c4.3,12.6,138.8,181.8,138.8,181.8l26.4-11L268.7,477.5z"/>
<path class="drawing-man-5 fill-white" opacity=".02" d="M268.7,477.5c-23,11.8-65.6,19.1-97.8,21.6l9.3,12.9c0,0-4.9,23-6.9,31c0,0-15.2-11.9-35.3-29.4
	c26.5,71.9,140.4,161.9,147.8,166.3c4.3,12.6,138.8,181.8,138.8,181.8l26.4-11L268.7,477.5z"/>
<polygon class="drawing-man-0 fill-gray-gray-300" opacity=".5" points="617.9,457.9 427.4,502.2 427.4,70.3 617.9,20.3 "/>
<path class="drawing-man-1 fill-none stroke-dark" stroke-width="2.5" stroke-linecap="round" stroke-linejoin="round" d="M252.3,96.3c-1.4,6.1,0.4,14.8,4.8,19.1"/>
<path class="drawing-man-1 fill-none stroke-dark" stroke-width="2.5" stroke-linecap="round" stroke-linejoin="round" d="M230.8,117.1c-0.6,4.5,2.8,8.4,7.2,9.5"/>
<ellipse class="drawing-man-2 fill-dark" cx="238" cy="100.7" rx="2.2" ry="3.3"/>
</svg>
