<?xml version="1.0" encoding="utf-8"?>
<!-- Generator: Adobe Illustrator 23.0.3, SVG Export Plug-In . SVG Version: 6.00 Build 0)  -->
<svg xmlns="http://www.w3.org/2000/svg" xmlns:xlink="http://www.w3.org/1999/xlink" x="0px" y="0px"
	 viewBox="0 0 501.8 402.8" style="enable-background:new 0 0 501.8 402.8;" xml:space="preserve">
<style type="text/css">
	.folder-woman-0{fill:#F8FAFD;}
	.folder-woman-1{fill:#E7EAF3;}
	.folder-woman-2{fill:#377DFF;}
	.folder-woman-3{fill:none;stroke:#BDC5D1;}
	.folder-woman-4{fill:none;stroke:#1e2022;}
	.folder-woman-5{fill:#BDC5D1;}
	.folder-woman-6{fill:#1E2022;}
</style>
<path class="folder-woman-0 fill-gray-200" d="M257.2,176.2c-11.8,0-19.2-4.9-19.2-11.2c0-6.3,7.1-7.4,15.1-7.4c4.8-0.1,8.9,2,13.1,5.8V0H0v318.1h266.1V197.7
	C261.2,187.4,257.8,178.8,257.2,176.2z"/>
<path class="folder-woman-1 fill-gray-300" d="M362.7,153.8c0.9,0,11.8-1,17.5-5.5c-9.2,7-17.5,13.8-17.5,21.3L362.7,153.8z"/>
<path class="folder-woman-1 fill-gray-300" d="M371.3,214c-3.5,5.1-18.6,80.1-5.1,97.1c-8.4,1.3-18.8-1.9-18.8-1.9l-2.2-2.2l-4.6-14.7l-3.3-16.9l-1.4-8
	l-1.2-14.3l-0.6-15.1l13-5.6l2.7,2l2.8,0.5l2.3-1l5.4-5.1L371.3,214z"/>
<path class="folder-woman-2 fill-primary" opacity=".1" d="M142.5,198.2l74.4-43.9l-5.4-20.6h-64.3V132c0,0,0-0.1,0-0.1v-4.5c0-1-0.8-1.7-1.7-1.7h0h-16.5
	c-1,0-1.7,0.8-1.7,1.7v0v6.2l10.6,64.5H142.5z"/>
<polyline class="folder-woman-3 fill-none stroke-gray-400" stroke-width="3" stroke-miterlimit="10" stroke-dasharray="9.1338" points="0,138.3 86.4,138.3 86.4,202.4 0,202.4 "/>
<path class="folder-woman-2 fill-primary" d="M346.4,308.7c-7.8,0-73.4,83-73.4,94.1h71.6c0,0,28.4-21.3,32.6-28.8C381.4,366.4,346.4,308.7,346.4,308.7z"/>
<path class="folder-woman-4 fill-none stroke-dark" stroke-width="1.25" stroke-miterlimit="10" d="M341.2,191.2c4.4-11,11.3-19.5,21.4-23.8"/>
<path class="folder-woman-4 fill-none stroke-dark" stroke-width="1.25" stroke-miterlimit="10" d="M386.3,167.1c31.3,17.4,41,118.7,36.6,125.2c-4.8,7.2-69.5,21.8-76.5,16.4c-3.4-2.7-12-36.5-12.3-70.7"/>
<path class="folder-woman-4 fill-none stroke-dark" stroke-width="1.25" stroke-linecap="round" stroke-linejoin="round" d="M379,199c-4.4,13.4-22.1,36-27,35.9c-6.2-0.2-27.8-26.7-25.7-34.3c1-3.8,11.9-9.1,23.7-12.1"/>
<path class="folder-woman-4 fill-none stroke-dark" stroke-width="1.25" stroke-miterlimit="10" d="M383.6,137.3c0.1,5.5,0.8,26.7,3.9,33.6c0,2.3-24.8,3.7-24.8-0.6v-16.6"/>
<path class="folder-woman-4 fill-none stroke-dark" stroke-width="1.25" stroke-linecap="round" stroke-linejoin="round" d="M367.2,153.2c-1.3,0.4-2.6,0.6-3.9,0.6c-11.2,0-20.3-13.7-20.3-30.7c-0.1-6.2,1.2-12.3,3.8-17.9"/>
<path class="folder-woman-4 fill-none stroke-dark" stroke-width="1.25" stroke-linecap="round" stroke-linejoin="round" d="M352.4,110.8c-2.2-1.5-4.1-3.4-5.6-5.6c-0.9,1.4-3.1,8.4-3.7,14.2c-1.5-1.5-3.9-4-3.9-12.2
	c0-14.7,14.7-23.3,27.4-23.3c20.3,0,32,20.8,32,29.9c0,11.8-7.3,21.5-15,23.5"/>
<path class="folder-woman-4 fill-none stroke-dark" stroke-width="1.25" stroke-linecap="round" stroke-linejoin="round" d="M379.7,122.4c-1.4-1-4.6-2.2-8-3.5"/>
<path class="folder-woman-4 fill-none stroke-dark" stroke-width="1.25" stroke-linecap="round" stroke-linejoin="round" d="M374.8,124.8c1.8-2.4,5.2-3,7.6-1.2c2.4,1.8,3,5.2,1.2,7.6c-1,1.4-2.7,2.2-4.4,2.2"/>
<path class="folder-woman-4 fill-none stroke-dark" stroke-width="1.25" stroke-miterlimit="10" d="M385.7,90.9c1.7-12.8,9.3-32.1,25.6-32.1c3.3,0,29.3,8.7,36.1,8.7s20.4-1.6,24.7-1.6c8.6,0,29,9.9,29,27.2
	c0,12.1-9.3,18.7-19.8,24.1c-4.1,2.1-7.7,10.9-22.3,10.9c-23.5,0-37.1-33-58.2-33c-1.8,0-6.7,0.6-9.1,2.1"/>
<rect class="folder-woman-5 fill-gray-400" width="266.1" height="26.3"/>
<path class="folder-woman-4 fill-none stroke-dark" stroke-width="1.25" stroke-linecap="round" stroke-linejoin="round" d="M345.3,102.7c0.2,0.4,2.2,3.4,2.8,4.1"/>
<path class="folder-woman-2 fill-primary" d="M423,292.3c-4.8,7.2-69.5,21.8-76.5,16.4c2.9,29.2,35.5,94.1,35.5,94.1h59C441,402.8,423.9,298.4,423,292.3z"/>
<path class="folder-woman-6 fill-dark" opacity=".1" d="M423,292.3c-4.8,7.2-69.5,21.8-76.5,16.4c2.9,29.2,35.5,94.1,35.5,94.1h59C441,402.8,423.9,298.4,423,292.3z"/>
<path class="folder-woman-2 fill-primary" d="M221.7,202.3h-78c-3.4,0-6.2-2.8-6.2-6.2v-51.6c0-3.4,2.8-6.2,6.2-6.2h78c3.4,0,6.2,2.8,6.2,6.2v51.6
	C227.9,199.5,225.1,202.3,221.7,202.3z"/>
<path class="folder-woman-4 fill-none stroke-dark" stroke-width="1.25" stroke-linecap="round" stroke-linejoin="round" d="M326.8,204.8c-6.1,2.2-11.9,4.9-17.5,8.1c-31.6-28.8-39.4-55.8-56.2-55.3c-8,0-15.1,1.1-15.1,7.4
	s7.4,11.2,19.2,11.2c2,8,28.4,69.5,47.3,69.5c9.5,0,31.5-7.7,42.9-13.2"/>
</svg>
