<?xml version="1.0" encoding="utf-8"?>
<!-- Generator: Adobe Illustrator 23.0.3, SVG Export Plug-In . SVG Version: 6.00 Build 0)  -->
<svg xmlns="http://www.w3.org/2000/svg" xmlns:xlink="http://www.w3.org/1999/xlink" x="0px" y="0px"
	 viewBox="0 0 1141.8 613.6" style="enable-background:new 0 0 1141.8 613.6;" xml:space="preserve">
<style type="text/css">
	.person-with-boards-0{opacity:0.5;}
	.person-with-boards-1{fill:#89C5CC;}
	.person-with-boards-2{fill:#69A1AC;}
	.person-with-boards-3{opacity:0.5;fill:#C1DEE2;enable-background:new    ;}
	.person-with-boards-4{fill:#C1DEE2;}
	.person-with-boards-5{fill:#B28B67;}
	.person-with-boards-6{fill:#191847;}
	.person-with-boards-7{fill:#997659;}
	.person-with-boards-8{fill:#E4E4E4;}
	.person-with-boards-9{fill:#EFA02E;}
	.person-with-boards-10{fill:#DDE3E9;}
	.person-with-boards-11{opacity:0.2;enable-background:new    ;}
	.person-with-boards-12{opacity:0.2;fill:#FFFFFF;enable-background:new    ;}
</style>
<g id="Cells" transform="translate(100.086 99.66)" class="person-with-boards-0">
	<path id="Fill_5" class="person-with-boards-1" d="M1.7,2.6c-1.6,1.6-1,7.2-1,9.2c-0.1,3.2,0.1,6.4,0.4,9.6c0.2,2.1,1.2,22.6,4,21
		c1.6-0.9,0.6-6.8,0.6-8.7c0-4.2-0.2-8.3-0.5-12.5C5,17.5,4.9,13.6,5,9.8C5,8.8,5.9-1.7,1.7,2.6"/>
	<path id="Fill_7" class="person-with-boards-1" d="M70.2,0.1c-13.5,0.1-27,0.8-40.5,1.2c-6.5,0.2-13,0.4-19.5,0.8C8,2.2,3.2,1.5,1.4,2.6
		c-4.1,2.6,2.5,3.2,4.3,3.2c26.7-1,53.5-2.2,80.2-2.3c13.1,0,26.2,0.3,39.4,0.3c5,0,10.6-2.2,11.8,3.6c1.4,6.6-0.2,13.9-0.7,20.5
		c-0.2,4.4-0.2,8.8,0,13.2c0.1,2.8-0.2,6,0.3,8.8c0.5,2.7,2.4,4.3,4.2,1.3c1.1-1.8,0.5-6.2,0.6-8.3c0.1-2.8,0-5.6,0-8.4
		c0-6.8,1-13.6,0.8-20.4c-0.1-4.4-0.3-12.4-5.9-13.4c-6.1-1.2-13.6,0-19.9-0.1C101.1,0.4,85.7-0.1,70.2,0.1"/>
	<path id="Fill_9" class="person-with-boards-1" d="M33,42.7c-5.1,0-10.2,0-15.3,0.1C13.3,42.9,6.4,42,2.4,43.5c-2.8,1.1-3.5,4.2,0,5
		C6.2,49.4,12,48,16,47.9c20.2-0.4,40.5-0.8,60.7,0.5c18.9,1.2,38.1,2.4,57,1.1c1.6-0.1,9.7-0.4,6-3.5c-2.2-1.8-10.9-0.6-13.7-0.7
		c-9.9-0.3-19.8-0.4-29.7-0.7c-9.8-0.4-19.5-1.5-29.2-1.7C55.7,42.5,44.3,42.7,33,42.7"/>
	<path id="face" class="person-with-boards-1" d="M28.8,36.8L28.8,36.8c-6.9,0-14.4-3.3-15.7-10.7c-0.1-0.4-0.1-0.9,0-1.3c0-0.5,0-0.9-0.1-1.4
		c-0.1-0.3-0.2-0.6-0.4-0.8c-0.3-0.3-0.4-0.7-0.5-1.1c0-2,1.2-3.1,2.5-4.4c0.5-0.5,1-1,1.5-1.5c2.7-3.1,4.4-4.7,8-6.1
		c1.1-0.4,2.3-0.6,3.4-0.6c3.7,0.2,7.2,1.5,10,3.9c3.1,2.4,5.3,5.5,6,8.4c0.7,3.1,0.1,6.4-1.7,9.1c-2,3.1-5.1,5.2-8.7,6
		C31.7,36.7,30.2,36.8,28.8,36.8z M18,20.9L18,20.9c-1,2.5-0.8,5.3,0.8,7.5c2,2.9,6,4.7,10.1,4.7c2.4,0,4.7-0.6,6.7-2
		c2.8-1.8,4.1-5.3,3-8.5c-1.4-4.7-6.2-8.7-10.8-8.9c-0.3,0.3-0.6,0.4-1,0.5c-0.1,0-0.3,0-0.4-0.1h0c-0.1-0.1-0.3-0.1-0.4-0.1
		c-0.1,0-0.2,0-0.3,0c-1.2,0.5-2.4,1.2-3.4,2l-0.2,0.2l-0.3,0.2c-1.1,0.7-2,1.6-2.9,2.5c0,0-0.1,0.2-0.2,0.5
		C18.4,20,18,20.9,18,20.9C18,20.9,18,20.9,18,20.9L18,20.9z"/>
	<path id="Fill_13" class="person-with-boards-1" d="M20.7,22c0,3.2,5.1,3.2,5.1,0C25.8,18.9,20.7,18.7,20.7,22"/>
	<path id="Fill_15" class="person-with-boards-1" d="M27.1,21.4c0,2.6,4,2.6,4,0C31.1,18.9,27.1,18.8,27.1,21.4"/>
	<path id="Fill_17" class="person-with-boards-1" d="M28.3,26.7c-1.3,0.5-2.9-0.5-4,0.1c-1.9,1.2,0,2.3,1,2.8C29.9,31.8,30.7,25.8,28.3,26.7"/>
	<path id="Fill_19" class="person-with-boards-1" d="M52.8,25.8c-0.2,0-0.4,0-0.6-0.1c-1.1-0.3-1.6-0.9-1.4-1.8c0.2-1.2,1.6-3,3.7-4.7
		c2.1-1.6,4.2-2.6,5.6-2.6c0.1,0,0.2,0,0.3,0c1.3,0.3,2.6,0.9,3.7,1.7c1.1,0.9,2.4,1.5,3.8,1.7c0.2,0,0.5,0,0.7,0
		c1.9-0.2,3.8-0.8,5.4-1.9c1.2-0.7,2.5-1.3,3.9-1.7c0.6-0.1,1.3-0.2,2-0.2c2.5,0,4.7,1.1,6.7,2.1l0,0c2.1,1,4.2,2.1,6.6,2.1
		c1,0,2-0.2,3-0.5c0.3-0.1,0.7-0.3,1.1-0.5l0,0c0.4-0.2,0.8-0.4,1.2-0.6c1.4-0.8,2.9-1.3,4.4-1.6c0.1,0,0.3,0,0.4,0
		c2.1,0,4,1.2,5.7,2.3c0.7,0.4,1.4,0.9,2.1,1.3c0.3,0.2,0.7,0.3,1.1,0.3c0.8,0.2,1.6,0.4,1.8,1.4c0.1,0.4,0,0.8-0.2,1.1
		c-0.3,0.3-0.7,0.4-1.1,0.4c-0.3,0-0.7,0-1-0.1c-0.1,0-0.3,0-0.4,0c-1.4-0.3-2.8-0.9-3.9-1.8c-1.1-0.9-2.4-1.5-3.8-1.7
		c-0.1,0-0.3,0-0.4,0c-1.8,0.2-3.5,0.8-5,1.7c-1.2,0.7-2.5,1.2-3.8,1.5c-0.6,0.1-1.2,0.2-1.8,0.2c-2.2-0.1-4.4-0.7-6.3-1.9l-0.7-0.3
		c-2-1.1-3.6-1.9-5.6-1.9c-1.1,0-2.1,0.2-3.1,0.7c-0.9,0.4-1.7,0.8-2.5,1.2c-2.1,1-4,1.9-6.3,1.9c-0.5,0-1,0-1.5-0.1
		c-1.1-0.3-2.1-0.7-3.1-1.3c-1.1-0.7-2.4-1.2-3.7-1.4c-0.1,0-0.2,0-0.3,0c-1.2,0.1-2.2,1.3-3.1,2.5C55.3,24.5,54.2,25.8,52.8,25.8z"
		/>
	<path id="Fill_21" class="person-with-boards-2" d="M83.9,63c-13.9,0.1-27.8,0.3-41.7,1.4c-3.3,0.3-36.8,3.4-36.7,3.7c0.1,0.4,4.4,1.1,4.4,1.2
		c-0.3-0.7-1-1-2-0.9c31.8,0,63.5-2.8,95.3-2.3c8,0.1,16,0.1,24,0.3c2,0.1,6.9,1.5,8.5,0.6c4.1-2.4-3.4-2.6-4.6-2.7
		C115.5,63,99.6,62.9,83.9,63"/>
	<path id="Fill_23" class="person-with-boards-2" d="M1.4,69.8c-2.1,2.1-0.2,9.6-0.1,12.4c0.1,4.1,0,8.2,0.4,12.2c0.3,4.7,1.1,9.5,2.3,14.1
		c0.7,2.5,3,6.4,4,1.9c0.7-3.2-0.3-7.5-0.7-10.8c-0.4-4.4-0.6-8.7-0.6-13.1c0-3.8-0.1-7.7-0.4-11.5C6,73,5,66.1,1.4,69.8"/>
	<path id="Fill_25" class="person-with-boards-2" d="M53.6,107.9c-9.9,0.2-19.7,0.4-29.6,1c-4,0.3-8.1,0.6-12.1,1.1c-0.8,0.1-9.9,0.5-5.8,3.8
		c1.8,1.5,9.4-0.6,11.8-0.8c4.2-0.4,8.4-0.6,12.6-0.8c9.7-0.4,19.5-0.8,29.2-0.6c17.8,0.3,35.4,0.4,53.2,0.1
		c2.5-0.1,22.3,0.5,23-2.2c0.5-2.1-6.5-1.1-7.8-1.1c-4.7,0.1-9.5,0.1-14.2,0.1C93.8,108.4,73.6,107.6,53.6,107.9"/>
	<path id="Fill_27" class="person-with-boards-2" d="M132.5,66.2c0.3,8.8,1.8,17.5,2.3,26.3c0.2,4,0.5,8,0.7,12.1c0.1,1.3-0.5,4.4,1.1,5.2
		c2.1,1,2.4-1,2.8-2.4c1.1-4,0.4-9.3,0.3-13.4c-0.1-4-0.1-8-0.4-12c-0.3-4.1-1.1-8.1-1.5-12.2c-0.2-1.7,0.4-4.6-1.4-5.7
		c-1.2-0.7-2.7-0.3-3.4,0.9C132.6,65.4,132.5,65.8,132.5,66.2"/>
	<path id="face-2" class="person-with-boards-2" d="M31.1,103.2H31c-2.6,0-7.7-0.4-11.8-2.4c-4.1-2-6.2-5.2-6.3-9.3c0.1-4.1,1.6-8.1,4.2-11.3
		c1.3-1.6,2.9-3,4.6-4.1c1.7-1,3.7-1.7,5.7-1.8c0.2,0,0.5,0,0.7,0c1.9,0,3.9,0.4,5.7,1.1c1.9,0.7,3.6,1.7,5.2,3
		c1.6,1.2,3,2.7,4.1,4.4c1.1,1.6,1.9,3.4,2.4,5.2c0.9,3.4,0.2,7-2,9.8c-1.5,1.8-3.3,3.2-5.4,4C35.9,102.7,33.6,103.2,31.1,103.2
		L31.1,103.2L31.1,103.2z M27.3,78.2c-3,0.1-5.9,1.6-7.8,3.9c-2,2.3-3.1,5.3-3.2,8.3c-0.2,2,0.6,4.1,2,5.5c1.6,1.5,3.6,2.5,5.8,3
		c2.2,0.5,4.5,0.8,6.8,0.7h0.5c3.9,0,7.5-1.6,9.4-4.1c1.5-2,1.9-4.5,1.1-6.9c-0.5-1.6-1.2-3-2.3-4.3c-1-1.3-2.2-2.4-3.5-3.4
		c-1.7-1.3-3.8-2-5.9-2.2C29.1,78.7,28.2,78.5,27.3,78.2z"/>
	<path id="Fill_31" class="person-with-boards-2" d="M19.3,86.7c0,2.6,4.1,2.6,4.1,0C23.4,84.2,19.3,84.1,19.3,86.7"/>
	<path id="Fill_33" class="person-with-boards-2" d="M27.9,85.6c0,2.6,4.1,2.6,4.1,0C32,83,27.9,82.9,27.9,85.6"/>
	<path id="Fill_35" class="person-with-boards-2" d="M23.2,91.5c-2.7,2.7,6.7,7.3,8.9,3.6c1.8-3-2.1-2-3.5-2.2C27,92.7,24.4,90.3,23.2,91.5"/>
	<path id="Fill_37" class="person-with-boards-2" d="M53.2,90.5L53.2,90.5c-0.5,0-1.1-0.2-1.5-0.5c-0.4-0.6-0.6-1.3-0.6-2c0.1-3.2,8.9-6.2,11.7-6.7
		c0.5-0.1,1-0.1,1.4-0.1c2.1,0.1,4.1,0.8,5.9,1.9l0,0c1.8,1.1,3.9,1.7,6,1.9c0.6,0,1.2-0.1,1.8-0.2c1.1-0.3,2.2-0.6,3.2-1.1
		c1.4-0.6,2.9-1.1,4.5-1.3c0.3,0,0.5,0,0.7,0c1.6,0,3.2,0.6,4.5,1.6c0.8,0.5,1.6,1,2.5,1.4c0.6,0.2,1.2,0.4,1.8,0.4
		c0.4,0,0.9,0,1.3-0.1h0c0.5-0.1,0.9-0.1,1.4-0.1c0.1,0,0.3,0,0.4,0c1.3,0.1,2.2,0.5,2.3,1.2c0.2,0.8-0.6,1.6-1.9,2.3
		c-0.9,0.5-1.8,0.7-2.8,0.7c-1.6-0.1-3.1-0.7-4.4-1.6c-1.3-0.9-2.8-1.5-4.4-1.8c-0.2,0-0.5,0-0.7,0c-2,0.1-3.9,0.7-5.7,1.6l-0.1,0
		c-1.9,0.9-3.9,1.5-5.9,1.6c-0.1,0-0.2,0-0.3,0c-1.9-0.2-3.7-0.7-5.4-1.6c-1.5-0.8-3.1-1.3-4.8-1.4c-0.9,0-1.9,0.2-2.8,0.6
		c-0.3,0.1-0.9,0.4-1.5,0.8C58,88.9,55.1,90.5,53.2,90.5z"/>
	<path id="point" class="person-with-boards-2" d="M118.2,92.4L118.2,92.4c-1.6-0.1-3-0.8-4.1-1.9c-1.2-1.2-2-2.6-2.4-4.2c-0.7-2.5,0.6-5.1,3-6.1
		c0.4-0.2,0.8-0.3,1.3-0.2c2.1,0.2,4.2,1.1,5.8,2.5c1.1,1.1,1.8,2.6,1.7,4.2c0,1.8-0.8,3.4-2.1,4.6C120.5,92,119.4,92.4,118.2,92.4z
		 M116.3,83.9c-0.6,0.8-0.7,1.9-0.2,2.7c0.4,1,1.2,1.7,1.9,1.7c0.1,0,0.2,0,0.3,0c0.8-0.2,1.2-0.5,1.3-0.9
		C119.6,86.2,116.8,84.2,116.3,83.9L116.3,83.9z"/>
	<path id="Fill_41" class="person-with-boards-1" d="M42.3,129.8c-9.6,0-19.3-0.2-28.9,0.4c-1.6,0.1-7.8-0.2-8.6,1.5c-1.5,3.1,4.8,1.6,5.7,1.5
		c19.1-1.9,39.1-0.8,58.3-0.3c15.7,0.4,31.3,0.7,47,1.5c4.1,0.2,8.2,0.4,12.4,0.7c1.3,0.1,4.7,1,5-1.2c0.3-2-4-1.5-5-1.6
		c-8.4-0.4-16.7-0.9-25.1-1.4C82.9,129.8,62.5,129.8,42.3,129.8"/>
	<path id="Fill_43" class="person-with-boards-1" d="M4.4,133.3c-1.8,1.8-1,8.6-1,10.9C3.3,148.1,3.1,152,3,156c-0.1,4.1,0,8.3,0.3,12.4
		c0.1,1.7,1.5,10.1,3.8,5.3c1-2.1,0-8.1,0-10.5c0-4.4,0.3-8.8,0.5-13.2c0.2-3.8,0.2-7.6,0.4-11.3C8,137.4,8.1,129.5,4.4,133.3"/>
	<path id="Fill_45" class="person-with-boards-1" d="M134.8,168.5c-9.4,1-18.9,0.5-28.3,1.2c-8.1,0.6-16.2,0.9-24.3,1c-18.4,0.4-36.8,0.8-55.2,2.3
		c-4.2,0.3-8.4,0.7-12.5,0.9c-2.1,0.1-10.9-0.9-11.5,1.3c-1.1,3.8,8.3,2.3,10.3,2.2c4.5-0.1,8.9-0.5,13.4-0.8
		c18.7-1.4,37.5-1.9,56.2-2.4c10.2-0.3,20.3-1.1,30.5-1.7c5.1-0.3,10.2-0.3,15.2-0.7c1.3-0.1,6,0.1,7-1
		C136.1,170.1,136.3,168.4,134.8,168.5"/>
	<path id="Fill_47" class="person-with-boards-1" d="M131.6,133.9c0.3,9,0.8,18,1.1,26.9c0.1,2.7-0.7,7.5,0.8,9.9c2.4,3.8,4.3-0.2,4.7-2.6
		c1.4-7.5-0.1-15.9-0.5-23.4c-0.1-2.9,0.7-9.3-0.6-11.9C135.8,130.3,131.5,130.6,131.6,133.9"/>
	<path id="hola_:_" class="person-with-boards-1" d="M115.9,159.3c-0.8,0-1.7-0.2-2.4-0.4c-1-0.4-2-1-2.7-1.8c-0.7-0.8-1.3-1.8-1.6-2.8
		c-0.4-1.5-0.2-3.1,0.6-4.4c0.4-0.8,0.7-1.7,0.8-2.6c0-0.3,0-0.6-0.1-0.9c-0.2-0.7-0.2-1.4,0.1-2.1c0.3-0.4,1.1-0.6,2.4-0.6
		c0.5,0,0.9,0,1.3,0c0.2,0,0.4,0,0.6,0c0.4-0.1,0.8-0.1,1.2-0.1c1.7,0,3.4,1,4.2,2.5c1,1.6,1.5,3.5,1.5,5.4c0.1,2.3-0.7,4.6-2.2,6.4
		C118.6,158.8,117.3,159.3,115.9,159.3z M115.9,146.7L115.9,146.7c-2.2,1-4,5-3.4,7.4c0.2,1.3,1.4,2.1,2.7,2c0.3,0,0.5,0,0.8-0.1
		c1.9-0.3,2.7-2.2,2.8-3.9c0.1-1.2-0.1-2.4-0.6-3.4C117.7,147.8,116.9,147,115.9,146.7z"/>
	<path id="Fill_51" class="person-with-boards-1" d="M25.7,163.5L25.7,163.5c-4.7,0-9.1-2.4-11.7-6.4c-2.2-3.6-2.3-8.1-0.3-11.8
		c-0.2,0.2-0.5,0.3-0.8,0.4c-0.7,0-1.1-1-1.2-1.6c-0.2-0.9,1.2-2.5,2.2-3.6c0.2-0.2,0.4-0.5,0.5-0.6c2.1-2.5,4.5-4.9,8.2-5
		c0.1,0,0.3,0,0.4,0c3.2,0.1,6.2,1.2,8.6,3.3c2.5,2.1,4.4,4.7,5.6,7.8c1,2.4,1.3,5,0.9,7.6c-0.4,2.6-1.7,5-3.8,6.7
		C31.9,162.4,28.9,163.5,25.7,163.5z M22.3,141.5c-0.3,0-0.6,0-0.9,0.1c-1.4,0.5-2.7,1.5-3.5,2.8c-0.9,1.2-1.6,2.6-2,4.1
		c-0.8,2.5-0.5,5.1,0.7,7.4c1.3,2.1,3.5,3.7,5.9,4.2c1,0.3,2,0.4,3.1,0.4c1.9,0,3.8-0.5,5.4-1.5c1.6-1.1,2.8-2.8,3.3-4.7
		c0.9-3,0.4-6.3-1.4-8.9c-1.8-2.6-4.3-4.6-7.2-5.8c0,0.1,0,0.2,0,0.3v0c0,0,0,0.1,0,0.1v0c0,0,0,0.1,0,0.1v0l0.1,0.5
		c-0.2,0.9-1.2,1-2.1,1c-0.2,0-0.5,0-0.8,0H23C22.8,141.5,22.6,141.5,22.3,141.5z M22.5,138.3c-1.5,0-2.9,0.6-4.1,1.5
		C19.6,139,21.1,138.4,22.5,138.3L22.5,138.3z"/>
	<path id="Fill_53" class="person-with-boards-1" d="M19.3,146.9c0,0.7,0.6,1.3,1.4,1.3c0.7,0,1.3-0.6,1.3-1.3c0-0.7-0.6-1.3-1.4-1.3
		C19.9,145.7,19.3,146.2,19.3,146.9"/>
	<path id="Fill_55" class="person-with-boards-1" d="M23.8,147.2c0,0.8,0.7,1.3,1.4,1.3c0.7,0,1.3-0.6,1.3-1.3c0-0.8-0.7-1.3-1.4-1.3
		C24.4,146,23.9,146.5,23.8,147.2"/>
	<path id="Fill_57" class="person-with-boards-1" d="M25.9,153.4c-1.3,0.1-5.9-0.3-6.7,0.8c-1.4,1.9,0.8,1.9,1.9,2.1c1,0.2,5.2,0.1,5.8-0.8
		C27.3,154.8,27.2,153.3,25.9,153.4"/>
	<path id="Fill_59" class="person-with-boards-1" d="M40.9,156.6L40.9,156.6c-0.7,0-1.2-0.5-1.6-1.4c-0.8-2,2.2-4.6,3.2-5.4c1.2-1.1,2.7-1.8,4.4-1.8
		c0.9,0,1.8,0.2,2.6,0.5c0.7,0.2,1.4,0.5,2,0.8c1,0.5,2.2,0.8,3.3,0.9c0.5,0,1.1-0.1,1.6-0.2c1.1-0.3,2.2-0.7,3.3-1.1
		c1.5-0.7,3.1-1.2,4.8-1.4c0.2,0,0.4,0,0.6,0c1.8,0.1,3.6,0.5,5.3,1.3c1.2,0.5,2.3,0.8,3.5,1.1c0.8,0.2,1.6,0.2,2.4,0.2
		c1.9,0,3.8-0.5,5.5-1.2c1.7-0.7,3.4-1.1,5.2-1.2c1.2,0,2.4,0.2,3.6,0.6c0.2,0.1,0.5,0.1,0.9,0.3c2.1,0.6,6.4,1.8,6.6,2.5
		c0.2,0.4,0.1,1-0.1,1.4c-0.3,0.4-0.8,0.5-1.3,0.5c-1.3-0.1-2.5-0.4-3.7-0.8h0l-0.2-0.1c-0.5-0.2-1-0.3-1.4-0.5
		c-1.6-0.7-3.3-1.1-5-1.2c-0.8,0-1.6,0.1-2.3,0.3c-0.9,0.3-1.7,0.5-2.5,0.8c-2,0.8-4.2,1.2-6.4,1.3c-0.6,0-1.2,0-1.8-0.1
		c-1.2-0.2-2.3-0.5-3.4-0.9c-1.5-0.6-3-0.9-4.5-1h-0.1c-1.9,0.1-3.8,0.7-5.4,1.5c-1.2,0.6-2.5,1-3.7,1.3c-0.4,0.1-0.8,0.1-1.3,0.1
		c-1.2-0.1-2.5-0.3-3.6-0.8l-0.1,0c-1.1-0.4-2.2-0.7-3.3-0.7c-0.3,0-0.5,0-0.8,0.1c-1,0.4-1.8,1.1-2.5,1.9
		C43.4,155.2,42.1,156.6,40.9,156.6z"/>
</g>
<g id="Big_Cards" transform="translate(491.163 0)" class="person-with-boards-0">
	<path id="Fill_67" class="person-with-boards-2" d="M5.2,101.4L5.2,101.4c-0.7,0-1.4,0-2.1-0.1c-1.4-0.2-2.3-0.5-2.6-1c-0.3-0.5-0.1-1.3,0.2-2.2
		c0.2-0.5,0.4-1.1,0.5-1.7C1.7,94,1.3,91,0.9,88c-0.2-1.6-0.4-3.1-0.5-4.4C-0.3,65.3,0,46.9,0.4,31.1c0.1-3.8,0.2-7.7,0.3-11.4
		c0-0.8,0-1.7,0.1-2.5c0-0.3,0-0.6,0-0.9c0.1-1.6,0.1-3.3-0.1-5c-0.1-0.4-0.2-0.8-0.3-1.1c-0.3-0.6-0.4-1,0.3-2.1
		c1-1.3,3.6-1.5,5.8-1.5c0.7,0,1.4,0,2.1,0h0.1c0.6,0,1.2,0,1.7,0c0.5,0,0.8,0,1.1,0c4.2-0.4,8.2-0.7,12-0.9
		C35.7,5.1,48,4.3,59.8,3.5C85.6,1.8,112.3,0,138.7,0h2.3c4.7-0.2,9.3,0.2,13.9,1.1c1,0.2,1.9,0.4,2.9,0.5c0.1,0,0.3,0,0.4,0
		c0.2,0,0.4,0,0.5,0h0c0.2,0,0.3,0,0.5,0c0.4,0,0.7,0.1,1,0.2c1.2,0.5,2.1,1.6,2.3,3c0.5,1.8,0,4.2-0.4,6.6
		c-0.2,1.2-0.4,2.3-0.5,3.2c-0.3,4-0.5,8.4-0.5,13.4c0,0.5,0,1,0,1.6c-0.1,7.6,0.2,15.1,1,22.7c0.2,1.9,0.5,3.8,0.8,5.6
		c0.7,4.9,1.4,10,1.7,15.2c0.1,1.7,0.1,3.5,0.2,5.2v0c0.1,2.4,0.2,4.9,0.3,7.4c0,0.4,0,0.9,0,1.3c0,0.9,0,1.8,0.2,2.7
		c0.1,0.4,0.4,0.8,0.7,1c0.2,0.1,0.3,0.3,0.4,0.6c0.3,1.2,0.4,2,0,2.6c-0.4,0.5-1.1,0.8-2.5,1.2c-5.4,1.5-11.5,1.7-17.3,1.7
		c-1.2,0-2.3,0-3.4,0h-0.3c-1,0-2,0-3,0H140c-19.8,0-37.7,0.1-55.6,0.5c-5.4,0.1-11,0.2-16.3,0.3c-12.8,0.2-25.9,0.4-38.8,1.5
		c-3,0.3-6.1,0.6-9.1,0.8c-1.2,0.1-2.4,0.2-3.5,0.3c-1.3,0.1-2.6,0.3-4.1,0.5C10.1,101.1,7.6,101.3,5.2,101.4z M58.9,33.1
		c4.1,0,8.4,1.4,13.3,4.4c4.1,2.6,7.9,5.5,11.5,8.6l0.6,0.5c1.3,1.1,2.6,2.2,3.9,3.3c2.9,2.4,5.9,4.9,8.9,7.3l0.6,0.5l0.1,0.1
		c2.6,2,5.2,4,8,5.8c1,0.8,2.3,1.3,3.6,1.4c1.4,0,2.6-0.8,4.6-2.1c0.7-0.5,1.4-0.9,2-1.4c5.6-3.8,10.8-7.3,17.7-7.9
		c0.6-0.1,1.3-0.1,2-0.1c7.6,0,15.3,3.4,20.4,6.3c-2.7-14.2-3.5-28.7-2.4-43.2c0.2-2.5,0.4-5,0.7-7.3c0-0.2,0.1-0.6,0.2-1
		c0.3-0.9,0.4-1.8,0.3-2.8c-0.5-1-2.4-1.1-3.9-1.1c-0.4,0-0.8,0-1.3,0h-0.1c-0.4,0-0.8,0-1.1,0c-0.1,0-0.3,0-0.4,0
		c-1.9-0.1-3.9-0.1-6-0.1c-4.8,0-9.8,0.2-14.5,0.3c-2.2,0.1-4.4,0.1-6.6,0.2C101.5,5.3,81,6.4,60.2,8.1c-7.7,0.6-15.6,1.1-23.3,1.5
		c-8.9,0.5-18.1,1-27.1,1.8c-3.4,0.3-3.4,0.6-3.4,3.3c0,0.3,0,0.7,0,1.1c0,0.9,0,1.8-0.1,2.7v0l0,0.5c-0.1,4.7-0.3,9.7-0.4,14.8
		C5.7,40.2,5.3,46.6,5,52.8c-0.2,3.6-0.4,7.3-0.6,10.9c5.1-3.1,10-6.7,14.7-10.1c4.6-3.3,9.3-6.7,14.2-9.7c7-4.4,14-8.4,21.6-10.3
		C56.2,33.2,57.6,33.1,58.9,33.1z"/>
	<path id="Fill_69" class="person-with-boards-1" d="M117.4,19.1c0,2.8-0.4,6.9,0.8,9.5c1.6,3.3,3.7,2.3,4.2-0.8c0.3-1.8,0.3-7.1-0.3-8.7
		C121.3,16.8,117.4,15.3,117.4,19.1"/>
	<path id="Fill_71" class="person-with-boards-1" d="M122,20.2c-2.6,0.1-10.2-0.5-12,1.6c-3,3.6,2.3,4.2,4.5,4c2.6-0.2,10.7,0.3,12.5-1.8
		C130,20.5,124.1,20.1,122,20.2"/>
	<path id="Fill_73" class="person-with-boards-1" d="M20.6,134.3L20.6,134.3c-3.2-0.1-6.4-1.1-9-2.9c-2.7-1.7-4.7-4.2-5.9-7.1
		c-1.2-3.4-0.8-7.1,1.1-10.1c0.9-1.6,2.2-3,3.7-4.1c1.5-1.1,3.3-1.9,5.2-2.2c1-0.2,2-0.2,2.9-0.2c2.9,0,5.7,0.7,8.1,2.1
		c2.5,1.4,4.4,3.7,5.4,6.4c1.1,3.4,0.9,7.1-0.5,10.3c-0.7,1.6-1.6,3.1-2.9,4.4c-1.2,1.3-2.7,2.2-4.3,2.8
		C23.2,134.1,21.9,134.3,20.6,134.3z M19.6,113.3c-3.5,0-7.9,1.8-9.4,5.2c-0.6,1.3-0.6,2.9,0,4.2c1.2,2.8,4.5,5.1,7.3,6.1
		c1,0.4,2.1,0.6,3.1,0.6c4.3,0,6.6-3.7,6.9-7.1c0.5-4.4-2.6-8.5-7.1-9C20.2,113.3,19.9,113.3,19.6,113.3L19.6,113.3z"/>
	<path id="Fill_75" class="person-with-boards-1" d="M85.7,115.4c-2.9,0.2-5.3,2.2-8.2,2.6c-2.7,0.3-4.9-0.6-7.5-1.3c-2.9-1-6-1.2-9-0.5
		c-2.4,0.6-4.7,2.2-7.2,2.4c-4.9,0.4-10.5-5.2-14.3,1.1c-1.8,3,0.8,5,3.5,3.5c2.8-1.5,1.5-2,5-1.1c2.9,0.7,5.3,1.1,8.3,0.1
		c2.7-0.9,5-2.6,7.9-2.8c2.8-0.2,5.3,1.1,8,1.7c3.2,0.6,6.4,0.3,9.5-0.9c3-1,4.2-1.5,7.2-0.7c1.9,0.6,6.1,2.3,8,0.9
		c3.2-2.5-1.1-2.9-2.8-3.2C91.4,116.7,88.5,115.1,85.7,115.4"/>
	<path id="Fill_77" class="person-with-boards-1" d="M151.4,127.2L151.4,127.2c-2.8,0-5.5-1.1-7.5-3c-1.9-1.8-3.1-4.2-3.4-6.8
		c-0.3-2.2,0.1-4.4,1.2-6.3c1.4-2.1,3.6-3.7,6.1-4.3c0.2,0,0.4-0.1,0.6-0.1c1.8,0,5.1,1.6,6.5,2.4c2,1.2,3.5,3,4.3,5.2
		c1.1,2.9,0.9,6.2-0.6,8.9c-1.1,2-3,3.4-5.3,3.7C152.8,127.2,152.1,127.2,151.4,127.2z M148.4,113.1c-1.6,0.3-2.6,1.8-2.3,3.4
		c0.3,1.3,0.9,2.4,1.9,3.3c0.9,0.9,2.1,1.5,3.4,1.5c0.1,0,0.1,0,0.2,0c1.6-0.1,2.6-0.8,2.6-2.1c-0.1-1.4-0.8-2.8-1.8-3.8
		C151.4,114.1,150,113.3,148.4,113.1z"/>
	<path id="Image_Border" class="person-with-boards-2" d="M3.4,229.8c-0.9-2.3,0.4-3.3,2.3-3.8c-0.2-1.7-0.3-3.3-0.2-5c-0.1-2.9-0.1-5.8-0.2-8.6
		c-0.3-6.8-0.4-13.7-1-20.6c-0.5-6.5-1.8-12.9-1.8-19.4c0-4.5-1.3-15.7,2.6-18.8c6.7-3.9,4.1,9.9,3.9,12.3c-0.2,7.1,0,14.2,0.8,21.2
		c0.7,6.5-0.1,13.1-0.4,19.6c-0.1,3.5-0.2,7-0.5,10.4c-0.1,1.1,0,6-0.5,8.6c0.9,0,1.7,0,2.4,0c0.5,0,0.9,0,1.2,0
		c5.4-0.2,10.9-0.3,16.3-0.5c20.9-0.8,41.8-0.4,62.6-1.4c19.7-0.9,39.5-1.1,59.3-1.4c1.1,0,2,1,1.9,2.1c0,0.5-0.2,0.9-0.5,1.3
		c-1.1,1.4-6.1,1.1-7.7,1.2c-5.6,0.4-11.1,0.6-16.7,0.7c-11.8,0.1-23.5,0.6-35.2,1.3c-20.8,1.2-41.7,1.1-62.6,1.9
		c-5.1,0.2-10.1,0.4-15.2,0.5c-1.4,0-3.8,0.5-6.1,0.5C6,231.8,4,231.4,3.4,229.8z M154.1,211.5c-0.4-7.6-1-15.2-1.7-22.8
		c-1.1-12.3-2.1-24.2-2.1-36.5c0-2.9,3.5-3.5,5.1-1.5c1.5,1.9,0.5,7.7,0.6,9.9c0.1,7.5,0.8,14.9,1.5,22.4c0.7,7.4,1.1,14.8,1.7,22.2
		c0.2,3.4,2.9,17.1-1,19.1c-0.4,0.2-0.8,0.3-1.2,0.3C153.5,224.6,154.2,213.6,154.1,211.5L154.1,211.5z M5.2,152.7
		c-1.3-0.5-2.3-1.2-1.6-2.7c0.6-1.2,2.6-1.1,4.1-1c0.5,0,0.9,0.1,1.2,0.1c4.9-0.1,9.8-0.4,14.8-0.7c11.2-0.7,22.3-1.5,33.5-1.7
		c21.3-0.4,42.6-1.5,63.9-1.7c6.3-0.1,12.6,0.1,18.9,0.4c2.8,0.2,5.6,0.3,8.4,0.4c0.5,0,1.2,0,2-0.1c1.7-0.1,3.7-0.2,4.7,0.3
		c5.6,2.9-5.8,3.3-7.2,3.2c-5.8-0.1-11.6-0.5-17.3-0.7c-21.3-0.5-42.7,0.8-64,1.6c-10.2,0.4-20.4,0.5-30.7,1.1
		c-5.6,0.3-11.2,0.7-16.8,1c-2.6,0.1-5.2,0.3-7.7,0.3c-1.1,0-3,0.3-4.5,0.3C6.4,152.9,5.8,152.9,5.2,152.7z"/>
	<path id="Image_X" class="person-with-boards-1" d="M30.6,213c-1.4,0-2.3-0.3-2.4-2c-0.2-2.1,3.2-3,4.6-3.7c4.7-2.4,9.4-4.7,14.2-6.9
		c9.4-4.5,18.9-8.8,28.5-13l0.2-0.1c-5.3-1.8-10.6-3.5-15.9-5.3c-3-1-24.4-6.2-23.6-9.1c0.9-3.2,19.7,4.3,22.7,5.2
		c7.1,2.3,14.3,4.6,21.4,7.1c17-7.6,34.2-15.8,52-21.4c1.1-0.3,1.8,0.8,1.6,1.8c-0.3,1.3-4.3,2.3-5.4,2.8c-4.4,2-8.8,3.9-13.1,5.8
		c-9.5,4.3-19.1,8.5-28.6,12.7l-0.6,0.3c6.7,2.4,13.4,4.9,20,7.4c3.5,1.4,7.1,2.8,10.6,4.2c1.8,0.7,9.1,2.4,9.6,4.2
		c0.6,2.5-7.3-0.6-8.5-1c-3.5-1.1-7-2.4-10.5-3.6c-7.8-2.8-15.6-5.7-23.4-8.4l-2.2-0.8c-8.3,3.7-16.6,7.5-24.9,11.3
		c-4.4,2.1-8.8,4.1-13.2,6.3C40.1,208.5,34.3,213,30.6,213L30.6,213z"/>
	<path id="Fill_117" class="person-with-boards-1" d="M19.4,261.5c-2.9,0.1-5.7-0.8-8-2.5c-1.4-1.1-2.4-2.5-2.9-4.2c-0.3-1.3-0.4-2.6-0.2-4
		c-0.1,0-0.3,0-0.4,0c-0.6,0-1.2-0.3-1.6-0.9c-0.3-3.7,3.1-6.9,5.1-8.5c2.8-2.2,6-3.7,9.5-4.4c0.4-0.1,0.8-0.1,1.2-0.1
		c2.9,0.1,5.7,1.3,7.6,3.5c2.3,2.5,3.6,5.7,3.5,9.1c-0.1,3.1-1.4,6-3.7,8.2c-2.3,2.1-5.2,3.4-8.2,3.7
		C20.7,261.5,20.1,261.5,19.4,261.5z M22.3,240.8c-0.9-0.1-1.7,0.3-2.1,1.1c-0.3,0.7-0.9,1.2-1.6,1.5c-0.4,0.1-0.8,0.2-1.1,0.2
		c-0.5,0-1,0-1.4,0.2c-1.1,0.7-2,1.7-2.6,2.9l-0.1,0.1c-1.6,2.7-2,5.5-1,7.6c0.9,1.9,2.8,3.1,5.5,3.5c0.6,0.1,1.2,0.1,1.8,0.1
		c4.5,0,9.5-2.5,10.1-8c0.4-4.4-2.6-8.5-6.9-9.3C22.7,240.8,22.5,240.8,22.3,240.8z"/>
	<path id="Fill_119" class="person-with-boards-1" d="M46.7,245c-2.4,1.3-6.2,3.2-7.5,5.6c-1.5,2.5,0.1,5.3,3.2,4.1c2.5-1,4-4,6.7-4.9
		c2.3-0.9,3.3-0.4,5.7,0.4c2.5,0.9,4.7,1.7,7.5,1.5c3.4-0.3,6.4-2.3,9.8-2.7c2.8-0.4,5.2,0.7,7.9,1.2c3.1,0.5,5.2-0.7,8.2-1.3
		c2-0.4,5.5,1.3,7,0.7c3.3-1.4-0.2-3.2-2-3.8c-3.1-1-5-0.1-7.9,0.7c-3.2,0.9-4.5,0.2-7.6-0.6c-6.1-1.6-10.9,2.3-16.7,1.6
		C55.6,246.8,52.3,242,46.7,245"/>
	<path id="Fill_121" class="person-with-boards-1" d="M143.6,256.3L143.6,256.3c-3.1,0.1-6.1-1.1-8.4-3.2c-1.4-1.5-2.1-3.5-1.8-5.5
		c0.1-2.8,1.5-5.3,3.7-7c2.2-1.6,4.8-2.6,7.5-3c0.5-0.1,1.1-0.2,1.6-0.2c2,0,3.9,0.9,5.1,2.5c1.2,1.6,1.9,3.6,1.9,5.7
		c0.1,2.5-0.6,4.9-2,7c-1.5,2.2-4,3.5-6.7,3.7C144.3,256.2,144,256.3,143.6,256.3z M146.2,242c-2.5,0-5.7,0.8-7.1,2.7
		c-0.9,1-1.3,2.3-1.2,3.7c0.2,1.1,0.8,2,1.8,2.6c1.1,0.8,2.5,1.3,3.9,1.3c2.3,0,4.4-1.4,5.2-3.5c0.9-2.3,0.2-4.8-1.9-6.7
		C146.6,242.1,146.4,242,146.2,242z"/>
</g>
<path id="Fill_79" class="person-with-boards-3" d="M912.1,45.5c-7.8,0.1-26.9,2.4-29.8,9.9c-2.2,5.7,4.3,4.4,7.7,2.4c4.4-2.8,9.4-4.6,14.5-5.3
	c22-3.2,43.1,8.4,64.9,9.8c8.2,0.6,18.2,0.9,26.1-1.3c5.6-1.5,6.3-4.9-0.1-5.4c-5.4-0.4-11.5,0.9-17,0.9
	C955.3,56.3,934.8,45.1,912.1,45.5"/>
<g id="Cards" transform="translate(0 448.49)" class="person-with-boards-0">
	<path id="Fill_173" class="person-with-boards-1" d="M55,0.1C46.5,0.2,38.1,0.5,29.7,1c-8,0.5-16.7,0.1-24.5,1.7C3,3.1-0.1,5.1,2.9,7.4
		C5,9,12.6,7.2,15.1,7c9.2-0.6,18.4-1.2,27.6-1.6C51.4,5.1,60.1,5,68.8,4.9c1.3,0,3.5-0.4,4.9-0.1c1.9,0.6,1.5,0.7,1.6,3.1
		c0.3,4.4,0.2,8.8,0.1,13.1c-0.1,4.2-0.2,8.5-0.2,12.7c0,3-1,9,0.6,11.7c2.2,3.8,4.4-0.3,4.6-2.8c0.3-4.8,0.2-9.7,0.2-14.5
		c0-4.5,0-9-0.1-13.5c-0.1-3.3,0.4-9-1.4-11.9c-1.8-3-6.1-2.4-9.2-2.5C64.8,0,59.9,0,55,0.1"/>
	<path id="Fill_171" class="person-with-boards-1" d="M1.4,5.5c0,8.5-1,16.9-1.2,25.4c-0.1,3.9-0.4,8.2,0.6,12c1,3.9,4.2,4.7,4.5,0.4
		C6,34.6,5.8,25.5,6.4,16.7C6.6,13.6,7.9,7.9,6.7,5C5.6,2.4,1.4,1.9,1.4,5.5"/>
	<path id="Fill_175" class="person-with-boards-1" d="M80.4,42.9c-14.6,1.9-29.9,1.2-44.7,1.5c-7.1,0.1-14.1,0.2-21.2,0.2c-2.5,0-8.7-0.9-10.9,0.5
		c-3.4,2.2,0.3,3.9,2.5,4c14,0.3,28.1-0.3,42-0.8c6.3-0.2,12.6-0.3,18.8-0.8c4-0.2,7.9-0.8,11.8-1.7c0.8-0.2,2.5-0.2,2.7-1.3
		C81.6,43.9,81.4,42.8,80.4,42.9"/>
	<path id="Fill_177" class="person-with-boards-1" d="M19.5,55.2c-4.1,0-16.3-1.9-18,2.1c-2.2,5.3,6.5,4.1,8.9,4c5.3-0.1,10.7-0.2,16-0.2
		c5.3,0,10.5,0,15.7-0.2c1.5,0,5.1,0.6,5.9-1.2c0.6-1.1,0.2-2.5-0.9-3.1c-0.1,0-0.1-0.1-0.2-0.1c-3-1.8-10.6-0.7-14.1-0.9
		C28.5,55.5,24,55.2,19.5,55.2"/>
	<path id="Fill_179" class="person-with-boards-1" d="M69,56.2c-2.3,0.1-7-0.8-9.1,0.2c-2.4,1.2-1.5,3.1,0.5,3.9c1.4,0.6,7.2,0.3,8.6-0.4
		C70.4,59.3,72.1,56,69,56.2"/>
	<path id="Fill_181" class="person-with-boards-1" d="M94.5,6.3c-2.5,0.7-1.7,14.8-1.8,17c-0.2,6.1-0.9,13.8,1.2,19.7c1.3,3.8,3.8,3.2,3.4-0.7
		c-0.4-3.5-1-6.9-1.3-10.4C95.3,24,94.5,15.6,95,7.7c0.3,0.5,2.6,4.7,3.2,4.4C98,12.2,95.5,6.1,94.5,6.3"/>
	<path id="Fill_183" class="person-with-boards-1" d="M122.4,1.2c-5,0.1-10,0.2-15.1,0.3c-4,0.1-10.3-0.5-13.9,1.1c-4.4,2-2.3,6.5,1.8,6.5
		c3.6,0.1,7.5-0.7,11.1-0.9c9.9-0.3,19.8-0.4,29.6-0.5c8.9-0.1,18.2,0.9,27.1-0.5c1.3,11.7-2.2,23.4-1,35.2c0.2,1.8,0.1,4.4,2.4,4.8
		c2.9,0.5,3.1-2.4,3.2-4.5c0.3-6,0.1-11.9,0.6-17.9c0.4-5.5,1.2-11.2,0.5-16.7c-0.8-6.8-4.1-6.3-9.9-6.6
		C146.7,1.1,134.6,1,122.4,1.2"/>
	<path id="Fill_185" class="person-with-boards-1" d="M105.6,42.6c-2.6,0.1-6.8-0.7-8.4,1.7c-1.7,2.6,0.3,4.8,2.8,5.3c2.9,0.6,6.8-0.2,9.8-0.2
		c3.2,0,6.3,0,9.5,0c13.6,0.1,27.3,0.3,40.9-0.3c1.9-0.1,7.3,0.6,8.6-1.3c1.2-1.6,0.4-3.1-1.2-3.9c-2.5-1.3-7.7-0.8-10.5-0.9
		c-3.5-0.1-6.9-0.2-10.4-0.2C133,42.6,119.2,42.2,105.6,42.6"/>
	<path id="Fill_187" class="person-with-boards-1" d="M117.1,54.4c-5.1,0.1-10.5-0.1-15.6,0.6c-4.4,0.7-5,5-0.2,5.5c4.4,0.5,9.7-0.4,14.1-0.7
		c1.6-0.1,3.4,0,4.1-1.7c0.5-1.4-0.2-3-1.7-3.6C117.6,54.4,117.4,54.4,117.1,54.4"/>
	<path id="Fill_189" class="person-with-boards-1" d="M155.6,54.8c-2.7,0.1-10.7-1.1-12,2c-2.2,5.2,8.5,3.2,10.6,3.1c2.6-0.1,12.7,1.4,12.7-2.7
		C166.9,53.2,158.1,54.8,155.6,54.8"/>
	<path id="Fill_191" class="person-with-boards-2" d="M0.9,80.5c0,9.4-0.6,18.9,0.3,28.3c0.4,3.9,0.3,11.3,2.5,14.6c1.6,2.3,3.8,2.2,4.7-0.6
		c0.6-1.9-0.3-5.6-0.5-7.6c-0.1-1.9-0.2-3.8-0.3-5.8c-0.2-5-0.2-9.9-0.1-14.9c0.1-4.3,1.1-9.9,0.1-14C6.7,76.7,0.9,75.8,0.9,80.5"/>
	<path id="Fill_193" class="person-with-boards-2" d="M95.4,72.2c-16.3,0.4-32.7,0-49,0.9c-8,0.4-16,1.3-24,2.1c-3.9,0.4-7.9,0.9-11.8,1.4
		c-1.2,0.1-11,0.5-7.3,4.3c1.6,1.6,6.8-0.1,8.8-0.3c3.9-0.5,7.9-0.9,11.8-1.3c7.5-0.8,15-1.5,22.6-2c17.7-1,35.6-0.7,53.3-1.3
		c4.8-0.2,9.6-0.3,14.4-0.1c1.3,0.1,10.5,0.5,6.5-2.9c-1.9-1.6-9.1-0.8-11.5-0.8C104.7,72,100.1,72.1,95.4,72.2"/>
	<path id="Wireframy_Stuff" class="person-with-boards-2" d="M4.9,127.1c-0.4-5.3,13-5.3,16.9-5.7c16.5-1.5,33.2-1.2,49.7-1c8,0.1,16,0.4,23.9-0.1
		s16.2-0.4,24.1-1.2c-1-4-0.9-8.9-1.2-12.9c-0.7-10.4-0.5-20.8-1-31.1c-0.2-4.6,6-5.3,7.9-1.6c1.9,3.7,0.7,11.2,0.8,15.3
		c0.3,9.6,2.1,20.3,0.2,29.8c-0.7,3.3-3.4,5-5.3,3.2l0,0c-0.7,1-2.9,1-4.5,1c-0.4,0-0.8,0-1.1,0c-4.4,0.3-8.7,0.8-13,1.4
		c-8.6,1.3-17.3,2.1-26,2.3c-17.3,0.4-34.6,0-51.9,1.2c-3.8,0.2-7.6,0.7-11.3,1.4c-1.6,0.4-3.2,0.7-4.8,0.8
		C6.5,130.1,5,129.4,4.9,127.1z"/>
	<path id="Fill_199" class="person-with-boards-4" d="M130.9,78.4c-2.2,0.3-4,2.2-3.1,4.6c1.2,3,4.9,1.8,7.4,1.6c7.8-0.6,15.8,0.6,23.5-0.3
		c2.1-0.3,5.1-1.4,3.2-4.2c-1.4-2.1-6.6-1.7-8.7-1.9C145.8,77.5,138.3,77.6,130.9,78.4"/>
	<path id="Fill_201" class="person-with-boards-4" d="M144,91.5c-3,0.2-10,0-11.3,3.5c-2.3,6.1,6.6,4,9.3,3.6c3.1-0.4,10.6,0.7,12.2-2.4
		C157.3,90.8,146.6,91.4,144,91.5"/>
	<path id="Fill_203" class="person-with-boards-4" d="M136.2,105c-1.4,1.5-1.4,3.9,0,5.4c1.7,1.7,5.6,1.4,7.9,1.5c3.2,0.2,12.4,1.9,14-1.9
		c2.1-5.1-6.2-5-8.9-5.3C146,104.4,138.9,102.4,136.2,105"/>
	<path id="Fill_205" class="person-with-boards-1" d="M23.9,17.9c0,5.5,8.5,5.5,8.5,0C32.4,12.4,23.9,12.3,23.9,17.9"/>
	<path id="Fill_207" class="person-with-boards-1" d="M40.1,17.9c0,6.3,9.7,6.2,9.7,0S40.1,11.6,40.1,17.9"/>
	<path id="Fill_209" class="person-with-boards-1" d="M30.3,26.2c-4.7,1.3-0.4,5.3,1.8,6.2c3.5,1.5,8.3,2.5,11.8,0.3c1.4-0.9,2.5-2,1.5-3.7
		c-1.1-1.8-2.6-1-4.2-0.8c-1.9,0.3-3.9,0.1-5.8-0.5C33.8,27.3,32,25.8,30.3,26.2"/>
	<path id="Fill_211" class="person-with-boards-1" d="M116.2,18.2c0,3.7,5.7,3.7,5.7,0S116.2,14.5,116.2,18.2"/>
	<path id="Fill_213" class="person-with-boards-1" d="M128.9,18.8c0,4.1,6.4,4.1,6.4,0S128.9,14.7,128.9,18.8"/>
	<path id="Fill_215" class="person-with-boards-1" d="M128.4,27.7c-3.4,0.4-13.1,1.4-13.6,5.6c-0.8,6.4,9.8,1.2,12.2,0.7c3-0.5,6-0.6,8.9-0.3
		c1.7,0.1,3.9,0.3,3.8-2.2C139.4,27.1,131.3,27.3,128.4,27.7"/>
	<path id="Fill_217" class="person-with-boards-2" d="M44.1,86.5c-2.4,0.6-5.6,4.9-3.9,7.4c2.7,4.2,4-2.3,5.1-2.9c2.1-1.1,3.8,3,6,0.8
		C54.6,88.5,46.2,85.9,44.1,86.5"/>
	<path id="Fill_221" class="person-with-boards-2" d="M49.8,100.7c-4.6,2.7,3,8.5,5.6,9.2c4,1.1,12-0.9,12.9-5.8c0.4-1.9-0.8-3.7-3-3.3
		c-1.8,0.3-2.9,2.5-4.5,3.3c-1.9,1.2-4.4,0.9-6-0.6C53.4,102.1,52.5,99.1,49.8,100.7"/>
	<path id="Fill_223" class="person-with-boards-4" d="M53.2,140.6c-4.1,0.9-8.3,0.3-12.4,1.1c-4.2,0.8-6.7,2.4-10.7,0.8l-0.6-0.2
		c-3-1.3-6.2-1.7-9.4,0.4c-1.9,1.2-7.6,5.5-6.9,8.1c1.5,5.6,7.9-3.2,9.6-4.1c3.1-1.6,5.3,0.5,8.5,1c3.9,0.7,7-1.3,10.6-2.1
		c4.2-0.9,9-1.3,13.3-1.8c1.7-0.2,8.2,1.1,8.8-1C64.9,139.2,54.8,140.2,53.2,140.6"/>
	<path id="Fill_225" class="person-with-boards-4" d="M93.3,156.9L93.3,156.9c-3.1,0-5.5-0.1-7.7-0.3c-1.5-0.1-3-0.4-4.4-1c-1.3-0.7-2.2-2-2.5-3.5
		c-0.6-2.1-1.1-4.3-1.4-6.6c-0.4-3.3,0-5.2,1.1-5.8c0.4-0.2,0.8-0.2,1.2-0.2c0.2,0,0.5,0,0.7,0h0c0.2,0,0.4,0,0.6,0
		c0.1,0,0.3,0,0.4,0c1-0.2,2-0.4,3.1-0.7c1.4-0.4,2.8-0.7,4.3-0.9c4.1-0.5,8.5-0.9,13.5-1.1h0.1c0.8,0,1.7-0.1,2.7-0.1
		c1.9-0.1,3.8,0.2,5.6,0.7c1.7,0.4,3.1,1.6,3.9,3.2c1.4,3.2-0.3,9.8-2,12.8c-1.8,3.1-5.2,3.6-8.8,3.6c-0.7,0-1.3,0-1.9,0h0
		c-0.6,0-1.2,0-1.8,0h-0.4l-1.7,0h0C96.2,156.9,94.7,156.9,93.3,156.9z M81.5,141.9L81.5,141.9c0.1,0.5,0.1,1.4,0.2,2.5v0
		c0.2,2.8,0.4,6.5,1.2,7.5c0.8,0.9,3.6,0.9,5.2,0.9h0c0.4,0,0.7,0,1,0c2.6,0.2,5.2,0.2,7.8,0.3H97c1,0,2.2,0.1,3.3,0.1
		c0.6,0,1.4,0.1,2.2,0.2h0c1.2,0.2,2.4,0.3,3.7,0.3c0.8,0,1.5-0.1,2.2-0.4c1-0.5,2.2-2.6,2.9-5.4c0.7-2.3,1.1-5.5,0.2-6.9
		c-0.8-1.3-2.9-1.9-6.2-1.9c-2.9,0.1-5.7,0.4-8.5,0.8h0c-1,0.1-1.8,0.3-2.4,0.3c-1.3,0.2-2.6,0.4-4,0.7l0,0c-2.2,0.6-4.5,0.9-6.8,1
		C82.9,142.2,82.2,142.1,81.5,141.9z"/>
	<path id="quare" class="person-with-boards-1" d="M144.6,158.7L144.6,158.7c-4.7,0-9.4-0.2-14.1-0.7c-2.9-0.3-4.6-0.9-5.9-2c-1.4-1.2-2.1-3-2.4-5.7
		c-0.1-0.6-0.2-1.4-0.3-2.2c-0.6-4.1-1.4-10.4,1.8-12.4c2.4-1.5,7.2-1.7,10.8-1.8c0.8,0,1.6-0.1,2.3-0.1c0.4,0,0.8,0,1.2,0
		c2.2,0.1,4.4,0.2,6.6,0.6c1.8,0.2,3.6,0.5,5.4,0.5c3.1,0.1,5,0.4,6.4,1.3c1.4,0.9,2.3,2.5,2.9,5.4c0.1,0.4,0.2,0.7,0.4,1.1
		c0.3,0.5,0.4,1.1,0.5,1.7c-0.1,1.5-0.3,3-0.7,4.4c-0.2,0.7-0.3,1.3-0.4,1.9c-0.5,2.9-1.5,4.9-3.2,6.1c-1.5,1.2-3.6,1.7-6.6,1.8
		C147.7,158.7,146.1,158.7,144.6,158.7z M148.8,151.7c-1.7,0.3-3.6,0.7-6,1.1l-0.3,0.1h0l-0.6,0.1l-0.2,0c0.7,0.1,1.3,0.1,1.9,0.2
		c0.7,0.1,1.3,0.2,2,0.2C146.9,153.5,148.1,152.8,148.8,151.7L148.8,151.7z M134.8,151.4L134.8,151.4l-0.3,0.1h0l-1.2,0.4h0l-0.1,0
		l-0.1,0l-0.2,0.1l-0.4,0.1c0.9,0.1,1.8,0.2,2.6,0.3C134.9,152.1,134.8,151.7,134.8,151.4L134.8,151.4z M129.3,148.3
		c-0.1,0-0.3,0-0.4,0.1c-0.1,0.1-0.1,0.2-0.1,0.3c0,0.2,0,0.3,0.1,0.5c0,0.1,0.1,0.1,0.2,0.1c0.3,0,0.7-0.3,1.3-0.8c0,0,0,0,0,0h0
		c-0.2,0-0.3,0-0.5-0.1h0h0h0h0h0h0C129.7,148.3,129.5,148.3,129.3,148.3z M144.9,140.6c-0.1,0-0.2,0.1-0.2,0.1
		c-0.2,0.1-0.3,0.2-0.2,0.3c0,0,0,0,0,0c0.2,0,0.4-0.1,0.6-0.2h0h0l0,0c0,0,0.1,0,0.1,0C145.1,140.7,145,140.7,144.9,140.6z
		 M153.3,139.2c0.8,1.2,1.3,1.3,1.4,1.3c0.1,0,0.1-0.1,0.1-0.1c0,0,0,0,0,0C154.8,140,154.3,139.3,153.3,139.2z"/>
</g>
<g id="Profile" transform="translate(541.767 418.288)" class="person-with-boards-0">
	<path id="face-3" class="person-with-boards-1" d="M45.2,38.6L45.2,38.6c-4.1,0-8.2-1.1-11.7-3.1c-3.5-1.9-6.4-4.7-8.4-8.2C23.7,24.8,23,22,23,19.2
		c0.1-3.2,1.1-6.3,2.8-9C24.7,10,24.1,9.6,24,9c-0.2-1.6,3.5-3.9,4.4-4.4l0.3-0.2c3.2-1.7,6.5-3.5,10-4c1.5-0.2,3-0.3,4.5-0.3
		c4,0,8,0.8,11.6,2.4c3.6,1.6,6.7,4.3,8.6,7.8c1.1,2,1.8,4.2,1.9,6.5c0.2,2.2-0.1,4.5-0.7,6.7c-0.6,2.2-1.6,4.3-2.8,6.2
		c-1.2,1.9-2.8,3.6-4.5,5C53.9,37.2,49.6,38.6,45.2,38.6z M42.8,4.7c-4.7,0-9.3,1.9-12.5,5.4c-2.6,2.9-3.7,6.7-3.2,10.6
		c1,7.8,8.9,14.4,17.2,14.4c0.4,0,0.7,0,1.1,0c7.9-0.7,14.3-6.7,15.5-14.6c0.6-3.4-0.4-7-2.7-9.6c-3.1-3.6-8.9-6-15.1-6.1
		C43.1,4.7,42.9,4.7,42.8,4.7L42.8,4.7z"/>
	<path id="Fill_231" class="person-with-boards-1" d="M36.6,16.5c0,3.5,5.5,3.5,5.5,0S36.6,13,36.6,16.5"/>
	<path id="Fill_233" class="person-with-boards-1" d="M46.8,17.1c0,3.8,6,3.8,6,0S46.8,13.2,46.8,17.1"/>
	<path id="Fill_235" class="person-with-boards-1" d="M39.9,24.7c-0.8,2.9,8.3,4.4,8.7,1C48.7,24.1,40.5,22.6,39.9,24.7"/>
	<path id="Fill_237" class="person-with-boards-1" d="M66.7,22.9c10.5-1.3,21.4-0.7,32-0.4c2.6,0.1,5.3,0.2,7.9,0.2c1.7,0,5.3,0.8,6.8,0
		c6-3.2-5.8-4.8-7.5-4.9c-12.4-0.9-24.9-1.1-37.3-0.8C65.5,17.2,64.9,23.1,66.7,22.9"/>
	<path id="Fill_241" class="person-with-boards-1" d="M62.7,43.4c-4.1,0.3-7.8,2.3-11.9,2.3c-3.4,0-6.8-1-10.3-0.9c-4.1,0.2-6.3,2.8-9.8,3.7
		c-2.8,0.7-4.6-1.5-7.1-2.4c-3.1-1.2-5.5-0.6-8.1,1.2c-2,1.3-6.6,4.4-6.5,7.1c0.1,8.2,9.7-3.1,11.6-3.3c2.6-0.2,5.4,2.7,8.2,2.9
		c3.6,0.2,5.9-2.1,9.3-3c3.4-0.9,7,0.2,10.4,0.5c3.9,0.4,7.2-0.5,10.9-1.4c3.4-0.9,6.9-0.9,10.4-0.1c2.5,0.5,8.6,3.4,9.7-0.3
		C80.9,44.6,65.5,43.1,62.7,43.4"/>
	<path id="Fill_243" class="person-with-boards-1" d="M63.9,59.1c-8.3,0.8-16.7,1.5-25,1.7c-3.6,0.1-17.5-1.5-16.3,3.1c1.1,3.9,20,1.5,23.8,1.2
		c4.3-0.3,8.5-0.8,12.7-1.3c1.5-0.2,5.1,0,6.2-1.3C66.4,61.3,65.9,58.9,63.9,59.1"/>
	<path id="have_a_nice_day_:_" class="person-with-boards-1" d="M9.2,93.5c-2.6,0-5.1-1.3-6.7-3.3c-1.6-2-2.5-4.5-2.6-7.1c-0.1-3.9,2.1-8.2,8.4-8.4
		h0.1c0.5,0,0.9,0.2,1.2,0.5c0.2,0.2,0.5,0.4,0.8,0.5h0c0.2-0.1,0.5-0.2,0.6-0.3l0.1-0.1c0.3-0.2,0.6-0.3,0.9-0.4h0
		c2.7,0.2,4.4,0.7,5.9,2.9c0.7,1.2,1.1,2.5,1.2,3.9c0,1.5-0.2,3-0.7,4.4c-1.1,3.3-3.4,5.9-5.9,6.8C11.5,93.3,10.4,93.5,9.2,93.5z
		 M11.1,79.2c-0.3,0-0.7,0.1-1,0.3h0c-0.5,0.3-1.1,0.5-1.7,0.5C6.2,80,5,81.2,5,83.1c0.1,1.3,0.6,2.6,1.4,3.6c0.8,1.1,2,1.7,3.3,1.8
		c1.1,0,2.1-0.5,2.8-1.3c0.9-1,1.5-2.1,1.7-3.4c0.2-0.9,0.5-2.6-0.4-3.7c-0.5-0.6-0.7-0.6-1.1-0.7h0c-0.2,0-0.5-0.1-0.7-0.1
		C11.7,79.3,11.4,79.2,11.1,79.2z"/>
	<path id="espero" class="person-with-boards-1" d="M44,91.6L44,91.6h-0.2c-2.1,0-4.1-1-5.5-2.6c-1.6-1.9-2.3-4.4-2-6.8c0.5-4.4,3.3-6.8,8.6-7.5
		c0.3,0,0.7-0.1,1-0.1c1.6,0,3.1,0.6,4.2,1.8c1.5,1.9,2.3,4.3,2,6.7c-0.1,2.1-0.9,4.2-2.3,5.8C48.4,90.7,46.3,91.7,44,91.6z
		 M42.8,80.7L42.8,80.7L42.8,80.7c-1,0.7-1.4,2.1-1,3.3c0.2,1.2,1.2,2,2.4,2.1c0.3,0,0.6-0.1,0.9-0.2c1-0.6,1.7-1.6,2-2.7
		c0.2-0.6,0.1-1.2-0.3-1.7c0,0,0,0.1,0,0.1c0,0-0.1,0-0.2,0c-0.8-0.1-1.5-0.2-2.2-0.4c-0.7-0.2-1.3-0.3-1.5-0.4L42.8,80.7z"/>
	<path id="hola" class="person-with-boards-1" d="M91.9,90.8L91.9,90.8c-1.8,0-3.6-0.7-4.9-2c-1.2-1.2-1.9-2.8-2-4.6c-0.2-1.9,0.2-3.8,1.3-5.3
		c1.2-1.8,3.1-3,5.2-3.4c-1.2-0.7-1.7-2.2-1-3.4c0.4-0.8,1.2-1.4,2.1-1.5c3,0,6.5,7,6.8,8.8c0.4,2.3,0.3,4.6-0.5,6.8
		c-0.8,2.2-2.6,3.9-4.9,4.3C93.2,90.7,92.5,90.7,91.9,90.8z M94,80.9L94,80.9c-3.1,0.3-3.4,1.6-3.4,2.1c0.1,0.9,0.8,1.7,1.8,1.7
		c0.4,0,0.7-0.2,0.9-0.4C93.8,83.9,94.2,83,94,80.9L94,80.9z"/>
</g>
<path id="Fill_251" class="person-with-boards-3" d="M696.9,508.7c-5.3,0.8-17.8,5.5-17.7,10.6c0.2,8,10.8-0.7,13.1-1.9c12.7-6.3,29.1,1.9,42.3,3.6
	c6.1,0.8,17.9,2.3,23.2-1c9.5-5.9-12.5-4.4-15.3-4.6C727.4,514,712.3,506.5,696.9,508.7"/>
<g id="List" transform="translate(1028.138 481.083)" class="person-with-boards-0">
	<path id="Fill_253" class="person-with-boards-4" d="M2.5,3.1c0,5.7-0.3,11.5,0.8,17.1c0.3,1.7,0.6,5,2.4,5.8c1.3,0.7,3,0.2,3.7-1.1
		c0.1-0.3,0.2-0.5,0.3-0.8c0.5-2.1-0.6-5.4-0.7-7.6c-0.2-3.1-0.2-6.2-0.2-9.2c0-2.2,0.7-5.8-1.9-7C5.1-0.4,3.3,0.4,2.7,2.1
		C2.5,2.4,2.5,2.8,2.5,3.1"/>
	<path id="Fill_257" class="person-with-boards-1" d="M99.2,26c-16.3,1.5-33.1,0-49.5,0.6c-8.6,0.3-17.2,0.8-25.8,1.1c-3.7,0.1-7.4,0.1-11.2,0.2
		c-1.8,0-9.9,1.1-4.9,4.6c2.2,1.6,9.3,0.3,11.8,0.3c3.8,0,7.6-0.2,11.5-0.4c8.9-0.3,17.7-0.8,26.6-1.1c8.5-0.2,16.9-0.3,25.4-0.5
		c4.2,0,8.5-0.3,12.7-0.9c0.9-0.1,4-0.2,4.7-1.3C101.1,27.6,100.7,25.8,99.2,26"/>
	<path id="Fill_259" class="person-with-boards-4" d="M23,23.2L23,23.2c-2.4,0-4.8-0.9-6.5-2.6c-1.6-1.6-2.5-3.6-2.7-5.8c-0.2-2,0.4-4,1.6-5.7
		c1.6-1.9,3.8-3.1,6.3-3.5c0.1,0,0.3,0,0.4,0c0.5,0,0.9,0.2,1.3,0.4c0.3,0.2,0.7,0.3,1.1,0.4c0.1,0,0.2,0,0.3,0c0.3,0,0.7,0,1-0.1
		c0.3-0.1,0.7-0.1,1-0.1c0.3,0,0.5,0,0.8,0.1c2.3,0.7,3.8,3,4.5,4.9c0.4,1.2,0.6,2.6,0.5,3.9c-0.2,2.5-1.5,4.8-3.5,6.3
		c-1.1,0.8-2.3,1.3-3.6,1.6C24.6,23.1,23.8,23.2,23,23.2z M25.6,11.5L25.6,11.5c-2.1,0-5.9,0.5-6.6,2.1c-0.3,0.7,0,1.6,1,2.6
		c0.8,0.9,1.9,1.4,3.1,1.4c1.5,0,2.9-0.9,3.6-2.3C27.1,14,26.7,12.5,25.6,11.5L25.6,11.5z"/>
	<path id="Fill_261" class="person-with-boards-4" d="M71.8,10.6c-7.9,0-15.8,0.4-23.8,0.5c-2.4,0-8.7-1-8.7,2.8c0,4.1,6.9,2.6,9.3,2.5
		c7.9-0.2,15.7-0.5,23.6-1.3c2-0.2,8.8,0.1,8.8-2.6C81,9.7,73.4,10.6,71.8,10.6"/>
	<path id="Fill_263" class="person-with-boards-1" d="M90.7,37.3C71.2,37.8,51.6,38,32,39c-7.3,0.4-14.6,0.7-22,0.7c-1.4,0-4.3-0.5-5.6,0.3
		c-3.6,2.4,0.5,4.5,2.9,4.6c16.1,0.9,32.4-1.3,48.5-1.8c9.4-0.3,18.8-0.4,28.2-0.9c2.6-0.1,5.1-0.3,7.7-0.5c1.5-0.1,5.4,0.2,6.6-0.7
		C103.5,37,92.5,37.2,90.7,37.3"/>
	<path id="Fill_265" class="person-with-boards-1" d="M0.9,46.8c-0.3,5-0.1,10.1,0.5,15.1c0.3,2,0.4,4.2,2.7,4.7c2.1,0.5,3.2-1.1,3.6-2.9
		c1.1-4.3,0.1-10.6,0.1-15.1c0-2.2,0-4.7-2.8-5.2c-1.9-0.4-3.7,0.9-4.1,2.8C0.9,46.5,0.9,46.7,0.9,46.8"/>
	<path id="Fill_267" class="person-with-boards-1" d="M111.5,59.1c-31.7,1.7-63.4,3.2-95.1,4.5c-2.5,0.1-21.7-0.1-15,6.6c2.1,2.1,7.4,0.7,10.1,0.5
		c4-0.2,8.1-0.3,12.1-0.6c16-0.8,32-1,48-1.9c8.8-0.5,17.6-1.3,26.3-2.3c4.2-0.5,9.3-0.4,13.2-2.1C113.2,63,115.4,58.9,111.5,59.1"
		/>
	<path id="Fill_269" class="person-with-boards-1" d="M93.3,33.3c-2.4,2.4-1.2,7.1-1,10.1c0.3,4.1,0.6,8.2,1.1,12.2c0.3,2.6,0.2,6.7,1.6,9
		c1.1,1.8,3.5,2.4,5.4,1.3c0.6-0.4,1.1-0.9,1.4-1.5c1.3-2.3,0.7-7.1,0.6-9.6c0-3.5-0.3-7-0.5-10.5c-0.2-2.9,0.5-7.6-1.1-10.1
		c-1.4-2.3-4.3-3-6.6-1.7C93.8,32.9,93.5,33.1,93.3,33.3"/>
	<path id="Fill_271" class="person-with-boards-1" d="M23.4,60.7L23.4,60.7c-0.5,0-1.1,0-1.6-0.1c-2.7-0.4-5-2.1-6.4-4.4c-1-1.8-1-4,0-5.9
		c0.9-1.6,2.4-2.8,4.2-3.2c1.8-0.5,3.7-0.8,5.6-0.8l0.5,0c0.2,0,0.4,0,0.5,0c2.1,0,4,0.9,5.5,2.4c1.3,1.3,1.9,3.1,1.8,4.9
		c-0.2,2.3-1.5,4.3-3.5,5.4C28,60.1,25.7,60.7,23.4,60.7z M20.9,52c-0.1,0-0.3,0.1-0.4,0.2c-0.5,0.6-0.6,1.5,0,2
		c0.6,1,1.7,1.5,2.8,1.5c2.3,0,4.7-1.7,4.8-3c0-0.5-0.2-1.1-1.7-1.4h-0.1c-1.5,0.2-2.9,0.5-4.2,1.1c-0.1,0-0.1,0-0.2,0
		c-0.2,0-0.4-0.1-0.5-0.2C21.3,52.1,21.1,52.1,20.9,52z"/>
	<path id="Fill_273" class="person-with-boards-1" d="M55.7,48.8c-3.7,0.1-11-1-14.3,0.8c-3.2,1.8-1.8,5,1.1,5.7c1.9,0.5,5.1-0.3,7.1-0.4
		c2.6-0.1,5.3-0.1,7.9-0.2c4.4-0.1,8.9,0,13.3,0c4.5,0,9.2,0.1,13.7-0.2c5.7-0.4,5.6-4.7,0-5.3C75.1,48.3,65.2,48.6,55.7,48.8"/>
	<path id="Fill_275" class="person-with-boards-1" d="M46.2,96.9c0,2,1.8,0,1.8,0C48,96.9,46.2,94.9,46.2,96.9"/>
	<path id="Fill_277" class="person-with-boards-1" d="M5.2,80.5c0.1,5.9,0.2,11.9,0.4,17.8c0.1,1.9-0.5,5.5,1.8,6.5c2.5,1.1,3.3-1.6,3.6-3.4
		c0.9-5.7,0-12.2-0.1-18c0-1.9,0.4-4.6-1.8-5.6C7.7,77.3,6,78,5.4,79.5C5.3,79.8,5.2,80.2,5.2,80.5"/>
	<path id="Fill_279" class="person-with-boards-1" d="M105.7,96.9L105.7,96.9c-1-0.1-1.9-0.7-2.3-1.6c-0.9-1.4-0.5-4-0.1-6.4c0.2-1.3,0.4-2.6,0.3-3.9
		c0-0.2,0-0.5-0.1-0.7c-0.1-1.7-0.2-3.2-1.7-3.8c-0.7-0.2-1.4-0.4-2.1-0.3c-0.8,0-1.8,0.1-2.6,0.2c-0.7,0.1-1.4,0.1-1.9,0.1
		c-4.5,0-9.1,0-13.5,0c-13.6,0-27.7,0.1-41.6,0.4c-8.2,0.2-14.5,0.4-20.3,0.7c-3.1,0.1-6.2,0.5-9.3,1.1c-1.3,0.3-2.5,0.4-3.8,0.4
		c-1.6,0-2.5-0.3-2.8-0.9c-0.3-0.6,0-1.4,0.9-2.5c1.5-1.9,6.7-2.3,9.9-2.5c0.6,0,1.1-0.1,1.5-0.1c3.4-0.3,6.9-0.5,10.2-0.6l1.5-0.1
		c8.1-0.3,16.4-0.5,24.4-0.6l3,0c4.8-0.1,9.8-0.1,15.2-0.1c4,0,8.2,0,12.8,0.1c5.3,0,10.7,0.3,16.5,0.8c2.3,0.2,4,0.3,5.3,1
		c1.3,0.7,2.1,2,2.8,4.4c1,3.4,2.1,7.7,1.4,11.4C108.8,95,107.3,96.9,105.7,96.9z"/>
	<path id="Fill_281" class="person-with-boards-1" d="M91.1,100.3c-19.8,2.3-40.1,0.9-60,1c-4.8,0-9.7,0.1-14.5,0.3C14.1,101.7,8,101,6.3,103
		c-3.7,4.1,3,4.8,5.4,4.6c4.9-0.3,9.8-0.5,14.7-0.5c17.3-0.1,34.7,0.7,52-0.2c7.2-0.5,14.4-1.5,21.4-3c1.6-0.3,12.3-2.4,6.2-4.8
		C102.3,97.6,94.9,99.8,91.1,100.3"/>
	<path id="Fill_284" class="person-with-boards-1" d="M30.7,99.8L30.7,99.8c-2.7,0.1-5.4-1-7.3-3c-3.3-3.8-1.1-7.6,1.5-10.9c0.6-0.7,1.4-1,2.3-0.9
		c0.9,0,1.8,0.2,2.7,0.4c0.5,0.1,0.9,0.2,1.3,0.3c0.3,0,0.5,0.1,0.8,0.1c2.1,0.3,3.3,0.4,4.9,2.2c1.5,1.7,2.3,4.1,2,6.4
		c-0.3,1.7-1.3,3.2-2.8,4C34.5,99.3,32.6,99.8,30.7,99.8z M31.4,91c-0.8-0.1-1.5,0.1-2.1,0.6c-0.1,0.1-0.2,0.3-0.2,0.5
		c0.1,0.5,0.9,1.1,2.2,1.1c0.5,0,1.1-0.1,1.6-0.2c-0.2-0.7-0.5-1.4-1-1.9C31.8,91,31.6,91,31.4,91z"/>
	<path id="Fill_286" class="person-with-boards-1" d="M52.4,92c0,4.4,19,2.5,22.4,2.5c2.8,0,19.9,1.6,18.7-3c-1-3.7-17.9-1.9-21.4-1.9
		C68.9,89.7,52.4,87.6,52.4,92"/>
</g>
<g id="Checkmark_" transform="translate(572.212 644.498)" class="person-with-boards-0">
	<path id="Fill_292" class="person-with-boards-1" d="M-195-128.8L-195-128.8c-2,0-3.9-0.3-5.8-0.9c-2-0.6-3.9-1.5-5.7-2.6c-4.2-2.5-7.6-6.1-10-10.4
		c-2.4-4.2-3.5-9.1-3.1-14c-0.5,0.4-1.1,0.6-1.7,0.6c-0.5,0-1-0.3-1.3-0.8c-0.6-1.5-0.6-3.1,0.1-4.5c1.1-1.8,2.3-3.6,3.7-5.1
		c0.2-0.3,0.5-0.6,0.7-0.9c1.9-2.5,4.3-4.4,7.1-5.8c2.8-1.3,5.9-2,9.1-1.9h0.4c5,0,9.9,1,14.5,2.8c2.3,0.9,4.4,2.2,6.4,3.8
		c3.9,3.1,6.5,7.5,7.2,12.5c0.4,2.5,0.3,5-0.1,7.4c-0.8,4.9-3.1,9.5-6.5,13.1C-183.9-131.3-189.3-128.9-195-128.8z M-201.7-169.4
		c-4.5,0-7.7,1.4-9.8,4.4c-2.6,3.7-3.7,8.2-3.1,12.7c1.1,8.3,9.5,18.3,18.6,18.8c0.3,0,0.5,0,0.8,0c9.7,0,17-9.9,17.1-18.7
		c0.1-12.3-12.1-15.9-19.3-16.9C-198.8-169.2-200.2-169.3-201.7-169.4z"/>
	<path id="Fill_294" class="person-with-boards-1" d="M-181.2-177.7c-4.4,3.4-8.4,7.3-11.8,11.8c-3.3,4.2-5.4,9.5-9.3,13.1c-2-2.2-4.3-8-8.2-5.7
		c-3.3,1.9-1.2,5.2,0.4,7.4c4.1,5.6,8.7,7.8,14,2.3c4.8-5,7.5-11.7,12-17c2-2.3,5-4.6,6.6-7.2C-176.1-175.3-177.9-180.1-181.2-177.7
		"/>
</g>
<g id="Whiteboard_Stuff" transform="translate(911.03 120.696)" class="person-with-boards-0">
	<path id="Wireframy_Stuff-2" class="person-with-boards-1" d="M41.9,48.1c-2.2-1-2.1-2.1-1.3-3c-0.5-1.2-0.5-3.2-0.6-4.1c-0.5-3.9-0.8-7.9-0.8-11.8
		c0-7.8,0-15.9,2.2-23.4c-0.8-0.2-1.3-0.9-1.4-1.7c0-3.9,12-3.8,18.1-3.7c1.3,0,2.3,0,2.9,0c4.4-0.1,8.7-0.1,13.1-0.1
		c1,0,2-0.1,3.1-0.1c2.2-0.2,4.4-0.2,6.5,0.2c5.6,1.3,5.2,10.9,5.3,15.5c0.2,8.4,0,16.9-0.6,25.3c-0.2,2.9-2.3,6.5-4.7,2.5
		c-1.3-2.2-0.7-7.3-0.7-9.8c0-8.6,1.3-17.5,0.1-26.1c-0.4-2.8-0.3-3-3.2-2.9c-2.3,0-4.5,0.1-6.8,0.2C68.6,5.1,64,5.2,59.3,5.4
		c-1.8,0.1-8.1,1.2-13,1.2c0,0,0,0.1,0,0.1c0.1,3.3-1.6,7.4-1.8,10.9C44,26,44.7,34.6,43.9,43c0,0.3,0,0.5-0.1,0.8
		c0.1,0,0.3,0,0.4,0c3.7-0.2,7.4-0.1,11.1-0.2c2.3-0.1,4.7-0.1,7.1,0c5.3,0.1,10.5-0.1,15.7-0.6c1.5-0.2,2.1,1.8,1.4,2.8
		c-0.8,1.1-3.2,1.1-4.4,1.2c-3.3,0.4-6.7,0.7-10,0.8c-3.5,0.2-7,0.3-10.6,0.4c-2,0.1-5.8,0.6-8.8,0.6C44.4,48.8,43.1,48.6,41.9,48.1
		z"/>
	<path id="Wireframy_Stuff-3" class="person-with-boards-1" d="M109.8,47.1c0-0.3,0.1-0.7,0.3-0.9c-0.7-0.7-1.1-1.6-1.4-2.5c-1.2-3.8-1.3-8-1.4-12
		c-0.2-8.5-0.1-17.1-0.1-25.6c-0.8-1-0.3-2.2,0.7-3.1c2.6-2.2,10.1-1.7,13.4-1.8c4.8-0.3,9.5-0.3,14.3-0.3c5,0,10.1,0.1,15.1,0.2
		c1.9,0.1,14.9,0.4,9.1,3.5c-0.4,0.2-0.7,0.3-1.1,0.5c0.2,1.2,0.3,2.4,0.2,3.6c-0.2,4.5-0.4,9.1-0.6,13.6
		c-0.2,5.1-0.4,10.1-0.6,15.2c-0.1,2.7,0.8,8.9-1.3,10.8c-0.5,0.5-1.1,0.8-1.8,0.9c-0.5,0-1-0.3-1.3-0.7c-3.6,1.1-10.7,0.9-15.2,0.7
		c-1.8-0.1-3.1-0.2-3.7-0.1c-2,0-8.7,0.7-14.6,0.7C114.5,49.8,109.8,49.2,109.8,47.1z M130,5.3c-5.3,0-10.5,0.3-15.8,0.9
		c-0.3,0-0.6,0.1-1,0.2C114,9.6,113,15,113,18.1c0,8.6,0.3,17.2,0.5,25.8c0,0.3,0,0.5,0,0.8c4.1-0.9,10.8-0.7,15.1-0.5
		c1.7,0.1,3.1,0.1,3.8,0.1c4.2,0,8.5,0,12.7,0.2c0.5,0,1.2,0,2.1,0c1.7-0.1,3.3,0,5,0.1c0-0.2,0-0.4,0-0.6c-0.2-4.6,0-9.2,0.2-13.7
		c0.1-4.6,0.4-9.2,0.6-13.8c0.1-2.4-0.5-7.3,0.1-10.7c-3.1-0.1-6.3-0.4-8.4-0.4c-2.6,0-5.2,0-7.8,0C134.5,5.2,132.2,5.2,130,5.3z"/>
	<path id="Fill_135" class="person-with-boards-4" d="M61.3,47.9c-3.1,1.8-1.4,9.1-0.4,11.7c1.8,4.2,5.4,7.4,9.3,9.6c7.9,4.4,19.2,3.2,25.2,10.8
		c0.1,0.1,2.1,2.1,2.6-0.5c0.4-2.2-3.5-5.5-5-6.6c-4.2-3.1-9.7-4.1-14.6-5.6c-5.2-1.6-11-4.7-13.2-10.1C64.6,55.1,66,45.1,61.3,47.9
		"/>
	<path id="Fill_137" class="person-with-boards-4" d="M132.8,51.4c-2.9,0.8-1,4.7-1,6.7c0,2.5-0.8,5-2.3,7c-3.9,5-11.4,5.7-17,7.2
		c-4.1,1-13.9,3.3-14.3,8.8c-0.4,6.2,8.2-1.3,9-1.7c8.1-3,18.6-3.5,24.8-10.1c2.6-2.7,4.1-6.3,4.3-10
		C136.4,57.2,136.5,50.4,132.8,51.4"/>
	<path id="Fill_139" class="person-with-boards-1" d="M97.2,126.1L97.2,126.1c-2.8,0-5.6-0.5-8.3-1.4c-2.7-0.9-5.3-2.3-7.6-4
		c-2.3-1.7-4.1-3.8-5.6-6.2c-1.4-2.5-2.2-5.2-2.2-8.1c0-2.7,0.6-5.4,1.8-7.8c1.2-2.3,2.9-4.4,4.8-6.1c4.1-3.4,9-5.9,14.2-7.2
		c1.7-0.4,3.4-0.7,5.1-0.7c4.8,0,9.4,1.8,12.9,5.1c3.6,3.4,5.9,7.9,6.4,12.8c0.7,5.7-1,11.5-4.7,15.9c-1.9,2.3-4.3,4.1-7,5.4
		c-2.8,1.4-5.9,2.1-9,2.2C97.8,126,97.5,126.1,97.2,126.1z M80.8,99.1c-2.4,4.2-2.6,8.4-0.4,12.2c3.1,5.3,10.3,9,17.6,9
		c2.4,0,4.8-0.5,7.1-1.4c7.3-3.4,9.3-11.3,8-17.3c-1.1-5.2-5.1-10.7-12.9-10.8c0.5,0.6,0.7,1.3,0.7,2.1c-0.1,0.4-0.4,0.8-0.7,1
		c-0.3,0.2-0.6,0.3-0.9,0.3c-0.7,0-1.2-0.7-1.6-1.3c-0.3-0.6-0.8-1-1.4-1.3c-0.2,0-0.4-0.1-0.5-0.1c-1.4,0-3.2,1.1-4.5,2.1
		c-0.7,0.6-1.4,1.3-2,2c-1.9,2.1-4.4,4.9-6.4,4.9C82,100.5,81.2,99.9,80.8,99.1z"/>
	<path id="Fill_141" class="person-with-boards-1" d="M89.3,102.5c0,2.6,4.2,2.6,4.2,0C93.4,99.9,89.3,99.8,89.3,102.5"/>
	<path id="Fill_143" class="person-with-boards-1" d="M96.6,102c0,3.2,5.1,3.2,5.1,0C101.7,98.8,96.6,98.7,96.6,102"/>
	<path id="Fill_145" class="person-with-boards-1" d="M91.4,109.5c-4.2,2.5,7.7,7.3,8.2,2.3c0.2-2.1-1.9-1.6-3.3-1.7C95,110,92.6,108.8,91.4,109.5"/>
	<path id="Fill_147" class="person-with-boards-4" d="M89.6,126.9c0.2,6.3,0.1,12.5,1.3,18.7c0.2,1.2,0.4,5.4,1.3,6.3c2.3,2.1,2.3-2,2.4-3.5
		c0.3-5.6-0.3-11.4-0.4-17.1c0-1.2,0.3-3.7-0.3-4.9C93,124.5,89.5,123.9,89.6,126.9"/>
	<path id="Fill_149" class="person-with-boards-4" d="M85.1,121.8c-9.1,10.3-21.7,9.5-34.4,10.4c-6.7,0.5-13.5,1.4-18.9,5.8c-2.5,2-4.6,4.5-6.1,7.4
		c-0.6,1.3-3.6,8.5,0.9,6.8c1.6-0.6,3.2-5.4,4.2-6.8c1.9-2.7,4.5-4.9,7.5-6.4c5.8-2.8,12.8-2.7,19.2-3.1c6.6-0.4,13.7-0.7,19.8-3.6
		c2.9-1.3,5.5-3.1,7.9-5.2c0.8-0.8,2.6-2.1,2.7-3.3C88.1,122.4,86.8,119.9,85.1,121.8"/>
	<path id="Fill_151" class="person-with-boards-1" d="M39,153.3c-8.6,0.3-17.1,0.6-25.7,1.2c-1.8,0.1-7.6-0.2-6.1,3.4c1.2,2.9,8.3,1,10.7,0.8
		c8.9-0.5,17.9-0.7,26.8-1.5c2-0.2,11-0.1,7.3-3.7C50.2,151.8,41.5,153.2,39,153.3"/>
	<path id="Fill_153" class="person-with-boards-1" d="M1.7,157.4c-2.7,3.6-1.5,12.2-1.3,16.5c0.2,4.1-0.6,11.7,4.8,12.3c-1.7-0.2,1.3,0.1,1.8,0.1
		c1.1,0.1,2.2,0.1,3.3,0.1c2.5,0,5.1,0,7.6-0.1c5.7-0.1,11.5-0.3,17.2-0.6c2.4-0.1,15.5,0,16-2.5c0.7-3.2-11.9-1.4-14.1-1.3
		c-5.5,0.3-10.9,0.3-16.4,0.4c-2.7,0-5.4,0.1-8.1,0c-1.1,0-5.6,0.4-6.2-0.3c-0.6-0.6-0.1-6.5-0.1-7.4c0-2.9,0-5.8,0.1-8.8
		c0.1-2,1.1-5.7,0.3-7.5c-0.7-1.5-2.5-2.2-4-1.5C2.2,157,2,157.2,1.7,157.4"/>
	<path id="Fill_155" class="person-with-boards-1" d="M45.9,157.6c0.2,6.5,0.2,13.1,1.7,19.5c0.5,2.1,1.2,6.5,3.4,7.6c2.2,1.1,4.2-0.5,4.3-2.7
		c0.2-2.8-1.3-6.4-1.6-9.3c-0.4-3.3-0.6-6.7-0.7-10c-0.1-2.5,0.7-6.3-1.7-7.9c-1.6-1.1-3.7-0.6-4.8,1
		C46.1,156.3,45.9,156.9,45.9,157.6"/>
	<path id="Wireframy_Stuff-4" class="person-with-boards-1" d="M68.9,183.9c-2-0.1-4.2-0.8-3.7-3.4c0.5-2.3,2.8-2.4,4.7-2.6
		c5.8-0.6,11.6-0.8,17.4-0.8c12.2,0,24.5,0,36.7-0.1c0.5,0,1,0.2,1.4,0.5c-0.6-0.8-0.3-1.9-0.5-3c-0.3-3-0.5-6-1.1-9
		c-0.5-2.4-0.8-6.5-3-8.1c-1.9-1.3-5.6-1.2-8.6-1.2c-0.8,0-1.6,0-2.2,0c-7.9-0.1-15.8,0.3-23.6,1.1c-3.6,0.3-7.2,0.6-10.7,1.2
		c-2,0.4-7.7,3.2-9.3,1.5c-3.8-4.3,12.8-6,15.1-6.3c8-0.8,16-1.4,24.1-1.5c5.4,0,14.8-0.5,18.8,4c2.4,2.7,3.2,7.1,4.2,10.4
		c0.7,2.6,2.7,7.2,1.3,9.9c-0.6,1.2-1.6,2.2-3.2,1.8c-0.3-0.1-0.6-0.2-0.9-0.4c0.6,0.6,0.8,1.6,0.5,2.4c-0.9,2.1-4.3,1.7-6.1,1.8
		c-6.1,0.5-12.3,0.9-18.4,0.9c-2.9,0-5.8,0-8.8,0c-3,0-6-0.1-9,0c-4.5,0-9.2,0.9-13.6,0.9C69.8,184,69.3,184,68.9,183.9z"/>
	<path id="Line" class="person-with-boards-4" d="M170.9,148.7L170.9,148.7c-1.5,0-3-2.5-4-4.2c-0.3-0.5-0.5-0.9-0.9-1.3c-1.7-2.4-4.1-4.1-6.8-5.1
		c-5.2-1.8-11-2.4-16.5-3.1c-1.9-0.2-3.9-0.4-5.7-0.7c-1-0.1-2-0.3-3-0.4c-5-0.6-10.7-1.4-15-3.8c-1.9-1.1-7.8-6.5-7.9-10.1
		c0-1,0.5-1.9,1.4-2.4c0.4-0.3,1-0.4,1.5-0.5c1.4,0,2.2,1.6,2.9,2.9c0.2,0.4,0.4,0.9,0.7,1.2c1.6,2.6,4.2,4.5,7.2,5.2
		c4.6,1.2,9.2,2.1,13.9,2.7c1.2,0.2,2.4,0.4,3.7,0.6c1,0.2,2,0.3,3,0.5c5.5,0.8,11.2,1.7,16.2,3.9c2.3,1.4,4.4,3.1,6.2,5.1
		c1.7,1.8,4.6,5.1,4.8,7.4c0.1,0.8-0.3,1.5-1,1.8C171.4,148.7,171.1,148.7,170.9,148.7z"/>
	<path id="Wireframy_Stuff-5" class="person-with-boards-1" d="M142.4,183c-2.1-0.2-4.3-0.9-3.8-3.6c-1.5-2.8-2.1-8.2-2.3-9.2
		c-0.5-4.5-0.7-9.1-0.5-13.7c0-1.7,1.4-3,3.1-2.9c0.6,0,1.2,0.2,1.7,0.6c2.5-1,6.7-1.2,9-1.4c3.7-0.4,7.5-0.5,11.2-0.7
		c8.7-0.5,17.5-1.5,26.2-1.7c2.6-0.1,6.1-0.3,8.2,1.6c2.4,2.2,2.9,7.7,3.6,10.6c0.9,3.2,1.6,6.4,2,9.7c0.2,1.1,0.2,2.2,0.2,3.3
		c1.1,0.2,1.8,1.3,1.6,2.4c-0.2,2.1-3.2,2.4-4.9,2.8c-5.8,1.1-12,0.9-17.8,1c-9.5,0.3-19.5,1.5-29.2,1.5
		C148,183.4,145.2,183.3,142.4,183z M143.6,176.9c0.3,0,0.5,0,0.8,0c6.2-0.1,12.3-0.3,18.5-0.5c6.3-0.2,12.6-0.5,18.9-0.6
		c2.2,0,4.4,0,6.6,0.1c2.9,0.1,5.7,0.2,8.5,0.1c-1.1-2.8-0.9-7.3-1.5-10.2c-0.6-2.9-0.8-6.4-2-9.1c-1.3-3.1-2.5-2.4-5.9-2.1
		c-3.5,0.2-7.1,0.6-10.6,0.9c-7.8,0.6-15.5,1-23.3,1.6c-4,0.3-7.9,1.4-11.8,1.9c-0.1,1.4-0.3,2.8-0.2,3.8c0.1,3,0.4,6,0.6,9
		c0.1,1.2,0.6,3.3,0.7,5.2L143.6,176.9L143.6,176.9z"/>
</g>
<g>
	<g id="Head-5" transform="translate(60.75 -34.875)">
		<path id="Head-6" class="person-with-boards-5" d="M732.2,272l-9.6-44.5c5.3-6.3,9-13.9,8.4-22.6c-1.7-24.8-36.2-19.3-42.9-6.8
			c-6.7,12.4-5.9,44.1,2.7,46.5c3.5,0.9,10.8-1.2,18.2-5.8l-4.7,33.3h27.9V272z"/>
	</g>
	<path id="Hair" class="person-with-boards-6" d="M769.8,202.4c1.8-5.7,2.6-21.8,2.7-26.6c0.2,0,0.5,0,0.9,0c3.8,0,6.9,3.1,6.9,6.9
		c0,1.8-0.7,3.7-2.1,4.9c1.6,2.2,3.5,4.7,5.4,7c7.8-4.7,13.6-18.2,5.9-31.3c-2.1-6.4-6.8-9.9-12.4-11.5c-4.2-1.8-8.9-2.1-13.2-1
		c-7.8,0.6-14.8,3.1-16.8,4.4c0,7.4,1.5,9.6,13.7,9.4c3,1.6,5.3,4.3,7.8,7.9c0,0.2-1.6,22.2-8.4,22.2s-12.7-4.3-15.7-4.3
		c-2.2,0-1.7,2.7-0.2,4.8c1.2,1.7,7,3.3,7,5.9c0,1.5-1.5,1.5-2.7,1.5c-1,0-1.8,0-1.8,0.6c0,2.6-0.9,7.4,3.6,7.4
		C754.7,210.7,767.5,209.1,769.8,202.4z"/>
	<path id="Leg-4" class="person-with-boards-7" d="M817.3,337l-43.5,142.3l-21.1,121h-16.5L758.4,337L817.3,337L817.3,337z"/>
	<path id="Leg-5" class="person-with-boards-5" d="M832.9,337c-3,78.1,0.5,118.4,1.2,125.6c0.6,7.1,9.7,53.1,31.2,140.3l-17.6-6
		C813.8,517,802.3,475.4,798.4,465c-3.8-10.5-14.2-53.1-30.9-127.9L832.9,337L832.9,337z"/>
	<path id="shoe-3" class="person-with-boards-8" d="M861.8,595.1c1.2-0.4,2.5,0.2,2.8,1.5v0.1l2.2,7.8c-0.1,3.1-0.5,6.2-1,9.1h-64.5
		c0,0-2.5-8.4,3-9.1c5.4-0.7,9-1.2,9-1.2l29.9-13.6c0.6-0.2,1.2,0,1.5,0.6l0,0l2,4.7c0,0,5.1,2.3,8.1,2.3L861.8,595.1z"/>
	<path id="shoe-4" class="person-with-boards-8" d="M753.3,595.1c1.2-0.4,2.5,0.2,2.8,1.5v0.1l2.2,7.8c-0.1,3.1-0.5,6.2-1,9.1h-64.5
		c0,0-2.5-8.4,3-9.1s9-1.2,9-1.2l29.9-13.6c0.6-0.2,1.2,0,1.5,0.6l0,0l2,4.7c0,0,5.1,2.3,8.1,2.3L753.3,595.1z"/>
	<path id="Bottom-3" class="person-with-boards-2" d="M823.1,337l-18.5,72.5h-56.4l8.4-72.5H823.1z"/>
	<path id="Bottom-4" class="person-with-boards-1" d="M833.5,337c9.1,27.4,3.5,72.5,3.5,72.5h-57.6L763.5,337H833.5z"/>
	<path id="Skin-3" class="person-with-boards-5" d="M910.1,405.4c1.1-1,2.1-4.1-1.6-5.9c-9.2-4.6-22.8-12.9-24.9-16c-4.3-6.3-25-71-25-71l-23.9,3.5
		c0,0,32.2,68.3,34.6,72.5c3.6,6.2-0.6,17-2.2,22.7c4.1,1.1,5.4-1.2,7.1-3.7c1.7-2.6,3.7-5.2,9.1-3.6c6.9,2.1,12.9,6.2,19.3,5.3
		C905.5,408.6,908,407.4,910.1,405.4z M696.4,369.9l30.9-24.6l-13.4-17.1l-28,36.1c-8.9,5.3-16,10.8-21.3,16.5
		c-1.1,1.8-2.2,5.2,4.1,2.8c6.2-2.3,12.8-4.4,14.3-2.6c1.5,1.8-1.6,5.5,1,8c0.2,0.2,0.5,0.2,0.7,0.2
		C686.7,389.3,690.6,382.8,696.4,369.9z"/>
	<path id="Coat_Back_1_" class="person-with-boards-9" d="M776.5,221.8l-10.1-0.2c-11.1,44.9-35.4,87.7-73.1,128.4l37.6,34.4
		C766.4,328.9,785.5,274.2,776.5,221.8z"/>
	<path id="Shirt_1_" class="person-with-boards-10" d="M837.2,340l-88.2,12.3c0,0,20.2-78.8,12.9-130.6l26-7.6C813.5,244.6,825.2,285.1,837.2,340z"/>
	<path id="Coat_Front_1_" class="person-with-boards-9" d="M882.5,372c-24.9-107.2-94-158.1-94-158.1l0,0l0,0l-1.7,0.2c-3.1,0.5-9.5,1.7-9.5,1.7
		l-3.8,19.2c3.7,33.6,7,136.8,7,136.8l57.7-8.1c0.6,4.7,1,9.4,1.4,14.3L882.5,372z"/>
	<path id="Shade-3" class="person-with-boards-11" d="M822.3,366.6l16-2.2c-2.2-19-6.4-37.7-12.3-56c0.7,10.7,1,21.4,0.6,32.2
		C826.1,352.2,824.6,360.9,822.3,366.6L822.3,366.6z"/>
	<path id="Light-3" class="person-with-boards-12" d="M820.5,330.6l-30.3-9.2l1.8,13.2L820.5,330.6z"/>
</g>
</svg>
