<?xml version="1.0" encoding="utf-8"?>
<!-- Generator: Adobe Illustrator 23.0.3, SVG Export Plug-In . SVG Version: 6.00 Build 0)  -->
<svg xmlns="http://www.w3.org/2000/svg" xmlns:xlink="http://www.w3.org/1999/xlink" x="0px" y="0px"
	 viewBox="0 0 1793.1 1125.4" style="enable-background:new 0 0 1793.1 1125.4;" xml:space="preserve">
<style type="text/css">
	.subscribe-4-0{fill:#F8FAFD;}
	.subscribe-4-1{fill:#E7EAF3;}
	.subscribe-4-2{fill:#377DFF;}
	.subscribe-4-3{fill:none;stroke:#1E2022;}
	.subscribe-4-4{fill:#1E2022;}
	.subscribe-4-5{fill:#FFFFFF;}
	.subscribe-4-6{fill:#FFFFFF;stroke:#1E2022;}
	.subscribe-4-7{fill:#00C9A7;}
</style>
<ellipse class="subscribe-4-0 fill-gray-200" cx="896.5" cy="1039.6" rx="896.5" ry="85.8"/>
<path class="subscribe-4-1 fill-gray-300" d="M1406.2,469.3l-1.7,53.1c0,0,18.3-13.9,23-17.9c3.2-16.5-0.9-43.2-3.2-46.6L1406.2,469.3z"/>
<path class="subscribe-4-1 fill-gray-300" d="M1322.3,612.7c11.8,0.4,24.1,0.4,34.8-0.2c-45.9-52.1-29.9-183.2-29.9-190.3l-8.4,2.8
	c-1.9,18.8-8.2,60.9-16.6,83.2C1304.9,521.8,1315.7,578.4,1322.3,612.7z"/>
<path class="subscribe-4-1 fill-gray-300" d="M1267.8,559.6l-4.7-9.7l1.7,21.7l2.2,18.1l1.3,3.6l2.5,2.7l0.7,3.7l0.6,9.6c0,0,7.3,0.8,18.2,1.6
	C1282.7,594.1,1274.4,575.4,1267.8,559.6L1267.8,559.6z"/>
<path class="subscribe-4-2 fill-primary" d="M1296.9,918.8c0,0-45,37.1-45,42s14.5,33.1,18,33.1s192.4-154.4,192.4-159.1s-67.7-235.9-67.7-235.9
	L1296.9,918.8z"/>
<path class="subscribe-4-3 fill-none stroke-dark" stroke-width="2" stroke-linecap="round" stroke-linejoin="round" d="M1404.5,522.3c21.7-13.1,74-66.2,77.4-70.3c41.1-10.6,42.9-28,42.9-30.6s1.2-11.3-13.5-11.3
	c-12.7,0-80.7,43.9-105.1,59.2"/>
<path class="subscribe-4-3 fill-none stroke-dark" stroke-width="2" stroke-linecap="round" stroke-linejoin="round" d="M1318,293.1c-12.6,3.5-22.5,13.4-30.3,27.6"/>
<path class="subscribe-4-3 fill-none stroke-dark" stroke-width="2" stroke-linecap="round" stroke-linejoin="round" d="M1263,548.1c1.5,23.8,3.5,40.3,4.5,43.5c1.6,5,8.8,8.5,19,10.9"/>
<path class="subscribe-4-3 fill-none stroke-dark" stroke-width="2" stroke-linecap="round" stroke-linejoin="round" d="M1321.1,606.4c33.2,1.2,70.1-2.7,73.5-7.5c5.5-7.8,38.5-255.3-39.5-300.2"/>
<polygon class="subscribe-4-4 fill-dark" points="1463.9,422.1 1511.7,392 1538.4,406.8 1489.5,438.7 "/>
<path class="subscribe-4-3 fill-none stroke-dark" stroke-width="2" stroke-linecap="round" stroke-linejoin="round" d="M1259.2,418.3c-2,21.5-6.6,90.6-4.2,106.3c2.8,18.2,57.4,134.2,57.4,134.2l14.9-19.3c0,0-21.2-111.4-25.1-131.3
	c8.5-22.3,14.8-64.4,16.6-83.2"/>
<path class="subscribe-4-3 fill-none stroke-dark" stroke-width="2" stroke-linecap="round" stroke-linejoin="round" d="M1329.6,407.4c-0.1,7.7-1,13.2-2.4,14.8c-6.7,7.5-66.1,1.5-71.7-6.4s3.8-96.4,37.1-95.7
	c6.4,0.2,11.9,3.4,16.5,8.7"/>
<path class="subscribe-4-3 fill-none stroke-dark" stroke-width="2" stroke-linecap="round" stroke-linejoin="round" d="M1318,255.7v50.8c0,3.5,9.3,5.4,18.6,5.4"/>
<path class="subscribe-4-3 fill-none stroke-dark" stroke-width="2" stroke-linecap="round" stroke-linejoin="round" d="M1355.1,298.8v-19.2"/>
<path class="subscribe-4-3 fill-none stroke-dark" stroke-width="2" stroke-linecap="round" stroke-linejoin="round" d="M1380.2,219.5c1.5,29.2-9.3,54-25.1,60.1"/>
<path class="subscribe-4-3 fill-none stroke-dark" stroke-width="2" stroke-linecap="round" stroke-linejoin="round" d="M1318,255.7c-0.5-1-0.9-2-1.3-3"/>
<path class="subscribe-4-3 fill-none stroke-dark" stroke-width="2" stroke-linecap="round" stroke-linejoin="round" d="M1302.7,239.9c-9.6-4.9-18.7-17.5-18.7-28.5c0-15,19.1-15.8,19.1-29.9c0-3.4,3.3-32.4,26.5-32.4
	c7.4,0,13.2,3.3,26.5,3.3c22.4,0,25.7-10,39.8-10c7.5,0,21.6,6.6,21.6,20.7c0,8.3-2.5,14.9-2.5,20.7c0,6.7,3.3,13.3,3.3,19.1
	c0,14.1-20.8,19.1-24.9,19.1"/>
<path class="subscribe-4-3 fill-none stroke-dark" stroke-width="2" stroke-linecap="round" stroke-linejoin="round" d="M1316.6,252.7c-4.8,0-8.7-3.9-8.7-8.7s3.9-8.7,8.7-8.7"/>
<path class="subscribe-4-3 fill-none stroke-dark" stroke-width="2" stroke-linecap="round" stroke-linejoin="round" d="M1370.7,240.6c-2.2-2.7-3-8.9-3-12.3"/>
<path class="subscribe-4-3 fill-none stroke-dark" stroke-width="2" stroke-linecap="round" stroke-linejoin="round" d="M1360.9,252.7c-4.4,0-6.4-5-6.4-7.4"/>
<ellipse class="subscribe-4-4 fill-dark" cx="1358.9" cy="228.5" rx="1.6" ry="2.7"/>
<path class="subscribe-4-2 fill-primary" d="M1286,601.7c-8-2.3-13.6-4.7-16.3-6.6l21.1,418.8l0.2,2.2h36.3c0,0,62.8-380.4,67.2-417.2
	c-23.8,6.7-48.6,9.5-73.4,8.2l6.2,32.4l-14.9,19.3C1312.4,658.8,1299.7,631.8,1286,601.7z"/>
<path class="subscribe-4-4 fill-dark" opacity=".1" d="M1286,601.7c-8-2.3-13.6-4.7-16.3-6.6l21.1,418.8l0.2,2.2h36.3c0,0,62.8-380.4,67.2-417.2
	c-23.8,6.7-48.6,9.5-73.4,8.2l6.2,32.4l-14.9,19.3C1312.4,658.8,1299.7,631.8,1286,601.7z"/>
<polyline class="subscribe-4-3 fill-none stroke-dark" stroke-width="2" stroke-linecap="round" stroke-linejoin="round" points="1315.2,1014.5 1315.2,1041.2 1365.6,1064 1295.7,1064 1295.7,1016.1 "/>
<polyline class="subscribe-4-3 fill-none stroke-dark" stroke-width="2" stroke-linecap="round" stroke-linejoin="round" points="1265.8,979.9 1242.9,993.7 1249.6,1048.6 1213.4,988.8 1254.4,964.1 "/>
<path class="subscribe-4-2 fill-primary" opacity=".1" d="M1713,181.8h-121.3c-21.9,0-39.7,17.7-39.7,39.7c0,11.5,4.9,21.8,12.7,29.1v26.6l17.2-17.2
	c3.1,0.8,6.4,1.2,9.8,1.2H1713c21.9,0,39.7-17.8,39.7-39.7S1734.9,181.8,1713,181.8z"/>
<circle class="subscribe-4-2 fill-primary" cx="1611.4" cy="222.7" r="10"/>
<circle class="subscribe-4-2 fill-primary" cx="1652.3" cy="222.7" r="10"/>
<circle class="subscribe-4-2 fill-primary" cx="1693.3" cy="222.7" r="10"/>
<path class="subscribe-4-5 fill-white" d="M769.5,509.3v427.7c0,31.3-25.3,56.6-56.6,56.6H380.5c-31.3,0-56.6-25.3-56.6-56.6l0,0V88.3
	c0-31.3,25.3-56.6,56.6-56.6h332.4c31.3,0,56.6,25.3,56.6,56.6l0,0L769.5,509.3"/>
<path class="subscribe-4-1 fill-gray-300" d="M570.8,509.5c-6.7,3.7-64.8,100.3-61.3,179.5c9.1-2.6,30.5-13.8,30.5-13.8l9.8-5.8l6.2-33.8l8.1-38.3l15-48
	l18-35l14-20l-13,4L570.8,509.5z"/>
<path class="subscribe-4-1 fill-gray-300" d="M736.5,658.8c0,0.5,0,1.2,0,2.1c0.6,22.3,7.4,154-84,207.9c41,46,108,5,108,5l9-10v-157l-2-4l-11-40l-14,1
	L736.5,658.8z"/>
<path class="subscribe-4-2 fill-primary" d="M687.6,1011.4l-73.5-101.8c0,0-48.1-43.5-67.4-58.2c-0.2,15,0.8,122.6,5.4,159.9L687.6,1011.4L687.6,1011.4z"/>
<path class="subscribe-4-4 fill-dark" opacity=".2" d="M687.6,1011.4l-73.5-101.8c0,0-48.1-43.5-67.4-58.2c-0.2,15,0.8,122.6,5.4,159.9L687.6,1011.4L687.6,1011.4z"/>
<path class="subscribe-4-2 fill-primary" d="M755.8,995.2h13.6V861.3c-34.4,11-201.4,12-222.8-9.7c0,1.7,32,88.6,89.7,156h119.4L755.8,995.2L755.8,995.2z"
	/>
<path class="subscribe-4-3 fill-none stroke-dark" stroke-width="2.5" stroke-linecap="round" stroke-linejoin="round" d="M509,591.3c-3.6,4-3.7,11.7-3.7,11.7c-4.5-13.4-102.7-257.7-102.7-257.7s-20.3,8.6,3.1,54.8
	c-7.6,4.5-28.7,21.4-20,48.6c6.6,20.4,21,27.6,30,27.6c-1.5,15.3,31.2,171.6,35.5,179.1c10,17.7,29.3,37,40.7,37.5
	c13,0.7,39.6-11.3,57.7-22.8"/>
<path class="subscribe-4-3 fill-none stroke-dark" stroke-width="2.5" stroke-linecap="round" stroke-miterlimit="10" d="M610.1,494.3c-49.4,9.2-112.1,67.3-110.5,79.8c1.5,11.8,32.3,46,55.7,62.3"/>
<path class="subscribe-4-3 fill-none stroke-dark" stroke-width="2.5" stroke-linecap="round" stroke-miterlimit="10" d="M641.1,466.8c-106,59.8-108,366-94.4,384.7C560,870,718.5,874.8,769.5,862"/>
<path class="subscribe-4-3 fill-none stroke-dark" stroke-width="2.5" stroke-linecap="round" stroke-miterlimit="10" d="M765.6,503.3c-14.5-21.2-33.7-36.6-58.5-43"/>
<path class="subscribe-4-3 fill-none stroke-dark" stroke-width="2.5" stroke-linecap="round" stroke-miterlimit="10" d="M756.9,662.3c2.7,11.5,8.2,33,13.7,53.4"/>
<path class="subscribe-4-3 fill-none stroke-dark" stroke-width="2.5" stroke-linecap="round" stroke-miterlimit="10" d="M725,636.5c5.2,14.9,10.8,25.2,14.9,26.5c5,1.6,16.4,0,29.6-3.5"/>
<path class="subscribe-4-3 fill-none stroke-dark" stroke-width="2.5" stroke-linecap="round" stroke-miterlimit="10" d="M769.5,505.8c-8.8-6.4-17.6-9.6-26-7.6"/>
<path class="subscribe-4-3 fill-none stroke-dark" stroke-width="2.5" stroke-linecap="round" stroke-miterlimit="10" d="M641.1,466.8v-17.2"/>
<path class="subscribe-4-3 fill-none stroke-dark" stroke-width="2.5" stroke-linecap="round" stroke-miterlimit="10" d="M707,418.2v71.4c0,5.8-15.5,9.3-31.5,9.8"/>
<path class="subscribe-4-3 fill-none stroke-dark" stroke-width="2.5" stroke-linecap="round" stroke-miterlimit="10" d="M706.8,418.2c6,3.3,15.1-0.2,20.8-8.3c6.1-8.5,6.2-18.9,0.3-23.1c-1.6-1.1-3.4-1.7-5.3-1.8"/>
<path class="subscribe-4-3 fill-none stroke-dark" stroke-width="2.5" stroke-linecap="round" stroke-miterlimit="10" d="M612,345.5c-1,2.1-2,4.3-2.8,6.6c-16.1,40.8-4.6,83.5,25.8,95.5c2,0.8,4.1,1.5,6.2,2"/>
<path class="subscribe-4-3 fill-none stroke-dark" stroke-width="2.5" stroke-linecap="round" stroke-miterlimit="10" d="M744.6,394.1c12.3-3.7,27.7-12.4,27.7-30c0-11-10.3-23.1-12.2-36.9c-1-7,1.2-36.1-7-46c-17-20.4-27-16.3-40-21
	c-22.6-8.3-31.3-22-50-22c-21.2,0-29.8,11-45,11c-17.4,0-31.6-8-56-8c-13,0-30,17-30,32c0,35.5,33,30.4,33,39c0,6-2,10.8-2,19
	c0,4.4,2.3,8,5.6,10.8"/>
<path class="subscribe-4-1 fill-gray-300" d="M377.5,232h49.9c14.8,0,26.8,12,26.8,26.8v49.9c0,14.8-12,26.8-26.8,26.8h-49.9c-14.8,0-26.8-12-26.8-26.8
	v-49.9C350.7,244,362.7,232,377.5,232z"/>
<circle class="subscribe-4-2 fill-primary" cx="441.8" cy="240.3" r="21.2"/>
<path class="subscribe-4-6 fill-white stroke-dark" stroke-width="2.5" stroke-miterlimit="10" d="M714.6,1.3H378.7c-45.2,0-81.9,36.7-81.9,81.9v858.8c0,45.2,36.7,81.9,81.9,81.9l0,0h335.9
	c45.2,0,81.9-36.7,81.9-81.9V83.1C796.5,37.9,759.9,1.3,714.6,1.3z M769.5,509.3v427.7c0,31.3-25.3,56.6-56.6,56.6H380.5
	c-31.3,0-56.6-25.3-56.6-56.6l0,0V88.3c0-31.3,25.3-56.6,56.6-56.6h55.1V49c0,8.7,7,15.7,15.7,15.7h190.8c8.7,0,15.7-7,15.7-15.7
	V31.6h55.1c31.3,0,56.6,25.3,56.6,56.6l0,0L769.5,509.3z"/>
<path class="subscribe-4-7 fill-success" d="M888,128.3H766.7c-21.9,0-39.7,17.8-39.7,39.7c0,11.5,4.9,21.9,12.8,29.1v26.6l17.2-17.2
	c3.1,0.8,6.4,1.2,9.7,1.2H888c21.9,0,39.7-17.8,39.7-39.7S909.9,128.3,888,128.3z"/>
<circle class="subscribe-4-5 fill-white" cx="786.4" cy="169.3" r="10"/>
<circle class="subscribe-4-5 fill-white" cx="827.3" cy="169.3" r="10"/>
<circle class="subscribe-4-5 fill-white" cx="868.3" cy="169.3" r="10"/>
<path class="subscribe-4-3 fill-none stroke-dark" stroke-width="9" stroke-linecap="round" stroke-miterlimit="10" d="M247.6,911.5c2-5.7,3.2-12.8,3.2-21.7c0-133.5-158-97.5-158-208.4"/>
<path class="subscribe-4-7 fill-success" d="M120.5,680.7c8.5,11.2-20.1,23.9-24.3,18.6S111.3,668.8,120.5,680.7z"/>
<path class="subscribe-4-7 fill-success" d="M260.4,484.3c10.4,13.6-20.4,26-25.4,19.5S249.3,469.8,260.4,484.3z"/>
<path class="subscribe-4-7 fill-success" d="M252,540.5c8.3,15-32,27.1-36,19.9S243.2,524.5,252,540.5z"/>
<path class="subscribe-4-7 fill-success" d="M254.5,583.3c10.9,13.2-26.6,32.4-31.8,26.1C217.5,603,242.9,569.2,254.5,583.3z"/>
<path class="subscribe-4-7 fill-success" d="M267.2,631.3c10.9,13.2-26.6,32.4-31.8,26.1C230.3,651,255.6,617.2,267.2,631.3z"/>
<path class="subscribe-4-7 fill-success" d="M278.4,675.8c9.9,12-22.9,28.4-27.6,22.6S267.8,663,278.4,675.8z"/>
<path class="subscribe-4-7 fill-success" d="M293.4,724.8c9.9,12-22.9,28.4-27.6,22.6S282.9,712,293.4,724.8z"/>
<path class="subscribe-4-7 fill-success" d="M66,671.8c3.6-13.6,31.3,1.3,29.6,7.8C93.9,686,62.2,686.3,66,671.8z"/>
<path class="subscribe-4-7 fill-success" d="M65.6,719.8c-1.8-13.9,29.5-10.5,30.3-3.8C96.7,722.7,67.4,734.7,65.6,719.8z"/>
<path class="subscribe-4-7 fill-success" d="M93.2,763.3c-9.1-10.7,18.9-25,23.3-19.9S102.9,774.7,93.2,763.3z"/>
<path class="subscribe-4-7 fill-success" d="M127.8,786.7c-5.5-12.9,25.5-18.1,28.1-11.9S133.7,800.5,127.8,786.7z"/>
<path class="subscribe-4-7 fill-success" d="M174.4,811c-5.5-12.9,25.5-18.1,28.1-11.9S180.2,825,174.4,811z"/>
<path class="subscribe-4-7 fill-success" d="M209.2,846.5c-1.2-14,29.9-9.3,30.5-2.6S210.5,861.5,209.2,846.5z"/>
<path class="subscribe-4-7 fill-success" d="M135.5,710.7c11,8.8-13.8,28.1-19.1,23.9S123.8,701.3,135.5,710.7z"/>
<path class="subscribe-4-7 fill-success" d="M160.5,735.8c12.1,7.2-9.7,29.7-15.5,26.3C139.1,758.7,147.5,728,160.5,735.8z"/>
<path class="subscribe-4-7 fill-success" d="M206.1,760.3c11.4,8.3-12.5,28.7-18,24.7S194,751.5,206.1,760.3z"/>
<path class="subscribe-4-3 fill-none stroke-dark" stroke-width="9" stroke-linecap="round" stroke-miterlimit="10" d="M244.6,911.3c13.9-22.9,30.8-57.5,30.8-96.6c0-107.8-60.2-161.8-60.2-238.8c0-14.6,1.3-60.4,24.5-79"/>
<path class="subscribe-4-6 fill-white stroke-dark" stroke-width="2.5" stroke-linecap="round" stroke-miterlimit="10" d="M292.8,1063.7h-88.4c-4.1,0-7.8-2.6-9.1-6.6l-44-133.3c-1.6-5,1.1-10.4,6.1-12.1c1-0.3,2-0.5,3-0.5h176.8
	c5.3,0,9.6,4.3,9.6,9.6c0,1-0.2,2-0.5,3l-44.4,133.3C300.6,1061.1,296.9,1063.7,292.8,1063.7z"/>
<path class="subscribe-4-1 fill-gray-300" d="M285.6,911.5c2.5,3.7,21.1,108.6-74.7,152.1c26.3-0.9,33.2,0.6,33.2,0.6h50l8-5l19-57l13.5-42l12.5-39l-3-7.1
	l-6-3.9L285.6,911.5z"/>
<path class="subscribe-4-7 fill-success" d="M307.7,780.8c5.2,14.7-31.2,18.9-33.6,11.9C271.5,785.8,302.1,765.2,307.7,780.8z"/>
<path class="subscribe-4-7 fill-success" d="M248.2,802.5c11.5-10.4,29.5,21.5,23.9,26.5C266.6,834,235.9,813.8,248.2,802.5z"/>
<path class="subscribe-4-7 fill-success" d="M238.9,762.8c7.7-13.5,34.7,11.1,31.1,17.5C266.3,786.8,230.7,777.3,238.9,762.8z"/>
<path class="subscribe-4-7 fill-success" d="M230.2,715.5c7.7-13.5,34.7,11.1,31.1,17.5S222,730,230.2,715.5z"/>
<path class="subscribe-4-7 fill-success" d="M214.7,678c5-14.8,36.2,4.3,33.8,11.4S209.4,693.8,214.7,678z"/>
<path class="subscribe-4-7 fill-success" d="M192.8,626.3c7.3-13.8,35,10.1,31.5,16.7S185,641,192.8,626.3z"/>
<path class="subscribe-4-7 fill-success" d="M182.4,568.7c8.5-13,34,13.3,29.9,19.5S173.3,582.5,182.4,568.7z"/>
<path class="subscribe-4-7 fill-success" d="M187.5,519c8.5-13,34,13.3,29.9,19.5C213.3,544.8,178.4,533,187.5,519z"/>
<path class="subscribe-4-7 fill-success" d="M307.7,832c5.2,14.7-31.2,18.9-33.6,11.9C271.5,836.8,302.1,816.3,307.7,832z"/>
<path class="subscribe-4-3 fill-none stroke-dark" stroke-width="2.5" stroke-linecap="round" stroke-miterlimit="10" d="M630,357.3c0,5-1,21-7,25"/>
<path class="subscribe-4-3 fill-none stroke-dark" stroke-width="2.5" stroke-linecap="round" stroke-miterlimit="10" d="M626.5,408.8c10,0,19-6,19-10"/>
<ellipse class="subscribe-4-4 fill-dark" cx="652" cy="359.8" rx="3.5" ry="6"/>
<path class="subscribe-4-3 fill-none stroke-dark" stroke-width="2.5" stroke-linecap="round" stroke-miterlimit="10" d="M292.8,1063.7h-88.4c-4.1,0-7.8-2.6-9.1-6.6l-44-133.3c-1.6-5,1.1-10.4,6.1-12.1c1-0.3,2-0.5,3-0.5h176.8
	c5.3,0,9.6,4.3,9.6,9.6c0,1-0.2,2-0.5,3l-44.4,133.3C300.6,1061.1,296.9,1063.7,292.8,1063.7z"/>
</svg>
