<?xml version="1.0" encoding="utf-8"?>
<!-- Generator: Adobe Illustrator 23.0.3, SVG Export Plug-In . SVG Version: 6.00 Build 0)  -->
<svg version="1.1" id="Vector" xmlns="http://www.w3.org/2000/svg" xmlns:xlink="http://www.w3.org/1999/xlink" x="0px" y="0px"
	 viewBox="0 0 1097.5 696.6" style="enable-background:new 0 0 1097.5 696.6;" xml:space="preserve">
<style type="text/css">
	.st0{fill:none;stroke:#000000;stroke-width:4;stroke-linecap:round;stroke-linejoin:round;}
	.st1{fill:none;stroke:#000000;stroke-width:2.5;stroke-linecap:round;stroke-linejoin:round;}
	.st2{fill:none;stroke:#000000;stroke-width:2.5;stroke-miterlimit:10;}
	.st3{fill:#F2F2F2;}
	.st4{fill:none;stroke:#000000;stroke-width:2.5;stroke-linecap:round;stroke-miterlimit:10;}
	.st5{fill:none;stroke:#000000;stroke-linecap:round;stroke-linejoin:round;}
</style>
<title>Artboard 1</title>
<line class="st0" x1="938.6" y1="535.8" x2="876.1" y2="430.5"/>
<line class="st0" x1="966.8" y1="535.8" x2="904.5" y2="430.9"/>
<line class="st0" x1="764.3" y1="527.5" x2="821.8" y2="430.8"/>
<path class="st1" d="M916,196h88.9l-64.5,233.8H776.6v-8.3H898l2.6-54.5"/>
<path d="M719.3,349.5c-13.5,0-80.6,156.3-80.6,162s14.6,12.2,16.7,12.2c3.3-3.1,67.6-96,74.3-102.5S719.3,349.5,719.3,349.5z"/>
<path class="st1" d="M757,271.7c-4.1-3.3-9.2-5-14.5-4.9c-10.7,0-19.4,6.6-19.4,14.7"/>
<path class="st1" d="M818.2,240.5c-6.8,6.2-15.7,16.7-19.9,29"/>
<path class="st1" d="M854.5,205.6c-2.3-1-4.8-1.6-7.3-1.6c-13.7,0-36.9,25-36.9,28.1c0,2.7,12.5,13.5,24.2,16.9"/>
<path class="st1" d="M831.2,273.6c2.5-36.8,13.8-71.9,44.8-81.3"/>
<path class="st1" d="M945.2,243.1c13.9,52.2,4.4,124.7-1.9,129.4c-9.9,7.4-96,8.1-101.6,0.7c-2.4-3.1-9.9-36.1-11-73.3"/>
<path class="st1" d="M907,192c11.9,3.8,20.9,12.6,27.7,24.3"/>
<path class="st1" d="M891.5,202.9c7.8,0,15.5-1.6,15.5-5v-33.3"/>
<path class="st1" d="M876,180.3v12"/>
<path class="st1" d="M888.5,180.1c-3.3,1.1-6.7,1.3-10.1,0.8c-16.7-2.7-27-25-23.1-49.8c0.2-1,0.3-2,0.5-3"/>
<path class="st1" d="M913.6,150.5c-1.6,5-3.8,9.7-6.6,14.1"/>
<path class="st2" d="M920.6,89.3c4.4-7.7,15.7-20.6,37.7-20.6c15,0,30,8,49,8c15,0,29-6,47-6c32,0,42,21,42,34c0,33-27,46-47,46
	c-32,0-36-22-74-22c-37,0-32-30-40-30c-1.9-0.1-3.8,0.1-5.6,0.6"/>
<path class="st1" d="M911.3,159.7c16.3,0,24-16.8,24-38c0-35-30.9-42-44-42c-35.4,0-42.8,26.9-42.8,34.7s4.9,13.5,7.4,13.7
	c1.6-9.3,9-22.1,9.3-22.4c3.3,3.2,7.2,5.8,11.4,7.6"/>
<path class="st1" d="M909.6,134c1.1-0.5,2.3-0.8,3.6-0.8c4.8,0,8.6,3.9,8.6,8.6s-3.9,8.6-8.6,8.6c-0.9,0-1.8-0.1-2.6-0.4"/>
<path class="st1" d="M830.8,299.9c10.2,4.2,19.9,7.4,31.9,7.4c9.4,0,27.3-5.8,40.8-20.4"/>
<path class="st1" d="M876.1,259.2c-7.2,5.3-13.2,12.1-17.7,19.8c-8.3-1.5-41.8-9.9-71.6-9.9c-2.8,0-10.1-2.3-13-2.3
	c-17.5,0-21.1,9.4-21.1,12.2s0.6,2.9,1.1,2.9c38.6,0,58.6,10.5,76.9,17.9"/>
<path class="st1" d="M918.6,217.8c9.9-2.8,19-2.8,24.7,2.7c18.7,18.2-28.7,68.5-36.3,67.8s-35-29.6-35.3-38.4
	c-0.1-3,6.2-9.5,15.2-16"/>
<rect x="558.5" y="284.2" width="423.2" height="13.7"/>
<line class="st0" x1="959" y1="501.6" x2="959" y2="294"/>
<line class="st0" x1="607.4" y1="501.6" x2="607.4" y2="294"/>
<line class="st0" x1="929.3" y1="543.1" x2="929.3" y2="294"/>
<line class="st0" x1="576" y1="543.1" x2="576" y2="294"/>
<line class="st0" x1="785.8" y1="540.1" x2="850.8" y2="430.8"/>
<rect x="713.8" y="281.7" width="70.3" height="2.5"/>
<polyline class="st1" points="685.2,229.5 635.9,229.5 635.9,118.1 789.3,118.1 789.3,229.5 721.8,229.5 "/>
<polygon class="st1" points="691,208.5 669.9,284.2 707,284.2 727.5,208.5 "/>
<path class="st1" d="M862.6,101.5c0.6,1.6,1.5,3,2.6,4.3"/>
<polyline class="st1" points="765.5,533.9 769.9,558.2 718,568.3 753.5,545.4 751.8,535.8 "/>
<polyline class="st1" points="655.6,520.9 643.1,542 596.7,514.4 639,521.4 644,513.1 "/>
<path d="M943.2,381.2c0-4.3,0.8-9.3-1.9-10.4c-63.6-26.2-156.8-29.6-171.1-29.6s-56.3,1.5-56.3,13.5c0,43.4,24.2,176.9,29.1,181.9
	c2.3,2.3,22.7,0.8,25.2-1.8c-0.2-11,6.2-121.5,0.4-134.9c53.5,19.6,114.2,28.9,130.2,28.9C945,428.8,943.2,386.3,943.2,381.2z"/>
<path class="st3" d="M25.8,202.5l0.6,0.3c0-0.3,0.1-0.6,0.1-0.9l-0.2,0.8L25.8,202.5z"/>
<path class="st3" d="M56.2,130.2l13.5,1.3l10.7-1.7l2.4-1.6c-4.5,1.8-9.3,2.7-14.2,2.8c-8.4,0-15.5-1.8-20.8-5.2l0.9,1.1L56.2,130.2
	z"/>
<path d="M31,273c0.5,10.4,0,403.4,0,403.4h27.4l41.9-258.3"/>
<path class="st1" d="M11.1,194.2c-1.4,2.1-10.4,23.1-9.8,31.4c1,12.7,9.7,19.7,24.6,27.4"/>
<path class="st4" d="M40.9,139.3c-20,15.5-37,45.9-33.7,51.5c1.6,2.6,9.8,7.3,19.2,11.5"/>
<path class="st4" d="M117,18.3c6.7,9.9,9.1,24.1,5.6,38.5c-4.1,16.7-15.1,29.4-27.8,33.9"/>
<path class="st4" d="M142.6,241.3c1.2,15.5,0.9,26.6-0.8,28.9c-10,13.3-81.3,24-110.8,2.8c-8.6-6.1-11.7-100.9,16.7-147.2"/>
<path class="st4" d="M93.9,102.4c9.1,3.8,16.9,14.4,23.4,28.6"/>
<polyline class="st4" points="31,676.5 31,695.3 95.4,695.3 95.4,684.7 58.4,676.5 "/>
<polyline class="st4" points="95.4,673.1 95.4,695.3 162.9,695.3 162.9,686.7 121.8,673.1 "/>
<path class="st1" d="M149.5,184c1.2,1.3,12.1,17.1,13.6,20.5c3-2.6,99.9-83.8,101.4-84.9c1.6-1.1,4.3-1,5.4-0.3
	c1.8,1.2,2.4,3.5,1.5,5.5c-0.9,1.6-12.9,12.2-12.9,12.2c1,1.2,6,14-0.4,20c-4.4,4.1-9.3,5.4-14.1,2.9c-3.2,3.4-78.8,87.1-92,87.1
	c-6.1,0-27.1-21.5-36.5-37.7"/>
<path class="st4" d="M82.6,148.3c0,26.1,20.6,62.5,27.7,62.5s42.7-26.1,42.7-32.5c0-6.3-27.7-53-51.4-53
	C92.1,125.4,82.6,135.7,82.6,148.3z"/>
<path class="st4" d="M80.3,43.9c13.6,0.1,38.4-26.7,38.4-27.7c0-2.4-4.2-14.9-28.6-14.9c-17.5,0-44.9,12.2-44.9,52.4
	c0,20.7-8.1,42.7-8.1,52.7c0,15.2,12.2,24.7,31.5,24.7c9.3,0,23.3-4.6,23.3-12.1c0-11,11.3-46.8-10.3-54.6"/>
<path class="st4" d="M84.1,63.2c-1.3,0.8-2.8,1.3-4.3,1.3c-4.9,0-8.9-4.6-8.9-10.3s4-10.3,8.9-10.3c0.9,0,1.8,0.2,2.7,0.5"/>
<path d="M31,273c2.4,1.2,4.7,2.6,7,4.1l9.7,4.7l1.3,5.1l54.9,126.6l-3.6,4.7"/>
<path d="M141.9,270.2c-9,12-67.8,21.8-100.9,8.2l77,180.9L95.4,673.1h26.4c0,0,51.4-185.5,51.4-193.6S141.9,270.2,141.9,270.2z"/>
<path class="st5" d="M201.6,147.7l45.9-45.9"/>
<path class="st5" d="M273.4,126.2L322.6,77"/>
<path class="st5" d="M348.3,100.7L359,90"/>
<path class="st5" d="M400.8,131.2l64-64"/>
<path class="st5" d="M247.6,101.1l24.6,24.6"/>
<path class="st5" d="M322.7,77.5l24.4,24.4"/>
<path class="st5" d="M359.6,89.5l41.3,41.3"/>
<path class="st5" d="M466.5,65.7l15.9,15.9"/>
<path d="M245,101.9c0-1.5,1.2-2.8,2.8-2.8s2.8,1.2,2.8,2.8s-1.2,2.8-2.8,2.8S245,103.4,245,101.9L245,101.9z"/>
<path d="M270.2,125.3c0-1.5,1.2-2.8,2.8-2.8s2.8,1.2,2.8,2.8s-1.2,2.8-2.8,2.8l0,0C271.4,128,270.2,126.8,270.2,125.3z"/>
<path d="M319.7,78.3c0-1.5,1.2-2.8,2.8-2.8c1.5,0,2.8,1.2,2.8,2.8c0,1.5-1.2,2.7-2.8,2.7c0,0,0,0,0,0
	C320.9,81,319.7,79.8,319.7,78.3z"/>
<path d="M344.9,101.2c0-1.5,1.2-2.8,2.8-2.8s2.8,1.2,2.8,2.8s-1.2,2.8-2.8,2.8S344.9,102.7,344.9,101.2L344.9,101.2z"/>
<path d="M356.8,89.6c0-1.5,1.2-2.8,2.8-2.8s2.8,1.2,2.8,2.8s-1.2,2.8-2.8,2.8l0,0C358,92.4,356.8,91.2,356.8,89.6z"/>
<path d="M398.3,130.1c0-1.5,1.2-2.8,2.8-2.8s2.8,1.2,2.8,2.8s-1.2,2.8-2.8,2.8S398.3,131.6,398.3,130.1L398.3,130.1z"/>
<path d="M463.7,66.5c0-1.5,1.2-2.8,2.8-2.8s2.8,1.2,2.8,2.8s-1.2,2.8-2.8,2.8S463.7,68,463.7,66.5L463.7,66.5z"/>
</svg>
