<?xml version="1.0" encoding="utf-8"?>
<!-- Generator: Adobe Illustrator 23.0.3, SVG Export Plug-In . SVG Version: 6.00 Build 0)  -->
<svg xmlns="http://www.w3.org/2000/svg" xmlns:xlink="http://www.w3.org/1999/xlink" x="0px" y="0px"
	 viewBox="0 0 1844 1113.1" style="enable-background:new 0 0 1844 1113.1;" xml:space="preserve">
<style type="text/css">
	.working-men-0{fill:#E7EAF3;}
	.working-men-1{fill:#377DFF;}
	.working-men-2{fill:none;stroke:#1E2022;}
	.working-men-3{fill:#00C9A7;}
	.working-men-4{fill:#BDC5D1;}
	.working-men-5{fill:#1E2022;}
	.working-men-6{fill:#FFFFFF;stroke:#1E2022;}
	.working-men-7{fill:#FFFFFF;}
</style>
<ellipse class="working-men-0 fill-gray-300" cx="158.5" cy="803.5" rx="142.2" ry="41.5"/>
<path class="working-men-0 fill-gray-300" d="M102.1,249.1c-1.8,6.8-30.3,137.9-10.9,184.4c0.9-6,2.2-13.4,2.2-13.4l10-15.5l0.7-25.7l3.1-50.7l7.2-38.2
	l4.1-17.4l8.5-19.4l12.5-21.4l-7.3-1.2l-13.2,4.1L102.1,249.1z"/>
<path class="working-men-0 fill-gray-300" d="M218.2,297.2c0,8.9-6.8,112.9-63.7,138.9c53.1,13.7,100.2-16,100.2-16l2-5.8L256,373l-1.3-42.1l-3-11.8
	L218.2,297.2z"/>
<path class="working-men-1 fill-primary" d="M84.3,523.3c1.7,4.4,3.2,9.4,2.7,14.2c-1,9.4-3.8,15.2-9.4,17.9c-4.7-4.4-18.6-18.2-19.4-20.7
	c-0.2-0.6-0.4-8.2-0.5-19.4l-41-12.2L0,559.2l97.7,29l16.6-56.1L84.3,523.3z"/>
<path class="working-men-1 fill-primary" d="M388.8,23.2c-48.6-0.1-88.1,39.3-88.1,87.9c0,30.7,15.9,59.2,42.1,75.2l5.9-11.9l-2.1-10.4l0.1-4.9l3.1-4.8
	l7-7.1l7.2-6.9l5.6-5l6-3.6l2.6,1l0.4,3.2l-1.1,3.5l-2.1,3.9l-2.1,3.1l-2.8,3.7l-3.8,4.4h4.3l5.7,0.8l3,2.1l2.2,4.4l1.9,4.5l2,5.2
	l0.4,3.7l0.4,2.9l-3.2,3.2l-9.4,8.4l-2.5,4l-1.2,3.7c47.6,10.1,94.3-20.2,104.5-67.8C484.9,82,454.6,35.3,407,25.1
	C401.1,23.9,395,23.3,388.8,23.2L388.8,23.2z"/>
<path class="working-men-2 fill-none stroke-dark" stroke-width="2" stroke-linecap="round" stroke-linejoin="round" d="M252.9,320.1c3.3,26.7,4.3,58.4,3.3,94.9c-24.4,19.4-45,19-76.4,19s-64.7-6.9-76.3-16.7
	c-1.4-108.2,15-202.2,74.3-202.2c19.2,0,34.6,7.2,46.5,21.5"/>
<path class="working-men-2 fill-none stroke-dark" stroke-width="2" stroke-linecap="round" stroke-linejoin="round" d="M206.6,238.7c26.2-9.1,76.1,17.2,86.9,24.2c3.1,14.9-17,55.6-30.1,61.1c-3.6-1.1-7.1-2.6-10.4-4.2"/>
<path class="working-men-2 fill-none stroke-dark" stroke-width="2" stroke-linecap="round" stroke-linejoin="round" d="M253,319.7c-14.2-7-27.3-15.9-39.2-26.3"/>
<path class="working-men-2 fill-none stroke-dark" stroke-width="2" stroke-linecap="round" stroke-linejoin="round" d="M107.2,329.3c-16.8-6-35.6-17.5-39.2-26.1c1.1-3.6,2.5-7.1,4.2-10.5"/>
<path class="working-men-2 fill-none stroke-dark" stroke-width="2" stroke-linecap="round" stroke-linejoin="round" d="M72.2,292.7c12-25.2,43.8-69.4,67.9-60.4"/>
<path class="working-men-2 fill-none stroke-dark" stroke-width="2" stroke-linecap="round" stroke-linejoin="round" d="M103.4,405.7c-1.3,1.8-9.5,13.4-10,14.4c-0.6,1-13.1,86.4-12.6,92.5c0.5,6,7.1,15.7,6.1,25
	c-1,9.4-3.8,15.1-9.4,17.8c-4.7-4.4-18.6-18.2-19.4-20.7c-0.9-2.5-0.9-116.2-1-120.5s16.8-100.4,17.7-102.8"/>
<path class="working-men-2 fill-none stroke-dark" stroke-width="2" stroke-linecap="round" stroke-linejoin="round" d="M155.9,219.9c0.1-4.8-0.2-29.3-0.1-32.3c-4.6-0.1-32.9-22.9-32.9-54.8c-0.1-65.8,73-62.6,96.3-99.6"/>
<path class="working-men-2 fill-none stroke-dark" stroke-width="2" stroke-linecap="round" stroke-linejoin="round" d="M222.9,46.7c-1.8,4.4-15.7,27.8-20.8,33.6"/>
<path class="working-men-2 fill-none stroke-dark" stroke-width="2" stroke-linecap="round" stroke-linejoin="round" d="M229.2,56.6c-1.4,3.9-9.4,24.8-17.6,37.7"/>
<path class="working-men-2 fill-none stroke-dark" stroke-width="2" stroke-linecap="round" stroke-linejoin="round" d="M192.3,190.3c19.3-10.6,25.9-29.1,26.3-45.4c4-3.8,7.2-5.1,6.9-8c-0.3-3.2-14.8-9.2-16.9-23.6"/>
<path class="working-men-2 fill-none stroke-dark" stroke-width="2" stroke-linecap="round" stroke-linejoin="round" d="M293.1,272.8c1.3,0.7,2.7,1.3,4.1,1.8c1.3-2.7,50.6-97.6,51.7-100.6c-0.8-3.6-2.7-11.7-1.8-15.4
	c1-3.7,25.9-30.4,30.5-26.4s-7,18.1-11.1,22c4.4,0.2,12.2-2.7,16.2,7.9c0.2,0.5,0.4,1,0.5,1.4c3.5,9.6,4.3,13.3,2.4,15.4
	c-1.9,2.1-12.1,9.5-13.6,13.2s-45.4,121.5-55.7,135.5c-6.4,6.5-30.2-2.8-43.9-10.5"/>
<path class="working-men-2 fill-none stroke-dark" stroke-width="2" stroke-linecap="round" stroke-linejoin="round" d="M113.2,790.2v17.7l-54.7,0.7l32.8-13.1l0.1-5.1"/>
<path class="working-men-2 fill-none stroke-dark" stroke-width="2" stroke-linecap="round" stroke-linejoin="round" d="M226.7,789.3h25.2v18.8h-25.2V789.3z"/>
<path class="working-men-3 fill-success" d="M387.8,120l14.1-60L416,0l27.3,14.3l27.3,14.2l-41.3,45.8L387.8,120z"/>
<path class="working-men-0 fill-gray-300" d="M532.8,27h270.6v166.4H532.8V27z"/>
<path class="working-men-4 fill-gray-400" d="M549.1,40.3h24v139.6h-24V40.3z"/>
<path class="working-men-4 fill-gray-400" d="M584.7,60.6h24V180h-24V60.6z"/>
<path class="working-men-4 fill-gray-400" d="M620.4,91.3h24V180h-24V91.3z"/>
<path class="working-men-4 fill-gray-400" d="M656.1,133h24v47h-24V133z"/>
<path class="working-men-4 fill-gray-400" d="M691.7,92.6h24V180h-24V92.6z"/>
<path class="working-men-4 fill-gray-400" d="M727.4,62.2h24v117.9h-24V62.2z"/>
<path class="working-men-4 fill-gray-400" d="M763,40.3h24v139.6h-24V40.3z"/>
<g id="Pants">
	<path d="M85.7,791.6c0.2-4,17-372.4,17.3-374c68.5,29.6,133.9,16.3,153.9-2.3c0.4,9.4-0.2,376.1-0.2,376.1l-31.5,0.5l-53.4-220
		L117,791.5C117,791.5,89.4,791.6,85.7,791.6z"/>
</g>
<g id="Shadows">
	<path class="working-men-0 fill-gray-300" d="M1194.1,512c0,9.3-18.2,153.9,74,208c-31.5,5.9-51.7,5.8-51.7,5.8l-9.3-1.1l-8.7-12.1l-42.9-60.4l-5.3-7.6
		l-1.1-37.2v-11.6l6-13.2l15.5-42.1l9.2-2.2l5.6-8.7L1194.1,512z"/>
	<path class="working-men-0 fill-gray-300" d="M1364.9,451.3c5.3,11.1,32.6,106.3,8.5,173.8c-5.8-4.6-16-14.5-16-14.5l-14.5-16l-0.1-6.3l-1.3-50.9l-4.2-35.5
		l-7.9-37.1l-6.4-15.5l-12.9-24l-4.5-5.7l14.1,2.8l23,11.5L1364.9,451.3z"/>
</g>
<path class="working-men-2 fill-none stroke-dark" stroke-width="2.5" stroke-linejoin="round" d="M1309.2,703.2l-12.1,5.4l-25.8,7l-28,6.7l-35.1,2.3l5.3,3.8c9.9,13.9,3,9.2,3,9.2s-4.9,23-6.9,31
	c0,0-24-18.8-51.5-43.8l-120.6,31.5V934l158.8,88.2l264-70l3.3-180.5L1309.2,703.2z"/>
<line class="working-men-2 fill-none stroke-dark" stroke-width="8" stroke-linecap="round" stroke-miterlimit="10" x1="1517.9" y1="520.3" x2="1549.7" y2="521.2"/>
<line class="working-men-2 fill-none stroke-dark" stroke-width="8" stroke-linecap="round" stroke-miterlimit="10" x1="1440" y1="518.4" x2="1467.8" y2="519.1"/>
<path class="working-men-5 fill-dark" d="M1330,688.6c5-5.7,138.3,49.4,157.3,75.9s-113.1,226.5-166.8,266.3c-6-4.1-20.5-14.5-20.5-14.5
	s45.2-138.7,86.2-185.5c-10.4-2.8-44.2-11.7-44.2-11.7l-37.1-116C1310.8,700.7,1323.4,696.1,1330,688.6z"/>
<path class="working-men-5 fill-dark" d="M1330,688.6c5-5.7,138.3,49.4,157.3,75.9s-113.1,226.5-166.8,266.3c-6-4.1-20.5-14.5-20.5-14.5
	s45.2-138.7,86.2-185.5c-10.4-2.8-44.2-11.7-44.2-11.7l-37.1-116C1310.8,700.7,1323.4,696.1,1330,688.6z"/>
<path class="working-men-2 fill-none stroke-dark" stroke-width="2.5" stroke-linecap="round" stroke-linejoin="round" d="M1342.9,594.1c14.3,17.9,35.5,39.7,46.3,37.3c19.2-4.2,79-64,94.6-80.5c10.5,2.8,22.6-3.7,28.3-15.8
	c6.2-13.3,2.3-28.3-8.7-33.5s-25,1.4-31.3,14.7c-3,6.3-3.7,13.4-2,20.2c-15.2,7.3-59.7,28.5-68.6,32.6
	c-4.3-38.2-11.5-57.2-19.2-67.8"/>
<path class="working-men-2 fill-none stroke-dark" stroke-width="2.5" stroke-linecap="round" stroke-linejoin="round" d="M1305.5,419.7c35.8,1.8,86.6,53.9,85.1,65.1c-1.3,10.2-25.8,43.6-49.2,52.6"/>
<path class="working-men-2 fill-none stroke-dark" stroke-width="2.5" stroke-linecap="round" stroke-linejoin="round" d="M1207.5,725.1c47.8-1.8,111.1-20.8,122.4-36.5c11.7-16.8,40.2-265.1-59.4-292.8"/>
<path class="working-men-2 fill-none stroke-dark" stroke-width="2.5" stroke-linecap="round" stroke-linejoin="round" d="M1149.1,595.8c-0.2,17.3,0.4,34,1.4,49.2"/>
<path class="working-men-2 fill-none stroke-dark" stroke-width="2.5" stroke-linecap="round" stroke-linejoin="round" d="M1227.7,397c-16.5,5.4-29.8,16.5-40.5,31.5"/>
<path class="working-men-2 fill-none stroke-dark" stroke-width="2.5" stroke-linecap="round" stroke-linejoin="round" d="M1105.6,519.2c-13.2,32.4-32.5,92-25.5,112.7c16.4,48,129.4,136.8,129.4,136.8c2-8,6.9-31,6.9-31
	s-77.2-107.4-81.2-115.4c5.6-8.7,28.3-52.9,34.9-82.3"/>
<path class="working-men-2 fill-none stroke-dark" stroke-width="2.5" stroke-linecap="round" stroke-linejoin="round" d="M1253.1,421.1c-11.9,0.6-25.5-1.9-25.5-7.1v-60.1"/>
<path class="working-men-2 fill-none stroke-dark" stroke-width="2.5" stroke-linecap="round" stroke-linejoin="round" d="M1270.6,388.1v7.8"/>
<path class="working-men-2 fill-none stroke-dark" stroke-width="2.5" stroke-linecap="round" stroke-linejoin="round" d="M1270.6,388.1c20.6-3.1,36.4-29.1,35.8-60.5c-0.1-5.5-0.7-10.9-1.8-16.2"/>
<path class="working-men-2 fill-none stroke-dark" stroke-width="2.5" stroke-linecap="round" stroke-linejoin="round" d="M1225.4,331.1c-0.3,0-0.6,0-0.9,0c-6.5,0-11.7,5.2-11.7,11.7s5.2,11.7,11.7,11.7c0.8,0,1.7-0.1,2.5-0.3"/>
<path class="working-men-2 fill-none stroke-dark" stroke-width="2.5" stroke-miterlimit="10" d="M1315.6,307.5c13-1.8,17.9-9.4,17.9-14.6c0-9-8-12.3-8-18c0-10,14-8.8,14-27c0-14.4-11-21-20-21
	c-16.2,0-25.3,13-40,13c-15.8,0-19.5-9-36-9c-31.9,0-28.7,32.9-35.3,43.3c-8.3,13-13.7,26.3-13.7,35.7c0,11.8,4.9,19.1,10.8,23.5"/>
<path class="working-men-2 fill-none stroke-dark" stroke-width="2.5" stroke-linecap="round" stroke-linejoin="round" d="M1185.5,529.2c-2.6,5.3-5.1,8.8-7.3,9.6c-12.3,4.8-77.2-4.8-79.2-33.2c-2-28.4,55.7-93.3,81.5-81.5
	c2.2,1,4.3,2.4,6.1,4"/>
<path class="working-men-2 fill-none stroke-dark" stroke-width="2.5" stroke-linecap="round" stroke-linejoin="round" d="M1186.7,428.1c2.2,2,4.1,4.3,5.5,6.8"/>
<polygon class="working-men-2 fill-none stroke-dark" stroke-width="2.5" stroke-miterlimit="10" points="1460.3,1086.3 1485.1,1075.9 1536.6,1075.9 1539.8,1084.4 1470.7,1111.5 "/>
<polygon class="working-men-2 fill-none stroke-dark" stroke-width="2.5" stroke-miterlimit="10" points="1300.3,1015.8 1321.9,1031.9 1348.1,1076.2 1342.5,1083.3 1283.9,1037.6 "/>
<path class="working-men-1 fill-primary" d="M1841.2,551.2c5,16.4-37,19.8-39.3,11.9C1799.4,555.3,1835.8,533.6,1841.2,551.2z"/>
<path class="working-men-1 fill-primary" d="M1834.6,593.4c7.8,15.2-32.8,26.1-36.5,18.8C1794.4,604.9,1826.2,577.1,1834.6,593.4z"/>
<path class="working-men-1 fill-primary" d="M1837,643c7.8,15.2-32.8,26.1-36.5,18.8C1796.8,654.5,1828.6,626.7,1837,643z"/>
<path class="working-men-1 fill-primary" d="M1838.5,689c7.1,13.8-28.3,23-31.7,16.3C1803.4,698.7,1830.9,674.2,1838.5,689z"/>
<path class="working-men-1 fill-primary" d="M1843,740c7.1,13.8-28.3,23-31.7,16.3C1807.9,749.7,1835.3,725.2,1843,740z"/>
<path class="working-men-2 fill-none stroke-dark" stroke-width="9" stroke-linecap="round" stroke-miterlimit="10" d="M1732.9,936.1c1.2-5.6,59.8-47.4,73.7-112.1c22.6-105.4-24.9-170.8-8.8-246.1c3-14.2,14-58.8,40.5-72"/>
<path class="working-men-1 fill-primary" d="M1782.5,806.5c13.5-7.8,24.3,27.2,17.8,30.9S1768,814.9,1782.5,806.5z"/>
<path class="working-men-1 fill-primary" d="M1781.7,765.6c10.3-11.7,31.7,18.1,26.7,23.7C1803.5,794.8,1770.7,778.1,1781.7,765.6z"/>
<path class="working-men-1 fill-primary" d="M1783.1,717.6c10.3-11.7,31.7,18.1,26.7,23.7C1804.9,746.9,1772.1,730.1,1783.1,717.6z"/>
<path class="working-men-1 fill-primary" d="M1775.8,677.7c8-13.4,34.5,11.8,30.7,18.3C1802.7,702.3,1767.3,692,1775.8,677.7z"/>
<path class="working-men-1 fill-primary" d="M1765.2,622.5c10-11.9,32.1,17.2,27.3,22.9C1787.8,651.1,1754.5,635.3,1765.2,622.5z"/>
<path class="working-men-1 fill-primary" d="M1767.2,564c11-11,30.4,20.1,25.1,25.4C1787,594.6,1755.3,575.7,1767.2,564z"/>
<path class="working-men-1 fill-primary" d="M1802.6,489.2c11-11,30.4,20.1,25.1,25.3C1822.4,519.7,1790.7,500.9,1802.6,489.2z"/>
<path class="working-men-1 fill-primary" d="M1731.7,760.6c-2.9-7.8-5-29.3-5-39.7c0-69.9-41.5-83-62.7-83c-41.3,0-64.6,38.2-64.6,69.5
	c0,27.7,11.8,52.4,26.2,73.2c7.8-9.5,21.8-10.9,31.3-3.1c9.5,7.8,10.9,21.8,3.1,31.3c-1.9,2.4-4.3,4.3-7,5.7
	c11.9,13.3,21.8,23.6,24.2,30.5c8.3,23.1,6.8,33.8,9.4,45.3c6.8,29,23.2,41.8,37.2,40.6c32.4-2.8,45.3-30.3,45.3-101.4
	C1769.1,809.4,1742.9,790.4,1731.7,760.6z"/>
<path class="working-men-6 fill-white stroke-dark" stroke-width="2.5" stroke-miterlimit="10" d="M1784.8,1064h-88.4c-4.1,0-7.8-2.6-9.1-6.6l-43.9-133.3c-1.7-5,1.1-10.4,6.1-12.1c1-0.3,2-0.5,3-0.5h176.7
	c5.3,0,9.6,4.3,9.6,9.6c0,1-0.2,2-0.5,3l-44.4,133.3C1792.6,1061.4,1788.9,1064,1784.8,1064z"/>
<path class="working-men-5 fill-dark" d="M1304.9,703.1c-23,11.8-65.6,19.1-97.8,21.6l9.3,12.9c0,0-4.9,23-6.9,31c0,0-15.2-11.9-35.3-29.4
	c26.5,71.9,140.4,161.9,147.8,166.3c4.3,12.6,138.8,181.8,138.8,181.8l26.4-11L1304.9,703.1z"/>
<path class="working-men-7 fill-white" opacity=".1" d="M1304.9,703.1c-23,11.8-65.6,19.1-97.8,21.6l9.3,12.9c0,0-4.9,23-6.9,31c0,0-15.2-11.9-35.3-29.4
	c26.5,71.9,140.4,161.9,147.8,166.3c4.3,12.6,138.8,181.8,138.8,181.8l26.4-11L1304.9,703.1z"/>
<polygon class="working-men-0 fill-gray-300" opacity=".5" points="1654.1,683.5 1463.6,727.8 1463.6,295.9 1654.1,245.9 "/>
<path class="working-men-2 fill-none stroke-dark" stroke-width="2.5" stroke-linecap="round" stroke-linejoin="round" d="M1288.5,321.9c-1.4,6.1,0.4,14.8,4.8,19.1"/>
<path class="working-men-2 fill-none stroke-dark" stroke-width="2.5" stroke-linecap="round" stroke-linejoin="round" d="M1267,342.7c-0.6,4.5,2.8,8.4,7.2,9.5"/>
<ellipse class="working-men-5 fill-dark" cx="1274.2" cy="326.3" rx="2.2" ry="3.3"/>
</svg>
