<svg width="236" height="46" viewBox="0 0 236 46" fill="none" xmlns="http://www.w3.org/2000/svg">
<path d="M26.2844 1.43925L31.6914 12.3953C32.0674 13.1573 32.7944 13.6853 33.6354 13.8073L45.7264 15.5642C47.8444 15.8722 48.6894 18.4743 47.1574 19.9673L38.4084 28.4953C37.8004 29.0883 37.5224 29.9433 37.6664 30.7803L39.7314 42.8223C40.0934 44.9313 37.8794 46.5393 35.9854 45.5443L25.1714 39.8592C24.4194 39.4642 23.5204 39.4642 22.7684 39.8592L11.9544 45.5443C10.0604 46.5403 7.84639 44.9313 8.20839 42.8223L10.2734 30.7803C10.4174 29.9433 10.1394 29.0883 9.53139 28.4953L0.782391 19.9673C-0.749609 18.4733 0.0953906 15.8713 2.21339 15.5642L14.3044 13.8073C15.1454 13.6853 15.8724 13.1573 16.2484 12.3953L21.6554 1.43925C22.6014 -0.47975 25.3374 -0.47975 26.2844 1.43925Z" fill="#F2C94C"/>
<path d="M74.2844 1.43925L79.6914 12.3953C80.0674 13.1573 80.7944 13.6853 81.6354 13.8073L93.7264 15.5642C95.8444 15.8722 96.6894 18.4743 95.1574 19.9673L86.4084 28.4953C85.8004 29.0883 85.5224 29.9433 85.6664 30.7803L87.7314 42.8223C88.0934 44.9313 85.8794 46.5393 83.9854 45.5443L73.1714 39.8592C72.4194 39.4642 71.5204 39.4642 70.7684 39.8592L59.9544 45.5443C58.0604 46.5403 55.8464 44.9313 56.2084 42.8223L58.2734 30.7803C58.4174 29.9433 58.1394 29.0883 57.5314 28.4953L48.7824 19.9673C47.2504 18.4733 48.0954 15.8713 50.2134 15.5642L62.3044 13.8073C63.1454 13.6853 63.8724 13.1573 64.2484 12.3953L69.6554 1.43925C70.6014 -0.47975 73.3374 -0.47975 74.2844 1.43925Z" fill="#F2C94C"/>
<path d="M122.284 1.43925L127.691 12.3953C128.067 13.1573 128.794 13.6853 129.635 13.8073L141.726 15.5642C143.844 15.8722 144.689 18.4743 143.157 19.9673L134.408 28.4953C133.8 29.0883 133.522 29.9433 133.666 30.7803L135.731 42.8223C136.093 44.9313 133.879 46.5393 131.985 45.5443L121.171 39.8592C120.419 39.4642 119.52 39.4642 118.768 39.8592L107.954 45.5443C106.06 46.5403 103.846 44.9313 104.208 42.8223L106.273 30.7803C106.417 29.9433 106.139 29.0883 105.531 28.4953L96.7824 19.9673C95.2504 18.4733 96.0954 15.8713 98.2134 15.5642L110.304 13.8073C111.145 13.6853 111.872 13.1573 112.248 12.3953L117.655 1.43925C118.601 -0.47975 121.337 -0.47975 122.284 1.43925Z" fill="#F2C94C"/>
<path d="M166.284 1.43925L171.691 12.3953C172.067 13.1573 172.794 13.6853 173.635 13.8073L185.726 15.5642C187.844 15.8722 188.689 18.4743 187.157 19.9673L178.408 28.4953C177.8 29.0883 177.522 29.9433 177.666 30.7803L179.731 42.8223C180.093 44.9313 177.879 46.5393 175.985 45.5443L165.171 39.8592C164.419 39.4642 163.52 39.4642 162.768 39.8592L151.954 45.5443C150.06 46.5403 147.846 44.9313 148.208 42.8223L150.273 30.7803C150.417 29.9433 150.139 29.0883 149.531 28.4953L140.782 19.9673C139.25 18.4733 140.095 15.8713 142.213 15.5642L154.304 13.8073C155.145 13.6853 155.872 13.1573 156.248 12.3953L161.655 1.43925C162.601 -0.47975 165.337 -0.47975 166.284 1.43925Z" fill="#F2C94C"/>
<path d="M214.284 1.43925L219.691 12.3953C220.067 13.1573 220.794 13.6853 221.635 13.8073L233.726 15.5642C235.844 15.8722 236.689 18.4743 235.157 19.9673L226.408 28.4953C225.8 29.0883 225.522 29.9433 225.666 30.7803L227.731 42.8223C228.093 44.9313 225.879 46.5393 223.985 45.5443L213.171 39.8592C212.419 39.4642 211.52 39.4642 210.768 39.8592L199.954 45.5443C198.06 46.5403 195.846 44.9313 196.208 42.8223L198.273 30.7803C198.417 29.9433 198.139 29.0883 197.531 28.4953L188.782 19.9673C187.25 18.4733 188.095 15.8713 190.213 15.5642L202.304 13.8073C203.145 13.6853 203.872 13.1573 204.248 12.3953L209.655 1.43925C210.601 -0.47975 213.337 -0.47975 214.284 1.43925Z" fill="#F2C94C"/>
</svg>
