<!DOCTYPE svg PUBLIC "-//W3C//DTD SVG 20010904//EN" "http://www.w3.org/TR/2001/REC-SVG-20010904/DTD/svg10.dtd">
<svg version="1.0" xmlns="http://www.w3.org/2000/svg" width="1500px" height="500px" viewBox="0 0 15000 5000" preserveAspectRatio="xMidYMid meet">
<g id="layer101" fill="#002352" stroke="none">
 <path d="M11460 3669 c17 -40 30 -73 30 -74 0 -1 -68 -4 -150 -7 -83 -3 -153 -8 -156 -11 -4 -3 31 -97 76 -209 129 -318 184 -452 245 -603 138 -338 168 -412 181 -445 7 -19 33 -82 57 -140 l43 -105 270 -3 270 -2 24 25 24 26 -26 72 c-15 40 -48 126 -73 192 -26 66 -52 136 -59 155 -7 19 -48 125 -91 235 -42 110 -90 236 -106 279 l-30 79 84 -7 c260 -21 492 -124 676 -300 241 -231 388 -593 318 -778 -26 -67 -98 -129 -181 -156 -66 -22 -72 -22 -891 -22 -522 0 -825 -4 -825 -10 0 -5 50 -96 110 -203 78 -135 120 -198 140 -210 25 -15 73 -17 464 -17 l435 0 19 -42 c10 -24 29 -73 43 -111 l24 -67 153 0 c122 0 154 3 158 14 5 14 -6 52 -45 154 l-21 52 53 0 52 0 44 -110 43 -110 148 0 c109 0 150 3 158 13 8 10 1 39 -27 113 l-39 99 94 17 c299 52 494 188 564 393 27 80 28 259 1 365 -56 221 -184 467 -349 671 -222 275 -582 491 -1008 605 l-100 26 -34 92 c-53 148 -34 136 -220 136 l-159 0 30 -81 c16 -45 28 -83 26 -85 -2 -2 -26 -1 -54 3 l-51 6 -30 76 -29 76 -166 3 -166 2 29 -71z"/>
 <path d="M5155 3613 c-253 -19 -395 -168 -395 -416 0 -54 102 -738 125 -834 5 -23 4 -23 -95 -23 -99 0 -100 0 -95 -22 7 -33 55 -311 55 -320 0 -4 44 -8 99 -8 l99 0 16 -92 c9 -51 24 -138 34 -193 l18 -100 248 -3 248 -2 -6 27 c-3 16 -17 96 -31 178 -14 83 -28 158 -31 168 -5 16 5 17 120 17 149 0 137 -23 97 195 l-27 150 -126 3 -127 3 -5 27 c-26 127 -117 709 -118 751 -1 47 3 58 26 78 28 23 44 26 149 23 49 -1 57 1 57 17 0 63 -35 339 -43 345 -27 17 -213 37 -292 31z"/>
 <path d="M6251 3608 c-233 -24 -382 -219 -380 -498 0 -46 34 -277 87 -595 l88 -520 248 -3 248 -2 -6 27 c-3 16 -44 257 -91 537 -91 538 -94 570 -53 622 60 76 228 57 329 -37 l37 -34 92 -530 c50 -291 94 -542 97 -557 l6 -28 248 0 249 0 -5 23 c-3 12 -64 362 -135 777 -72 415 -132 765 -135 778 l-5 22 -230 0 -229 0 5 -32 c4 -18 10 -51 15 -73 4 -22 7 -40 6 -42 -1 -1 -27 19 -57 44 -30 25 -87 62 -127 80 -83 40 -179 53 -302 41z"/>
 <path d="M7570 3584 c0 -5 61 -366 137 -801 l137 -793 228 0 c211 0 228 1 227 18 0 9 -6 49 -13 88 l-12 70 45 -44 c57 -54 139 -105 211 -129 43 -14 85 -18 190 -18 124 0 139 2 190 26 75 35 116 72 152 136 l30 53 70 -65 c78 -72 179 -127 265 -145 31 -7 104 -10 162 -8 91 3 114 7 163 31 154 75 228 225 228 459 0 89 -14 196 -80 591 -44 265 -82 492 -85 505 l-5 22 -245 0 c-139 0 -245 -4 -245 -9 0 -5 38 -234 85 -510 47 -275 85 -523 85 -551 0 -28 -6 -66 -14 -85 -40 -96 -208 -84 -309 22 l-38 40 -95 539 c-51 297 -94 542 -94 547 0 4 -112 7 -248 7 l-249 0 82 -492 c104 -620 106 -639 51 -694 -31 -31 -39 -34 -92 -34 -67 0 -118 22 -183 78 l-44 38 -97 547 c-53 301 -99 549 -102 553 -10 10 -488 18 -488 8z"/>
 <path d="M572 3571 c2 -5 255 -485 563 -1065 l560 -1056 242 0 242 0 10 53 c23 113 381 2055 381 2065 0 9 -71 12 -265 12 -146 0 -265 -4 -265 -8 0 -10 -38 -297 -46 -339 l-5 -33 -337 0 -337 1 -90 189 -90 189 -283 0 c-171 1 -282 -3 -280 -8z m1364 -808 c-3 -16 -24 -174 -46 -353 -23 -178 -42 -326 -44 -327 -1 -1 -74 149 -161 335 -87 185 -162 345 -167 355 -8 16 5 17 207 17 l217 0 -6 -27z"/>
 <path d="M2790 3565 c0 -14 252 -1479 266 -1547 l6 -28 229 0 c138 0 229 4 229 10 0 8 -11 65 -25 136 -4 16 4 12 37 -19 57 -54 148 -112 211 -134 40 -14 83 -18 187 -18 133 0 137 1 202 33 36 18 82 51 103 73 82 91 132 265 122 424 -2 44 -42 306 -88 583 l-84 502 -248 0 -249 0 6 -27 c33 -162 166 -1002 166 -1048 0 -108 -49 -155 -163 -155 -74 0 -144 30 -193 82 -30 32 -32 41 -113 508 -46 261 -90 512 -98 558 l-15 82 -244 0 c-211 0 -244 -2 -244 -15z"/>
 <path d="M10295 3558 c2 -13 79 -453 170 -978 91 -525 173 -994 181 -1042 l16 -88 254 0 c197 0 254 3 254 13 -1 6 -83 485 -183 1062 l-183 1050 -257 3 -257 2 5 -22z"/>
 </g>
<g id="layer102" fill="#0066cc" stroke="none">
 <path d="M11460 3669 c17 -40 30 -73 30 -74 0 -1 -68 -4 -150 -7 -83 -3 -153 -8 -156 -11 -4 -3 31 -97 76 -209 129 -318 184 -452 245 -603 138 -338 168 -412 181 -445 7 -19 33 -82 57 -140 l43 -105 270 -3 270 -2 24 25 24 26 -26 72 c-15 40 -48 126 -73 192 -26 66 -52 136 -59 155 -7 19 -48 125 -91 235 -42 110 -90 236 -106 279 l-30 79 84 -7 c260 -21 492 -124 676 -300 241 -231 388 -593 318 -778 -26 -67 -98 -129 -181 -156 -66 -22 -72 -22 -891 -22 -522 0 -825 -4 -825 -10 0 -5 50 -96 110 -203 78 -135 120 -198 140 -210 25 -15 73 -17 464 -17 l435 0 19 -42 c10 -24 29 -73 43 -111 l24 -67 153 0 c122 0 154 3 158 14 5 14 -6 52 -45 154 l-21 52 53 0 52 0 44 -110 43 -110 148 0 c109 0 150 3 158 13 8 10 1 39 -27 113 l-39 99 94 17 c299 52 494 188 564 393 27 80 28 259 1 365 -56 221 -184 467 -349 671 -222 275 -582 491 -1008 605 l-100 26 -34 92 c-53 148 -34 136 -220 136 l-159 0 30 -81 c16 -45 28 -83 26 -85 -2 -2 -26 -1 -54 3 l-51 6 -30 76 -29 76 -166 3 -166 2 29 -71z"/>
 <path d="M10295 3558 c2 -13 79 -453 170 -978 91 -525 173 -994 181 -1042 l16 -88 254 0 c197 0 254 3 254 13 -1 6 -83 485 -183 1062 l-183 1050 -257 3 -257 2 5 -22z"/>
 </g>

</svg>