<svg xmlns="http://www.w3.org/2000/svg" xmlns:xlink="http://www.w3.org/1999/xlink" width="1000" height="1000" viewBox="0 0 1000 1000">
  <defs>
    <linearGradient id="linear-gradient" x1="0.5" x2="0.5" y2="1" gradientUnits="objectBoundingBox">
      <stop offset="0" stop-color="#e3156a"/>
      <stop offset="1" stop-color="#91187f"/>
    </linearGradient>
    <linearGradient id="linear-gradient-5" x1="0" y1="0.5" x2="1" y2="0.5" xlink:href="#linear-gradient"/>
    <clipPath id="clip-hero">
      <rect width="1000" height="1000"/>
    </clipPath>
  </defs>
  <g id="hero" clip-path="url(#clip-hero)">
    <rect width="1000" height="1000" fill="#fff"/>
    <path id="Icon_simple-groupon" data-name="Icon simple-groupon" d="M6.632,40.668A23.3,23.3,0,0,0,24.024,48,24.378,24.378,0,0,0,43.98,37.674,22.9,22.9,0,0,0,48,24.164c0-.968-.064-2.012-.126-3.058H21.19v9.22H34.564a11.947,11.947,0,0,1-10.54,6.24c-6.458,0-12.25-5.648-12.25-12.994a12.186,12.186,0,0,1,12.25-12.138c3.688,0,6.71,1.5,9.622,4.478h13.04C42.936,6.038,34.168,0,24.166,0A23.833,23.833,0,0,0,7.106,6.818,22.969,22.969,0,0,0,0,23.508,23.788,23.788,0,0,0,6.632,40.668Z" transform="translate(95 130)" fill="#26861a"/>
    <g id="flowKitConnector" transform="matrix(0.766, 0.643, -0.643, 0.766, 194.322, -22.673)">
      <path id="line" d="M101.108,189.81h406.88" fill="none" stroke="#998" stroke-width="5"/>
      <path id="leftEdge" d="M18.75-10h0L0,0,18.75,10,15,0Z" transform="translate(101.108 189.81)" fill="#998" stroke="#998" stroke-width="5"/>
      <path id="rightEdge" d="M-18.75-10h0L0,0-18.75,10-15,0Z" transform="translate(507.988 189.81)" fill="#998" stroke="#998" stroke-width="5"/>
    </g>
    <g id="flowKitConnector-2" data-name="flowKitConnector" transform="translate(347.636 376.596) rotate(-45)">
      <path id="line-2" data-name="line" d="M101.108,189.81h406.88" fill="none" stroke="#998" stroke-width="4.5"/>
      <path id="leftEdge-2" data-name="leftEdge" d="M18.75-10h0L0,0,18.75,10,15,0Z" transform="translate(101.108 189.81)" fill="#998" stroke="#998" stroke-width="4.5"/>
      <path id="rightEdge-2" data-name="rightEdge" d="M-18.75-10h0L0,0-18.75,10-15,0Z" transform="translate(507.988 189.81)" fill="#998" stroke="#998" stroke-width="4.5"/>
    </g>
    <g id="flowKitConnector-3" data-name="flowKitConnector" transform="translate(655.266 488.485) rotate(90)">
      <path id="line-3" data-name="line" d="M101.108,189.81H297.249" fill="none" stroke="#666" stroke-width="4.5"/>
      <path id="leftEdge-3" data-name="leftEdge" d="M18.75-10h0L0,0,18.75,10,15,0Z" transform="translate(101.108 189.81)" fill="#666" stroke="#666" stroke-width="4.5"/>
      <path id="rightEdge-3" data-name="rightEdge" transform="translate(297.249 189.81)" fill="none" stroke="rgba(0,0,0,0)" stroke-width="4.5"/>
    </g>
    <g id="flowKitConnector-4" data-name="flowKitConnector" transform="translate(344.646 885.843) rotate(-90)">
      <path id="line-4" data-name="line" d="M101.108,189.81H297.249" fill="none" stroke="#666" stroke-width="4.5"/>
      <path id="leftEdge-4" data-name="leftEdge" d="M18.75-10h0L0,0,18.75,10,15,0Z" transform="translate(101.108 189.81)" fill="#666" stroke="#666" stroke-width="4.5"/>
      <path id="rightEdge-4" data-name="rightEdge" transform="translate(297.249 189.81)" fill="none" stroke="rgba(0,0,0,0)" stroke-width="4.5"/>
    </g>
    <g id="flowKitConnector-5" data-name="flowKitConnector" transform="matrix(0.087, 0.996, -0.996, 0.087, 658.842, -6.409)">
      <path id="line-5" data-name="line" d="M101.108,189.81H423.716" fill="none" stroke="#998" stroke-width="4.5"/>
      <path id="leftEdge-5" data-name="leftEdge" d="M18.75-10h0L0,0,18.75,10,15,0Z" transform="translate(101.108 189.81)" fill="#998" stroke="#998" stroke-width="4.5"/>
      <path id="rightEdge-5" data-name="rightEdge" d="M-18.75-10h0L0,0-18.75,10-15,0Z" transform="translate(423.716 189.81)" fill="#998" stroke="#998" stroke-width="4.5"/>
    </g>
    <text id="groupon_alias.com" data-name="groupon@alias.com" transform="translate(189.49 257.462) rotate(40)" fill="#282923" font-size="26" font-family="HelveticaNeue, Helvetica Neue" opacity="0.997"><tspan x="0" y="0">groupon@alias.com</tspan></text>
    <text id="meetup_alias.com" data-name="meetup@alias.com" transform="translate(661.903 368.607) rotate(-45)" fill="#282923" font-size="26" font-family="HelveticaNeue, Helvetica Neue" opacity="0.997"><tspan x="0" y="0">meetup@alias.com</tspan></text>
    <text id="facebook_alias.com" data-name="facebook@alias.com" transform="matrix(0.087, 0.996, -0.996, 0.087, 497.731, 148.35)" fill="#282923" font-size="26" font-family="HelveticaNeue, Helvetica Neue" opacity="0.997"><tspan x="0" y="0">facebook@alias.com</tspan></text>
    <path id="Icon_simple-meetup" data-name="Icon simple-meetup" d="M47.955,39.423c-.608-3.862-7.748-.888-8.192-5.118-.626-6,8.3-18.917,7.594-23.943-.626-4.51-3.682-5.46-6.33-5.512-2.568-.04-3.246.364-4.116.87a1.546,1.546,0,0,1-2.224-.082C34.019,5,33.573,4.566,32.877,4a3.83,3.83,0,0,0-1.89-.79A6.2,6.2,0,0,0,28,3.544a8.229,8.229,0,0,0-2.052,1.5c-.646.566-2.294,2.4-3.822,1.718-.67-.29-2.916-1.412-4.544-2.11C14.46,3.3,9.942,5.49,8.314,8.382c-2.426,4.3-7.2,21.205-7.928,23.429-1.618,5,2.064,9.08,7.018,8.848,2.1-.1,3.5-.86,4.824-3.276C13,36,20.185,17.21,20.723,16.3a2.358,2.358,0,0,1,2.78-.95,2.545,2.545,0,0,1,1.162,2.842c-.272,1.79-5.338,13.258-5.542,14.55-.324,2.206.718,3.428,3.014,3.548,1.568.082,3.134-.474,4.368-2.82.7-1.3,8.7-17.332,9.4-18.4.78-1.172,1.406-1.558,2.206-1.516.618.03,1.6.192,1.356,2.032-.244,1.81-6.686,13.56-7.352,16.442A8.511,8.511,0,0,0,36.8,41.477c2.224,1.092,11.94,2.952,11.154-2.054Z" transform="translate(848 91.845)" fill="#f01a1a"/>
    <path id="Icon_awesome-facebook-square" data-name="Icon awesome-facebook-square" d="M42.857,2.25H5.143A5.143,5.143,0,0,0,0,7.393V45.107A5.143,5.143,0,0,0,5.143,50.25H19.848V33.931H13.1V26.25h6.75V20.4c0-6.659,3.964-10.337,10.036-10.337a40.893,40.893,0,0,1,5.949.519v6.536h-3.35c-3.3,0-4.331,2.049-4.331,4.15V26.25h7.369l-1.179,7.681H28.152V50.25H42.857A5.143,5.143,0,0,0,48,45.107V7.393A5.143,5.143,0,0,0,42.857,2.25Z" transform="translate(445 44.75)" fill="#1e2ccc"/>
    <path id="Icon_metro-mail-read" data-name="Icon metro-mail-read" d="M49.262,31.77H24.393v4.974H49.262ZM34.341,21.823H24.393V26.8h9.947Zm29.842-2.135V11.875H53.24L39.314,1.928,25.389,11.875H14.446v7.813L4.5,26.8V76.533H74.13V26.8ZM19.42,16.849H59.209V35.874L39.314,52.287,19.42,35.874V16.849ZM9.472,36.744,29.059,51.636,9.472,66.586V36.744ZM14.446,71.56,34.185,55.531l5.129,3.905,5.119-3.9L64.183,71.56H14.446Zm54.71-4.974L49.544,51.66,69.157,36.744V66.586Z" transform="translate(461.001 794.566)" fill="#ae0721"/>
    <path id="Icon_awesome-toggle-on" data-name="Icon awesome-toggle-on" d="M30,4.5H15a15,15,0,1,0,0,30H30a15,15,0,1,0,0-30Zm0,25a10,10,0,1,1,10-10A9.994,9.994,0,0,1,30,29.5Z" transform="translate(283 260.5)" fill="url(#linear-gradient)"/>
    <path id="Icon_awesome-toggle-on-2" data-name="Icon awesome-toggle-on" d="M30,4.5H15a15,15,0,1,0,0,30H30a15,15,0,1,0,0-30Zm0,25a10,10,0,1,1,10-10A9.994,9.994,0,0,1,30,29.5Z" transform="translate(665 232.5)" fill="url(#linear-gradient)"/>
    <path id="Icon_awesome-toggle-off" data-name="Icon awesome-toggle-off" d="M30,4.5H15a15,15,0,1,0,0,30H30a15,15,0,1,0,0-30ZM5,19.5a10,10,0,1,1,10,10A9.995,9.995,0,0,1,5,19.5Zm25,10H26.179a14.994,14.994,0,0,0,0-20H30a10,10,0,0,1,0,20Z" transform="translate(437 245.5)" fill="url(#linear-gradient)"/>
    <text id="my-real-email_example.com" data-name="my-real-email@example.com" transform="translate(316 911)" fill="#ae0721" font-size="30" font-family="HelveticaNeue, Helvetica Neue"><tspan x="0" y="0">my-real-email@example.com</tspan></text>
    <path id="Icon_map-locksmith" data-name="Icon map-locksmith" d="M31.075,15.12H29.52V8.9c0-4.088-4.1-8.185-8.189-8.185H14.5C10.418.72,6.48,4.817,6.48,8.9V15.12H4.759a1.544,1.544,0,0,0-1.159,1.2v18.33c0,.431.672.635,1.159.635H31.075c.489,0,1.325-.2,1.325-.635V16.315a1.76,1.76,0,0,0-1.325-1.2ZM21.393,32.4H14.445L15.9,25.224a3.723,3.723,0,0,1-1.458-2.956,3.527,3.527,0,0,1,3.474-3.524,3.428,3.428,0,0,1,3.475,3.406,4,4,0,0,1-1.457,3.094ZM24.48,15.12H11.52V8.9A2.944,2.944,0,0,1,14.574,5.76h6.688A3.076,3.076,0,0,1,24.48,8.9Z" transform="translate(481.93 662)" fill="url(#linear-gradient)"/>
    <g id="Group_47" data-name="Group 47" transform="translate(193.63 -630)">
      <text id="Simple" transform="translate(252.37 1200)" fill="#a0177b" font-size="21" font-family="HelveticaNeue, Helvetica Neue"><tspan x="0" y="0">Simple</tspan></text>
      <text id="Login" transform="translate(319.37 1200)" fill="#ae0721" font-size="21" font-family="HelveticaNeue, Helvetica Neue"><tspan x="0" y="0">Login</tspan></text>
      <g id="Group_46" data-name="Group 46" transform="translate(252 1094)">
        <g id="Group_45" data-name="Group 45" transform="translate(0 0)">
          <g id="Group_42" data-name="Group 42" transform="translate(8.688 22.737)">
            <path id="Path_170" data-name="Path 170" d="M-1482.342,845.34a46.693,46.693,0,0,1-20.342-11.6,46.723,46.723,0,0,1-20.444,11.626,33.109,33.109,0,0,0-.587,6.219,33.083,33.083,0,0,0,20.574,30.492,32.947,32.947,0,0,0,21.335-30.792A33.194,33.194,0,0,0-1482.342,845.34Zm-21.885,24.338h-.006l-12.542-12.541,3.855-3.866,8.692,8.692,13.594-13.6,3.861,3.86Zm21.885-24.338a46.693,46.693,0,0,1-20.342-11.6,46.723,46.723,0,0,1-20.444,11.626,33.109,33.109,0,0,0-.587,6.219,33.083,33.083,0,0,0,20.574,30.492,32.947,32.947,0,0,0,21.335-30.792A33.194,33.194,0,0,0-1482.342,845.34Zm-21.885,24.338h-.006l-12.542-12.541,3.855-3.866,8.692,8.692,13.594-13.6,3.861,3.86Zm1.543-35.936a46.723,46.723,0,0,1-20.444,11.626,33.109,33.109,0,0,0-.587,6.219,33.083,33.083,0,0,0,20.574,30.492,32.947,32.947,0,0,0,21.335-30.792,33.194,33.194,0,0,0-.536-5.946A46.693,46.693,0,0,1-1502.684,833.742Zm-1.543,35.936h-.006l-12.542-12.541,3.855-3.866,8.692,8.692,13.594-13.6,3.861,3.86Zm21.885-24.338a46.693,46.693,0,0,1-20.342-11.6,46.723,46.723,0,0,1-20.444,11.626,33.109,33.109,0,0,0-.587,6.219,33.083,33.083,0,0,0,20.574,30.492,32.947,32.947,0,0,0,21.335-30.792A33.194,33.194,0,0,0-1482.342,845.34Zm-21.885,24.338h-.006l-12.542-12.541,3.855-3.866,8.692,8.692,13.594-13.6,3.861,3.86Zm21.885-24.338a46.693,46.693,0,0,1-20.342-11.6,46.723,46.723,0,0,1-20.444,11.626,33.109,33.109,0,0,0-.587,6.219,33.083,33.083,0,0,0,20.574,30.492,32.947,32.947,0,0,0,21.335-30.792A33.194,33.194,0,0,0-1482.342,845.34Zm-21.885,24.338h-.006l-12.542-12.541,3.855-3.866,8.692,8.692,13.594-13.6,3.861,3.86Z" transform="translate(1523.715 -833.742)" fill="url(#linear-gradient-5)"/>
          </g>
          <g id="Group_44" data-name="Group 44">
            <g id="Group_43" data-name="Group 43">
              <path id="Path_171" data-name="Path 171" d="M-1420.28,825.532a8.665,8.665,0,0,0-1.26-1.587c-.147-.149-.3-.29-.463-.425a8.361,8.361,0,0,0-4.98-2.022h-63.766a8.361,8.361,0,0,0-4.98,2.022,4.4,4.4,0,0,0-.457.425,8.2,8.2,0,0,0-1.261,1.576,8.435,8.435,0,0,0-1.25,4.43v3.324l-1.057,1.09-.182.193a54.561,54.561,0,0,1-25.372,14.864c-.243.069-.49.13-.739.193l-1.075.266-.238,1.079c-.083.39-.163.785-.241,1.183a44.669,44.669,0,0,0-.793,8.387,44.211,44.211,0,0,0,8.005,25.456,44.383,44.383,0,0,0,18.561,15.267c.639.282,1.283.548,1.939.8l.616.237.62-.226c.843-.3,1.673-.628,2.494-.971a44.514,44.514,0,0,0,21.2-18.918h47.461a8.4,8.4,0,0,0,5.47-2.018c.171-.141.323-.282.481-.44a8.8,8.8,0,0,0,1.261-1.584,8.412,8.412,0,0,0,1.25-4.425V829.951A8.473,8.473,0,0,0-1420.28,825.532Zm-70.4.006c.146-.011.3-.017.448-.017h62.738c.152,0,.3.005.446.017h.663l-.107.1-31.053,27.474a1.984,1.984,0,0,1-2.624,0l-31.052-27.474-.108-.1Zm-3.974,4.414a4.329,4.329,0,0,1,.328-1.673l26.622,23.564-1.9,1.678q-.144-.983-.34-1.95c-.033-.21-.072-.412-.119-.622l-.23-1.09-1.081-.266c-.26-.068-.52-.13-.78-.2a54.68,54.68,0,0,1-22.5-12.214Zm-4.572,68.537a41.2,41.2,0,0,1-25.6-37.958,41.153,41.153,0,0,1,.735-7.738,58.059,58.059,0,0,0,25.439-14.476,58.069,58.069,0,0,0,25.316,14.441,41.092,41.092,0,0,1,.672,7.405A41.016,41.016,0,0,1-1499.228,898.488Zm26.31-20.353a44.262,44.262,0,0,0,3.811-17.973c0-.555-.012-1.1-.034-1.656l4.48-3.968,4.488,3.968a1.984,1.984,0,0,0,2.624,0l4.487-3.968,26.549,23.484.124.114Zm49.84-4.425a4.341,4.341,0,0,1-.327,1.667l-26.605-23.536,26.611-23.547a4.37,4.37,0,0,1,.321,1.656Z" transform="translate(1528.394 -821.497)" fill="url(#linear-gradient-5)"/>
            </g>
          </g>
        </g>
      </g>
    </g>
  </g>
</svg>
