<svg xmlns="http://www.w3.org/2000/svg" xmlns:xlink="http://www.w3.org/1999/xlink" version="1.1" viewBox="-266 22 529 517" width="529px" height="517px"><defs><style>@font-face{
    font-family:"DIN Next";
    font-weight: 400;
    src:url("https://whimsical.com/fonts/139e8e25-0eea-4cb4-a5d4-79048803e73d.eot?#iefix");
    src:url("https://whimsical.com/fonts/139e8e25-0eea-4cb4-a5d4-79048803e73d.eot?#iefix") format("eot"),url("https://whimsical.com/fonts/094b15e3-94bd-435b-a595-d40edfde661a.woff2") format("woff2"),url("https://whimsical.com/fonts/7e5fbe11-4858-4bd1-9ec6-a1d9f9d227aa.woff") format("woff"),url("https://whimsical.com/fonts/0f11eff9-9f05-46f5-9703-027c510065d7.ttf") format("truetype"),url("https://whimsical.com/fonts/48b61978-3f30-4274-823c-5cdcd1876918.svg#48b61978-3f30-4274-823c-5cdcd1876918") format("svg");
}
@font-face{
    font-family:"DIN Next";
    font-weight: 400;
    font-style: italic;
    src:url("https://whimsical.com/fonts/df24d5e8-5087-42fd-99b1-b16042d666c8.eot?#iefix");
    src:url("https://whimsical.com/fonts/df24d5e8-5087-42fd-99b1-b16042d666c8.eot?#iefix") format("eot"),url("https://whimsical.com/fonts/46251881-ffe9-4bfb-99c7-d6ce3bebaf3e.woff2") format("woff2"),url("https://whimsical.com/fonts/790ebbf2-62c5-4a32-946f-99d405f9243e.woff") format("woff"),url("https://whimsical.com/fonts/d28199e6-0f4a-42df-97f4-606701c6f75a.ttf") format("truetype"),url("https://whimsical.com/fonts/37a462c0-d86e-492c-b9ab-35e6bd417f6c.svg#37a462c0-d86e-492c-b9ab-35e6bd417f6c") format("svg");
}
@font-face{
    font-weight: 500;
    font-family:"DIN Next";
    src:url("https://whimsical.com/fonts/c5b058fc-55ce-4e06-a175-5c7d9a7e90f4.eot?#iefix");
    src:url("https://whimsical.com/fonts/c5b058fc-55ce-4e06-a175-5c7d9a7e90f4.eot?#iefix") format("eot"),url("https://whimsical.com/fonts/7b29ae40-30ff-4f99-a2b9-cde88669fa2f.woff2") format("woff2"),url("https://whimsical.com/fonts/bf73077c-e354-4562-a085-f4703eb1d653.woff") format("woff"),url("https://whimsical.com/fonts/0ffa6947-5317-4d07-b525-14d08a028821.ttf") format("truetype"),url("https://whimsical.com/fonts/9e423e45-5450-4991-a157-dbe6cf61eb4e.svg#9e423e45-5450-4991-a157-dbe6cf61eb4e") format("svg");
}
@font-face{
    font-family:"DIN Next";
    font-weight: 500;
    font-style: italic;
    src:url("https://whimsical.com/fonts/9897c008-fd65-48a4-afc7-36de2fea97b9.eot?#iefix");
    src:url("https://whimsical.com/fonts/9897c008-fd65-48a4-afc7-36de2fea97b9.eot?#iefix") format("eot"),url("https://whimsical.com/fonts/c7717981-647d-4b76-8817-33062e42d11f.woff2") format("woff2"),url("https://whimsical.com/fonts/b852cd4c-1255-40b1-a2be-73a9105b0155.woff") format("woff"),url("https://whimsical.com/fonts/821b00ad-e741-4e2d-af1a-85594367c8a2.ttf") format("truetype"),url("https://whimsical.com/fonts/d3e3b689-a6b0-45f2-b279-f5e194f87409.svg#d3e3b689-a6b0-45f2-b279-f5e194f87409") format("svg");
}
@font-face{
    font-weight: 700;
    font-family:"DIN Next";
    src:url("https://whimsical.com/fonts/81cd3b08-fd39-4ae3-8d05-9d24709eba84.eot?#iefix");
    src:url("https://whimsical.com/fonts/81cd3b08-fd39-4ae3-8d05-9d24709eba84.eot?#iefix") format("eot"),url("https://whimsical.com/fonts/31704504-4671-47a6-a61e-397f07410d91.woff2") format("woff2"),url("https://whimsical.com/fonts/b8a280da-481f-44a0-8d9c-1bc64bd7227c.woff") format("woff"),url("https://whimsical.com/fonts/276d122a-0fab-447b-9fc0-5d7fb0eafce2.ttf") format("truetype"),url("https://whimsical.com/fonts/8fb8273a-8213-4928-808b-b5bfaf3fd7e9.svg#8fb8273a-8213-4928-808b-b5bfaf3fd7e9") format("svg");
}
@font-face{
    font-family:"DIN Next";
    font-weight: 700;
    font-style: italic;
    src:url("https://whimsical.com/fonts/00cc6df3-ed32-4004-8dd8-1c576600a408.eot?#iefix");
    src:url("https://whimsical.com/fonts/00cc6df3-ed32-4004-8dd8-1c576600a408.eot?#iefix") format("eot"),url("https://whimsical.com/fonts/4132c4c8-680c-4d6d-9251-a2da38503bbd.woff2") format("woff2"),url("https://whimsical.com/fonts/366401fe-6df4-47be-8f55-8a411cff0dd2.woff") format("woff"),url("https://whimsical.com/fonts/dbe4f7ba-fc16-44a6-a577-571620e9edaf.ttf") format("truetype"),url("https://whimsical.com/fonts/f874edca-ee87-4ccf-8b1d-921fbc3c1c36.svg#f874edca-ee87-4ccf-8b1d-921fbc3c1c36") format("svg");
}
* {-webkit-font-smoothing: auto; -moz-osx-font-smoothing: auto;}</style><filter id="fill-shadow" x="-100%" y="-100%" width="300%" height="300%"><feGaussianBlur in="SourceAlpha" stdDeviation="6"></feGaussianBlur><feOffset result="offsetblur" dx="0" dy="2"></feOffset><feComponentTransfer result="s0"><feFuncA type="linear" slope="0.16"></feFuncA></feComponentTransfer><feMerge><feMergeNode in="s0"></feMergeNode><feMergeNode in="SourceGraphic"></feMergeNode></feMerge></filter><filter id="fill-light-shadow" x="-100%" y="-100%" width="300%" height="300%"><feGaussianBlur in="SourceAlpha" stdDeviation="6"></feGaussianBlur><feOffset result="offsetblur" dx="0" dy="2"></feOffset><feComponentTransfer result="s0"><feFuncA type="linear" slope="0.04"></feFuncA></feComponentTransfer><feMerge><feMergeNode in="s0"></feMergeNode><feMergeNode in="SourceGraphic"></feMergeNode></feMerge></filter><filter id="image-shadow" x="-100%" y="-100%" width="300%" height="300%"><feGaussianBlur in="SourceAlpha" stdDeviation="8"></feGaussianBlur><feOffset result="offsetblur" dx="0" dy="3"></feOffset><feComponentTransfer result="s0"><feFuncA type="linear" slope="0.06"></feFuncA></feComponentTransfer><feMerge><feMergeNode in="s0"></feMergeNode><feMergeNode in="SourceGraphic"></feMergeNode></feMerge></filter><filter id="frame-shadow" x="-100%" y="-100%" width="300%" height="300%"><feGaussianBlur in="SourceAlpha" stdDeviation="8"></feGaussianBlur><feOffset result="offsetblur" dx="0" dy="3"></feOffset><feComponentTransfer result="s0"><feFuncA type="linear" slope="0.06"></feFuncA></feComponentTransfer><feMerge><feMergeNode in="s0"></feMergeNode><feMergeNode in="SourceGraphic"></feMergeNode></feMerge></filter><filter id="badge-shadow" x="-100%" y="-100%" width="300%" height="300%"><feGaussianBlur in="SourceAlpha" stdDeviation="6"></feGaussianBlur><feOffset result="offsetblur" dx="0" dy="2"></feOffset><feComponentTransfer result="s0"><feFuncA type="linear" slope="0.08"></feFuncA></feComponentTransfer><feMerge><feMergeNode in="s0"></feMergeNode><feMergeNode in="SourceGraphic"></feMergeNode></feMerge></filter></defs><g><g><g><g><g><g><g transform="translate(-23 289) rotate(0 19.470422535211267 19.470422535211267)"><svg id="sd797425a-0517-4779-bb7a-d038ef563a0a" width="38.94084507042253" height="38.94084507042253" viewBox="0 0 48 48" data-icon-name="security" data-icon-partition="g48-8" data-icon-color="#1AAE9F"><style>#sd797425a-0517-4779-bb7a-d038ef563a0a *[fill=&#x27;#444444&#x27;], #sd797425a-0517-4779-bb7a-d038ef563a0a *[fill=&#x27;#444&#x27;] {fill:#1AAE9F;}#sd797425a-0517-4779-bb7a-d038ef563a0a *[stroke=&#x27;#444444&#x27;], #sd797425a-0517-4779-bb7a-d038ef563a0a *[stroke=&#x27;#444&#x27;] {stroke:#1AAE9F;}</style><g><path d="M46,7.286c-5.931,0-14.679-1.607-21.445-6.118a1,1,0,0,0-1.11,0C16.679,5.679,7.931,7.286,2,7.286a1,1,0,0,0-1,1C1,26.411,9.451,40.853,23.606,46.919a1,1,0,0,0,.788,0C38.549,40.853,47,26.411,47,8.286A1,1,0,0,0,46,7.286ZM23,3.8V23H5.178A48.452,48.452,0,0,1,3.009,9.271,43.828,43.828,0,0,0,23,3.8Zm2,40.621V25H42.132A34.274,34.274,0,0,1,25,44.417Z" fill="#444"></path></g></svg></g></g></g><g><g><text y="331.23809523809524" font-style="normal" font-size="18" font-weight="normal" fill="#293845" width="119.03943661971829" xml:space="preserve" x="-51.087323943661886" font-family="DIN Next" height="24"><tspan x="-51.087323943661886" y="349.23809523809524" text-anchor="start" style="white-space:pre;">SimpleLogin</tspan></text></g></g></g></g><g><g><g><g><g transform="translate(-22.28732394366307 457) rotate(0 19.470422535211267 19.470422535211267)"><svg id="s2ff79a04-f796-4b77-9ca9-c33fa5f5a9c9" width="38.94084507042253" height="38.94084507042253" viewBox="0 0 48 48" data-icon-name="newsletter-dev" data-icon-partition="g48-6" data-icon-color="#4B5C6B"><style>#s2ff79a04-f796-4b77-9ca9-c33fa5f5a9c9 *[fill=&#x27;#444444&#x27;], #s2ff79a04-f796-4b77-9ca9-c33fa5f5a9c9 *[fill=&#x27;#444&#x27;] {fill:#4B5C6B;}#s2ff79a04-f796-4b77-9ca9-c33fa5f5a9c9 *[stroke=&#x27;#444444&#x27;], #s2ff79a04-f796-4b77-9ca9-c33fa5f5a9c9 *[stroke=&#x27;#444&#x27;] {stroke:#4B5C6B;}</style><g><path fill="#444444" d="M11,25.864V3h26v13v9.864l9.208-4.958L39,15.5V2c0-0.553-0.447-1-1-1H10C9.447,1,9,1.447,9,2v13.673 L1.799,20.91L11,25.864z"></path><path fill="#444444" d="M24.474,34.881c-0.296,0.159-0.651,0.159-0.947,0L1,22.751V45c0,1.105,0.895,2,2,2h42c1.105,0,2-0.895,2-2 V22.751L24.474,34.881z"></path><path data-color="color-2" fill="#444444" d="M20.707,11.293c-0.391-0.391-1.023-0.391-1.414,0l-4,4c-0.391,0.391-0.391,1.023,0,1.414l4,4 C19.488,20.902,19.744,21,20,21s0.512-0.098,0.707-0.293c0.391-0.391,0.391-1.023,0-1.414L17.414,16l3.293-3.293 C21.098,12.316,21.098,11.684,20.707,11.293z"></path><path data-color="color-2" fill="#444444" d="M27.293,20.707C27.488,20.902,27.744,21,28,21s0.512-0.098,0.707-0.293l4-4 c0.391-0.391,0.391-1.023,0-1.414l-4-4c-0.391-0.391-1.023-0.391-1.414,0s-0.391,1.023,0,1.414L30.586,16l-3.293,3.293 C26.902,19.684,26.902,20.316,27.293,20.707z"></path></g></svg></g></g></g><g><g><text y="505" font-style="normal" font-size="18" font-weight="normal" fill="#293845" width="144" xml:space="preserve" x="-75" font-family="DIN Next" height="24"><tspan x="-75" y="523" text-anchor="start" style="white-space:pre;">My personal inbox</tspan></text></g></g></g></g><g><g><rect x="124" y="220" width="40" height="24" rx="12" ry="12" fill="#1AAE9F" fill-opacity="1"></rect><ellipse rx="9" ry="9" cx="152" cy="232" fill="#FFFFFF"></ellipse></g></g><g><g><rect x="27" y="148" width="40" height="24" rx="12" ry="12" fill="#9EADBA" fill-opacity="1"></rect><ellipse rx="9" ry="9" cx="39" cy="160" fill="#FFFFFF"></ellipse></g></g><g><g><rect x="-160" y="212" width="40" height="24" rx="12" ry="12" fill="#1AAE9F" fill-opacity="1"></rect><ellipse rx="9" ry="9" cx="-132" cy="224" fill="#FFFFFF"></ellipse></g></g><g><g><g transform="translate(-20.507042253521377 385.07042253521126) rotate(0 18.929577464788732 18.929577464788732)"><svg id="s41a776b5-1eac-4dc1-8c8b-45b2f75b04ba" width="37.859154929577464" height="37.859154929577464" viewBox="0 0 48 48" data-icon-name="locked" data-icon-partition="g48-5" data-icon-color="#4B5C6B"><style>#s41a776b5-1eac-4dc1-8c8b-45b2f75b04ba *[fill=&#x27;#444444&#x27;], #s41a776b5-1eac-4dc1-8c8b-45b2f75b04ba *[fill=&#x27;#444&#x27;] {fill:#4B5C6B;}#s41a776b5-1eac-4dc1-8c8b-45b2f75b04ba *[stroke=&#x27;#444444&#x27;], #s41a776b5-1eac-4dc1-8c8b-45b2f75b04ba *[stroke=&#x27;#444&#x27;] {stroke:#4B5C6B;}</style><g><path d="M41,1H7A2,2,0,0,0,5,3V45a2,2,0,0,0,2,2H41a2,2,0,0,0,2-2V3A2,2,0,0,0,41,1ZM19,16a5,5,0,0,1,10,0v5H27V16a3,3,0,0,0-6,0v5H19ZM33,35a1,1,0,0,1-1,1H16a1,1,0,0,1-1-1V24a1,1,0,0,1,1-1H32a1,1,0,0,1,1,1Z" fill="#444"></path></g></svg></g></g></g><g><g><svg x="-256" y="93" width="39" height="39" viewBox="0 0 256 256" class="image"><image x="0" y="0" width="256" height="256" xlink:href="https://whimuc.com/XM6GEbCriTQxr4BBixWd4E/CfczTJ2qk9DHYo.png"></image></svg></g></g><g><g><svg x="17" y="32" width="38" height="38" viewBox="0 0 150 150" class="image"><image x="0" y="0" width="150" height="150" xlink:href="https://whimuc.com/XM6GEbCriTQxr4BBixWd4E/29AniQgqZeWaSj.png"></image></svg></g></g><g><g><svg x="212" y="91" width="41" height="41" viewBox="0 0 256 256" class="image"><image x="0" y="0" width="256" height="256" xlink:href="https://whimuc.com/XM6GEbCriTQxr4BBixWd4E/6Qxvw4PfVcTBb6.png"></image></svg></g></g><g><g><path d="M-212.44216,135.83843l42.52511,34.16157M-135.062,198l103.92368,83.4847" fill="none" stroke="#4B5C6B" stroke-linecap="round" stroke-linejoin="round" stroke-width="4"></path><polygon points="-213.50171,142.09468 -215.56056,133.33333 -206.56139,133.4552" fill="#4B5C6B" stroke="#4B5C6B" stroke-width="2" stroke-linecap="round" stroke-linejoin="round"></polygon><polygon points="-30.07876,275.22845 -28.01991,283.9898 -37.01909,283.86793" fill="#4B5C6B" stroke="#4B5C6B" stroke-width="2" stroke-linecap="round" stroke-linejoin="round"></polygon><text y="172" font-style="normal" font-size="18" font-weight="normal" fill="#293845" width="156" xml:space="preserve" x="-231" font-family="DIN Next" height="24"><tspan x="-153" y="190" text-anchor="middle" style="white-space:pre;">Groupon@alias.com</tspan></text></g></g><g><g><path d="M209.8404,129.9413l-60.05158,55.0587M119.2497,213l-89.25821,81.837" fill="none" stroke="#4B5C6B" stroke-linecap="round" stroke-linejoin="round" stroke-width="4"></path><polygon points="203.81668,127.94679 212.78873,127.2381 211.30584,136.11509" fill="#4B5C6B" stroke="#4B5C6B" stroke-width="2" stroke-linecap="round" stroke-linejoin="round"></polygon><polygon points="36.01521,296.83151 27.04315,297.54021 28.52605,288.66321" fill="#4B5C6B" stroke="#4B5C6B" stroke-width="2" stroke-linecap="round" stroke-linejoin="round"></polygon><text y="187" font-style="normal" font-size="18" font-weight="normal" fill="#293845" width="149" xml:space="preserve" x="59.5" font-family="DIN Next" height="24"><tspan x="134" y="205" text-anchor="middle" style="white-space:pre;">meetup@alias.com</tspan></text></g></g><g><g><line stroke="#D3455B" fill="none" stroke-linejoin="round" y1="359.6190476190476" stroke-linecap="round" stroke-width="4" x1="-31.797183098591177" y2="447.04761904761875" x2="-31.797183098591177"></line><polygon points="-26.25623,443.95552 -31.79718,451.04762 -37.33814,443.95552" fill="#D3455B" stroke="#D3455B" stroke-width="2" stroke-linecap="round" stroke-linejoin="round"></polygon></g></g><g><g><line stroke="#D3455B" fill="none" stroke-linejoin="round" y1="363.6190476190476" stroke-linecap="round" stroke-width="4" x1="26.614084507042207" y2="451.04761904761904" x2="26.614084507042207"></line><polygon points="21.07313,366.71114 26.61408,359.61905 32.15504,366.71114" fill="#D3455B" stroke="#D3455B" stroke-width="2" stroke-linecap="round" stroke-linejoin="round"></polygon></g></g><g><g><path d="M24.66809,81.89944l-4.83341,37.10056M16.18688,147l-16.94931,130.10056" fill="none" stroke="#4B5C6B" stroke-linecap="round" stroke-linejoin="round" stroke-width="4"></path><polygon points="18.77411,84.24981 25.18483,77.93296 29.76315,85.68145" fill="#4B5C6B" stroke="#4B5C6B" stroke-width="2" stroke-linecap="round" stroke-linejoin="round"></polygon><polygon points="5.13155,274.75019 -1.27918,281.06704 -5.8575,273.31855" fill="#4B5C6B" stroke="#4B5C6B" stroke-width="2" stroke-linecap="round" stroke-linejoin="round"></polygon><text y="121" font-style="normal" font-size="18" font-weight="normal" fill="#293845" width="184" xml:space="preserve" x="-74" font-family="DIN Next" height="24"><tspan x="18" y="139" text-anchor="middle" style="white-space:pre;">LivingSocial@alias.com</tspan></text></g></g></g></g></svg>