<svg xmlns="http://www.w3.org/2000/svg" xmlns:xlink="http://www.w3.org/1999/xlink" width="1666" height="945" viewBox="0 0 1666 945">
  <defs>
    <filter id="Rectangle_8" x="32" y="109" width="1603" height="647" filterUnits="userSpaceOnUse">
      <feOffset dy="3" input="SourceAlpha"/>
      <feGaussianBlur stdDeviation="3" result="blur"/>
      <feFlood flood-opacity="0.161"/>
      <feComposite operator="in" in2="blur"/>
      <feComposite in="SourceGraphic"/>
    </filter>
    <filter id="Ellipse_4" x="1291" y="229" width="103" height="104" filterUnits="userSpaceOnUse">
      <feOffset dy="3" input="SourceAlpha"/>
      <feGaussianBlur stdDeviation="3" result="blur-2"/>
      <feFlood flood-opacity="0.161"/>
      <feComposite operator="in" in2="blur-2"/>
      <feComposite in="SourceGraphic"/>
    </filter>
    <linearGradient id="linear-gradient" y1="0.5" x2="1" y2="0.5" gradientUnits="objectBoundingBox">
      <stop offset="0" stop-color="#e3156a"/>
      <stop offset="1" stop-color="#91187f"/>
    </linearGradient>
    <linearGradient id="linear-gradient-3" x1="0.5" y1="0" x2="0.5" y2="1" xlink:href="#linear-gradient"/>
    <clipPath id="clip-how-it-work-1">
      <rect width="1666" height="945"/>
    </clipPath>
  </defs>
  <g id="how-it-work-1" clip-path="url(#clip-how-it-work-1)">
    <g transform="matrix(1, 0, 0, 1, 0, 0)" filter="url(#Rectangle_8)">
      <rect id="Rectangle_8-2" data-name="Rectangle 8" width="1585" height="629" rx="20" transform="translate(41 115)" fill="#f5f5f5"/>
    </g>
    <rect id="Rectangle_4" data-name="Rectangle 4" width="1229" height="98" rx="15" transform="translate(167 228)" fill="#fff"/>
    <rect id="Rectangle_5" data-name="Rectangle 5" width="1229" height="94" rx="15" transform="translate(167 477)" fill="#fff"/>
    <text id="Email_Address" data-name="Email Address" transform="translate(167 201)" fill="#aaa" font-size="32" font-family="Helvetica"><tspan x="0" y="0">Email Address</tspan></text>
    <text id="ebay.rAnd0m_SimpleLogin.co" data-name="ebay.rAnd0m@SimpleLogin.co" transform="translate(167 295)" fill="#646464" font-size="48" font-family="LucidaGrande-Bold, Lucida Grande" font-weight="700"><tspan x="0" y="0">ebay.rAnd0m@SimpleLogin.co</tspan></text>
    <rect id="Rectangle_6" data-name="Rectangle 6" width="345" height="23" rx="11.5" transform="translate(167 429)" fill="#c6c6c6"/>
    <rect id="Rectangle_7" data-name="Rectangle 7" width="216" height="72" rx="20" transform="translate(167 640)" fill="#d8d8d8"/>
    <g id="Group_56" data-name="Group 56" transform="translate(-29 47)">
      <path id="Icon_metro-firefox" data-name="Icon metro-firefox" d="M70.02,21.919l-.782,5.019s-1.118-9.291-2.489-12.765c-2.1-5.322-3.035-5.28-3.041-5.272,1.407,3.576,1.152,5.5,1.152,5.5S62.367,7.6,55.776,5.441C48.474,3.048,44.524,3.7,44.068,3.826h-.2l.16.014-.005,0c.03.036,8.068,1.405,9.493,3.364a27.892,27.892,0,0,0-6.812.979c-.154.044,12.5,1.581,15.089,14.227,0,0-1.387-2.894-3.1-3.386,1.128,3.432.839,9.946-.236,13.183-.138.416-.28-1.8-2.4-2.754.678,4.858-.041,12.563-3.411,14.686-.263.165,2.113-7.606.478-4.6C43.711,53.972,32.583,46.2,27.58,42.779c2.564.558,7.431-.087,9.585-1.689l.008-.006c2.34-1.6,3.725-2.768,4.969-2.492s2.074-.971,1.107-2.08a6.448,6.448,0,0,0-6.5-1.805c-2.243.587-5.022,3.069-9.264.556-3.256-1.929-3.563-3.532-3.592-4.642a8.02,8.02,0,0,1,.3-1.1c.375-1.047,1.511-1.363,2.143-1.612a10,10,0,0,1,2.966,1.016c.013-.323.017-.751,0-1.237a3.166,3.166,0,0,0-.114-1.423,10.321,10.321,0,0,0-.445-2.025h0a.049.049,0,0,0,.024-.017l0,0a.091.091,0,0,0,.013-.031c.067-.3.793-.892,1.7-1.524.81-.566,1.761-1.167,2.511-1.633.664-.412,1.169-.718,1.276-.8l.143-.108.03-.023.019-.015a2.65,2.65,0,0,0,1-1.951s0-.005,0-.008c0-.033.006-.067.009-.1s0-.048,0-.072,0-.037,0-.056q0-.068,0-.136s0-.005,0-.008q0-.172-.007-.343a1.239,1.239,0,0,0-.02-.182l0-.009,0-.016q0-.014-.008-.028v0q-.005-.016-.011-.031h0c-.116-.271-.549-.373-2.338-.4h-.005c-.73-.012-1.685-.013-2.936-.008-2.193.009-3.406-2.144-3.793-2.977a8.8,8.8,0,0,1,4.581-6.44c.048-.027.038-.049-.018-.065.492-.3-5.953-.008-8.917,3.762a14.52,14.52,0,0,0-6.9-.146,8.075,8.075,0,0,1-1.414-.175C12.378,9.5,10.5,7.3,10.4,4.676l-.017.013c0-.025,0-.05,0-.075,0,0-4.005,3.078-3.406,11.47q0,.194-.008.387A10.51,10.51,0,0,0,5.3,19.45a35.7,35.7,0,0,0-2.728,9.366,22.423,22.423,0,0,1,1.668-3.751c-.819,2.508-1.462,6.409-1.084,12.26,0,0,.1-1.3.453-3.166A31.464,31.464,0,0,0,8.15,47.535c5.867,10.114,14.886,15.22,24.855,16a34.023,34.023,0,0,0,5.371.012c.166-.012.332-.024.5-.038a37.291,37.291,0,0,0,6.15-.948C73.07,55.785,70.02,21.919,70.02,21.919Z" transform="translate(685.429 779.349)" fill="#ea31a0"/>
      <path id="Icon_awesome-chrome" data-name="Icon awesome-chrome" d="M15.907,25.906,6.665,11.7a30,30,0,0,1,50.106,5.335L31.936,15.732C24.908,15.321,18.218,19.277,15.907,25.906Zm3.98,4.657A10.113,10.113,0,1,0,30,20.45,10.109,10.109,0,0,0,19.887,30.563Zm38.093-10.79-16.9.871c4.585,5.359,4.657,13.089.8,19.016L28.319,60.515A30.009,30.009,0,0,0,57.981,19.773ZM16.174,36.321,4.887,14.123A30.015,30.015,0,0,0,25.343,60.189l7.706-15.1c-6.968,1.306-13.694-2.516-16.875-8.77Z" transform="translate(537 782.438)" fill="#ea31a0"/>
      <path id="Icon_simple-safari" data-name="Icon simple-safari" d="M30,60A30,30,0,1,1,60,30,30,30,0,0,1,30,60Zm0-1.875A28.125,28.125,0,1,0,1.875,30,28.126,28.126,0,0,0,30,58.125ZM30,5a.625.625,0,0,1,.625.625v2.5a.625.625,0,0,1-1.25,0v-2.5A.625.625,0,0,1,30,5Zm0,46.25a.625.625,0,0,1,.625.625v2.5a.625.625,0,0,1-1.25,0v-2.5A.625.625,0,0,1,30,51.25ZM47.677,12.322a.625.625,0,0,1,0,.883l-1.767,1.77a.626.626,0,0,1-.885-.885l1.77-1.768A.625.625,0,0,1,47.677,12.322Zm-32.7,32.7a.625.625,0,0,1,0,.885L13.2,47.677a.625.625,0,1,1-.882-.882l1.767-1.77a.625.625,0,0,1,.885,0Zm-2.653-32.7a.625.625,0,0,1,.883,0l1.77,1.767a.626.626,0,1,1-.885.885l-1.768-1.77a.625.625,0,0,1,0-.882Zm32.7,32.7a.625.625,0,0,1,.885,0l1.767,1.77a.625.625,0,1,1-.882.882l-1.77-1.767a.625.625,0,0,1,0-.885ZM5,30a.625.625,0,0,1,.625-.625h2.5a.625.625,0,0,1,0,1.25h-2.5A.625.625,0,0,1,5,30Zm46.25,0a.625.625,0,0,1,.625-.625h2.5a.625.625,0,0,1,0,1.25h-2.5A.625.625,0,0,1,51.25,30ZM39.767,6.988a.625.625,0,0,1,.333.82l-.978,2.3a.625.625,0,1,1-1.15-.488l.975-2.3a.625.625,0,0,1,.82-.332ZM21.7,49.562a.625.625,0,0,1,.33.818l-.975,2.3a.625.625,0,0,1-1.15-.487l.975-2.3a.625.625,0,0,1,.82-.332Zm31.48-28.93a.625.625,0,0,1-.345.813l-2.318.937a.626.626,0,0,1-.47-1.16l2.317-.935a.625.625,0,0,1,.815.345ZM10.3,37.958a.625.625,0,0,1-.345.815l-2.318.935a.625.625,0,1,1-.47-1.157l2.317-.938a.625.625,0,0,1,.815.345ZM20.635,6.82a.625.625,0,0,1,.813.345l.937,2.317a.626.626,0,0,1-1.16.47L20.29,7.635a.625.625,0,0,1,.345-.815ZM37.96,49.7a.625.625,0,0,1,.815.345l.935,2.317a.625.625,0,1,1-1.157.47l-.938-2.317a.625.625,0,0,1,.345-.815ZM6.988,20.232a.625.625,0,0,1,.82-.332l2.3.977a.625.625,0,0,1-.488,1.15l-2.3-.975a.625.625,0,0,1-.332-.82ZM49.562,38.3a.625.625,0,0,1,.818-.33l2.3.975a.625.625,0,1,1-.487,1.15l-2.3-.975a.625.625,0,0,1-.332-.82ZM32.2,32.2l-4.4-4.4L17.448,42.55,32.195,32.195Zm15.48-19.875L33.092,33.092,12.322,47.677l14.585-20.77,20.77-14.585Z" transform="translate(847 783)" fill="#ea31a0"/>
      <path id="Icon_material-android" data-name="Icon material-android" d="M13,45a2.507,2.507,0,0,0,2.5,2.5H18v8.75a3.75,3.75,0,0,0,7.5,0V47.5h5v8.75a3.75,3.75,0,0,0,7.5,0V47.5h2.5A2.507,2.507,0,0,0,43,45V20H13ZM6.75,20A3.745,3.745,0,0,0,3,23.75v17.5a3.75,3.75,0,0,0,7.5,0V23.75A3.745,3.745,0,0,0,6.75,20Zm42.5,0a3.745,3.745,0,0,0-3.75,3.75v17.5a3.75,3.75,0,0,0,7.5,0V23.75A3.745,3.745,0,0,0,49.25,20ZM36.825,5.4l3.25-3.25a1.238,1.238,0,0,0,0-1.775,1.238,1.238,0,0,0-1.775,0l-3.7,3.7A14.6,14.6,0,0,0,28,2.5a14.809,14.809,0,0,0-6.65,1.575L17.625.375a1.238,1.238,0,0,0-1.775,0,1.238,1.238,0,0,0,0,1.775l3.275,3.275A14.958,14.958,0,0,0,13,17.5H43A14.914,14.914,0,0,0,36.825,5.4ZM23,12.5H20.5V10H23Zm12.5,0H33V10h2.5Z" transform="translate(995 783)" fill="#ea31a0"/>
      <path id="Icon_simple-apple" data-name="Icon simple-apple" d="M15.441,58.842a13.437,13.437,0,0,1-3.108-2.873,38.539,38.539,0,0,1-2.658-3.633,35.142,35.142,0,0,1-4.447-9.085A34.161,34.161,0,0,1,3.37,32.39a20.188,20.188,0,0,1,2.5-10.219,14.442,14.442,0,0,1,5.247-5.452,13.991,13.991,0,0,1,7.1-2.1,11.717,11.717,0,0,1,2.823.375c.725.2,1.6.525,2.673.924,1.374.525,2.124.85,2.374.924a5.853,5.853,0,0,0,2,.425,5.98,5.98,0,0,0,1.612-.325c.362-.125,1.049-.35,2.024-.775.964-.35,1.729-.65,2.336-.874a20.851,20.851,0,0,1,2.623-.65,12.383,12.383,0,0,1,2.868-.125A17.015,17.015,0,0,1,44.4,15.569a13.076,13.076,0,0,1,6.139,4.9,12.3,12.3,0,0,0-1.811,1.374,15.3,15.3,0,0,0-3.073,3.76,12.741,12.741,0,0,0-1.609,6.3,12.9,12.9,0,0,0,2.1,7.146,13.319,13.319,0,0,0,3.833,3.838,9.821,9.821,0,0,0,2.1,1.124c-.3.937-.63,1.849-1.012,2.748a35.452,35.452,0,0,1-3.123,5.772c-1.079,1.574-1.929,2.748-2.573,3.523a13.93,13.93,0,0,1-2.948,2.741,6.564,6.564,0,0,1-3.628,1.089,8.044,8.044,0,0,1-2.583-.317c-.725-.237-1.439-.5-2.139-.807A17.34,17.34,0,0,0,31.8,57.9a11.292,11.292,0,0,0-2.908-.367A11.66,11.66,0,0,0,26,57.9a18.007,18.007,0,0,0-2.266.812c-1.049.437-1.736.725-2.136.85A11.17,11.17,0,0,1,19.121,60a6.87,6.87,0,0,1-3.713-1.124ZM32.566,12.719a9.305,9.305,0,0,1-4.93,1.089,10.019,10.019,0,0,1,.675-5.09,13.758,13.758,0,0,1,2.5-4.2,13.514,13.514,0,0,1,4.073-3.148A11.586,11.586,0,0,1,39.6,0,11.358,11.358,0,0,1,38.98,5.17a14.837,14.837,0,0,1-2.5,4.4,12.6,12.6,0,0,1-3.963,3.148Z" transform="translate(1135.63 783.001)" fill="#ea31a0"/>
    </g>
    <g transform="matrix(1, 0, 0, 1, 0, 0)" filter="url(#Ellipse_4)">
      <ellipse id="Ellipse_4-2" data-name="Ellipse 4" cx="42.5" cy="43" rx="42.5" ry="43" transform="translate(1300 235)" fill="#efe7e7"/>
    </g>
    <g id="Group_55" data-name="Group 55" transform="translate(1306.645 256)">
      <g id="Group_45" data-name="Group 45" transform="translate(0 0)">
        <g id="Group_42" data-name="Group 42" transform="translate(5.255 13.753)">
          <path id="Path_170" data-name="Path 170" d="M-1498.69,840.757a28.241,28.241,0,0,1-12.3-7.015,28.26,28.26,0,0,1-12.366,7.032,20.023,20.023,0,0,0-.355,3.762,20.01,20.01,0,0,0,12.444,18.443,19.928,19.928,0,0,0,12.9-18.625A20.1,20.1,0,0,0-1498.69,840.757Zm-13.237,14.721h0l-7.586-7.586,2.332-2.338,5.258,5.257,8.222-8.225,2.335,2.335Zm13.237-14.721a28.241,28.241,0,0,1-12.3-7.015,28.26,28.26,0,0,1-12.366,7.032,20.023,20.023,0,0,0-.355,3.762,20.01,20.01,0,0,0,12.444,18.443,19.928,19.928,0,0,0,12.9-18.625A20.1,20.1,0,0,0-1498.69,840.757Zm-13.237,14.721h0l-7.586-7.586,2.332-2.338,5.258,5.257,8.222-8.225,2.335,2.335Zm.933-21.736a28.26,28.26,0,0,1-12.366,7.032,20.023,20.023,0,0,0-.355,3.762,20.01,20.01,0,0,0,12.444,18.443,19.928,19.928,0,0,0,12.9-18.625,20.1,20.1,0,0,0-.324-3.6A28.241,28.241,0,0,1-1510.994,833.742Zm-.933,21.736h0l-7.586-7.586,2.332-2.338,5.258,5.257,8.222-8.225,2.335,2.335Zm13.237-14.721a28.241,28.241,0,0,1-12.3-7.015,28.26,28.26,0,0,1-12.366,7.032,20.023,20.023,0,0,0-.355,3.762,20.01,20.01,0,0,0,12.444,18.443,19.928,19.928,0,0,0,12.9-18.625A20.1,20.1,0,0,0-1498.69,840.757Zm-13.237,14.721h0l-7.586-7.586,2.332-2.338,5.258,5.257,8.222-8.225,2.335,2.335Zm13.237-14.721a28.241,28.241,0,0,1-12.3-7.015,28.26,28.26,0,0,1-12.366,7.032,20.023,20.023,0,0,0-.355,3.762,20.01,20.01,0,0,0,12.444,18.443,19.928,19.928,0,0,0,12.9-18.625A20.1,20.1,0,0,0-1498.69,840.757Zm-13.237,14.721h0l-7.586-7.586,2.332-2.338,5.258,5.257,8.222-8.225,2.335,2.335Z" transform="translate(1523.715 -833.742)" fill="url(#linear-gradient)"/>
        </g>
        <g id="Group_44" data-name="Group 44">
          <g id="Group_43" data-name="Group 43">
            <path id="Path_171" data-name="Path 171" d="M-1463,823.938a5.253,5.253,0,0,0-.762-.96c-.089-.09-.184-.175-.28-.258a5.057,5.057,0,0,0-3.012-1.223h-38.57a5.059,5.059,0,0,0-3.012,1.223,2.673,2.673,0,0,0-.276.258,4.961,4.961,0,0,0-.763.953,5.1,5.1,0,0,0-.756,2.68v2.01l-.639.659-.111.117a33,33,0,0,1-15.347,8.991c-.147.042-.3.079-.447.117l-.651.161-.144.653c-.05.236-.1.475-.146.715a27.008,27.008,0,0,0-.48,5.073,26.739,26.739,0,0,0,4.842,15.4,26.84,26.84,0,0,0,11.227,9.234c.386.171.776.332,1.172.485l.373.144.375-.137c.51-.181,1.012-.38,1.509-.588a26.925,26.925,0,0,0,12.823-11.442h28.708a5.08,5.08,0,0,0,3.309-1.221c.1-.085.2-.171.291-.266a5.334,5.334,0,0,0,.763-.958,5.087,5.087,0,0,0,.756-2.677V826.611A5.123,5.123,0,0,0-1463,823.938Zm-42.584,0c.089-.006.179-.01.271-.01h37.948c.092,0,.181,0,.27.01h.4l-.065.059-18.783,16.618a1.2,1.2,0,0,1-1.587,0L-1505.912,824l-.065-.059Zm-2.4,2.67a2.626,2.626,0,0,1,.2-1.012l16.1,14.253-1.149,1.015q-.088-.595-.206-1.18c-.02-.127-.044-.249-.072-.376l-.139-.659-.654-.161c-.157-.041-.314-.078-.472-.12a33.077,33.077,0,0,1-13.61-7.388Zm-2.765,41.456a24.921,24.921,0,0,1-15.487-22.959,24.9,24.9,0,0,1,.445-4.68,35.118,35.118,0,0,0,15.387-8.756,35.125,35.125,0,0,0,15.313,8.735,24.853,24.853,0,0,1,.406,4.479A24.81,24.81,0,0,1-1510.753,868.066Zm15.914-12.311a26.769,26.769,0,0,0,2.305-10.871c0-.336-.007-.667-.021-1l2.71-2.4,2.715,2.4a1.2,1.2,0,0,0,1.587,0l2.714-2.4,16.058,14.2.075.069Zm30.146-2.677a2.621,2.621,0,0,1-.2,1.009l-16.092-14.236,16.1-14.243a2.639,2.639,0,0,1,.194,1Z" transform="translate(1528.394 -821.497)" fill="url(#linear-gradient)"/>
          </g>
        </g>
      </g>
    </g>
    <path id="Icon_awesome-hand-pointer" data-name="Icon awesome-hand-pointer" d="M44,23.571V33a3.927,3.927,0,0,1-.1.9L40.753,47.257a3.929,3.929,0,0,1-3.824,3.029H16.5a3.929,3.929,0,0,1-3.177-1.618L.752,31.382a3.929,3.929,0,1,1,6.354-4.621l3.108,4.274V3.929a3.929,3.929,0,0,1,7.857,0V23.571h.786V19.643a3.929,3.929,0,0,1,7.857,0v3.929H27.5V21.214a3.929,3.929,0,1,1,7.857,0v2.357h.786a3.929,3.929,0,1,1,7.857,0ZM18.857,31.429h-.786v9.429h.786Zm8.643,0h-.786v9.429H27.5Zm8.643,0h-.786v9.429h.786Z" transform="translate(1329 311)" fill="url(#linear-gradient-3)"/>
  </g>
</svg>
