<svg xmlns="http://www.w3.org/2000/svg" xmlns:xlink="http://www.w3.org/1999/xlink" width="1666" height="945" viewBox="0 0 1666 945">
  <defs>
    <clipPath id="clip-path">
      <rect width="1521.5" height="96" fill="none"/>
    </clipPath>
    <clipPath id="clip-how-it-work-2">
      <rect width="1666" height="945"/>
    </clipPath>
  </defs>
  <g id="how-it-work-2" clip-path="url(#clip-how-it-work-2)">
    <rect id="Rectangle_19" data-name="Rectangle 19" width="1595" height="595" rx="15" transform="translate(47 103)" fill="#f5f7f7"/>
    <g id="Rectangle_9" data-name="Rectangle 9" transform="translate(86 162)" fill="#fff" stroke="#707070" stroke-width="1">
      <rect width="30" height="30" stroke="none"/>
      <rect x="0.5" y="0.5" width="29" height="29" fill="none"/>
    </g>
    <g id="Rectangle_11" data-name="Rectangle 11" transform="translate(86 241)" fill="#fff" stroke="#707070" stroke-width="1">
      <rect width="30" height="30" stroke="none"/>
      <rect x="0.5" y="0.5" width="29" height="29" fill="none"/>
    </g>
    <g id="Rectangle_13" data-name="Rectangle 13" transform="translate(86 320)" fill="#fff" stroke="#707070" stroke-width="1">
      <rect width="30" height="30" stroke="none"/>
      <rect x="0.5" y="0.5" width="29" height="29" fill="none"/>
    </g>
    <g id="Rectangle_15" data-name="Rectangle 15" transform="translate(85 399)" fill="#fff" stroke="#707070" stroke-width="1">
      <rect width="30" height="30" stroke="none"/>
      <rect x="0.5" y="0.5" width="29" height="29" fill="none"/>
    </g>
    <g id="Rectangle_17" data-name="Rectangle 17" transform="translate(85 478)" fill="#fff" stroke="#707070" stroke-width="1">
      <rect width="30" height="30" stroke="none"/>
      <rect x="0.5" y="0.5" width="29" height="29" fill="none"/>
    </g>
    <g id="Rectangle_20" data-name="Rectangle 20" transform="translate(84 557)" fill="#fff" stroke="#707070" stroke-width="1">
      <rect width="30" height="30" stroke="none"/>
      <rect x="0.5" y="0.5" width="29" height="29" fill="none"/>
    </g>
    <path id="Icon_feather-star" data-name="Icon feather-star" d="M18,3l4.635,9.39L33,13.9l-7.5,7.3,1.77,10.32L18,26.655,8.73,31.53,10.5,21.21,3,13.9,13.365,12.39Z" transform="translate(143 160.5)" fill="none" stroke="#c6c6c6" stroke-linecap="round" stroke-linejoin="round" stroke-width="3"/>
    <path id="Icon_feather-star-2" data-name="Icon feather-star" d="M18,3l4.635,9.39L33,13.9l-7.5,7.3,1.77,10.32L18,26.655,8.73,31.53,10.5,21.21,3,13.9,13.365,12.39Z" transform="translate(143 239.5)" fill="none" stroke="#c6c6c6" stroke-linecap="round" stroke-linejoin="round" stroke-width="3"/>
    <path id="Icon_feather-star-3" data-name="Icon feather-star" d="M18,3l4.635,9.39L33,13.9l-7.5,7.3,1.77,10.32L18,26.655,8.73,31.53,10.5,21.21,3,13.9,13.365,12.39Z" transform="translate(143 318.5)" fill="#f4c85e" stroke="#c6c6c6" stroke-linecap="round" stroke-linejoin="round" stroke-width="3"/>
    <path id="Icon_feather-star-4" data-name="Icon feather-star" d="M18,3l4.635,9.39L33,13.9l-7.5,7.3,1.77,10.32L18,26.655,8.73,31.53,10.5,21.21,3,13.9,13.365,12.39Z" transform="translate(142 397.5)" fill="none" stroke="#c6c6c6" stroke-linecap="round" stroke-linejoin="round" stroke-width="3"/>
    <path id="Icon_feather-star-5" data-name="Icon feather-star" d="M18,3l4.635,9.39L33,13.9l-7.5,7.3,1.77,10.32L18,26.655,8.73,31.53,10.5,21.21,3,13.9,13.365,12.39Z" transform="translate(142 476.5)" fill="#f4c85e" stroke="#c6c6c6" stroke-linecap="round" stroke-linejoin="round" stroke-width="3"/>
    <path id="Icon_feather-star-6" data-name="Icon feather-star" d="M18,3l4.635,9.39L33,13.9l-7.5,7.3,1.77,10.32L18,26.655,8.73,31.53,10.5,21.21,3,13.9,13.365,12.39Z" transform="translate(141 555.5)" fill="none" stroke="#c6c6c6" stroke-linecap="round" stroke-linejoin="round" stroke-width="3"/>
    <text id="Groupon_via_SimpleLogin" data-name="Groupon via SimpleLogin" transform="translate(210 186)" fill="#646464" font-size="28" font-family="Helvetica-Bold, Helvetica" font-weight="700"><tspan x="0" y="0">Groupon via SimpleLogin</tspan></text>
    <text id="AngelList_via_SimpleLogin" data-name="AngelList via SimpleLogin" transform="translate(210 265)" fill="#646464" font-size="28" font-family="Helvetica-Bold, Helvetica" font-weight="700"><tspan x="0" y="0">AngelList via SimpleLogin</tspan></text>
    <text id="Dad" transform="translate(210 344)" fill="#646464" font-size="24" font-family="Helvetica"><tspan x="0" y="0">Dad</tspan></text>
    <text id="Super_Deals_from_SimpleLogin" data-name="Super Deals from SimpleLogin" transform="translate(209 423)" fill="#646464" font-size="28" font-family="Helvetica-Bold, Helvetica" font-weight="700"><tspan x="0" y="0">Super Deals from SimpleLogin</tspan></text>
    <text id="Buddy" transform="translate(209 502)" fill="#646464" font-size="24" font-family="Helvetica"><tspan x="0" y="0">Buddy</tspan></text>
    <rect id="Rectangle_10" data-name="Rectangle 10" width="831" height="28" rx="14" transform="translate(631 164)" fill="#c6c6c6"/>
    <rect id="Rectangle_12" data-name="Rectangle 12" width="831" height="28" rx="14" transform="translate(631 243)" fill="#c6c6c6"/>
    <rect id="Rectangle_14" data-name="Rectangle 14" width="831" height="28" rx="14" transform="translate(631 322)" fill="#c6c6c6"/>
    <rect id="Rectangle_16" data-name="Rectangle 16" width="830" height="28" rx="14" transform="translate(631 401)" fill="#c6c6c6"/>
    <rect id="Rectangle_18" data-name="Rectangle 18" width="830" height="28" rx="14" transform="translate(631 480)" fill="#c6c6c6"/>
    <rect id="Rectangle_21" data-name="Rectangle 21" width="829" height="28" rx="14" transform="translate(631 559)" fill="#c6c6c6"/>
    <text id="April_12" data-name="April 12" transform="translate(1523 186)" fill="#646464" font-size="24" font-family="Helvetica"><tspan x="0" y="0">April 12</tspan></text>
    <text id="April_12-2" data-name="April 12" transform="translate(1523 265)" fill="#646464" font-size="24" font-family="Helvetica"><tspan x="0" y="0">April 12</tspan></text>
    <text id="April_11" data-name="April 11" transform="translate(1523 344)" fill="#646464" font-size="24" font-family="Helvetica"><tspan x="0" y="0">April 11</tspan></text>
    <text id="April_10" data-name="April 10" transform="translate(1522 423)" fill="#646464" font-size="24" font-family="Helvetica"><tspan x="0" y="0">April 10</tspan></text>
    <text id="April_10-2" data-name="April 10" transform="translate(1522 502)" fill="#646464" font-size="24" font-family="Helvetica"><tspan x="0" y="0">April 10</tspan></text>
    <text id="April_10-3" data-name="April 10" transform="translate(1521 581)" fill="#646464" font-size="24" font-family="Helvetica"><tspan x="0" y="0">April 10</tspan></text>
    <line id="Line_5" data-name="Line 5" x2="1521.257" transform="translate(83.5 216.5)" fill="none" stroke="#707070" stroke-width="1"/>
    <line id="Line_6" data-name="Line 6" x2="1521.257" transform="translate(83.5 295.5)" fill="none" stroke="#707070" stroke-width="1"/>
    <line id="Line_7" data-name="Line 7" x2="1521.257" transform="translate(83.5 374.5)" fill="none" stroke="#707070" stroke-width="1"/>
    <line id="Line_8" data-name="Line 8" x2="1521.257" transform="translate(82.5 453.5)" fill="none" stroke="#707070" stroke-width="1"/>
    <line id="Line_9" data-name="Line 9" x2="1521.257" transform="translate(82.5 532.5)" fill="none" stroke="#707070" stroke-width="1"/>
    <line id="Line_10" data-name="Line 10" x2="1521.257" transform="translate(81.5 611.5)" fill="none" stroke="#707070" stroke-width="1"/>
    <rect id="Rectangle_22" data-name="Rectangle 22" width="254" height="30" rx="15" transform="translate(204 557)" fill="#c6c6c6"/>
    <g id="Repeat_Grid_1" data-name="Repeat Grid 1" transform="translate(83.5 636)" clip-path="url(#clip-path)">
      <g transform="translate(-83.5 -636)">
        <g id="Rectangle_23" data-name="Rectangle 23" transform="translate(86 636)" fill="#fff" stroke="#707070" stroke-width="1">
          <rect width="30" height="30" stroke="none"/>
          <rect x="0.5" y="0.5" width="29" height="29" fill="none"/>
        </g>
        <path id="Icon_feather-star-7" data-name="Icon feather-star" d="M18,3l4.635,9.39L33,13.9l-7.5,7.3,1.77,10.32L18,26.655,8.73,31.53,10.5,21.21,3,13.9,13.365,12.39Z" transform="translate(143 634.5)" fill="none" stroke="#c6c6c6" stroke-linecap="round" stroke-linejoin="round" stroke-width="3"/>
        <rect id="Rectangle_25" data-name="Rectangle 25" width="826" height="28" rx="14" transform="translate(636 638)" fill="#c6c6c6"/>
        <text id="April_10-4" data-name="April 10" transform="translate(1523 660)" fill="#646464" font-size="24" font-family="Helvetica"><tspan x="0" y="0">April 10</tspan></text>
        <line id="Line_11" data-name="Line 11" x2="1521.257" transform="translate(83.5 690.5)" fill="none" stroke="#707070" stroke-width="1"/>
        <rect id="Rectangle_24" data-name="Rectangle 24" width="254" height="30" rx="15" transform="translate(206 636)" fill="#c6c6c6"/>
      </g>
      <g transform="translate(-83.5 -561)">
        <g id="Rectangle_23-2" data-name="Rectangle 23" transform="translate(86 636)" fill="#fff" stroke="#707070" stroke-width="1">
          <rect width="30" height="30" stroke="none"/>
          <rect x="0.5" y="0.5" width="29" height="29" fill="none"/>
        </g>
        <path id="Icon_feather-star-8" data-name="Icon feather-star" d="M18,3l4.635,9.39L33,13.9l-7.5,7.3,1.77,10.32L18,26.655,8.73,31.53,10.5,21.21,3,13.9,13.365,12.39Z" transform="translate(143 634.5)" fill="none" stroke="#c6c6c6" stroke-linecap="round" stroke-linejoin="round" stroke-width="3"/>
        <rect id="Rectangle_25-2" data-name="Rectangle 25" width="826" height="28" rx="14" transform="translate(636 638)" fill="#c6c6c6"/>
        <text id="April_10-5" data-name="April 10" transform="translate(1523 660)" fill="#646464" font-size="24" font-family="Helvetica"><tspan x="0" y="0">April 10</tspan></text>
        <line id="Line_11-2" data-name="Line 11" x2="1521.257" transform="translate(83.5 690.5)" fill="none" stroke="#707070" stroke-width="1"/>
        <rect id="Rectangle_24-2" data-name="Rectangle 24" width="254" height="30" rx="15" transform="translate(206 636)" fill="#c6c6c6"/>
      </g>
    </g>
    <path id="Icon_simple-gmail" data-name="Icon simple-gmail" d="M80,9.5v50a4.911,4.911,0,0,1-5,5H70V19.123L40,40.667,10,19.123V64.5H5a4.909,4.909,0,0,1-5-5V9.5a4.913,4.913,0,0,1,5-5H6.667L40,28.667,73.333,4.5H75a4.913,4.913,0,0,1,5,5Z" transform="translate(612 793.5)" fill="#ea31a0"/>
    <path id="Icon_simple-protonmail" data-name="Icon simple-protonmail" d="M26.536,50.881a11.714,11.714,0,0,1-4.888-1.763C19.5,47.629,5.2,37.4,5.2,37.4V57.644A2.537,2.537,0,0,0,7.91,60H45.162a2.538,2.538,0,0,0,2.713-2.355V37.4S33.567,47.626,31.424,49.121a11.784,11.784,0,0,1-4.888,1.76ZM26.536,0S8.848-.576,5.2,19.06V32.435s.15,1.43,4.175,4.338S23.806,47.864,26.541,47.864,39.677,39.681,43.7,36.771s4.17-4.343,4.17-4.343V19.052C44.225-.571,26.536.009,26.536.009ZM38.652,26.345H14.425V19.06c2.46-9.751,12.111-9.886,12.111-9.886s9.658.135,12.116,9.886v7.285Z" transform="translate(485.802 797.998)" fill="#ea31a0"/>
    <path id="Icon_simple-microsoftoutlook" data-name="Icon simple-microsoftoutlook" d="M64.658,18.87V47.1a2.072,2.072,0,0,1-.641,1.552,2.154,2.154,0,0,1-1.563.62H39.428V30.521l4.311,3.311a1.542,1.542,0,0,0,1.021.339,1.665,1.665,0,0,0,1.048-.342Zm-25.23-5.445H62.454a2.169,2.169,0,0,1,1.463.517,1.905,1.905,0,0,1,.668,1.374L44.733,31.146l-5.3-4.173V13.425ZM36.112,1.3v60L0,55.056V7.708L36.117,1.3h-.005ZM25.2,31.416a12.527,12.527,0,0,0-2.368-7.581A7.307,7.307,0,0,0,17.094,20.7a7.344,7.344,0,0,0-5.658,3.136,12.364,12.364,0,0,0-2.344,7.581,12.294,12.294,0,0,0,2.384,7.519,7.462,7.462,0,0,0,5.66,3.168,7.432,7.432,0,0,0,5.779-3.152A12.366,12.366,0,0,0,25.3,31.416h-.1ZM16.8,24.729a3.606,3.606,0,0,1,2.918,1.932,8.841,8.841,0,0,1,1.172,4.72,8.933,8.933,0,0,1-1.172,4.771,3.5,3.5,0,0,1-2.953,1.9,3.453,3.453,0,0,1-2.95-1.859,8.545,8.545,0,0,1-1.172-4.725,8.317,8.317,0,0,1,1.172-4.688,3.713,3.713,0,0,1,2.912-1.942Z" transform="translate(769 796.704)" fill="#ea31a0"/>
    <path id="Icon_zocial-yahoo" data-name="Icon zocial-yahoo" d="M-6.75,8.174-6.3,9.6a7.585,7.585,0,0,0,.562.75,1.564,1.564,0,0,0,.412.375l.15.15,1.425.75H4.574L26.1,37.422a2.769,2.769,0,0,1,.825,1.877V53.7a1.729,1.729,0,0,1-.187.9.811.811,0,0,1-.412.375H26.1q-8.4,0-10.649.225-.749,0-.75.675V60H53.4V55.725a.465.465,0,0,0-.187-.375.563.563,0,0,0-.34-.15H41.921q-.675,0-.675-1.123V38.929a.632.632,0,0,1,.112-.527,3.049,3.049,0,0,1,.412-.525L42,37.649q.826-.823,19.8-18.671h9.974a2.2,2.2,0,0,0,1.35-.525l1.275-1.425a2,2,0,0,0,.45-1.35V14.624a.677.677,0,0,0-.225-.337.457.457,0,0,0-.227-.112H41.546l-.525.45a1.786,1.786,0,0,0,.112.937,2.035,2.035,0,0,0,.412.712l.15.3L43.421,18.3l1.35.525H53.4L37.872,33.447l-17.1-21.823h3.075a2.9,2.9,0,0,0,1.65-.3l5.1-1.575a.6.6,0,0,0,.225-.075A1.044,1.044,0,0,0,31.16,9.3a1.236,1.236,0,0,0,.187-.675V7.574A.507.507,0,0,0,31.2,7.2a.425.425,0,0,0-.3-.15H-6a.8.8,0,0,0-.75.525ZM82.493,0,96.367.525,90.142,43.047l-4.572-.225Zm.975,57.221.3-8.252,8.252.3-.3,8.249Z" transform="translate(918.75 798)" fill="#ea31a0"/>
    <path id="a" d="M138.432,222.8a5.8,5.8,0,0,0-5.8,5.8V282.19c0,.2.012.408.031.606q3.235-1.205,6.864-2.648c16.83-6.718,30.589-12.43,30.6-18.88a4.463,4.463,0,0,0-.044-.624c-.87-6.368-16.087-8.342-16.066-11.26a.979.979,0,0,1,.139-.479c1.828-3.2,9.068-3.048,11.735-3.275s8.932-.184,9.235-2.092a1.181,1.181,0,0,0,.014-.176c.007-1.773-4.307-2.468-4.307-2.468s5.235.782,5.221,2.819a1.2,1.2,0,0,1-.04.308c-.564,2.188-5.17,2.6-8.217,2.749-2.881.144-7.268.472-7.283,1.879a.747.747,0,0,0,.042.255c.688,2.058,16.768,3.048,27.055,8.388,5.92,3.07,8.865,8.226,10.215,13.553V228.6a5.8,5.8,0,0,0-5.8-5.8H138.432Z" transform="translate(960.372 575.204)" fill="#ea31a0"/>
  </g>
</svg>
