<?xml version="1.0" encoding="utf-8"?>
<!-- Generator: Adobe Illustrator 23.0.3, SVG Export Plug-In . SVG Version: 6.00 Build 0)  -->
<svg xmlns="http://www.w3.org/2000/svg" xmlns:xlink="http://www.w3.org/1999/xlink" x="0px" y="0px"
	 viewBox="0 0 1920 600" style="enable-background:new 0 0 1920 600;" xml:space="preserve">
<style type="text/css">
	.abstract-shapes-19-1{fill:#00DFFC;}
	.abstract-shapes-19-1{fill:#00DFFC;}
</style>
<linearGradient id="SVGASH19_1" gradientUnits="userSpaceOnUse" x1="1121.269" y1="188.3506" x2="284.9299" y2="820.8478">
	<stop  offset="2.474398e-07" style="stop-color:#377DFF"/>
	<stop  offset="1" style="stop-color:#2D1582"/>
</linearGradient>
<path fill="url(#SVGASH19_1)" d="M1139.5,306c8.1-210.1-233-333.8-402-209.2c-79.1,58.1-192.7,120.7-343.9,153.1
	c-231.3,50-266.8,177.1-267.1,248.9c0,33.9-3.3,67.7-8.7,101.2h1183.7c-64.9-62.6-171-142-162.4-285.9
	C1139.2,311.6,1139.5,308.8,1139.5,306z"/>
<g>
<circle class="abstract-shapes-19-1 fill-info" cx="295" cy="256.9" r="7.8"/>
<circle class="abstract-shapes-19-1 fill-info" cx="327.7" cy="300.7" r="9.8"/>
<circle class="abstract-shapes-19-1 fill-info" cx="262.6" cy="373.4" r="4.7"/>
<circle class="abstract-shapes-19-1 fill-info" cx="335.8" cy="202.1" r="5"/>
<circle class="abstract-shapes-19-1 fill-info" cx="270.7" cy="197.4" r="5.6"/>
<circle class="abstract-shapes-19-1 fill-info" cx="238.9" cy="146.5" r="12"/>
<circle class="abstract-shapes-19-1 fill-info" cx="371" cy="256.9" r="5.9"/>
<circle class="abstract-shapes-19-1 fill-info" cx="306.8" cy="345.2" r="3.9"/>
<circle class="abstract-shapes-19-1 fill-info" cx="145" cy="256.9" r="12.3"/>
<circle class="abstract-shapes-19-1 fill-info" cx="228.6" cy="224.5" r="6.4"/>
<circle class="abstract-shapes-19-1 fill-info" cx="198.9" cy="333.7" r="8.9"/>
<circle class="abstract-shapes-19-1 fill-info" cx="139.4" cy="134.8" r="14.5"/>
<circle class="abstract-shapes-19-1 fill-info" cx="205.1" cy="90.7" r="6.1"/>
<circle class="abstract-shapes-19-1 fill-info" cx="282.7" cy="129.2" r="5.6"/>
<circle class="abstract-shapes-19-1 fill-info" cx="356.5" cy="134.8" r="11.2"/>
<circle class="abstract-shapes-19-1 fill-info" cx="371" cy="197.4" r="7.3"/>
<circle class="abstract-shapes-19-1 fill-info" cx="145" cy="207.4" r="5.6"/>
<circle class="abstract-shapes-19-1 fill-info" cx="412.4" cy="283.4" r="10.1"/>
<circle class="abstract-shapes-19-1 fill-info" cx="250.6" cy="292.1" r="8.7"/>
<circle class="abstract-shapes-19-1 fill-info" cx="395.9" cy="361.1" r="12"/>
</g>
<path class="abstract-shapes-19-1 fill-info" opacity=".3" d="M1920,84.6c-204.7,70.8-351.6,265.2-351.6,493.9c0,7.2,0.2,14.3,0.4,21.5H1920V84.6z"/>
</svg>
