<?xml version="1.0" encoding="utf-8"?>
<!-- Generator: Adobe Illustrator 23.0.3, SVG Export Plug-In . SVG Version: 6.00 Build 0)  -->
<svg xmlns="http://www.w3.org/2000/svg" xmlns:xlink="http://www.w3.org/1999/xlink" x="0px" y="0px"
	 viewBox="0 0 849.4 419.7" style="enable-background:new 0 0 849.4 419.7;" xml:space="preserve">
<style type="text/css">
	.bg-elements-2-0{fill:#FFC107;}
	.bg-elements-2-1{fill:#2D1582;}
	.bg-elements-2-2{fill:#00C9A7;}
	.bg-elements-2-3{fill:#DE4437;}
	.bg-elements-2-4{fill:#00DFFC;}
</style>
<g>
	<path class="bg-elements-2-0 fill-warning" d="M77.6,157.5L77.6,157.5c-7.3,5.4-17.7,3.7-23.1-3.6L3.8,84.5c-5.4-7.3-3.7-17.7,3.6-23.1l0,0
		c7.3-5.4,17.7-3.7,23.1,3.6l50.7,69.4C86.5,141.8,84.9,152.2,77.6,157.5z"/>
</g>
<g>
	<path class="bg-elements-2-1 fill-indigo" d="M425.7,76.7L425.7,76.7c-5.7,4.1-13.7,2.9-17.8-2.8l-39.2-53.7c-4.1-5.7-2.9-13.7,2.8-17.8l0,0
		c5.7-4.1,13.7-2.9,17.8,2.8l39.2,53.7C432.6,64.6,431.4,72.6,425.7,76.7z"/>
</g>
<circle class="bg-elements-2-2 fill-success" cx="727.5" cy="109.5" r="11.5"/>
<circle class="bg-elements-2-3 fill-danger" cx="14.5" cy="317.5" r="14.5"/>
<g>
	<path class="bg-elements-2-4 fill-info" d="M198.7,408.7L198.7,408.7c-5.7,4.1-13.7,2.9-17.8-2.8l-39.2-53.7c-4.1-5.7-2.9-13.7,2.8-17.8l0,0
		c5.7-4.1,13.7-2.9,17.8,2.8l39.2,53.7C205.6,396.6,204.4,404.6,198.7,408.7z"/>
</g>
<g>
	<path class="bg-elements-2-0 fill-warning" d="M842.6,416.5L842.6,416.5c-7.3,5.4-17.7,3.7-23.1-3.6l-50.7-69.4c-5.4-7.3-3.7-17.7,3.6-23.1l0,0
		c7.3-5.4,17.7-3.7,23.1,3.6l50.7,69.4C851.5,400.8,849.9,411.2,842.6,416.5z"/>
</g>
</svg>
