<?xml version="1.0" encoding="utf-8"?>
<!-- Generator: Adobe Illustrator 23.0.3, SVG Export Plug-In . SVG Version: 6.00 Build 0)  -->
<svg xmlns="http://www.w3.org/2000/svg" xmlns:xlink="http://www.w3.org/1999/xlink" x="0px" y="0px"
	 viewBox="0 0 25.6 25.6" style="enable-background:new 0 0 25.6 25.6;" xml:space="preserve">
<style type="text/css">
	.checked-icon-0{fill:#00C9A7;}
</style>
<path class="checked-icon-0 fill-success" d="M12.8,0C5.7,0,0,5.7,0,12.8s5.7,12.8,12.8,12.8s12.8-5.7,12.8-12.8S19.9,0,12.8,0z M19.5,8.8L12.7,19
	c-0.2,0.3-0.5,0.5-0.8,0.5s-0.7-0.2-0.9-0.4l-4-4c-0.3-0.3-0.3-0.7,0-1l1-1c0.3-0.3,0.7-0.3,1,0l2.6,2.6l5.7-8.4
	c0.2-0.3,0.7-0.4,1-0.2l1.2,0.8C19.7,8.1,19.8,8.5,19.5,8.8z"/>
</svg>
