<?xml version="1.0" encoding="utf-8"?>
<!-- Generator: Adobe Illustrator 23.0.3, SVG Export Plug-In . SVG Version: 6.00 Build 0)  -->
<svg xmlns="http://www.w3.org/2000/svg" xmlns:xlink="http://www.w3.org/1999/xlink" x="0px" y="0px"
	 viewBox="0 0 2058.5 1182.2" style="enable-background:new 0 0 2058.5 1182.2;" xml:space="preserve">
<style type="text/css">
	.devices-1-0{fill:none;stroke:#BDC5D1;}
	.devices-1-1{fill:#FFFFFF;}
	.devices-1-2{fill:#F7F7F7;}
	.devices-1-3{fill:#EFEFEF;}
	.devices-1-4{fill:none;stroke:#E7EAF3;}
	.devices-1-5{fill:#E7EAF3;}
	.devices-1-6{fill:#377DFF;}
	.devices-1-7{fill:none;stroke:#1E2022;}
	.devices-1-8{fill:#FFFFFF;stroke:#1E2022;}
	.devices-1-9{fill:#00C9A7;}
	.devices-1-10{fill:#1E2022;}
</style>
<g>
	<g>
		<path class="devices-1-0 fill-none stroke-gray-400" stroke-width="5.4276" stroke-miterlimit="10" stroke-dasharray="8.5629" d="M212.3,502.7c0.9-1.6,1.8-3.2,2.7-4.7"/>
		<path class="devices-1-0 fill-none stroke-gray-400" stroke-width="5.4276" stroke-miterlimit="10" stroke-dasharray="8.5629" d="M220.8,488.8c1.9-2.8,3.8-5.5,5.7-8.3c13-18.3,27.7-35,43.4-49.8c22.5-21.3,47.4-38.9,73.8-52.2
			c33.5-16.8,69.3-26.4,105.4-29.2c46.6-3.6,93.4,4.1,138.3,19c44.5,14.8,84.6,43.6,128.8,59C767,445,821,448.1,872.8,434.9
			c6.4-1.6,12.8-3.5,19.1-5.6"/>
		<path class="devices-1-0 fill-none stroke-gray-400" stroke-width="5.4276" stroke-miterlimit="10" stroke-dasharray="8.5629" d="M897.1,427.4c1.7-0.6,3.4-1.2,5.1-1.9"/>
	</g>
</g>
<polyline class="devices-1-0 fill-none stroke-gray-400" stroke-width="4.5" stroke-miterlimit="10" stroke-dasharray="7" points="885.9,410.4 918.5,419.1 896.8,440.8 "/>
<g>
	<path class="devices-1-1 fill-white" d="M1916.1,696.8H992.9c-17.4,0-31.7-14.3-31.7-31.7V31.7c0-17.4,14.3-31.7,31.7-31.7h923.3
		c17.4,0,31.7,14.3,31.7,31.7v633.6C1947.8,682.6,1933.5,696.8,1916.1,696.8z"/>
	<circle class="devices-1-2" cx="1452.8" cy="28.2" r="3.6"/>
	<path class="devices-1-1 fill-white" d="M2055.1,677.7H854.4c-1.8,0-3.4-1.6-3.4-3.4l0,0c0-1.8,1.6-3.4,3.4-3.4h1200.7c1.8,0,3.4,1.6,3.4,3.4l0,0
		C2058.5,676.2,2057.1,677.7,2055.1,677.7z"/>
	<path class="devices-1-3" d="M1454.8,679.9l-603.9-2.2c0,0,29.1,13.7,142.4,19.1h459.5h3.7h459.6c113.3-5.4,142.4-19.1,142.4-19.1
		L1454.8,679.9z"/>

		<linearGradient id="devices1ID_1" gradientUnits="userSpaceOnUse" x1="1339.1" y1="546.1826" x2="1570.1" y2="546.1826" gradientTransform="matrix(1 0 0 1 0 129.1174)">
		<stop  offset="5.908129e-07" style="stop-color:#F0F1F2"/>
		<stop  offset="5.235744e-02" style="stop-color:#F6F7F8"/>
		<stop  offset="0.1708" style="stop-color:#FDFDFD"/>
		<stop  offset="0.5" style="stop-color:#FFFFFF"/>
		<stop  offset="0.8292" style="stop-color:#FDFDFD"/>
		<stop  offset="0.9476" style="stop-color:#F6F7F8"/>
		<stop  offset="1" style="stop-color:#F0F1F2"/>
	</linearGradient>
	<path fill="url(#devices1ID_1)" d="M1565.7,679.5h-222.4c-2.3,0-4.2-1.9-4.2-4.2v-4.2h231v4.2C1570.1,677.6,1568.1,679.5,1565.7,679.5z"/>
	<g>
		<g>
			<g>
				<defs>
					<rect id="devices1ID_2" x="998" y="45.3" width="909.6" height="567.7"/>
				</defs>
				<clipPath id="devices1ID_3">
					<use xlink:href="#devices1ID_2"  style="overflow:visible;"/>
				</clipPath>
				<g clip-path="url(#devices1ID_3)">
					<image id="SVGDevices1LaptopImg" style="overflow:visible;" width="1618" height="1010" xlink:href="../../img/1618x1010/img1.jpg"  transform="matrix(0.5622 0 0 0.5622 998.0432 45.2877)"></image>
				</g>
			</g>
		</g>
		<g>
			<rect id="laptopID2" x="998" y="45.3" class="devices-1-4 fill-none stroke-gray-300" stroke-width="1.2" stroke-miterlimit="10" width="909.6" height="567.7"/>
		</g>
	</g>
</g>
<path class="devices-1-5 fill-gray-300" d="M303.1,849.1c-4,2.2-38.9,60.2-36.8,107.7c5.4-1.5,18.3-8.3,18.3-8.3l5.9-3.5l3.7-20.3l4.8-23l9-28.8l10.8-21
	l8.4-12l-7.8,2.4L303.1,849.1z"/>
<path class="devices-1-5 fill-gray-300" d="M402.5,938.6c0,0.3,0,0.7,0,1.3c0.4,13.4,4.4,92.4-50.4,124.7c24.6,27.6,64.8,3,64.8,3l5.4-6v-94.2l-1.2-2.4
	l-6.6-24l-8.4,0.6L402.5,938.6z"/>
<path class="devices-1-6 fill-primary" d="M373.2,1150.2l-44.1-61c0,0-28.8-26.1-40.5-34.9c-0.1,9,0.5,73.5,3.2,95.9H373.2z"/>
<path class="devices-1-6 fill-primary" d="M414.1,1140.4h8.2V1060c-20.7,6.6-120.8,7.2-133.6-5.8c0,1,19.2,53.2,53.8,93.5h71.6V1140.4z"/>
<path class="devices-1-7 fill-none stroke-dark" opacity=".1" d="M414.1,1140.4h8.2V1060c-20.7,6.6-120.8,7.2-133.6-5.8c0,1,19.2,53.2,53.8,93.5h71.6V1140.4z"/>
<path class="devices-1-7 fill-none stroke-dark" stroke-width="1.5" stroke-linecap="round" stroke-linejoin="round" d="M266.1,898.1c-2.2,2.4-2.2,7-2.2,7c-2.7-8.1-61.6-154.6-61.6-154.6s-12.2,5.2,1.9,32.9
	c-4.5,2.7-17.2,12.8-12,29.1c3.9,12.3,12.6,16.5,18,16.5c-0.9,9.2,18.7,103,21.3,107.5c6,10.6,17.6,22.2,24.4,22.5
	c7.8,0.4,23.7-6.8,34.6-13.7"/>
<path class="devices-1-7 fill-none stroke-dark" stroke-width="1.5" stroke-linecap="round" stroke-miterlimit="10" d="M326.7,840c-29.6,5.5-67.2,40.4-66.3,47.9c0.9,7.1,19.4,27.6,33.4,37.3"/>
<path class="devices-1-7 fill-none stroke-dark" stroke-width="1.5" stroke-linecap="round" stroke-miterlimit="10" d="M345.3,823.5c-63.6,35.9-64.8,219.5-56.6,230.8c8,11,103.1,13.9,133.6,6.3"/>
<path class="devices-1-7 fill-none stroke-dark" stroke-width="1.5" stroke-linecap="round" stroke-miterlimit="10" d="M419.9,845.3c-8.7-12.7-20.2-21.9-35.1-25.8"/>
<path class="devices-1-7 fill-none stroke-dark" stroke-width="1.5" stroke-linecap="round" stroke-miterlimit="10" d="M414.7,940.7c1.6,6.9,4.9,19.8,8.2,32"/>
<path class="devices-1-7 fill-none stroke-dark" stroke-width="1.5" stroke-linecap="round" stroke-miterlimit="10" d="M395.6,925.2c3.1,8.9,6.5,15.1,8.9,15.9c3,1,9.8,0,17.8-2.1"/>
<path class="devices-1-7 fill-none stroke-dark" stroke-width="1.5" stroke-linecap="round" stroke-miterlimit="10" d="M422.3,846.9c-5.3-3.9-10.6-5.8-15.6-4.6"/>
<path class="devices-1-7 fill-none stroke-dark" stroke-width="1.5" stroke-linecap="round" stroke-miterlimit="10" d="M345.3,823.5v-10.3"/>
<path class="devices-1-7 fill-none stroke-dark" stroke-width="1.5" stroke-linecap="round" stroke-miterlimit="10" d="M384.8,794.3v42.8c0,3.5-9.3,5.6-18.9,5.9"/>
<path class="devices-1-7 fill-none stroke-dark" stroke-width="1.5" stroke-linecap="round" stroke-miterlimit="10" d="M384.7,794.3c3.6,2,9-0.1,12.5-5c3.7-5.1,3.7-11.3,0.2-13.9c-0.9-0.7-2-1-3.2-1.1"/>
<path class="devices-1-7 fill-none stroke-dark" stroke-width="1.5" stroke-linecap="round" stroke-miterlimit="10" d="M327.8,750.7c-0.6,1.3-1.2,2.6-1.7,3.9c-9.7,24.5-2.8,50.1,15.4,57.3c1.2,0.5,2.5,0.9,3.7,1.2"/>
<path class="devices-1-7 fill-none stroke-dark" stroke-width="1.5" stroke-linecap="round" stroke-miterlimit="10" d="M407.3,779.8c7.4-2.2,16.6-7.5,16.6-18c0-6.6-6.2-13.9-7.3-22.2c-0.6-4.2,0.7-21.7-4.2-27.6
	c-10.2-12.3-16.2-9.7-24-12.6c-13.6-5-18.8-13.2-30-13.2c-12.7,0-17.9,6.6-27,6.6c-10.4,0-19-4.8-33.6-4.8c-7.8,0-18,10.2-18,19.2
	c0,21.3,19.8,18.2,19.8,23.4c0,3.6-1.2,6.5-1.2,11.4c0,2.6,1.4,4.8,3.4,6.5"/>
<path class="devices-1-5 fill-gray-300" d="M187.1,682.6H217c8.9,0,16.1,7.2,16.1,16.1v29.9c0,8.9-7.2,16.1-16.1,16.1h-29.9c-8.9,0-16.1-7.2-16.1-16.1
	v-29.9C171.1,689.8,178.3,682.6,187.1,682.6z"/>
<circle class="devices-1-6 fill-primary" cx="225.7" cy="687.6" r="12.7"/>
<path class="devices-1-8 fill-white stroke-dark" stroke-width="1.5" stroke-miterlimit="10" d="M389.4,544.2H187.9c-27.1,0-49.1,22-49.1,49.1v515.2c0,27.1,22,49.1,49.1,49.1l0,0h201.5
	c27.1,0,49.1-22,49.1-49.1V593.3C438.5,566.2,416.5,544.2,389.4,544.2z M422.3,848.9v256.5c0,18.7-15.2,33.9-33.9,33.9H188.9
	c-18.7,0-33.9-15.2-33.9-33.9l0,0v-509c0-18.7,15.2-33.9,33.9-33.9h33V573c0,5.2,4.2,9.4,9.4,9.4h114.4c5.2,0,9.4-4.2,9.4-9.4v-10.5
	h33c18.7,0,33.9,15.2,33.9,33.9l0,0L422.3,848.9z"/>
<path class="devices-1-9 fill-success" d="M493.4,620.4h-72.8c-13.1,0-23.8,10.7-23.8,23.8c0,6.9,2.9,13.1,7.7,17.5v15.9l10.3-10.3
	c1.9,0.5,3.8,0.7,5.8,0.7h72.8c13.1,0,23.8-10.7,23.8-23.8S506.5,620.4,493.4,620.4z"/>
<circle class="devices-1-1 fill-white" cx="432.4" cy="645" r="6"/>
<circle class="devices-1-1 fill-white" cx="457" cy="645" r="6"/>
<circle class="devices-1-1 fill-white" cx="481.5" cy="645" r="6"/>
<path class="devices-1-7 fill-none stroke-dark" stroke-width="5" stroke-linecap="round" stroke-miterlimit="10" d="M109.2,1090.2c1.2-3.4,1.9-7.7,1.9-13c0-80.1-94.8-58.5-94.8-125"/>
<path class="devices-1-10 fill-dark" d="M33,951.7c5.1,6.7-12.1,14.4-14.5,11.1S27.5,944.6,33,951.7z"/>
<path class="devices-1-10 fill-dark" d="M116.9,834c6.3,8.1-12.2,15.6-15.2,11.7C98.7,841.8,110.2,825.3,116.9,834z"/>
<path class="devices-1-10 fill-dark" d="M111.9,867.7c5,9-19.2,16.2-21.6,11.9C87.9,875.3,106.6,858.1,111.9,867.7z"/>
<path class="devices-1-10 fill-dark" d="M113.4,893.3c6.5,7.9-15.9,19.4-19.1,15.6S106.4,884.8,113.4,893.3z"/>
<path class="devices-1-10 fill-dark" d="M121,922.1c6.5,7.9-15.9,19.4-19.1,15.6C98.8,934,114,913.6,121,922.1z"/>
<path class="devices-1-10 fill-dark" d="M127.7,948.9c5.9,7.2-13.7,17-16.5,13.6C108.3,959,121.4,941.2,127.7,948.9z"/>
<path class="devices-1-10 fill-dark" d="M136.7,978.2c5.9,7.2-13.7,17-16.5,13.6C117.3,988.3,130.4,970.5,136.7,978.2z"/>
<path class="devices-1-10 fill-dark" d="M0.3,946.4c2.1-8.2,18.8,0.7,17.7,4.7S-2,955.2,0.3,946.4z"/>
<path class="devices-1-10 fill-dark" d="M0,975.2c-1-8.4,17.7-6.3,18.2-2.3S1.2,984.2,0,975.2z"/>
<path class="devices-1-10 fill-dark" d="M16.6,1001.3c-5.5-6.4,11.3-15,14-11.9C33.2,992.4,22.4,1008.1,16.6,1001.3z"/>
<path class="devices-1-10 fill-dark" d="M37.4,1015.3c-3.3-7.8,15.3-10.9,16.9-7.2C55.8,1011.9,40.9,1023.6,37.4,1015.3z"/>
<path class="devices-1-10 fill-dark" d="M65.3,1030c-3.3-7.8,15.3-10.9,16.9-7.2S68.8,1038.3,65.3,1030z"/>
<path class="devices-1-10 fill-dark" d="M86.2,1051.2c-0.7-8.4,17.9-5.6,18.3-1.6S87,1060.2,86.2,1051.2z"/>
<path class="devices-1-10 fill-dark" d="M42,969.7c6.6,5.3-8.3,16.8-11.4,14.3C27.4,981.5,35,964.1,42,969.7z"/>
<path class="devices-1-10 fill-dark" d="M57,984.8c7.3,4.3-5.8,17.8-9.3,15.8S49.2,980.2,57,984.8z"/>
<path class="devices-1-10 fill-dark" d="M84.4,999.5c6.8,4.9-7.5,17.2-10.8,14.8S77.1,994.2,84.4,999.5z"/>
<path class="devices-1-7 fill-none stroke-dark" stroke-width="5" stroke-linecap="round" stroke-miterlimit="10" d="M107.4,1090c8.3-13.7,18.5-34.5,18.5-57.9c0-64.7-36.1-97.1-36.1-143.2c0-8.7,0.8-36.2,14.7-47.4"/>
<path class="devices-1-8 fill-white stroke-dark" stroke-width="1.5" stroke-linecap="round" stroke-miterlimit="10" d="M136.3,1181.5h-53c-2.5,0-4.7-1.6-5.4-3.9l-26.4-80c-1-3,0.7-6.3,3.7-7.2c0.6-0.2,1.2-0.3,1.8-0.3h106
	c3.2,0,5.7,2.6,5.7,5.7c0,0.6-0.1,1.2-0.3,1.8l-26.6,80C141,1179.9,138.8,1181.5,136.3,1181.5z"/>
<path class="devices-1-5 fill-gray-300" d="M132,1090.2c1.5,2.2,12.7,65.1-44.8,91.3c15.8-0.5,19.9,0.3,19.9,0.3h30l4.8-3l11.4-34.2l8.1-25.2l7.5-23.4
	l-1.8-4.3l-3.6-2.3L132,1090.2z"/>
<path class="devices-1-10 fill-dark" d="M145.3,1011.8c3.1,8.8-18.7,11.3-20.2,7.1C123.6,1014.7,141.9,1002.4,145.3,1011.8z"/>
<path class="devices-1-10 fill-dark" d="M109.6,1024.9c6.9-6.3,17.7,12.9,14.3,15.9S102.2,1031.6,109.6,1024.9z"/>
<path class="devices-1-10 fill-dark" d="M104,1001c4.6-8.1,20.8,6.6,18.6,10.5S99.1,1009.7,104,1001z"/>
<path class="devices-1-10 fill-dark" d="M98.8,972.6c4.6-8.1,20.8,6.6,18.6,10.5S93.9,981.3,98.8,972.6z"/>
<path class="devices-1-10 fill-dark" d="M89.5,950.1c3-8.8,21.7,2.6,20.3,6.8C108.4,961.2,86.3,959.6,89.5,950.1z"/>
<path class="devices-1-10 fill-dark" d="M76.3,919.1c4.4-8.3,21,6.1,18.9,10S71.7,927.9,76.3,919.1z"/>
<path class="devices-1-10 fill-dark" d="M70.1,884.5c5.1-7.8,20.4,8,17.9,11.7S64.7,892.9,70.1,884.5z"/>
<path class="devices-1-10 fill-dark" d="M73.2,854.8c5.1-7.8,20.4,8,17.9,11.7C88.7,870.3,67.7,863.2,73.2,854.8z"/>
<path class="devices-1-10 fill-dark" d="M145.3,1042.5c3.1,8.8-18.7,11.3-20.2,7.1C123.6,1045.4,141.9,1033.1,145.3,1042.5z"/>
<path class="devices-1-7 fill-none stroke-dark" stroke-width="1.5" stroke-linecap="round" stroke-miterlimit="10" d="M338.6,757.7c0,3-0.6,12.6-4.2,15"/>
<path class="devices-1-7 fill-none stroke-dark" stroke-width="1.5" stroke-linecap="round" stroke-miterlimit="10" d="M336.5,788.6c6,0,11.4-3.6,11.4-6"/>
<ellipse class="devices-1-7 fill-none stroke-dark" cx="351.8" cy="759.2" rx="2.1" ry="3.6"/>
<path class="devices-1-7 fill-none stroke-dark" stroke-width="1.5" stroke-linecap="round" stroke-miterlimit="10" d="M136.3,1181.5h-53c-2.5,0-4.7-1.6-5.4-3.9l-26.4-80c-1-3,0.7-6.3,3.7-7.2c0.6-0.2,1.2-0.3,1.8-0.3h106
	c3.2,0,5.7,2.6,5.7,5.7c0,0.6-0.1,1.2-0.3,1.8l-26.6,80C141,1179.9,138.8,1181.5,136.3,1181.5z"/>
</svg>
