<svg width="176" height="233" viewBox="0 0 176 233" fill="none" xmlns="http://www.w3.org/2000/svg">
<path fill-rule="evenodd" clip-rule="evenodd" d="M87.045 182.245C73.4228 182.245 62.8968 180.21 57.8351 178.998C54.3737 178.169 51.5942 177.311 49.4828 176.429L56.2335 187.897L58.8742 223.727C58.8742 227.744 71.7084 231 87.5398 231C103.371 231 116.205 227.744 116.205 223.727L118.296 187.507L124.684 176.396C122.563 177.289 119.759 178.159 116.254 178.998C111.193 180.21 100.667 182.245 87.045 182.245ZM124.903 65.6521C114.905 67.0405 101.636 67.8054 87.5398 67.8054C73.4439 67.8054 60.1747 67.0405 50.1767 65.6521C45.2242 64.9645 41.306 64.1534 38.5308 63.2426C37.8688 63.0248 36.747 62.6534 35.6674 62.0618L41.8618 118.744C42.1497 117.768 42.4701 116.793 42.8255 115.821C43.5527 113.831 44.3939 111.884 45.3485 109.983C46.3038 108.082 47.3435 106.285 48.4678 104.593C49.5914 102.901 50.788 101.343 52.0559 99.9188C53.3243 98.4956 54.6253 97.2717 55.9614 96.2457C57.2968 95.2209 58.6449 94.4194 60.0057 93.8422C61.3671 93.265 62.7152 92.9758 64.0506 92.9758C65.5888 92.9758 67.0769 93.394 68.5143 94.2304C69.9511 95.0661 71.2944 96.4203 72.5459 98.2916C72.8332 98.7098 73.0154 99.1328 73.0909 99.5606C73.1675 99.989 73.2049 100.392 73.2049 100.77C73.2049 101.666 72.9895 102.373 72.5586 102.89C72.1278 103.408 71.616 103.667 71.0247 103.667C70.4828 103.667 69.9801 103.383 69.5154 102.816C69.0502 102.248 68.5306 101.437 67.9555 100.382C67.4142 99.4262 66.8186 98.735 66.1681 98.3066C65.517 97.8788 64.8116 97.6646 64.0506 97.6646C62.8672 97.6646 61.6036 98.1524 60.2597 99.128C58.9153 100.103 57.5841 101.392 56.2661 102.995C54.947 104.598 53.6834 106.429 52.4747 108.49C51.2659 110.55 50.196 112.661 49.2661 114.82C48.3362 116.982 47.5976 119.112 47.0478 121.212C46.4981 123.312 46.2235 125.198 46.2235 126.87C46.2235 127.428 46.2622 128.001 46.3376 128.588C46.4142 129.176 46.5572 129.708 46.7691 130.186C46.9797 130.664 47.2675 131.057 47.6308 131.364C47.9947 131.674 48.4551 131.828 49.0127 131.828C49.6384 131.828 50.3481 131.619 51.1434 131.201C51.9376 130.784 52.7619 130.235 53.6152 129.559C54.4691 128.882 55.3272 128.115 56.1895 127.259C57.0524 126.403 57.855 125.537 58.5984 124.661C59.3419 123.785 60.0015 122.944 60.5759 122.138C61.151 121.331 61.5819 120.629 61.8697 120.032L64.228 113.014C64.5153 112.258 64.8912 111.72 65.3565 111.402C65.8211 111.083 66.2991 110.924 66.7897 110.924C67.0256 110.924 67.2622 110.964 67.4993 111.043C67.7365 111.123 67.9471 111.248 68.1335 111.416C68.3194 111.586 68.4672 111.804 68.5771 112.074C68.6869 112.342 68.7418 112.656 68.7418 113.014C68.7418 113.97 68.6573 114.865 68.4884 115.702C68.3194 116.539 68.104 117.354 67.8415 118.151C67.5796 118.947 67.2875 119.748 66.9665 120.554C66.6454 121.361 66.3322 122.202 66.0287 123.079C65.9611 123.178 65.8386 123.491 65.6606 124.018C65.4832 124.547 65.2684 125.209 65.0143 126.005C64.7609 126.801 64.4857 127.692 64.19 128.678C63.8937 129.663 63.5902 130.668 63.2776 131.694C62.9644 132.719 62.6645 133.725 62.3772 134.71C62.0894 135.696 61.8311 136.587 61.6036 137.383C61.3755 138.179 61.1854 138.845 61.0328 139.384C60.8807 139.921 60.7878 140.239 60.754 140.34C60.6695 140.657 60.5337 141.011 60.3484 141.399C60.1626 141.787 59.9429 142.156 59.6889 142.504C59.4354 142.852 59.1566 143.142 58.8519 143.37C58.5478 143.599 58.2352 143.714 57.9135 143.714C57.3728 143.714 56.9794 143.534 56.735 143.177C56.4894 142.818 56.3675 142.161 56.3675 141.206V140.788C56.3675 140.648 56.3753 140.498 56.3922 140.34C56.4085 140.021 56.5359 139.423 56.773 138.547C57.0096 137.671 57.2926 136.681 57.6227 135.576C57.9522 134.471 58.3076 133.326 58.6878 132.141C59.0673 130.957 59.4101 129.897 59.7148 128.961C58.8175 129.957 57.8466 130.947 56.7984 131.933C55.7496 132.918 54.676 133.804 53.5778 134.59C52.4783 135.377 51.3709 136.019 50.2558 136.517C49.14 137.014 48.0665 137.264 47.0352 137.264C45.8518 137.264 44.8332 137.005 43.9787 136.487C43.8248 136.393 43.6794 136.288 43.5346 136.183L46.9815 172.115C47.8788 174.351 64.7717 179.845 87.045 179.845C109.329 179.845 126.228 174.346 127.11 172.111L132.061 129.392C131.651 129.765 131.252 130.131 130.871 130.485C129.451 131.798 128.11 132.928 126.851 133.873C125.592 134.819 124.362 135.552 123.161 136.068C121.961 136.587 120.676 136.845 119.307 136.845C118.022 136.845 117.028 136.566 116.327 136.009C115.626 135.452 115.274 134.686 115.274 133.71V133.486C115.274 133.416 115.283 133.331 115.3 133.231C115.367 132.635 115.63 131.947 116.087 131.171C116.543 130.394 117.092 129.588 117.734 128.753C118.377 127.916 119.061 127.07 119.788 126.213C120.515 125.358 121.188 124.547 121.805 123.779C122.422 123.014 122.933 122.312 123.338 121.675C123.745 121.037 123.948 120.52 123.948 120.122C123.948 119.883 123.863 119.694 123.694 119.554C123.525 119.416 123.245 119.345 122.857 119.345C122.181 119.345 121.483 119.52 120.766 119.868C120.046 120.215 119.336 120.685 118.634 121.271C117.933 121.859 117.248 122.531 116.58 123.287C115.913 124.044 115.288 124.831 114.704 125.646C114.121 126.463 113.589 127.284 113.107 128.111C112.625 128.937 112.215 129.698 111.876 130.394C111.775 130.614 111.631 130.923 111.445 131.32C111.259 131.718 111.056 132.167 110.837 132.664C110.616 133.162 110.384 133.675 110.139 134.202C109.894 134.73 109.67 135.228 109.467 135.696C109.265 136.164 109.083 136.581 108.923 136.95C108.761 137.317 108.647 137.572 108.58 137.712C108.495 137.89 108.356 138.228 108.161 138.726C107.967 139.224 107.743 139.807 107.49 140.473C107.236 141.14 106.97 141.842 106.69 142.579C106.413 143.315 106.15 144.013 105.905 144.669C105.659 145.326 105.444 145.904 105.258 146.402C105.072 146.898 104.953 147.237 104.902 147.417C104.734 147.935 104.535 148.421 104.307 148.881C104.079 149.338 103.817 149.741 103.521 150.09C103.225 150.438 102.887 150.717 102.507 150.925C102.126 151.135 101.699 151.239 101.227 151.239C100.617 151.239 100.115 151.094 99.7168 150.806C99.3203 150.517 99.1212 149.964 99.1212 149.149C99.1212 148.751 99.1719 148.343 99.2733 147.925C99.3747 147.507 99.502 147.093 99.6541 146.685C99.8061 146.276 99.963 145.879 100.124 145.491C100.283 145.102 100.432 144.729 100.566 144.371C101.48 142.38 102.41 140.384 103.356 138.383C104.302 136.383 105.211 134.402 106.083 132.441C106.264 132.032 106.43 131.631 106.607 131.224C106.554 131.276 106.502 131.33 106.45 131.38C105.351 132.436 104.257 133.366 103.166 134.172C102.075 134.979 100.993 135.621 99.9208 136.099C98.8466 136.576 97.8027 136.815 96.7877 136.815C96.0949 136.815 95.5162 136.706 95.0516 136.487C94.5863 136.267 94.2152 135.969 93.9358 135.591C93.6564 135.213 93.4572 134.765 93.339 134.247C93.2991 134.07 93.2744 133.885 93.2484 133.701C92.9516 133.931 92.6522 134.155 92.3505 134.367C91.3023 135.103 90.271 135.696 89.2566 136.143C88.2428 136.591 87.3292 136.815 86.5188 136.815C85.7066 136.815 85.0476 136.546 84.5395 136.009C84.0326 135.472 83.7797 134.556 83.7797 133.262C83.7797 132.345 83.9149 131.28 84.1847 130.067C83.7453 130.843 83.1962 131.63 82.5372 132.425C81.8771 133.222 81.1252 133.948 80.2803 134.606C79.4337 135.262 78.4875 135.795 77.4399 136.203C76.3911 136.611 75.25 136.815 74.0166 136.815C73.4584 136.815 72.9219 136.746 72.4059 136.606C71.89 136.467 71.438 136.228 71.0494 135.889C70.6602 135.552 70.3482 135.098 70.111 134.531C69.8745 133.964 69.7562 133.251 69.7562 132.396C69.7562 132.376 69.79 132.072 69.8576 131.484C69.9252 130.897 70.1406 129.971 70.5045 128.707C70.8678 127.443 71.4302 125.806 72.1899 123.794C72.9515 121.784 74.025 119.345 75.4111 116.479C75.7659 115.722 76.1763 115.179 76.6403 114.851C77.1062 114.522 77.6083 114.358 78.149 114.358C78.3861 114.358 78.6311 114.393 78.8846 114.462C79.1392 114.532 79.3752 114.642 79.5954 114.791C79.8145 114.94 79.9925 115.13 80.1283 115.359C80.2622 115.587 80.331 115.851 80.331 116.149C80.331 116.349 80.3051 116.539 80.2544 116.716C80.1693 117.057 79.9877 117.498 79.7101 118.045C79.4307 118.594 79.1048 119.221 78.7325 119.928C78.3614 120.634 77.9679 121.396 77.554 122.213C77.1394 123.028 76.755 123.874 76.4002 124.751C76.0453 125.627 75.7406 126.518 75.4872 127.424C75.2337 128.33 75.0895 129.211 75.0563 130.067C75.0563 130.425 75.1402 130.753 75.3097 131.052C75.4787 131.351 75.7581 131.499 76.1467 131.499C77.245 131.499 78.2932 131.141 79.2913 130.425C80.2882 129.708 81.209 128.817 82.0551 127.752C82.9005 126.687 83.6651 125.542 84.35 124.317C85.0349 123.092 85.6052 121.973 86.0614 120.958C86.383 120.281 86.666 119.554 86.911 118.778C87.156 118.001 87.4228 117.285 87.71 116.628C87.9978 115.97 88.3267 115.423 88.6991 114.985C89.0702 114.547 89.536 114.328 90.093 114.328C90.7025 114.328 91.1834 114.557 91.5395 115.015C91.8943 115.473 92.0711 116.02 92.0711 116.657C92.0711 117.015 91.9577 117.509 91.729 118.136C91.5003 118.763 91.213 119.48 90.8666 120.286C90.5197 121.093 90.1437 121.954 89.7388 122.869C89.3333 123.785 88.9561 124.715 88.6109 125.662C88.2628 126.607 87.9767 127.533 87.748 128.439C87.5193 129.344 87.4059 130.186 87.4059 130.962C87.4059 131.679 87.7776 132.038 88.521 132.038C89.0454 132.038 89.6959 131.858 90.4738 131.499C91.2516 131.141 92.0675 130.638 92.9208 129.991C93.1338 129.83 93.3486 129.661 93.5616 129.484C93.8 128.507 94.0794 127.603 94.4047 126.782C94.996 125.228 95.5965 123.686 96.2053 122.153C96.8136 120.62 97.3712 119.216 97.8793 117.942L105.562 98.6798C105.867 97.9034 106.277 97.3557 106.792 97.0371C107.308 96.7191 107.828 96.5595 108.352 96.5595C108.875 96.5595 109.353 96.7287 109.784 97.0671C110.216 97.4061 110.432 97.9532 110.432 98.7098C110.432 99.068 110.359 99.4466 110.216 99.8444C110.072 100.243 109.89 100.671 109.67 101.128C109.248 102.065 108.745 103.209 108.161 104.563C107.578 105.917 106.952 107.39 106.285 108.983C105.617 110.576 104.932 112.233 104.231 113.955C103.529 115.677 102.844 117.354 102.176 118.987C101.51 120.62 100.883 122.167 100.3 123.631C99.7168 125.094 99.2147 126.363 98.7911 127.438C98.6053 127.896 98.4236 128.429 98.2468 129.036C98.0688 129.643 97.9807 130.186 97.9807 130.664C97.9807 130.962 98.0314 131.201 98.1328 131.38C98.2341 131.559 98.4284 131.649 98.7157 131.649C99.0705 131.649 99.5141 131.525 100.047 131.276C100.579 131.027 101.154 130.698 101.771 130.29C102.389 129.882 103.031 129.414 103.698 128.886C104.366 128.359 105.03 127.812 105.689 127.244C106.349 126.676 106.978 126.109 107.578 125.542C108.178 124.975 108.715 124.452 109.189 123.974C109.3 123.859 109.433 123.778 109.579 123.718C109.864 122.87 110.125 122.039 110.355 121.227C110.49 120.868 110.677 120.361 110.913 119.704C111.149 119.046 111.42 118.399 111.724 117.762C112.028 117.126 112.372 116.572 112.751 116.105C113.131 115.638 113.542 115.403 113.981 115.403C114.658 115.403 115.148 115.558 115.452 115.866C115.756 116.175 115.909 116.628 115.909 117.225C115.909 117.345 115.892 117.534 115.858 117.792C115.823 118.051 115.782 118.326 115.732 118.614C115.681 118.902 115.626 119.176 115.566 119.436C115.507 119.694 115.452 119.883 115.402 120.003C116.026 119.325 116.703 118.654 117.43 117.987C118.157 117.32 118.909 116.716 119.687 116.18C120.465 115.642 121.259 115.205 122.072 114.865C122.882 114.528 123.694 114.358 124.505 114.358C125.063 114.358 125.617 114.438 126.166 114.597C126.715 114.756 127.206 114.99 127.637 115.299C128.068 115.608 128.419 115.996 128.689 116.464C128.959 116.931 129.094 117.474 129.094 118.091C129.094 118.908 128.888 119.779 128.474 120.704C128.06 121.63 127.54 122.561 126.914 123.496C126.288 124.432 125.612 125.342 124.886 126.228C124.159 127.115 123.479 127.92 122.845 128.647C122.21 129.375 121.677 129.991 121.246 130.499C120.816 131.007 120.591 131.351 120.574 131.53C120.574 131.769 120.651 131.963 120.803 132.113C120.955 132.261 121.209 132.336 121.563 132.336C121.851 132.336 122.274 132.177 122.831 131.858C123.389 131.54 124.172 130.988 125.177 130.201C126.182 129.414 127.46 128.359 129.006 127.035C130.067 126.128 131.309 125.046 132.709 123.815L139.415 62.06C138.335 62.6528 137.211 63.0248 136.549 63.2426C133.774 64.1534 129.856 64.9645 124.903 65.6521ZM87.5 51C58.5052 51 35 54.2233 35 58.1998C35 62.1762 58.5052 65.3995 87.5 65.3995C116.495 65.3995 140 62.1762 140 58.1998C140 54.2233 116.495 51 87.5 51ZM108.463 60.3039C108.463 61.2369 105.669 61.9934 102.223 61.9934C98.7772 61.9934 95.9839 61.2369 95.9839 60.3039C95.9839 59.3703 98.7772 58.6137 102.223 58.6137C105.669 58.6137 108.463 59.3703 108.463 60.3039Z" fill="#DA4648"/>
<path fill-rule="evenodd" clip-rule="evenodd" d="M97.0471 59.7563C97.016 59.8053 97 59.8554 97 59.9063C97 60.5108 99.2564 61 102.039 61C104.822 61 107.078 60.5108 107.078 59.9063L113.659 33.448L139.834 6.04915C139.842 6.04079 139.85 6.03214 139.858 6.02319C140.412 5.40192 139.288 3.47928 137.423 1.83036C135.557 0.181443 133.543 -0.376801 132.917 0.251073C132.913 0.255769 132.908 0.260531 132.903 0.265359L104.977 29.401L97.0471 59.7563Z" fill="#DA4648"/>
</svg>
