<svg width="106" height="80" viewBox="0 0 106 80" fill="none" xmlns="http://www.w3.org/2000/svg">
<path d="M91.2743 45.6978C87.5763 45.7172 84.3623 46.6078 81.6711 47.9244C80.6837 45.9689 79.6962 44.2263 79.522 42.9485C79.3284 41.4577 79.096 40.5477 79.3284 38.7665C79.5607 36.9852 80.6062 34.4489 80.5869 34.2553C80.5675 34.0617 80.3545 33.1517 78.2248 33.1323C76.095 33.113 74.2557 33.5389 74.0427 34.1004C73.8298 34.6619 73.4232 35.9397 73.1521 37.2563C72.7842 39.1924 68.8926 46.1044 66.6661 49.7249C65.9497 48.3116 65.3301 47.0725 65.1946 46.085C65.001 44.5942 64.7687 43.6842 65.001 41.903C65.2333 40.1217 66.2788 37.5854 66.2595 37.3918C66.2401 37.1982 66.0271 36.2882 63.8974 36.2688C61.7677 36.2495 59.9283 36.6754 59.7154 37.2369C59.5024 37.7984 59.27 39.115 58.8247 40.3928C58.3794 41.6707 53.21 53.21 51.8547 56.1916C51.1577 57.7212 50.5575 58.9409 50.1315 59.7735C50.1315 59.7735 50.1121 59.8316 50.0541 59.9284C49.6862 60.6447 49.4732 61.032 49.4732 61.032C49.4732 61.032 49.4732 61.032 49.4732 61.0513C49.1828 61.5741 48.873 62.0581 48.7181 62.0581C48.602 62.0581 48.389 60.6641 48.7569 58.7667C49.5313 54.7589 51.3706 48.5246 51.3513 48.3116C51.3513 48.1954 51.6998 47.1112 50.1509 46.5497C48.6407 45.9882 48.0986 46.9176 47.963 46.9176C47.8275 46.9176 47.7307 47.2467 47.7307 47.2467C47.7307 47.2467 49.4151 40.2379 44.5167 40.2379C41.4576 40.2379 37.2369 43.5874 35.1459 46.6078C33.8293 47.3242 31.0219 48.8537 28.0209 50.4994C26.8786 51.1383 25.6975 51.7773 24.5939 52.3775C24.5165 52.3 24.4391 52.2032 24.3616 52.1258C18.437 45.7946 7.47854 41.3221 7.94321 32.8225C8.11747 29.7247 9.18234 21.593 28.989 11.7187C45.2912 3.68376 58.2633 5.91031 60.5092 10.8474C63.7232 17.895 53.5585 30.9832 36.7141 32.8806C30.2862 33.597 26.9173 31.1187 26.0654 30.1894C25.1748 29.2213 25.0393 29.1632 24.7101 29.3569C24.168 29.6473 24.5165 30.5185 24.7101 31.0219C25.2135 32.3385 27.2852 34.6619 30.7896 35.8042C33.8874 36.811 41.4189 37.3724 50.5381 33.8487C60.7415 29.899 68.7184 18.9211 66.3756 9.72448C64.0329 0.392333 48.5439 -2.68612 33.8874 2.52208C25.1748 5.61989 15.7265 10.4989 8.93064 16.8494C0.856973 24.4004 -0.420872 30.9638 0.101883 33.7132C1.97993 43.4713 15.436 49.8218 20.8185 54.5266C20.5474 54.6814 20.2957 54.817 20.0828 54.9331C17.3915 56.2691 7.13004 61.6322 4.57435 67.305C1.67015 73.733 5.03902 78.341 7.26557 78.9605C14.1776 80.8773 21.2832 77.431 25.0973 71.7388C28.9115 66.0465 28.4468 58.6505 26.685 55.2623C26.6656 55.2236 26.6462 55.1848 26.6075 55.1461C27.3045 54.7395 28.0209 54.3136 28.7179 53.907C30.0926 53.0938 31.4478 52.3387 32.6095 51.7192C31.9512 53.5198 31.4672 55.6689 31.2349 58.7667C30.9445 62.4066 32.4353 67.1308 34.3908 68.9895C35.262 69.8026 36.2882 69.822 36.9465 69.822C39.2311 69.822 40.2572 67.9246 41.3996 65.6787C42.7936 62.9294 44.0521 59.7348 44.0521 59.7348C44.0521 59.7348 42.4838 68.3699 46.7433 68.3699C48.2922 68.3699 49.8605 66.3563 50.5575 65.3302C50.5575 65.3495 50.5575 65.3495 50.5575 65.3495C50.5575 65.3495 50.5962 65.2914 50.6736 65.1559C50.8285 64.9042 50.9253 64.7493 50.9253 64.7493C50.9253 64.7493 50.9253 64.73 50.9253 64.7106C51.5449 63.6264 52.9389 61.1675 55.0106 57.0822C57.6824 51.816 60.2575 45.2331 60.2575 45.2331C60.2575 45.2331 60.4898 46.8401 61.2836 49.512C61.7483 51.0802 62.7164 52.8034 63.4908 54.4685C62.8713 55.3397 62.484 55.8238 62.484 55.8238C62.484 55.8238 62.484 55.8238 62.5034 55.8431C62 56.5014 61.4579 57.2178 60.8577 57.9148C58.7473 60.4318 56.2303 63.3166 55.8818 64.1491C55.4752 65.1366 55.572 65.8529 56.3465 66.4338C56.908 66.8597 57.9148 66.9178 58.9409 66.8597C60.8383 66.7242 62.1742 66.2595 62.8325 65.9691C63.8587 65.6012 65.0591 65.0398 66.182 64.2072C68.2537 62.6777 69.5122 60.4898 69.396 57.605C69.3379 56.0174 68.8152 54.4297 68.1763 52.9389C68.3699 52.6679 68.5441 52.3968 68.7377 52.1258C72.0098 47.3435 74.5461 42.0966 74.5461 42.0966C74.5461 42.0966 74.7785 43.7036 75.5723 46.3754C75.9595 47.7307 76.7533 49.2022 77.4503 50.6349C74.3719 53.1325 72.4745 56.0367 71.7968 57.9342C70.5771 61.4579 71.5258 63.0455 73.3264 63.4134C74.1395 63.5877 75.3012 63.2004 76.1531 62.8326C77.2373 62.4841 78.5152 61.8839 79.735 60.9932C81.8066 59.4637 83.8008 57.3339 83.6847 54.4491C83.6266 53.1325 83.2781 51.8353 82.794 50.5769C85.4078 49.4926 88.7767 48.8924 93.0749 49.3958C102.291 50.48 104.111 56.2304 103.762 58.6505C103.414 61.0707 101.478 62.3872 100.839 62.7938C100.2 63.2004 99.9869 63.336 100.045 63.6264C100.122 64.0523 100.432 64.033 100.974 63.9555C101.729 63.82 105.815 62 105.989 57.5469C106.279 51.8547 100.858 45.6397 91.2743 45.6978ZM20.1796 69.6671C17.1205 72.9972 12.861 74.2557 11.0217 73.1909C9.04681 72.0485 9.82126 67.1308 13.5774 63.607C15.862 61.4579 18.8049 59.4637 20.7604 58.2439C21.2057 57.9729 21.864 57.5856 22.6578 57.1016C22.7933 57.0242 22.8708 56.9854 22.8708 56.9854C23.0257 56.8886 23.1806 56.7918 23.3355 56.695C24.7101 61.729 23.3935 66.1627 20.1796 69.6671ZM42.4451 54.5266C41.3802 57.121 39.1536 63.7619 37.7984 63.394C36.6367 63.0843 35.9203 58.0503 37.566 53.0745C38.3986 50.5769 40.1604 47.5952 41.1866 46.4335C42.8517 44.5748 44.691 43.9553 45.1363 44.7104C45.6978 45.6978 43.1034 52.9002 42.4451 54.5266ZM60.819 63.3166C60.3736 63.5489 59.9477 63.7038 59.7541 63.5876C59.6186 63.5102 59.9477 63.2004 59.9477 63.2004C59.9477 63.2004 62.2517 60.7222 63.1617 59.5992C63.6844 58.9409 64.304 58.1665 64.9623 57.2952C64.9623 57.3727 64.9623 57.4695 64.9623 57.5469C64.9623 60.5092 62.0968 62.5034 60.819 63.3166ZM74.9914 60.0833C74.6623 59.8509 74.7204 59.0765 75.824 56.6563C76.2499 55.7076 77.2567 54.12 78.9799 52.5904C79.1735 53.21 79.309 53.8102 79.2896 54.3717C79.2703 58.1084 76.5984 59.5024 74.9914 60.0833Z" fill="#CD6799"/>
</svg>
