<svg width="536" height="156" viewBox="0 0 536 156" fill="none" xmlns="http://www.w3.org/2000/svg">
<g clip-path="url(#clip0_16829_25545)">
<rect width="536" height="156" fill="url(#paint0_linear_16829_25545)"/>
<path d="M200.661 105.864C202.036 105.864 203.151 104.749 203.151 103.375C203.151 102 202.036 100.885 200.661 100.885C199.286 100.885 198.172 102 198.172 103.375C198.172 104.749 199.286 105.864 200.661 105.864Z" fill="white"/>
<path d="M338.074 63.3076C338.961 63.3076 339.506 62.3367 339.043 61.5801L338.012 59.893C337.569 59.1685 336.517 59.1685 336.074 59.893L335.043 61.5801C334.581 62.3367 335.126 63.3076 336.012 63.3076L338.074 63.3076Z" fill="white"/>
<path d="M189 47C189 37.0589 197.059 29 207 29V29C216.941 29 225 37.0589 225 47V65H207C197.059 65 189 56.9411 189 47V47Z" fill="url(#paint1_linear_16829_25545)"/>
<path fill-rule="evenodd" clip-rule="evenodd" d="M203.04 52.7579C203.04 52.9817 203.222 53.1632 203.446 53.1632H211.555C211.779 53.1632 211.96 52.9817 211.96 52.7579V47.8948C211.96 47.559 212.232 47.2869 212.568 47.2869H215.594C215.962 47.2869 216.14 46.8363 215.871 46.5853L207.915 39.1635C207.681 38.9455 207.319 38.9455 207.085 39.1635L199.13 46.5853C198.861 46.8363 199.038 47.2869 199.406 47.2869H202.432C202.768 47.2869 203.04 47.559 203.04 47.8948V52.7579Z" fill="white"/>
<path d="M211.96 54.9869C211.96 54.7631 211.779 54.5816 211.555 54.5816H203.446C203.222 54.5816 203.04 54.7631 203.04 54.9869V55.5947C203.04 55.8186 203.222 56 203.446 56H211.555C211.779 56 211.96 55.8186 211.96 55.5947V54.9869Z" fill="white"/>
<path d="M316.255 94.8799C316.255 86.5956 322.971 79.8799 331.255 79.8799V79.8799C339.539 79.8799 346.255 86.5956 346.255 94.8799V94.8799C346.255 103.164 339.539 109.88 331.255 109.88V109.88C322.971 109.88 316.255 103.164 316.255 94.8799V94.8799Z" fill="url(#paint2_linear_16829_25545)"/>
<path d="M330.99 87C332.96 87.0002 334.556 88.5943 334.557 90.5625V92.0986H336.054C336.566 92.0986 337 92.5117 337 93.043V101.055C337 101.566 336.586 102 336.054 102H325.946C325.434 102 325 101.586 325 101.055V93.043C325 92.5313 325.414 92.0986 325.946 92.0986H327.424V90.5625C327.424 88.5942 329.02 87 330.99 87ZM330.991 95C330.302 95.0001 329.75 95.5478 329.75 96.2324C329.75 96.702 330.006 97.0934 330.4 97.3086L329.888 99.5H332.095L331.582 97.3086C331.976 97.1129 332.232 96.702 332.232 96.2324C332.232 95.5477 331.681 95 330.991 95ZM331.01 88.5195C330.048 88.5195 328.965 89.1455 328.965 90.5625V92.0986H333.055V90.5625C333.054 89.1456 331.971 88.5196 331.01 88.5195Z" fill="white"/>
<path d="M296.917 110.443C297.105 110.054 297.664 110.066 297.835 110.463L300.222 115.996H294.222L296.917 110.443Z" fill="#3F2B87"/>
<path d="M236.172 110.443C236.361 110.054 236.919 110.066 237.091 110.463L239.477 115.996H233.477L236.172 110.443Z" fill="#27DDA6"/>
<path d="M301.636 110.839C301.914 110.423 302.562 110.619 302.562 111.12L302.562 116H298.196L301.636 110.839Z" fill="#27DDA6"/>
<path d="M277 77H268V116H277V77Z" fill="#FFA24D"/>
<path d="M277 100.395L268 95.6385V79.167H277V100.395Z" fill="url(#paint3_linear_16829_25545)"/>
<path d="M302 85H245.145C244.239 85 243.49 84.2682 243.49 83.3448V67.1929C243.49 59.8227 249.466 53.8638 256.819 53.8638H288.671C296.041 53.8638 302 59.8401 302 67.1929V85Z" fill="url(#paint4_linear_16829_25545)"/>
<path d="M268.5 85H246V67.418C246 61.1166 251.041 56 257.25 56C263.459 56 268.5 61.1166 268.5 67.418V85Z" fill="url(#paint5_linear_16829_25545)"/>
<path d="M289.032 41C289.567 41 290.001 41.459 290.001 42.0234V46.9766C290.001 47.541 289.567 48 289.032 48H280V70.0967C280 71.0898 279.115 71.9092 278 71.9092C276.904 71.9092 276 71.0898 276 70.0967V45.2549H276.001V42.0234C276.001 41.4592 276.435 41.0002 276.97 41H289.032Z" fill="url(#paint6_linear_16829_25545)"/>
<path d="M268.5 85H266.288V86.0106H245.681L240.006 90.1574C240.006 90.1574 238.549 91.2377 238.12 92.7536L238 92.6142V93.5899C238 94.3391 238.309 95.1755 239.149 95.9944C241.823 98.2943 251.578 98.9913 258.796 93.4679C265.997 87.9446 268.5 85.9932 268.5 85.9932V85Z" fill="#734FFF"/>
<path d="M245.682 85L240.007 89.1469C240.007 89.1469 236.133 92.0392 239.15 95.0012C241.824 97.3012 251.579 97.9981 258.797 92.4748C266.014 86.9515 268.5 85 268.5 85H245.682Z" fill="url(#paint7_linear_16829_25545)"/>
<path d="M278 71C278.552 71 279 70.5523 279 70C279 69.4477 278.552 69 278 69C277.448 69 277 69.4477 277 70C277 70.5523 277.448 71 278 71Z" fill="white"/>
<path d="M257.43 85H232.58C231.704 85 231 84.2654 231 83.3749V67.6251C231 66.7346 231.714 66 232.58 66H257.42C258.296 66 259 66.7346 259 67.6251V83.3749C259.011 84.2765 258.296 85 257.43 85Z" fill="url(#paint8_linear_16829_25545)"/>
<path d="M243.982 77.1242C244.567 77.6253 245.422 77.6253 246.007 77.1242L258.5 66.4343C258.219 66.167 257.84 66 257.428 66H232.572C232.16 66 231.781 66.167 231.5 66.4343L243.982 77.1242Z" fill="url(#paint9_linear_16829_25545)"/>
<rect width="536" height="156" fill="#1B1340"/>
<rect width="536" height="156" fill="url(#paint10_radial_16829_25545)" fill-opacity="0.8"/>
<path d="M170 63.7778C170 53.9594 177.959 46 187.778 46H216.222C226.041 46 234 53.9594 234 63.7778V92.2222C234 102.041 226.041 110 216.222 110H187.778C177.959 110 170 102.041 170 92.2222V63.7778Z" fill="white"/>
<path d="M194.205 63.3856C196.934 60.6573 198.298 59.2931 199.871 58.782C201.255 58.3324 202.745 58.3324 204.129 58.782C205.702 59.2931 207.066 60.6573 209.795 63.3856L216.615 70.2059C219.343 72.9342 220.707 74.2984 221.218 75.8714C221.668 77.2551 221.668 78.7456 221.218 80.1293C220.707 81.7024 219.343 83.0666 216.615 85.7949L209.795 92.6151C207.066 95.3435 205.702 96.7076 204.129 97.2187C202.745 97.6683 201.255 97.6683 199.871 97.2187C198.298 96.7076 196.934 95.3435 194.205 92.6151L192.923 91.1775C192.147 90.3076 191.759 89.8727 191.483 89.378C191.237 88.9392 191.057 88.467 190.948 87.9763C190.825 87.4229 190.825 86.8401 190.825 85.6744L190.825 70.3264C190.825 69.1607 190.825 68.5778 190.948 68.0245C191.057 67.5338 191.237 67.0616 191.483 66.6228C191.759 66.1281 192.147 65.6931 192.923 64.8232L194.205 63.3856Z" fill="url(#paint11_radial_16829_25545)"/>
<path d="M194.205 63.3856C196.934 60.6573 198.298 59.2931 199.871 58.782C201.255 58.3324 202.745 58.3324 204.129 58.782C205.702 59.2931 207.066 60.6573 209.795 63.3856L216.615 70.2059C219.343 72.9342 220.707 74.2984 221.218 75.8714C221.668 77.2551 221.668 78.7456 221.218 80.1293C220.707 81.7024 219.343 83.0666 216.615 85.7949L209.795 92.6151C207.066 95.3435 205.702 96.7076 204.129 97.2187C202.745 97.6683 201.255 97.6683 199.871 97.2187C198.298 96.7076 196.934 95.3435 194.205 92.6151L192.923 91.1775C192.147 90.3076 191.759 89.8727 191.483 89.378C191.237 88.9392 191.057 88.467 190.948 87.9763C190.825 87.4229 190.825 86.8401 190.825 85.6744L190.825 70.3264C190.825 69.1607 190.825 68.5778 190.948 68.0245C191.057 67.5338 191.237 67.0616 191.483 66.6228C191.759 66.1281 192.147 65.6931 192.923 64.8232L194.205 63.3856Z" fill="url(#paint12_linear_16829_25545)"/>
<path d="M193.718 63.8718C195.083 62.5076 195.765 61.8255 196.551 61.57C197.243 61.3452 197.988 61.3452 198.68 61.57C199.467 61.8255 200.149 62.5076 201.513 63.8718L211.743 74.1021C213.107 75.4663 213.789 76.1483 214.045 76.9349C214.27 77.6267 214.27 78.372 214.045 79.0638C213.789 79.8504 213.107 80.5324 211.743 81.8966L201.513 92.1269C200.149 93.4911 199.467 94.1732 198.68 94.4287C197.988 94.6535 197.243 94.6535 196.551 94.4287C195.765 94.1732 195.083 93.4911 193.718 92.1269L187.385 85.7939C184.657 83.0655 183.293 81.7014 182.782 80.1283C182.332 78.7446 182.332 77.2541 182.782 75.8704C183.293 74.2973 184.657 72.9332 187.385 70.2048L193.718 63.8718Z" fill="url(#paint13_radial_16829_25545)"/>
<g clip-path="url(#clip1_16829_25545)">
<path d="M302 63.7778C302 53.9594 309.959 46 319.778 46H348.222C358.041 46 366 53.9594 366 63.7778V92.2222C366 102.041 358.041 110 348.222 110H319.778C309.959 110 302 102.041 302 92.2222V63.7778Z" fill="white"/>
<path d="M322.319 65.5776L322.313 65.5841H322.326L322.319 65.5776ZM352.485 65.5841H322.313L321.932 65.9778L321.867 66.0488C321.577 66.3522 321.274 66.6426 320.97 66.9169C318.676 69.063 315.891 70.6152 312.861 71.4414C312.774 71.4672 312.69 71.4866 312.603 71.5124L312.222 71.606L312.135 71.9868C312.103 72.1255 312.077 72.2643 312.048 72.4095C311.861 73.3906 311.764 74.3846 311.764 75.3817C311.764 81.6392 315.462 87.3093 321.19 89.8297C321.254 89.862 321.329 89.8943 321.4 89.9233C321.558 89.9943 321.716 90.0556 321.874 90.1202L322.064 90.1912L322.09 90.1976L322.103 90.1912C322.103 90.1912 322.132 90.1976 322.148 90.1976H352.478C353.13 90.1976 353.663 89.6684 353.663 89.0165V66.7588C353.666 66.1133 353.146 65.5873 352.504 65.5841C352.498 65.5841 352.491 65.5841 352.485 65.5841ZM350.436 67.4752L337.809 78.483C337.547 78.7057 337.163 78.7057 336.905 78.4766L332.787 74.8267C332.768 73.9489 332.675 73.0743 332.504 72.2127C332.491 72.1417 332.478 72.0675 332.465 71.99L332.378 71.6092L331.997 71.5092C331.903 71.4898 331.813 71.464 331.719 71.4446C329.622 70.8702 327.637 69.9375 325.856 68.6854L324.491 67.4784H350.436V67.4752ZM333.439 77.8602L332.403 78.7767C332.523 78.2539 332.616 77.7214 332.681 77.189L333.439 77.8602ZM322.116 88.8551C321.729 88.697 321.345 88.5195 320.97 88.3291C316.117 85.8377 313.055 80.8453 313.032 75.3882C313.032 74.4685 313.119 73.5519 313.297 72.6483C316.104 71.8932 318.721 70.5507 320.97 68.708C321.438 68.3336 321.887 67.9302 322.319 67.5075C324.439 69.5761 326.982 71.1574 329.77 72.1514C330.27 72.3353 330.777 72.4934 331.3 72.6322C331.358 72.9614 331.413 73.297 331.445 73.6326C331.506 74.1716 331.535 74.717 331.539 75.2591C331.539 75.556 331.532 75.8529 331.506 76.1498C331.422 77.5956 331.116 79.0188 330.603 80.3742C329.122 84.2887 326.03 87.3803 322.116 88.8584V88.8551ZM325.798 88.3678C328.018 86.8769 329.825 84.8438 331.048 82.4654L334.837 79.1188L336.892 80.9583C337.154 81.1874 337.541 81.1874 337.802 80.9583L339.896 79.0994L350.41 88.3549L325.798 88.3678ZM341.326 77.8538L351.846 68.5079L351.865 87.1512L341.326 77.857V77.8538ZM324.956 85.344C325.456 84.9761 325.924 84.563 326.353 84.1112L324.956 85.344ZM329.644 74.5072C329.612 74.2426 329.573 73.9812 329.525 73.7165C329.109 73.6036 328.702 73.4713 328.299 73.3228C328.296 73.3228 328.292 73.3228 328.292 73.3164C328.186 73.2841 328.089 73.2389 327.983 73.197C327.753 73.1034 327.521 73.0066 327.292 72.8936C327.134 72.8226 326.969 72.7484 326.811 72.6645C326.698 72.6128 326.582 72.5515 326.469 72.487C326.108 72.2966 325.749 72.0836 325.401 71.8609C325.185 71.7286 324.972 71.5834 324.768 71.4382C324.752 71.4317 324.736 71.4188 324.723 71.4059C324.501 71.2542 324.281 71.0896 324.065 70.925C323.636 70.5959 323.223 70.2473 322.819 69.8762C322.648 69.7245 322.477 69.5664 322.313 69.4018C321.884 69.8181 321.435 70.2183 320.97 70.6023C319.241 72.0449 317.227 73.1131 315.062 73.7327C314.923 74.4588 314.852 75.1978 314.852 75.94C314.865 80.258 317.205 84.2306 320.974 86.3347C321.354 86.5445 321.748 86.7317 322.151 86.8963C322.387 86.8027 322.626 86.7059 322.855 86.5994C322.861 86.5994 322.865 86.5994 322.868 86.5929C323.058 86.5058 323.249 86.4154 323.436 86.3154C323.607 86.2282 323.775 86.1346 323.936 86.0314C323.991 86.0023 324.042 85.9733 324.094 85.9378C324.181 85.8862 324.265 85.8313 324.346 85.7797C324.365 85.77 324.384 85.7571 324.397 85.7409C324.546 85.6506 324.688 85.5505 324.827 85.444C324.875 85.4182 324.92 85.3827 324.959 85.344L326.356 84.1112C326.356 84.1112 326.369 84.1112 326.369 84.1048C327.763 82.6558 328.77 80.8808 329.299 78.9413C329.58 77.928 329.722 76.8824 329.722 75.8303C329.719 75.3882 329.693 74.9461 329.644 74.5072ZM322.842 81.2778L321.767 82.3524H321.761L317.314 77.9054L318.679 76.5274L321.767 79.6158L322.842 78.5411L326.592 74.7847L327.963 76.1563L322.842 81.2778Z" fill="url(#paint14_linear_16829_25545)"/>
</g>
<path d="M266.5 68.5C266.5 67.6716 267.172 67 268 67C268.828 67 269.5 67.6716 269.5 68.5V87.5C269.5 88.3284 268.828 89 268 89C267.172 89 266.5 88.3284 266.5 87.5V68.5Z" fill="white"/>
<path d="M277.5 76.5C278.328 76.5 279 77.1716 279 78C279 78.8284 278.328 79.5 277.5 79.5L258.5 79.5C257.672 79.5 257 78.8284 257 78C257 77.1716 257.672 76.5 258.5 76.5L277.5 76.5Z" fill="white"/>
</g>
<defs>
<linearGradient id="paint0_linear_16829_25545" x1="130.5" y1="-81.3851" x2="461.023" y2="365.238" gradientUnits="userSpaceOnUse">
<stop stop-color="white"/>
<stop offset="0.367753" stop-color="#E8F7FF"/>
<stop offset="1" stop-color="#B8A7FF"/>
</linearGradient>
<linearGradient id="paint1_linear_16829_25545" x1="222.231" y1="18.2692" x2="210.115" y2="61.5385" gradientUnits="userSpaceOnUse">
<stop stop-color="#4CFED3"/>
<stop offset="1" stop-color="#00C1FE"/>
</linearGradient>
<linearGradient id="paint2_linear_16829_25545" x1="334.469" y1="79.8799" x2="318.851" y2="114.207" gradientUnits="userSpaceOnUse">
<stop stop-color="#FFD66C"/>
<stop offset="1" stop-color="#FF8E4F"/>
</linearGradient>
<linearGradient id="paint3_linear_16829_25545" x1="270.774" y1="82.1591" x2="274.12" y2="92.4223" gradientUnits="userSpaceOnUse">
<stop stop-color="#0D0A44"/>
<stop offset="1" stop-color="#0D0A44" stop-opacity="0"/>
</linearGradient>
<linearGradient id="paint4_linear_16829_25545" x1="272.875" y1="58.9507" x2="272.875" y2="85.1934" gradientUnits="userSpaceOnUse">
<stop stop-color="#EEBEFF"/>
<stop offset="1" stop-color="#6D4AFF"/>
</linearGradient>
<linearGradient id="paint5_linear_16829_25545" x1="265.271" y1="60.2904" x2="240.515" y2="84.6828" gradientUnits="userSpaceOnUse">
<stop stop-color="#372580"/>
<stop offset="1" stop-color="#372580" stop-opacity="0"/>
</linearGradient>
<linearGradient id="paint6_linear_16829_25545" x1="290.444" y1="38.0785" x2="274.375" y2="73.4293" gradientUnits="userSpaceOnUse">
<stop stop-color="#FA8D7E"/>
<stop offset="1" stop-color="#E02626"/>
</linearGradient>
<linearGradient id="paint7_linear_16829_25545" x1="245.951" y1="89.7253" x2="252.44" y2="76.9545" gradientUnits="userSpaceOnUse">
<stop stop-color="#EEBEFF"/>
<stop offset="1" stop-color="#6D4AFF"/>
</linearGradient>
<linearGradient id="paint8_linear_16829_25545" x1="245" y1="66" x2="245" y2="80.9286" gradientUnits="userSpaceOnUse">
<stop stop-color="#C1CDF8"/>
<stop offset="1" stop-color="#E7ECFA"/>
</linearGradient>
<linearGradient id="paint9_linear_16829_25545" x1="245" y1="61.17" x2="245" y2="74.51" gradientUnits="userSpaceOnUse">
<stop stop-color="#DEDEF7"/>
<stop offset="1" stop-color="white"/>
</linearGradient>
<radialGradient id="paint10_radial_16829_25545" cx="0" cy="0" r="1" gradientUnits="userSpaceOnUse" gradientTransform="translate(536 167.019) rotate(-163.196) scale(510.916 361.937)">
<stop stop-color="#EBB5A4"/>
<stop offset="0.475" stop-color="#372580"/>
<stop offset="1" stop-color="#1B1340"/>
</radialGradient>
<radialGradient id="paint11_radial_16829_25545" cx="0" cy="0" r="1" gradientUnits="userSpaceOnUse" gradientTransform="translate(194.248 98.3182) rotate(-58.142) scale(32.6482 51.0551)">
<stop stop-color="#FFD580"/>
<stop offset="0.09375" stop-color="#F6C592"/>
<stop offset="0.205" stop-color="#EBB6A2"/>
<stop offset="0.324466" stop-color="#DFA5AF"/>
<stop offset="0.42875" stop-color="#D397BE"/>
<stop offset="0.53375" stop-color="#C486CB"/>
<stop offset="0.64875" stop-color="#B578D9"/>
<stop offset="0.77125" stop-color="#A166E5"/>
<stop offset="0.89125" stop-color="#8B57F2"/>
<stop offset="1" stop-color="#704CFF"/>
</radialGradient>
<linearGradient id="paint12_linear_16829_25545" x1="192.901" y1="50.6789" x2="200.507" y2="97.1069" gradientUnits="userSpaceOnUse">
<stop stop-color="#6D4AFF"/>
<stop offset="0.392009" stop-color="#B39FFB" stop-opacity="0.978022"/>
<stop offset="1" stop-color="#FFE8DB" stop-opacity="0.8"/>
</linearGradient>
<radialGradient id="paint13_radial_16829_25545" cx="0" cy="0" r="1" gradientUnits="userSpaceOnUse" gradientTransform="translate(191.38 94.3419) rotate(-58.142) scale(26.2605 41.0661)">
<stop stop-color="#FFD580"/>
<stop offset="0.09375" stop-color="#F6C592"/>
<stop offset="0.205" stop-color="#EBB6A2"/>
<stop offset="0.324466" stop-color="#DFA5AF"/>
<stop offset="0.42875" stop-color="#D397BE"/>
<stop offset="0.53375" stop-color="#C486CB"/>
<stop offset="0.64875" stop-color="#B578D9"/>
<stop offset="0.77125" stop-color="#A166E5"/>
<stop offset="0.89125" stop-color="#8B57F2"/>
<stop offset="1" stop-color="#704CFF"/>
</radialGradient>
<linearGradient id="paint14_linear_16829_25545" x1="311.526" y1="77.9363" x2="421.717" y2="77.9363" gradientUnits="userSpaceOnUse">
<stop stop-color="#ED2E7C"/>
<stop offset="1" stop-color="#A8288F"/>
</linearGradient>
<clipPath id="clip0_16829_25545">
<rect width="536" height="156" fill="white"/>
</clipPath>
<clipPath id="clip1_16829_25545">
<rect width="64" height="64" fill="white" transform="translate(302 46)"/>
</clipPath>
</defs>
</svg>
