<svg width="536" height="156" viewBox="0 0 536 156" fill="none" xmlns="http://www.w3.org/2000/svg">
<g clip-path="url(#clip0_16829_25629)">
<rect width="536" height="156" fill="url(#paint0_linear_16829_25629)"/>
<path d="M200.661 105.864C202.036 105.864 203.151 104.749 203.151 103.375C203.151 102 202.036 100.885 200.661 100.885C199.286 100.885 198.172 102 198.172 103.375C198.172 104.749 199.286 105.864 200.661 105.864Z" fill="white"/>
<path d="M338.074 63.3076C338.961 63.3076 339.506 62.3367 339.043 61.5801L338.012 59.893C337.569 59.1685 336.517 59.1685 336.074 59.893L335.043 61.5801C334.581 62.3367 335.126 63.3076 336.012 63.3076L338.074 63.3076Z" fill="white"/>
<path d="M189 47C189 37.0589 197.059 29 207 29V29C216.941 29 225 37.0589 225 47V65H207C197.059 65 189 56.9411 189 47V47Z" fill="url(#paint1_linear_16829_25629)"/>
<path fill-rule="evenodd" clip-rule="evenodd" d="M203.04 52.7579C203.04 52.9817 203.222 53.1632 203.446 53.1632H211.555C211.779 53.1632 211.96 52.9817 211.96 52.7579V47.8948C211.96 47.559 212.232 47.2869 212.568 47.2869H215.594C215.962 47.2869 216.14 46.8363 215.871 46.5853L207.915 39.1635C207.681 38.9455 207.319 38.9455 207.085 39.1635L199.13 46.5853C198.861 46.8363 199.038 47.2869 199.406 47.2869H202.432C202.768 47.2869 203.04 47.559 203.04 47.8948V52.7579Z" fill="white"/>
<path d="M211.96 54.9869C211.96 54.7631 211.779 54.5816 211.555 54.5816H203.446C203.222 54.5816 203.04 54.7631 203.04 54.9869V55.5947C203.04 55.8186 203.222 56 203.446 56H211.555C211.779 56 211.96 55.8186 211.96 55.5947V54.9869Z" fill="white"/>
<path d="M316.255 94.8799C316.255 86.5956 322.971 79.8799 331.255 79.8799V79.8799C339.539 79.8799 346.255 86.5956 346.255 94.8799V94.8799C346.255 103.164 339.539 109.88 331.255 109.88V109.88C322.971 109.88 316.255 103.164 316.255 94.8799V94.8799Z" fill="url(#paint2_linear_16829_25629)"/>
<path d="M330.99 87C332.96 87.0002 334.556 88.5943 334.557 90.5625V92.0986H336.054C336.566 92.0986 337 92.5117 337 93.043V101.055C337 101.566 336.586 102 336.054 102H325.946C325.434 102 325 101.586 325 101.055V93.043C325 92.5313 325.414 92.0986 325.946 92.0986H327.424V90.5625C327.424 88.5942 329.02 87 330.99 87ZM330.991 95C330.302 95.0001 329.75 95.5478 329.75 96.2324C329.75 96.702 330.006 97.0934 330.4 97.3086L329.888 99.5H332.095L331.582 97.3086C331.976 97.1129 332.232 96.702 332.232 96.2324C332.232 95.5477 331.681 95 330.991 95ZM331.01 88.5195C330.048 88.5195 328.965 89.1455 328.965 90.5625V92.0986H333.055V90.5625C333.054 89.1456 331.971 88.5196 331.01 88.5195Z" fill="white"/>
<path d="M296.917 110.443C297.105 110.054 297.664 110.066 297.835 110.463L300.222 115.996H294.222L296.917 110.443Z" fill="#3F2B87"/>
<path d="M236.172 110.443C236.361 110.054 236.919 110.066 237.091 110.463L239.477 115.996H233.477L236.172 110.443Z" fill="#27DDA6"/>
<path d="M301.636 110.839C301.914 110.423 302.562 110.619 302.562 111.12L302.562 116H298.196L301.636 110.839Z" fill="#27DDA6"/>
<path d="M277 77H268V116H277V77Z" fill="#FFA24D"/>
<path d="M277 100.395L268 95.6385V79.167H277V100.395Z" fill="url(#paint3_linear_16829_25629)"/>
<path d="M302 85H245.145C244.239 85 243.49 84.2682 243.49 83.3448V67.1929C243.49 59.8227 249.466 53.8638 256.819 53.8638H288.671C296.041 53.8638 302 59.8401 302 67.1929V85Z" fill="url(#paint4_linear_16829_25629)"/>
<path d="M268.5 85H246V67.418C246 61.1166 251.041 56 257.25 56C263.459 56 268.5 61.1166 268.5 67.418V85Z" fill="url(#paint5_linear_16829_25629)"/>
<path d="M289.032 41C289.567 41 290.001 41.459 290.001 42.0234V46.9766C290.001 47.541 289.567 48 289.032 48H280V70.0967C280 71.0898 279.115 71.9092 278 71.9092C276.904 71.9092 276 71.0898 276 70.0967V45.2549H276.001V42.0234C276.001 41.4592 276.435 41.0002 276.97 41H289.032Z" fill="url(#paint6_linear_16829_25629)"/>
<path d="M268.5 85H266.288V86.0106H245.681L240.006 90.1574C240.006 90.1574 238.549 91.2377 238.12 92.7536L238 92.6142V93.5899C238 94.3391 238.309 95.1755 239.149 95.9944C241.823 98.2943 251.578 98.9913 258.796 93.4679C265.997 87.9446 268.5 85.9932 268.5 85.9932V85Z" fill="#734FFF"/>
<path d="M245.682 85L240.007 89.1469C240.007 89.1469 236.133 92.0392 239.15 95.0012C241.824 97.3012 251.579 97.9981 258.797 92.4748C266.014 86.9515 268.5 85 268.5 85H245.682Z" fill="url(#paint7_linear_16829_25629)"/>
<path d="M278 71C278.552 71 279 70.5523 279 70C279 69.4477 278.552 69 278 69C277.448 69 277 69.4477 277 70C277 70.5523 277.448 71 278 71Z" fill="white"/>
<path d="M257.43 85H232.58C231.704 85 231 84.2654 231 83.3749V67.6251C231 66.7346 231.714 66 232.58 66H257.42C258.296 66 259 66.7346 259 67.6251V83.3749C259.011 84.2765 258.296 85 257.43 85Z" fill="url(#paint8_linear_16829_25629)"/>
<path d="M243.982 77.1242C244.567 77.6253 245.422 77.6253 246.007 77.1242L258.5 66.4343C258.219 66.167 257.84 66 257.428 66H232.572C232.16 66 231.781 66.167 231.5 66.4343L243.982 77.1242Z" fill="url(#paint9_linear_16829_25629)"/>
<rect width="536" height="156" fill="#1B1340"/>
<rect width="536" height="156" fill="url(#paint10_radial_16829_25629)" fill-opacity="0.8"/>
<path d="M170 63.7778C170 53.9594 177.959 46 187.778 46H216.222C226.041 46 234 53.9594 234 63.7778V92.2222C234 102.041 226.041 110 216.222 110H187.778C177.959 110 170 102.041 170 92.2222V63.7778Z" fill="white"/>
<path d="M194.205 63.3856C196.934 60.6573 198.298 59.2931 199.871 58.782C201.255 58.3324 202.745 58.3324 204.129 58.782C205.702 59.2931 207.066 60.6573 209.795 63.3856L216.615 70.2059C219.343 72.9342 220.707 74.2984 221.218 75.8714C221.668 77.2551 221.668 78.7456 221.218 80.1293C220.707 81.7024 219.343 83.0666 216.615 85.7949L209.795 92.6151C207.066 95.3435 205.702 96.7076 204.129 97.2187C202.745 97.6683 201.255 97.6683 199.871 97.2187C198.298 96.7076 196.934 95.3435 194.205 92.6151L192.923 91.1775C192.147 90.3076 191.759 89.8727 191.483 89.378C191.237 88.9392 191.057 88.467 190.948 87.9763C190.825 87.4229 190.825 86.8401 190.825 85.6744L190.825 70.3264C190.825 69.1607 190.825 68.5778 190.948 68.0245C191.057 67.5338 191.237 67.0616 191.483 66.6228C191.759 66.1281 192.147 65.6931 192.923 64.8232L194.205 63.3856Z" fill="url(#paint11_radial_16829_25629)"/>
<path d="M194.205 63.3856C196.934 60.6573 198.298 59.2931 199.871 58.782C201.255 58.3324 202.745 58.3324 204.129 58.782C205.702 59.2931 207.066 60.6573 209.795 63.3856L216.615 70.2059C219.343 72.9342 220.707 74.2984 221.218 75.8714C221.668 77.2551 221.668 78.7456 221.218 80.1293C220.707 81.7024 219.343 83.0666 216.615 85.7949L209.795 92.6151C207.066 95.3435 205.702 96.7076 204.129 97.2187C202.745 97.6683 201.255 97.6683 199.871 97.2187C198.298 96.7076 196.934 95.3435 194.205 92.6151L192.923 91.1775C192.147 90.3076 191.759 89.8727 191.483 89.378C191.237 88.9392 191.057 88.467 190.948 87.9763C190.825 87.4229 190.825 86.8401 190.825 85.6744L190.825 70.3264C190.825 69.1607 190.825 68.5778 190.948 68.0245C191.057 67.5338 191.237 67.0616 191.483 66.6228C191.759 66.1281 192.147 65.6931 192.923 64.8232L194.205 63.3856Z" fill="url(#paint12_linear_16829_25629)"/>
<path d="M193.718 63.8718C195.083 62.5076 195.765 61.8255 196.551 61.57C197.243 61.3452 197.988 61.3452 198.68 61.57C199.467 61.8255 200.149 62.5076 201.513 63.8718L211.743 74.1021C213.107 75.4663 213.789 76.1483 214.045 76.9349C214.27 77.6267 214.27 78.372 214.045 79.0638C213.789 79.8504 213.107 80.5324 211.743 81.8966L201.513 92.1269C200.149 93.4911 199.467 94.1732 198.68 94.4287C197.988 94.6535 197.243 94.6535 196.551 94.4287C195.765 94.1732 195.083 93.4911 193.718 92.1269L187.385 85.7939C184.657 83.0655 183.293 81.7014 182.782 80.1283C182.332 78.7446 182.332 77.2541 182.782 75.8704C183.293 74.2973 184.657 72.9332 187.385 70.2048L193.718 63.8718Z" fill="url(#paint13_radial_16829_25629)"/>
<g clip-path="url(#clip1_16829_25629)">
<path d="M302 63.7778C302 53.9594 309.959 46 319.778 46H348.222C358.041 46 366 53.9594 366 63.7778V92.2222C366 102.041 358.041 110 348.222 110H319.778C309.959 110 302 102.041 302 92.2222V63.7778Z" fill="white"/>
<path d="M322.319 65.5776L322.313 65.5841H322.326L322.319 65.5776ZM352.485 65.5841H322.313L321.932 65.9778L321.867 66.0488C321.577 66.3522 321.274 66.6426 320.97 66.9169C318.676 69.063 315.891 70.6152 312.861 71.4414C312.774 71.4672 312.69 71.4866 312.603 71.5124L312.222 71.606L312.135 71.9868C312.103 72.1255 312.077 72.2643 312.048 72.4095C311.861 73.3906 311.764 74.3846 311.764 75.3817C311.764 81.6392 315.462 87.3093 321.19 89.8297C321.254 89.862 321.329 89.8943 321.4 89.9233C321.558 89.9943 321.716 90.0556 321.874 90.1202L322.064 90.1912L322.09 90.1976L322.103 90.1912C322.103 90.1912 322.132 90.1976 322.148 90.1976H352.478C353.13 90.1976 353.663 89.6684 353.663 89.0165V66.7588C353.666 66.1133 353.146 65.5873 352.504 65.5841C352.498 65.5841 352.491 65.5841 352.485 65.5841ZM350.436 67.4752L337.809 78.483C337.547 78.7057 337.163 78.7057 336.905 78.4766L332.787 74.8267C332.768 73.9489 332.675 73.0743 332.504 72.2127C332.491 72.1417 332.478 72.0675 332.465 71.99L332.378 71.6092L331.997 71.5092C331.903 71.4898 331.813 71.464 331.719 71.4446C329.622 70.8702 327.637 69.9375 325.856 68.6854L324.491 67.4784H350.436V67.4752ZM333.439 77.8602L332.403 78.7767C332.523 78.2539 332.616 77.7214 332.681 77.189L333.439 77.8602ZM322.116 88.8551C321.729 88.697 321.345 88.5195 320.97 88.3291C316.117 85.8377 313.055 80.8453 313.032 75.3882C313.032 74.4685 313.119 73.5519 313.297 72.6483C316.104 71.8932 318.721 70.5507 320.97 68.708C321.438 68.3336 321.887 67.9302 322.319 67.5075C324.439 69.5761 326.982 71.1574 329.77 72.1514C330.27 72.3353 330.777 72.4934 331.3 72.6322C331.358 72.9614 331.413 73.297 331.445 73.6326C331.506 74.1716 331.535 74.717 331.539 75.2591C331.539 75.556 331.532 75.8529 331.506 76.1498C331.422 77.5956 331.116 79.0188 330.603 80.3742C329.122 84.2887 326.03 87.3803 322.116 88.8584V88.8551ZM325.798 88.3678C328.018 86.8769 329.825 84.8438 331.048 82.4654L334.837 79.1188L336.892 80.9583C337.154 81.1874 337.541 81.1874 337.802 80.9583L339.896 79.0994L350.41 88.3549L325.798 88.3678ZM341.326 77.8538L351.846 68.5079L351.865 87.1512L341.326 77.857V77.8538ZM324.956 85.344C325.456 84.9761 325.924 84.563 326.353 84.1112L324.956 85.344ZM329.644 74.5072C329.612 74.2426 329.573 73.9812 329.525 73.7165C329.109 73.6036 328.702 73.4713 328.299 73.3228C328.296 73.3228 328.292 73.3228 328.292 73.3164C328.186 73.2841 328.089 73.2389 327.983 73.197C327.753 73.1034 327.521 73.0066 327.292 72.8936C327.134 72.8226 326.969 72.7484 326.811 72.6645C326.698 72.6128 326.582 72.5515 326.469 72.487C326.108 72.2966 325.749 72.0836 325.401 71.8609C325.185 71.7286 324.972 71.5834 324.768 71.4382C324.752 71.4317 324.736 71.4188 324.723 71.4059C324.501 71.2542 324.281 71.0896 324.065 70.925C323.636 70.5959 323.223 70.2473 322.819 69.8762C322.648 69.7245 322.477 69.5664 322.313 69.4018C321.884 69.8181 321.435 70.2183 320.97 70.6023C319.241 72.0449 317.227 73.1131 315.062 73.7327C314.923 74.4588 314.852 75.1978 314.852 75.94C314.865 80.258 317.205 84.2306 320.974 86.3347C321.354 86.5445 321.748 86.7317 322.151 86.8963C322.387 86.8027 322.626 86.7059 322.855 86.5994C322.861 86.5994 322.865 86.5994 322.868 86.5929C323.058 86.5058 323.249 86.4154 323.436 86.3154C323.607 86.2282 323.775 86.1346 323.936 86.0314C323.991 86.0023 324.042 85.9733 324.094 85.9378C324.181 85.8862 324.265 85.8313 324.346 85.7797C324.365 85.77 324.384 85.7571 324.397 85.7409C324.546 85.6506 324.688 85.5505 324.827 85.444C324.875 85.4182 324.92 85.3827 324.959 85.344L326.356 84.1112C326.356 84.1112 326.369 84.1112 326.369 84.1048C327.763 82.6558 328.77 80.8808 329.299 78.9413C329.58 77.928 329.722 76.8824 329.722 75.8303C329.719 75.3882 329.693 74.9461 329.644 74.5072ZM322.842 81.2778L321.767 82.3524H321.761L317.314 77.9054L318.679 76.5274L321.767 79.6158L322.842 78.5411L326.592 74.7847L327.963 76.1563L322.842 81.2778Z" fill="url(#paint14_linear_16829_25629)"/>
</g>
<path d="M266.5 68.5C266.5 67.6716 267.172 67 268 67C268.828 67 269.5 67.6716 269.5 68.5V87.5C269.5 88.3284 268.828 89 268 89C267.172 89 266.5 88.3284 266.5 87.5V68.5Z" fill="white"/>
<path d="M277.5 76.5C278.328 76.5 279 77.1716 279 78C279 78.8284 278.328 79.5 277.5 79.5L258.5 79.5C257.672 79.5 257 78.8284 257 78C257 77.1716 257.672 76.5 258.5 76.5L277.5 76.5Z" fill="white"/>
<g clip-path="url(#clip2_16829_25629)">
<rect width="258" height="35" transform="translate(139 45)" fill="#08031F"/>
<path d="M158.885 68.225C157.76 68.225 156.59 67.805 155.675 67.1V65.24C156.755 66.035 157.79 66.41 158.705 66.41C159.59 66.41 160.61 66.065 160.61 65.045C160.61 64.34 160.115 63.98 159.335 63.635L158.09 63.095C156.68 62.51 155.9 61.475 155.9 60.2C155.9 58.28 157.61 56.84 159.785 56.84C160.835 56.84 161.81 57.17 162.44 57.605V59.405C161.675 58.91 160.85 58.64 160.01 58.64C158.975 58.64 158.09 59.09 158.09 60.05C158.09 60.68 158.48 61.1 159.38 61.475L160.7 62.03C162.05 62.6 162.8 63.545 162.8 64.865C162.8 66.89 161 68.225 158.885 68.225ZM164.668 68V64.61V60.44V57.05H166.783V60.44V64.61V68H164.668ZM174.187 68L171.322 59.18H171.277V64.61V68H169.297V64.61V60.44V57.05H172.657L175.447 65.75H175.492L178.327 57.05H181.477V60.44V64.61V68H179.482V64.61V59.36H179.437L176.587 68H174.187ZM187.469 63.995H186.119V64.61V68H184.004V64.655V60.44V57.05H187.469C189.884 57.05 191.759 58.265 191.759 60.515C191.759 62.75 189.884 63.995 187.469 63.995ZM186.119 62.3H187.379C188.759 62.3 189.584 61.7 189.584 60.515C189.584 59.315 188.759 58.76 187.379 58.76H186.119V62.3ZM193.364 68V64.61V60.44V57.05H195.479V60.44V66.23H197.819H200.504V68H193.364ZM209.613 66.23V68H201.963V64.61V60.44V57.05H209.463V58.82H206.778H204.078V61.64H206.088H208.773V63.395H206.088H204.078V66.23H206.943H209.613ZM211.514 68V64.61V60.44V57.05H213.629V60.44V66.23H215.969H218.654V68H211.514ZM224.476 68.225C221.251 68.225 218.926 65.93 218.926 62.555C218.926 59.165 221.236 56.84 224.476 56.84C227.701 56.84 230.011 59.165 230.011 62.555C230.011 65.93 227.686 68.225 224.476 68.225ZM221.161 62.555C221.161 64.85 222.376 66.41 224.476 66.41C226.561 66.41 227.776 64.85 227.776 62.555C227.776 60.245 226.561 58.64 224.476 58.64C222.376 58.64 221.161 60.245 221.161 62.555ZM237.185 68.225C233.585 68.225 231.23 65.84 231.23 62.585C231.23 59.21 233.84 56.84 237.455 56.84C238.79 56.84 239.93 57.155 240.83 57.665V59.435C239.96 58.955 238.985 58.64 237.755 58.64C235.13 58.64 233.465 60.2 233.465 62.63C233.465 65.135 235.085 66.515 237.515 66.515C237.92 66.515 238.28 66.47 238.67 66.38V65.45V62H240.77V65.45V67.31C239.81 67.835 238.58 68.225 237.185 68.225ZM242.935 68V64.61V60.44V57.05H245.05V60.44V64.61V68H242.935ZM247.564 68V64.61V57.05H250.774L255.004 65.72H255.064V60.44V57.05H257.134V60.44V68H253.954L249.709 59.27H249.649V64.61V68H247.564ZM266.055 68.225C264.12 68.225 262.605 66.98 262.605 65.165C262.605 63.845 263.445 62.87 264.675 62.225L265.065 62.015C264.36 61.25 263.88 60.53 263.88 59.63C263.88 58.07 265.185 56.84 266.985 56.84C268.575 56.84 269.94 57.86 269.94 59.315C269.94 60.53 269.25 61.37 268.125 62.015L267.645 62.285L269.16 63.95H269.235L270.495 61.925H272.475L270.33 65.255L272.835 68H270.39L269.235 66.71H269.205C268.425 67.595 267.48 68.225 266.055 68.225ZM264.705 64.97C264.705 65.885 265.41 66.56 266.385 66.56C267.165 66.56 267.72 66.14 268.2 65.54L266.085 63.17H266.04L265.83 63.29C265.14 63.71 264.705 64.235 264.705 64.97ZM265.785 59.57C265.785 60.14 266.085 60.545 266.625 61.16H266.7L266.985 60.995C267.795 60.485 268.035 60.095 268.035 59.525C268.035 58.865 267.555 58.49 266.94 58.49C266.22 58.49 265.785 59 265.785 59.57ZM280.985 63.995H279.635V64.61V68H277.52V64.655V60.44V57.05H280.985C283.4 57.05 285.275 58.265 285.275 60.515C285.275 62.75 283.4 63.995 280.985 63.995ZM279.635 62.3H280.895C282.275 62.3 283.1 61.7 283.1 60.515C283.1 59.315 282.275 58.76 280.895 58.76H279.635V62.3ZM286.88 68V64.61V60.44V57.05H290.51C292.97 57.05 294.515 58.25 294.515 60.125C294.515 61.49 293.69 62.54 292.205 62.99L296.105 68H293.525L290.015 63.305H288.965V64.61V68H286.88ZM288.965 61.61H290.375C291.62 61.61 292.34 61.025 292.34 60.125C292.34 59.195 291.62 58.76 290.375 58.76H288.965V61.61ZM301.819 68.225C298.594 68.225 296.269 65.93 296.269 62.555C296.269 59.165 298.579 56.84 301.819 56.84C305.044 56.84 307.354 59.165 307.354 62.555C307.354 65.93 305.029 68.225 301.819 68.225ZM298.504 62.555C298.504 64.85 299.719 66.41 301.819 66.41C303.904 66.41 305.119 64.85 305.119 62.555C305.119 60.245 303.904 58.64 301.819 58.64C299.719 58.64 298.504 60.245 298.504 62.555ZM311.181 68V64.61V58.82H310.341H307.671V57.05H316.806V58.82H314.121H313.281V64.61V68H311.181ZM322.649 68.225C319.424 68.225 317.099 65.93 317.099 62.555C317.099 59.165 319.409 56.84 322.649 56.84C325.874 56.84 328.184 59.165 328.184 62.555C328.184 65.93 325.859 68.225 322.649 68.225ZM319.334 62.555C319.334 64.85 320.549 66.41 322.649 66.41C324.734 66.41 325.949 64.85 325.949 62.555C325.949 60.245 324.734 58.64 322.649 58.64C320.549 58.64 319.334 60.245 319.334 62.555ZM330.064 68V64.61V57.05H333.274L337.504 65.72H337.564V60.44V57.05H339.634V60.44V68H336.454L332.209 59.27H332.149V64.61V68H330.064ZM349.32 63.995H347.97V64.61V68H345.855V64.655V60.44V57.05H349.32C351.735 57.05 353.61 58.265 353.61 60.515C353.61 62.75 351.735 63.995 349.32 63.995ZM347.97 62.3H349.23C350.61 62.3 351.435 61.7 351.435 60.515C351.435 59.315 350.61 58.76 349.23 58.76H347.97V62.3ZM353.121 68C353.496 67.025 353.976 65.765 354.396 64.625L357.231 57.05H359.706L362.616 64.61C363.081 65.78 363.561 67.04 363.921 68H361.656C361.386 67.205 361.026 66.215 360.681 65.24H356.256C355.896 66.215 355.551 67.205 355.281 68H353.121ZM356.886 63.485H360.036L358.476 59.165H358.416L356.886 63.485ZM367.786 68.225C366.661 68.225 365.491 67.805 364.576 67.1V65.24C365.656 66.035 366.691 66.41 367.606 66.41C368.491 66.41 369.511 66.065 369.511 65.045C369.511 64.34 369.016 63.98 368.236 63.635L366.991 63.095C365.581 62.51 364.801 61.475 364.801 60.2C364.801 58.28 366.511 56.84 368.686 56.84C369.736 56.84 370.711 57.17 371.341 57.605V59.405C370.576 58.91 369.751 58.64 368.911 58.64C367.876 58.64 366.991 59.09 366.991 60.05C366.991 60.68 367.381 61.1 368.281 61.475L369.601 62.03C370.951 62.6 371.701 63.545 371.701 64.865C371.701 66.89 369.901 68.225 367.786 68.225ZM376.195 68.225C375.07 68.225 373.9 67.805 372.985 67.1V65.24C374.065 66.035 375.1 66.41 376.015 66.41C376.9 66.41 377.92 66.065 377.92 65.045C377.92 64.34 377.425 63.98 376.645 63.635L375.4 63.095C373.99 62.51 373.21 61.475 373.21 60.2C373.21 58.28 374.92 56.84 377.095 56.84C378.145 56.84 379.12 57.17 379.75 57.605V59.405C378.985 58.91 378.16 58.64 377.32 58.64C376.285 58.64 375.4 59.09 375.4 60.05C375.4 60.68 375.79 61.1 376.69 61.475L378.01 62.03C379.36 62.6 380.11 63.545 380.11 64.865C380.11 66.89 378.31 68.225 376.195 68.225Z" fill="white"/>
<rect width="258" height="32" transform="translate(139 80)" fill="#FACC15"/>
<path d="M171.91 97.262H170.65V97.836V101H168.676V97.878V93.944V90.78H171.91C174.164 90.78 175.914 91.914 175.914 94.014C175.914 96.1 174.164 97.262 171.91 97.262ZM170.65 95.68H171.826C173.114 95.68 173.884 95.12 173.884 94.014C173.884 92.894 173.114 92.376 171.826 92.376H170.65V95.68ZM175.458 101C175.808 100.09 176.256 98.914 176.648 97.85L179.294 90.78H181.604L184.32 97.836C184.754 98.928 185.202 100.104 185.538 101H183.424C183.172 100.258 182.836 99.334 182.514 98.424H178.384C178.048 99.334 177.726 100.258 177.474 101H175.458ZM178.972 96.786H181.912L180.456 92.754H180.4L178.972 96.786ZM188.108 97.836V97.024L186.288 93.902C185.602 92.698 185.042 91.732 184.482 90.78H186.82L188.332 93.608L189.172 95.176H189.228L190.152 93.622L191.776 90.78H193.974C193.372 91.76 192.7 92.824 192 93.986L190.068 97.178V97.836V101H188.108V97.836ZM202.567 101.21C199.557 101.21 197.387 99.068 197.387 95.918C197.387 92.754 199.543 90.584 202.567 90.584C205.577 90.584 207.733 92.754 207.733 95.918C207.733 99.068 205.562 101.21 202.567 101.21ZM199.473 95.918C199.473 98.06 200.607 99.516 202.567 99.516C204.513 99.516 205.647 98.06 205.647 95.918C205.647 93.762 204.513 92.264 202.567 92.264C200.607 92.264 199.473 93.762 199.473 95.918ZM209.487 101V97.836V90.78H212.483L216.431 98.872H216.487V93.944V90.78H218.419V93.944V101H215.451L211.489 92.852H211.433V97.836V101H209.487ZM225.792 101.21C222.656 101.21 220.15 99.236 220.15 95.904C220.15 92.53 222.81 90.584 225.694 90.584C226.772 90.584 227.85 90.85 228.704 91.354V93.006C227.794 92.53 226.982 92.264 226.03 92.264C223.832 92.264 222.236 93.608 222.236 95.876C222.236 98.2 223.874 99.516 226.044 99.516C227.01 99.516 227.906 99.236 228.872 98.718V100.37C227.948 100.93 226.94 101.21 225.792 101.21ZM237.681 99.348V101H230.541V97.836V93.944V90.78H237.541V92.432H235.035H232.515V95.064H234.391H236.897V96.702H234.391H232.515V99.348H235.189H237.681ZM238.797 103.548L240.085 101.224C239.413 101.182 238.895 100.706 238.895 100.006C238.895 99.278 239.455 98.774 240.099 98.774C240.911 98.774 241.471 99.362 241.471 100.216C241.471 100.762 241.205 101.266 240.925 101.784L240.001 103.548H238.797ZM244.801 101C245.151 100.09 245.599 98.914 245.991 97.85L248.637 90.78H250.947L253.663 97.836C254.097 98.928 254.545 100.104 254.881 101H252.767C252.515 100.258 252.179 99.334 251.857 98.424H247.727C247.391 99.334 247.069 100.258 246.817 101H244.801ZM248.315 96.786H251.255L249.799 92.754H249.743L248.315 96.786ZM260.833 101.21C257.697 101.21 255.191 99.236 255.191 95.904C255.191 92.53 257.851 90.584 260.735 90.584C261.813 90.584 262.891 90.85 263.745 91.354V93.006C262.835 92.53 262.023 92.264 261.071 92.264C258.873 92.264 257.277 93.608 257.277 95.876C257.277 98.2 258.915 99.516 261.085 99.516C262.051 99.516 262.947 99.236 263.913 98.718V100.37C262.989 100.93 261.981 101.21 260.833 101.21ZM270.458 101.21C267.322 101.21 264.816 99.236 264.816 95.904C264.816 92.53 267.476 90.584 270.36 90.584C271.438 90.584 272.516 90.85 273.37 91.354V93.006C272.46 92.53 271.648 92.264 270.696 92.264C268.498 92.264 266.902 93.608 266.902 95.876C266.902 98.2 268.54 99.516 270.71 99.516C271.676 99.516 272.572 99.236 273.538 98.718V100.37C272.614 100.93 271.606 101.21 270.458 101.21ZM282.347 99.348V101H275.207V97.836V93.944V90.78H282.207V92.432H279.701H277.181V95.064H279.057H281.563V96.702H279.057H277.181V99.348H279.855H282.347ZM286.571 101.21C285.521 101.21 284.429 100.818 283.575 100.16V98.424C284.583 99.166 285.549 99.516 286.403 99.516C287.229 99.516 288.181 99.194 288.181 98.242C288.181 97.584 287.719 97.248 286.991 96.926L285.829 96.422C284.513 95.876 283.785 94.91 283.785 93.72C283.785 91.928 285.381 90.584 287.411 90.584C288.391 90.584 289.301 90.892 289.889 91.298V92.978C289.175 92.516 288.405 92.264 287.621 92.264C286.655 92.264 285.829 92.684 285.829 93.58C285.829 94.168 286.193 94.56 287.033 94.91L288.265 95.428C289.525 95.96 290.225 96.842 290.225 98.074C290.225 99.964 288.545 101.21 286.571 101.21ZM294.419 101.21C293.369 101.21 292.277 100.818 291.423 100.16V98.424C292.431 99.166 293.397 99.516 294.251 99.516C295.077 99.516 296.029 99.194 296.029 98.242C296.029 97.584 295.567 97.248 294.839 96.926L293.677 96.422C292.361 95.876 291.633 94.91 291.633 93.72C291.633 91.928 293.229 90.584 295.259 90.584C296.239 90.584 297.149 90.892 297.737 91.298V92.978C297.023 92.516 296.253 92.264 295.469 92.264C294.503 92.264 293.677 92.684 293.677 93.58C293.677 94.168 294.041 94.56 294.881 94.91L296.113 95.428C297.373 95.96 298.073 96.842 298.073 98.074C298.073 99.964 296.393 101.21 294.419 101.21ZM303.276 101V98.872V92.908V90.78H309.73V92.432H307.224H305.25V95.218H306.832H309.338V96.87H306.832H305.25V98.872V101H303.276ZM315.797 101.21C312.787 101.21 310.617 99.068 310.617 95.918C310.617 92.754 312.773 90.584 315.797 90.584C318.807 90.584 320.963 92.754 320.963 95.918C320.963 99.068 318.793 101.21 315.797 101.21ZM312.703 95.918C312.703 98.06 313.837 99.516 315.797 99.516C317.743 99.516 318.877 98.06 318.877 95.918C318.877 93.762 317.743 92.264 315.797 92.264C313.837 92.264 312.703 93.762 312.703 95.918ZM322.717 101V97.836V93.944V90.78H326.105C328.401 90.78 329.843 91.9 329.843 93.65C329.843 94.924 329.073 95.904 327.687 96.324L331.327 101H328.919L325.643 96.618H324.663V97.836V101H322.717ZM324.663 95.036H325.979C327.141 95.036 327.813 94.49 327.813 93.65C327.813 92.782 327.141 92.376 325.979 92.376H324.663V95.036ZM339.455 99.348V101H332.315V97.836V93.944V90.78H339.315V92.432H336.809H334.289V95.064H336.165H338.671V96.702H336.165H334.289V99.348H336.963H339.455ZM346.087 101H343.609L341.243 93.832C340.921 92.852 340.529 91.676 340.221 90.78H342.307C342.587 91.704 342.937 92.866 343.259 93.902L344.869 99.068H344.925L346.773 93.888C347.151 92.81 347.557 91.69 347.865 90.78H349.853C349.531 91.69 349.111 92.852 348.691 93.944L346.087 101ZM358.144 99.348V101H351.004V97.836V93.944V90.78H358.004V92.432H355.498H352.978V95.064H354.854H357.36V96.702H354.854H352.978V99.348H355.652H358.144ZM359.918 101V97.836V93.944V90.78H363.306C365.602 90.78 367.044 91.9 367.044 93.65C367.044 94.924 366.274 95.904 364.888 96.324L368.528 101H366.12L362.844 96.618H361.864V97.836V101H359.918ZM361.864 95.036H363.18C364.342 95.036 365.014 94.49 365.014 93.65C365.014 92.782 364.342 92.376 363.18 92.376H361.864V95.036Z" fill="black"/>
</g>
</g>
<defs>
<linearGradient id="paint0_linear_16829_25629" x1="130.5" y1="-81.3851" x2="461.023" y2="365.238" gradientUnits="userSpaceOnUse">
<stop stop-color="white"/>
<stop offset="0.367753" stop-color="#E8F7FF"/>
<stop offset="1" stop-color="#B8A7FF"/>
</linearGradient>
<linearGradient id="paint1_linear_16829_25629" x1="222.231" y1="18.2692" x2="210.115" y2="61.5385" gradientUnits="userSpaceOnUse">
<stop stop-color="#4CFED3"/>
<stop offset="1" stop-color="#00C1FE"/>
</linearGradient>
<linearGradient id="paint2_linear_16829_25629" x1="334.469" y1="79.8799" x2="318.851" y2="114.207" gradientUnits="userSpaceOnUse">
<stop stop-color="#FFD66C"/>
<stop offset="1" stop-color="#FF8E4F"/>
</linearGradient>
<linearGradient id="paint3_linear_16829_25629" x1="270.774" y1="82.1591" x2="274.12" y2="92.4223" gradientUnits="userSpaceOnUse">
<stop stop-color="#0D0A44"/>
<stop offset="1" stop-color="#0D0A44" stop-opacity="0"/>
</linearGradient>
<linearGradient id="paint4_linear_16829_25629" x1="272.875" y1="58.9507" x2="272.875" y2="85.1934" gradientUnits="userSpaceOnUse">
<stop stop-color="#EEBEFF"/>
<stop offset="1" stop-color="#6D4AFF"/>
</linearGradient>
<linearGradient id="paint5_linear_16829_25629" x1="265.271" y1="60.2904" x2="240.515" y2="84.6828" gradientUnits="userSpaceOnUse">
<stop stop-color="#372580"/>
<stop offset="1" stop-color="#372580" stop-opacity="0"/>
</linearGradient>
<linearGradient id="paint6_linear_16829_25629" x1="290.444" y1="38.0785" x2="274.375" y2="73.4293" gradientUnits="userSpaceOnUse">
<stop stop-color="#FA8D7E"/>
<stop offset="1" stop-color="#E02626"/>
</linearGradient>
<linearGradient id="paint7_linear_16829_25629" x1="245.951" y1="89.7253" x2="252.44" y2="76.9545" gradientUnits="userSpaceOnUse">
<stop stop-color="#EEBEFF"/>
<stop offset="1" stop-color="#6D4AFF"/>
</linearGradient>
<linearGradient id="paint8_linear_16829_25629" x1="245" y1="66" x2="245" y2="80.9286" gradientUnits="userSpaceOnUse">
<stop stop-color="#C1CDF8"/>
<stop offset="1" stop-color="#E7ECFA"/>
</linearGradient>
<linearGradient id="paint9_linear_16829_25629" x1="245" y1="61.17" x2="245" y2="74.51" gradientUnits="userSpaceOnUse">
<stop stop-color="#DEDEF7"/>
<stop offset="1" stop-color="white"/>
</linearGradient>
<radialGradient id="paint10_radial_16829_25629" cx="0" cy="0" r="1" gradientUnits="userSpaceOnUse" gradientTransform="translate(536 167.019) rotate(-163.196) scale(510.916 361.937)">
<stop stop-color="#EBB5A4"/>
<stop offset="0.475" stop-color="#372580"/>
<stop offset="1" stop-color="#1B1340"/>
</radialGradient>
<radialGradient id="paint11_radial_16829_25629" cx="0" cy="0" r="1" gradientUnits="userSpaceOnUse" gradientTransform="translate(194.248 98.3182) rotate(-58.142) scale(32.6482 51.0551)">
<stop stop-color="#FFD580"/>
<stop offset="0.09375" stop-color="#F6C592"/>
<stop offset="0.205" stop-color="#EBB6A2"/>
<stop offset="0.324466" stop-color="#DFA5AF"/>
<stop offset="0.42875" stop-color="#D397BE"/>
<stop offset="0.53375" stop-color="#C486CB"/>
<stop offset="0.64875" stop-color="#B578D9"/>
<stop offset="0.77125" stop-color="#A166E5"/>
<stop offset="0.89125" stop-color="#8B57F2"/>
<stop offset="1" stop-color="#704CFF"/>
</radialGradient>
<linearGradient id="paint12_linear_16829_25629" x1="192.901" y1="50.6789" x2="200.507" y2="97.1069" gradientUnits="userSpaceOnUse">
<stop stop-color="#6D4AFF"/>
<stop offset="0.392009" stop-color="#B39FFB" stop-opacity="0.978022"/>
<stop offset="1" stop-color="#FFE8DB" stop-opacity="0.8"/>
</linearGradient>
<radialGradient id="paint13_radial_16829_25629" cx="0" cy="0" r="1" gradientUnits="userSpaceOnUse" gradientTransform="translate(191.38 94.3419) rotate(-58.142) scale(26.2605 41.0661)">
<stop stop-color="#FFD580"/>
<stop offset="0.09375" stop-color="#F6C592"/>
<stop offset="0.205" stop-color="#EBB6A2"/>
<stop offset="0.324466" stop-color="#DFA5AF"/>
<stop offset="0.42875" stop-color="#D397BE"/>
<stop offset="0.53375" stop-color="#C486CB"/>
<stop offset="0.64875" stop-color="#B578D9"/>
<stop offset="0.77125" stop-color="#A166E5"/>
<stop offset="0.89125" stop-color="#8B57F2"/>
<stop offset="1" stop-color="#704CFF"/>
</radialGradient>
<linearGradient id="paint14_linear_16829_25629" x1="311.526" y1="77.9363" x2="421.717" y2="77.9363" gradientUnits="userSpaceOnUse">
<stop stop-color="#ED2E7C"/>
<stop offset="1" stop-color="#A8288F"/>
</linearGradient>
<clipPath id="clip0_16829_25629">
<rect width="536" height="156" fill="white"/>
</clipPath>
<clipPath id="clip1_16829_25629">
<rect width="64" height="64" fill="white" transform="translate(302 46)"/>
</clipPath>
<clipPath id="clip2_16829_25629">
<rect x="139" y="45" width="258" height="67" rx="12" fill="white"/>
</clipPath>
</defs>
</svg>
