<svg width="156" height="28" viewBox="0 0 156 28" fill="none" xmlns="http://www.w3.org/2000/svg">
<path d="M6.9 21.175C5.61667 21.175 4.46667 20.9667 3.45 20.55C2.43333 20.1333 1.61667 19.5167 1 18.7C0.4 17.8833 0.0833334 16.9 0.0500001 15.75H4.6C4.66667 16.4 4.89167 16.9 5.275 17.25C5.65833 17.5833 6.15833 17.75 6.775 17.75C7.40833 17.75 7.90833 17.6083 8.275 17.325C8.64167 17.025 8.825 16.6167 8.825 16.1C8.825 15.6667 8.675 15.3083 8.375 15.025C8.09167 14.7417 7.73333 14.5083 7.3 14.325C6.88333 14.1417 6.28333 13.9333 5.5 13.7C4.36667 13.35 3.44167 13 2.725 12.65C2.00833 12.3 1.39167 11.7833 0.875 11.1C0.358333 10.4167 0.1 9.525 0.1 8.425C0.1 6.79167 0.691667 5.51667 1.875 4.6C3.05833 3.66667 4.6 3.2 6.5 3.2C8.43333 3.2 9.99167 3.66667 11.175 4.6C12.3583 5.51667 12.9917 6.8 13.075 8.45H8.45C8.41667 7.88333 8.20833 7.44167 7.825 7.125C7.44167 6.79167 6.95 6.625 6.35 6.625C5.83333 6.625 5.41667 6.76667 5.1 7.05C4.78333 7.31667 4.625 7.70833 4.625 8.225C4.625 8.79167 4.89167 9.23333 5.425 9.55C5.95833 9.86667 6.79167 10.2083 7.925 10.575C9.05833 10.9583 9.975 11.325 10.675 11.675C11.3917 12.025 12.0083 12.5333 12.525 13.2C13.0417 13.8667 13.3 14.725 13.3 15.775C13.3 16.775 13.0417 17.6833 12.525 18.5C12.025 19.3167 11.2917 19.9667 10.325 20.45C9.35833 20.9333 8.21667 21.175 6.9 21.175ZM18.0809 5.6C17.3309 5.6 16.7142 5.38333 16.2309 4.95C15.7642 4.5 15.5309 3.95 15.5309 3.3C15.5309 2.63333 15.7642 2.08333 16.2309 1.65C16.7142 1.2 17.3309 0.974999 18.0809 0.974999C18.8142 0.974999 19.4142 1.2 19.8809 1.65C20.3642 2.08333 20.6059 2.63333 20.6059 3.3C20.6059 3.95 20.3642 4.5 19.8809 4.95C19.4142 5.38333 18.8142 5.6 18.0809 5.6ZM20.2059 7.05V21H15.9309V7.05H20.2059ZM41.1039 6.9C42.8372 6.9 44.2122 7.425 45.2289 8.475C46.2622 9.525 46.7789 10.9833 46.7789 12.85V21H42.5289V13.425C42.5289 12.525 42.2872 11.8333 41.8039 11.35C41.3372 10.85 40.6872 10.6 39.8539 10.6C39.0206 10.6 38.3622 10.85 37.8789 11.35C37.4122 11.8333 37.1789 12.525 37.1789 13.425V21H32.9289V13.425C32.9289 12.525 32.6872 11.8333 32.2039 11.35C31.7372 10.85 31.0872 10.6 30.2539 10.6C29.4206 10.6 28.7622 10.85 28.2789 11.35C27.8122 11.8333 27.5789 12.525 27.5789 13.425V21H23.3039V7.05H27.5789V8.8C28.0122 8.21667 28.5789 7.75833 29.2789 7.425C29.9789 7.075 30.7706 6.9 31.6539 6.9C32.7039 6.9 33.6372 7.125 34.4539 7.575C35.2872 8.025 35.9372 8.66667 36.4039 9.5C36.8872 8.73333 37.5456 8.10833 38.3789 7.625C39.2122 7.14167 40.1206 6.9 41.1039 6.9ZM54.0438 9.025C54.4604 8.375 55.0354 7.85 55.7688 7.45C56.5021 7.05 57.3604 6.85 58.3438 6.85C59.4938 6.85 60.5354 7.14167 61.4688 7.725C62.4021 8.30833 63.1354 9.14167 63.6688 10.225C64.2188 11.3083 64.4938 12.5667 64.4938 14C64.4938 15.4333 64.2188 16.7 63.6688 17.8C63.1354 18.8833 62.4021 19.725 61.4688 20.325C60.5354 20.9083 59.4938 21.2 58.3438 21.2C57.3771 21.2 56.5188 21 55.7688 20.6C55.0354 20.2 54.4604 19.6833 54.0438 19.05V27.65H49.7688V7.05H54.0438V9.025ZM60.1438 14C60.1438 12.9333 59.8438 12.1 59.2438 11.5C58.6604 10.8833 57.9354 10.575 57.0688 10.575C56.2188 10.575 55.4938 10.8833 54.8938 11.5C54.3104 12.1167 54.0188 12.9583 54.0188 14.025C54.0188 15.0917 54.3104 15.9333 54.8938 16.55C55.4938 17.1667 56.2188 17.475 57.0688 17.475C57.9188 17.475 58.6438 17.1667 59.2438 16.55C59.8438 15.9167 60.1438 15.0667 60.1438 14ZM71.0115 2.5V21H66.7365V2.5H71.0115ZM87.2596 13.8C87.2596 14.2 87.2346 14.6167 87.1846 15.05H77.5096C77.5762 15.9167 77.8512 16.5833 78.3346 17.05C78.8346 17.5 79.4429 17.725 80.1596 17.725C81.2262 17.725 81.9679 17.275 82.3846 16.375H86.9346C86.7012 17.2917 86.2762 18.1167 85.6596 18.85C85.0596 19.5833 84.3012 20.1583 83.3846 20.575C82.4679 20.9917 81.4429 21.2 80.3096 21.2C78.9429 21.2 77.7262 20.9083 76.6596 20.325C75.5929 19.7417 74.7596 18.9083 74.1596 17.825C73.5596 16.7417 73.2596 15.475 73.2596 14.025C73.2596 12.575 73.5512 11.3083 74.1346 10.225C74.7346 9.14167 75.5679 8.30833 76.6346 7.725C77.7012 7.14167 78.9262 6.85 80.3096 6.85C81.6596 6.85 82.8596 7.13333 83.9096 7.7C84.9596 8.26667 85.7762 9.075 86.3596 10.125C86.9596 11.175 87.2596 12.4 87.2596 13.8ZM82.8846 12.675C82.8846 11.9417 82.6346 11.3583 82.1346 10.925C81.6346 10.4917 81.0096 10.275 80.2596 10.275C79.5429 10.275 78.9346 10.4833 78.4346 10.9C77.9512 11.3167 77.6512 11.9083 77.5346 12.675H82.8846ZM93.7898 17.7H99.3898V21H89.5148V3.45H93.7898V17.7ZM107.779 21.2C106.412 21.2 105.179 20.9083 104.079 20.325C102.996 19.7417 102.137 18.9083 101.504 17.825C100.887 16.7417 100.579 15.475 100.579 14.025C100.579 12.5917 100.896 11.3333 101.529 10.25C102.162 9.15 103.029 8.30833 104.129 7.725C105.229 7.14167 106.462 6.85 107.829 6.85C109.196 6.85 110.429 7.14167 111.529 7.725C112.629 8.30833 113.496 9.15 114.129 10.25C114.762 11.3333 115.079 12.5917 115.079 14.025C115.079 15.4583 114.754 16.725 114.104 17.825C113.471 18.9083 112.596 19.7417 111.479 20.325C110.379 20.9083 109.146 21.2 107.779 21.2ZM107.779 17.5C108.596 17.5 109.287 17.2 109.854 16.6C110.437 16 110.729 15.1417 110.729 14.025C110.729 12.9083 110.446 12.05 109.879 11.45C109.329 10.85 108.646 10.55 107.829 10.55C106.996 10.55 106.304 10.85 105.754 11.45C105.204 12.0333 104.929 12.8917 104.929 14.025C104.929 15.1417 105.196 16 105.729 16.6C106.279 17.2 106.962 17.5 107.779 17.5ZM122.647 6.85C123.63 6.85 124.489 7.05 125.222 7.45C125.972 7.85 126.547 8.375 126.947 9.025V7.05H131.222V20.975C131.222 22.2583 130.964 23.4167 130.447 24.45C129.947 25.5 129.172 26.3333 128.122 26.95C127.089 27.5667 125.797 27.875 124.247 27.875C122.18 27.875 120.505 27.3833 119.222 26.4C117.939 25.4333 117.205 24.1167 117.022 22.45H121.247C121.38 22.9833 121.697 23.4 122.197 23.7C122.697 24.0167 123.314 24.175 124.047 24.175C124.93 24.175 125.63 23.9167 126.147 23.4C126.68 22.9 126.947 22.0917 126.947 20.975V19C126.53 19.65 125.955 20.1833 125.222 20.6C124.489 21 123.63 21.2 122.647 21.2C121.497 21.2 120.455 20.9083 119.522 20.325C118.589 19.725 117.847 18.8833 117.297 17.8C116.764 16.7 116.497 15.4333 116.497 14C116.497 12.5667 116.764 11.3083 117.297 10.225C117.847 9.14167 118.589 8.30833 119.522 7.725C120.455 7.14167 121.497 6.85 122.647 6.85ZM126.947 14.025C126.947 12.9583 126.647 12.1167 126.047 11.5C125.464 10.8833 124.747 10.575 123.897 10.575C123.047 10.575 122.322 10.8833 121.722 11.5C121.139 12.1 120.847 12.9333 120.847 14C120.847 15.0667 121.139 15.9167 121.722 16.55C122.322 17.1667 123.047 17.475 123.897 17.475C124.747 17.475 125.464 17.1667 126.047 16.55C126.647 15.9333 126.947 15.0917 126.947 14.025ZM136.465 5.6C135.715 5.6 135.098 5.38333 134.615 4.95C134.148 4.5 133.915 3.95 133.915 3.3C133.915 2.63333 134.148 2.08333 134.615 1.65C135.098 1.2 135.715 0.974999 136.465 0.974999C137.198 0.974999 137.798 1.2 138.265 1.65C138.748 2.08333 138.99 2.63333 138.99 3.3C138.99 3.95 138.748 4.5 138.265 4.95C137.798 5.38333 137.198 5.6 136.465 5.6ZM138.59 7.05V21H134.315V7.05H138.59ZM150.188 6.9C151.821 6.9 153.121 7.43333 154.088 8.5C155.071 9.55 155.563 11 155.563 12.85V21H151.313V13.425C151.313 12.4917 151.071 11.7667 150.588 11.25C150.104 10.7333 149.454 10.475 148.638 10.475C147.821 10.475 147.171 10.7333 146.688 11.25C146.204 11.7667 145.963 12.4917 145.963 13.425V21H141.688V7.05H145.963V8.9C146.396 8.28333 146.979 7.8 147.713 7.45C148.446 7.08333 149.271 6.9 150.188 6.9Z" fill="#377DFF"/>
</svg>
