<?xml version="1.0" encoding="utf-8"?>
<!-- Generator: Adobe Illustrator 23.0.0, SVG Export Plug-In . SVG Version: 6.00 Build 0)  -->
<svg version="1.1" id="Layer_1" xmlns="http://www.w3.org/2000/svg" xmlns:xlink="http://www.w3.org/1999/xlink" x="0px" y="0px"
	 viewBox="0 0 640 480" style="enable-background:new 0 0 640 480;" xml:space="preserve">
<style type="text/css">
	.st0{fill:#BE1E2D;}
	.st1{fill:url(#SVGID_1_);}
</style>
<g>
	<path class="st0" d="M440.25,251.83h-24.06v-46.38h5.43v41.46h18.63V251.83z"/>
	<path class="st0" d="M460.5,252.6c-4.89,0-8.8-1.55-11.72-4.64c-2.92-3.09-4.38-7.2-4.38-12.31c0-5.56,1.52-9.91,4.56-13.03
		c3.04-3.13,7.15-4.69,12.32-4.69c4.94,0,8.79,1.52,11.56,4.56c2.77,3.04,4.16,7.26,4.16,12.65c0,5.28-1.49,9.51-4.48,12.69
		C469.53,251.01,465.52,252.6,460.5,252.6z M460.89,222.4c-3.41,0-6.1,1.16-8.09,3.48c-1.98,2.32-2.98,5.51-2.98,9.59
		c0,3.92,1,7.02,3.01,9.28c2.01,2.26,4.69,3.4,8.05,3.4c3.43,0,6.06-1.11,7.91-3.33c1.84-2.22,2.77-5.38,2.77-9.48
		c0-4.14-0.92-7.33-2.77-9.57C466.95,223.52,464.31,222.4,460.89,222.4z"/>
	<path class="st0" d="M513.73,249.17c0,12.16-5.82,18.24-17.46,18.24c-4.1,0-7.68-0.78-10.74-2.33v-5.3
		c3.73,2.07,7.29,3.1,10.67,3.1c8.15,0,12.22-4.33,12.22-13v-3.62h-0.13c-2.52,4.23-6.32,6.34-11.38,6.34
		c-4.12,0-7.43-1.47-9.94-4.41c-2.51-2.94-3.77-6.89-3.77-11.85c0-5.63,1.35-10.1,4.06-13.42c2.71-3.32,6.41-4.98,11.11-4.98
		c4.46,0,7.77,1.79,9.93,5.37h0.13v-4.59h5.3V249.17z M508.43,236.85v-4.88c0-2.63-0.89-4.88-2.67-6.76
		c-1.78-1.88-3.99-2.81-6.65-2.81c-3.28,0-5.84,1.19-7.7,3.57c-1.85,2.38-2.78,5.72-2.78,10.01c0,3.69,0.89,6.64,2.67,8.85
		c1.78,2.21,4.13,3.31,7.07,3.31c2.98,0,5.4-1.06,7.26-3.17C507.49,242.86,508.43,240.15,508.43,236.85z"/>
	<path class="st0" d="M527.19,210.3c-0.95,0-1.76-0.32-2.43-0.97c-0.67-0.65-1-1.47-1-2.46c0-0.99,0.33-1.82,1-2.47
		c0.67-0.66,1.48-0.99,2.43-0.99c0.97,0,1.79,0.33,2.47,0.99c0.68,0.66,1.02,1.48,1.02,2.47c0,0.95-0.34,1.76-1.02,2.43
		C528.98,209.97,528.16,210.3,527.19,210.3z M529.77,251.83h-5.3v-33.12h5.3V251.83z"/>
	<path class="st0" d="M568,251.83h-5.3v-18.89c0-7.03-2.57-10.54-7.7-10.54c-2.65,0-4.85,1-6.58,2.99c-1.74,1.99-2.6,4.51-2.6,7.55
		v18.89h-5.3v-33.12h5.3v5.5h0.13c2.5-4.18,6.12-6.27,10.87-6.27c3.62,0,6.39,1.17,8.31,3.51c1.92,2.34,2.88,5.72,2.88,10.14V251.83
		z"/>
	<linearGradient id="SVGID_1_" gradientUnits="userSpaceOnUse" x1="66" y1="229.0709" x2="407.4592" y2="229.0709">
		<stop  offset="0" style="stop-color:#ED2E7C"/>
		<stop  offset="1" style="stop-color:#A8288F"/>
	</linearGradient>
	<path class="st1" d="M216.13,249.95v-6.4c0.73,0.65,1.61,1.23,2.64,1.75c1.02,0.52,2.1,0.95,3.23,1.31
		c1.13,0.36,2.27,0.63,3.41,0.82c1.14,0.19,2.2,0.29,3.17,0.29c3.34,0,5.84-0.62,7.49-1.86c1.65-1.24,2.47-3.02,2.47-5.35
		c0-1.25-0.27-2.34-0.82-3.27c-0.55-0.93-1.31-1.77-2.28-2.54c-0.97-0.76-2.12-1.5-3.44-2.2c-1.33-0.7-2.75-1.44-4.29-2.22
		c-1.62-0.82-3.13-1.65-4.53-2.49s-2.62-1.77-3.65-2.78c-1.03-1.01-1.85-2.16-2.44-3.44c-0.59-1.28-0.89-2.79-0.89-4.51
		c0-2.11,0.46-3.95,1.39-5.51c0.93-1.56,2.14-2.85,3.65-3.87c1.51-1.01,3.23-1.77,5.16-2.26c1.93-0.5,3.9-0.74,5.9-0.74
		c4.57,0,7.9,0.55,9.99,1.65v6.11c-2.74-1.9-6.25-2.85-10.54-2.85c-1.19,0-2.37,0.12-3.56,0.37c-1.19,0.25-2.24,0.65-3.17,1.21
		c-0.93,0.56-1.68,1.28-2.26,2.17c-0.58,0.88-0.87,1.96-0.87,3.23c0,1.19,0.22,2.21,0.66,3.07c0.44,0.86,1.09,1.65,1.96,2.36
		c0.86,0.71,1.91,1.4,3.15,2.07c1.24,0.67,2.67,1.4,4.29,2.2c1.66,0.82,3.23,1.68,4.72,2.59c1.49,0.91,2.79,1.91,3.91,3.01
		c1.12,1.1,2.01,2.32,2.67,3.65c0.66,1.34,0.99,2.87,0.99,4.59c0,2.29-0.45,4.22-1.34,5.8c-0.89,1.58-2.1,2.87-3.62,3.87
		c-1.52,0.99-3.27,1.71-5.26,2.15c-1.98,0.44-4.07,0.66-6.27,0.66c-0.73,0-1.64-0.06-2.72-0.18c-1.08-0.12-2.18-0.29-3.3-0.52
		c-1.12-0.23-2.18-0.51-3.19-0.84C217.54,250.73,216.73,250.36,216.13,249.95z M255.49,210.3c-0.95,0-1.76-0.32-2.43-0.97
		c-0.67-0.65-1-1.47-1-2.46c0-0.99,0.33-1.82,1-2.47c0.67-0.66,1.48-0.99,2.43-0.99c0.97,0,1.79,0.33,2.47,0.99
		c0.68,0.66,1.02,1.48,1.02,2.47c0,0.95-0.34,1.76-1.02,2.43C257.28,209.97,256.46,210.3,255.49,210.3z M258.08,251.83h-5.3v-33.12
		h5.3V251.83z M315.84,251.83h-5.3v-19.02c0-3.67-0.57-6.32-1.7-7.96c-1.13-1.64-3.03-2.46-5.71-2.46c-2.26,0-4.19,1.03-5.77,3.1
		c-1.58,2.07-2.38,4.55-2.38,7.44v18.89h-5.3v-19.66c0-6.51-2.51-9.77-7.54-9.77c-2.33,0-4.25,0.98-5.76,2.93
		c-1.51,1.95-2.26,4.49-2.26,7.62v18.89h-5.3v-33.12h5.3v5.24h0.13c2.35-4.01,5.78-6.02,10.28-6.02c2.26,0,4.24,0.63,5.92,1.89
		c1.68,1.26,2.83,2.92,3.46,4.96c2.46-4.57,6.12-6.86,11-6.86c7.29,0,10.93,4.5,10.93,13.49V251.83z M331.3,247.04h-0.13v20.02h-5.3
		v-48.35h5.3v5.82h0.13c2.61-4.4,6.42-6.6,11.45-6.6c4.27,0,7.6,1.48,9.99,4.45c2.39,2.96,3.59,6.94,3.59,11.92
		c0,5.54-1.35,9.98-4.04,13.31c-2.7,3.33-6.38,5-11.06,5C336.93,252.6,333.62,250.75,331.3,247.04z M331.17,233.68v4.62
		c0,2.74,0.89,5.06,2.67,6.97c1.78,1.91,4.04,2.86,6.78,2.86c3.21,0,5.73-1.23,7.55-3.69c1.82-2.46,2.73-5.87,2.73-10.25
		c0-3.69-0.85-6.58-2.55-8.67c-1.7-2.09-4.01-3.14-6.92-3.14c-3.08,0-5.56,1.07-7.44,3.22C332.1,227.76,331.17,230.45,331.17,233.68
		z M370.1,251.83h-5.3V202.8h5.3V251.83z M407.46,236.59h-23.38c0.09,3.69,1.08,6.53,2.98,8.54c1.9,2.01,4.51,3.01,7.83,3.01
		c3.73,0,7.16-1.23,10.28-3.69v4.98c-2.91,2.11-6.76,3.17-11.55,3.17c-4.68,0-8.36-1.5-11.03-4.51c-2.67-3.01-4.01-7.24-4.01-12.69
		c0-5.15,1.46-9.35,4.38-12.6c2.92-3.24,6.55-4.87,10.88-4.87c4.33,0,7.69,1.4,10.06,4.2c2.37,2.8,3.56,6.69,3.56,11.67V236.59z
		 M402.03,232.1c-0.02-3.06-0.76-5.44-2.21-7.15c-1.46-1.7-3.48-2.55-6.06-2.55c-2.5,0-4.62,0.9-6.37,2.68
		c-1.75,1.79-2.82,4.13-3.23,7.02H402.03z M98.7,190.92l-0.02,0.02h0.04L98.7,190.92z M192.18,190.94h-93.5l-1.18,1.22l-0.2,0.22
		c-0.9,0.94-1.84,1.84-2.78,2.69c-7.17,6.59-15.78,11.57-25.13,14.02c-0.27,0.08-0.53,0.14-0.8,0.22l-1.18,0.29l-0.27,1.18
		c-0.1,0.43-0.18,0.86-0.27,1.31c-0.57,3.02-0.88,6.12-0.88,9.21c0,10.08,3.04,19.76,8.8,27.99c5.19,7.41,12.21,13.19,20.41,16.78
		c0.2,0.1,0.43,0.2,0.65,0.29c0.49,0.22,0.98,0.41,1.47,0.61l0.59,0.22l0.08,0.02l0.04-0.02c0.04,0.02,0.1,0.02,0.14,0.02h93.99
		c2.04,0,3.67-1.65,3.67-3.67v-68.96C195.85,192.57,194.22,190.94,192.18,190.94z M185.83,196.8l-39.13,34.11
		c-0.82,0.69-2,0.69-2.8-0.02l-12.76-11.31c-0.06-2.74-0.35-5.45-0.88-8.1c-0.04-0.22-0.08-0.45-0.12-0.69l-0.27-1.18l-1.18-0.31
		c-0.29-0.06-0.57-0.14-0.86-0.2c-6.49-1.74-12.64-4.7-18.17-8.55l-4.23-3.74H185.83z M133.16,228.99l-3.21,2.84
		c0.37-1.61,0.65-3.25,0.86-4.92L133.16,228.99z M98.07,263.06c-1.2-0.49-2.39-1.04-3.55-1.63c-14.88-7.61-24.6-23.17-24.6-40.11
		c0-2.86,0.27-5.72,0.82-8.49c8.72-2.35,16.8-6.49,23.78-12.21c1.45-1.16,2.84-2.41,4.18-3.72c6.61,6.43,14.47,11.33,23.09,14.39
		c1.55,0.57,3.12,1.06,4.74,1.49c0.18,1.02,0.35,2.06,0.45,3.1c0.18,1.65,0.29,3.35,0.29,5.04c0,0.92-0.02,1.84-0.1,2.76
		c-0.27,4.53-1.22,8.94-2.8,13.09C119.87,248.67,110.4,258.43,98.07,263.06z M109.48,261.55c6.92-4.65,12.51-10.96,16.27-18.29
		l11.74-10.37l6.37,5.7c0.8,0.71,2.02,0.71,2.82,0l6.49-5.76l32.58,28.68L109.48,261.55z M157.6,228.97L190.2,200l0.06,57.77
		L157.6,228.97z M106.87,252.18c1.55-1.14,3.02-2.43,4.33-3.82L106.87,252.18z M121.4,218.6c-0.1-0.82-0.22-1.63-0.37-2.45
		c-1.29-0.35-2.55-0.76-3.8-1.22c0,0-0.02,0-0.02-0.02c-0.33-0.1-0.63-0.24-0.96-0.37c-0.71-0.29-1.43-0.59-2.14-0.94
		c-0.49-0.22-1-0.45-1.49-0.71c-0.35-0.16-0.71-0.35-1.06-0.55c-1.12-0.59-2.23-1.25-3.31-1.94c-0.67-0.41-1.33-0.86-1.96-1.31
		c-0.06-0.02-0.1-0.06-0.14-0.1c-0.69-0.47-1.37-0.98-2.04-1.49c-1.33-1.02-2.61-2.1-3.86-3.25c-0.53-0.47-1.06-0.96-1.57-1.47
		c-1.33,1.29-2.72,2.53-4.16,3.72c-5.43,4.41-11.64,7.9-18.31,9.7c-0.43,2.25-0.65,4.53-0.65,6.84c0,2.76,0.33,5.47,0.92,8.1
		c2.33,10.13,8.92,19.11,18.05,24.11c1.18,0.65,2.39,1.22,3.65,1.74c0.73-0.29,1.47-0.59,2.18-0.92c0.02,0,0.04-0.02,0.04-0.02
		c0.59-0.27,1.18-0.55,1.76-0.86c0.53-0.27,1.04-0.55,1.55-0.88c0.16-0.08,0.33-0.18,0.49-0.29c0.27-0.16,0.53-0.33,0.78-0.49
		c0.06-0.04,0.12-0.06,0.16-0.12c0.47-0.29,0.9-0.59,1.33-0.92c0.14-0.08,0.29-0.18,0.41-0.31l4.33-3.82c0.04,0,0.04,0,0.04-0.02
		c4.29-4.45,7.45-9.98,9.08-16c0.86-3.1,1.31-6.35,1.31-9.64C121.63,221.33,121.55,219.97,121.4,218.6z M100.32,239.58l-3.33,3.33
		h-0.02l-13.78-13.78l4.23-4.27l9.57,9.57l3.33-3.33l11.62-11.64l4.25,4.25L100.32,239.58z"/>
</g>
</svg>
