<?xml version="1.0" encoding="utf-8"?>
<!-- Generator: Adobe Illustrator 23.0.3, SVG Export Plug-In . SVG Version: 6.00 Build 0)  -->
<svg version="1.1" id="Layer_1" xmlns="http://www.w3.org/2000/svg" xmlns:xlink="http://www.w3.org/1999/xlink" x="0px" y="0px"
	 viewBox="0 0 200.4 66.5" style="enable-background:new 0 0 200.4 66.5;" xml:space="preserve">
<style type="text/css">
	.st0{fill:#8C98A4;}
</style>
<path class="st0" d="M78.5,0c0.6,0.2,2.6,0.1,2.6,1.5c-0.1,0.1-0.2,0.1-0.2,0.2C79.5,1.7,79.4,0.4,78.5,0L78.5,0z M97.2,3.3
	C96.8,4,96.4,4.7,96,5.4c-1.1-0.3-1.7-1.1-2.8-1c-1,0.1-1.9,1.3-3.1,1.2c-1.9-0.8-3.4-2-5.2-2.8C87.5-0.3,94.5,1.5,97.2,3.3z
	 M86.6,2.9c0.1,0.6,1.1,1.5,1.5,0.6c-0.8,0.2-1.3-0.3-1.1-0.7c1.3-0.2,2.6,2.1,3.7,2.2c2.6,0.3,0.8-3.6-1.6-2.6
	c-0.2-0.7-1.2-0.6-2-0.7C87,2.3,86.5,2.3,86.6,2.9z M94.3,8.8C90,6.7,86.1,4.4,81.9,2.2c-0.1-0.1-0.1-0.2-0.1-0.4
	c0.1-0.1,0.2-0.1,0.2,0c3.5,2,7.4,4,11.1,6C93.5,8,94.2,8.3,94.3,8.8z"/>
<path class="st0" d="M88.5,2.8c-0.4,0.2-1-0.1-1.1-0.6C87.8,2,88.6,2.2,88.5,2.8z M91.6,4.4c-1.3,0.4-2.2-0.6-2.8-1.3
	C90,2.7,91.3,3.4,91.6,4.4z M101.1,4c0.1,0.9-0.7,1.9,0.1,2.3c-0.8-0.1-2.2-0.7-2.7-1.5c-0.2,0.1-0.3,0.4-0.2,0.7
	c-0.4-0.3-1.5,0-1.7-0.1C96.6,5.1,97,5.1,97,4.6h1.2c0.1-0.5-0.7-0.1-0.9-0.4C97.4,2.4,100.5,3.2,101.1,4z M98.9,4.4
	c-0.2-0.1-0.2-0.4-0.6-0.2C98.3,4.5,98.8,4.8,98.9,4.4z M101.7,4.5c3.3,2.1,7.5,0.6,12,1.8c3.9,1.1,5.8,4.9,9.9,5.4
	c-1,0.4-2.3-0.2-3.1,0.2c-2.4-0.8-4.9-2.3-8.2-2.4c-3.9-0.1-8.1,0.5-10.3-2C102.4,6.7,101.1,6,101.7,4.5z M104.3,8.4
	c0.1-0.7-0.6-0.5-0.6-1.1c0.1-0.2,0.5-0.2,0.5-0.6c-0.4-0.9-1.3-1.1-2.3-1.3C102.4,6.6,103.2,7.7,104.3,8.4L104.3,8.4z M106,8.8
	c0.3-0.4-0.4-0.5-0.2-1c0.5,0.2,0.6,0.9,1.3,1c-0.2-0.6-0.7-0.9-1.1-1.3c0.2,0,0.3-0.2,0.2-0.5c-0.4-0.6-1.3-0.7-2.1-0.9
	C104.5,7.2,105.2,8,106,8.8z M106.5,6.8c0.3,1.1,1.1,2.3,2.3,2.1C108.9,7.5,107.4,6,106.5,6.8z M108.2,7c0.7,0.6,0.9,1.7,2,2
	c0-0.5-0.6-0.4-0.5-1c0.7,0.2,0.9,0.9,1.6,1c0.2-0.7-1.5-0.8-1-1.8C109.8,6.6,108.8,6.5,108.2,7L108.2,7z M110.5,7.2
	c0,1,1.9,0.5,1.7,1.3c-0.3-0.1-0.4-0.3-0.7-0.2c0,0.6,0.7,0.5,1,0.7c0-0.3,0.4-0.2,0.4-0.6c0.1-1.1-2.1-0.5-1.7-1.5
	c0.3,0,0.6,0.5,0.7,0C111.3,6.3,110.5,6.7,110.5,7.2z M114.9,9.2c0-0.9-0.8-2.1-1.2-1.7c0.3,0.4,1,0.9,0.6,1.5
	c-0.9-0.5-0.9-1.8-2-2.1C112.8,7.9,113.4,9.5,114.9,9.2z M116.1,9.5c0.1-0.5-0.4-0.5-0.4-1c0.5,0.1,0.4,0.8,1,0.9
	c0.2-0.3-0.4-0.5,0-0.6c0.3,0.4,0.3,1.1,1,1.1c-0.4-0.9-0.7-1.7-1.6-2.1c-0.3,0.2,0.1,0.5-0.1,0.5c-0.5-0.3-0.7-0.9-1.5-1
	C114.9,8.2,115.3,9.1,116.1,9.5L116.1,9.5z M98.3,5.9c0,0.4-0.8,0.8,0,0.9c-0.2,0.3-1,0-1.5,0.1c-0.1-0.2-0.2-0.6-0.2-0.9
	C97.1,5.9,97.7,5.8,98.3,5.9L98.3,5.9z"/>
<path class="st0" d="M102.7,6.1c0.5,0,0.8,0.3,0.9,0.7C103,6.8,102.8,6.5,102.7,6.1z M100.4,6.8c-0.7,0-1.3,0-1.7,0.2
	C98.4,6.2,100.3,6.3,100.4,6.8z M82.6,6.7c0.7,0.2,1.7,0.6,1.6,1.2C83.2,7.9,83,7.2,82.6,6.7z M104.9,6.8c0.3-0.3,1.1,0.2,0.7,0.6
	C105.2,7.4,105.2,7,104.9,6.8z M107,7c0.6,0.3,1.1,0.7,1.3,1.5C107.6,8.2,107.1,7.8,107,7z M88.4,7.1c0,0.6,0.6,1.1,0.2,1.7
	c-0.7-0.2-0.6-1.1-1-1.6C88,7.2,88,7,88.4,7.1z M102.1,10.7c0.9-1.3,0.2-3.4-1.5-3.4C102.2,6.6,103.9,9.8,102.1,10.7z M109,7.1
	c0.4,0,0.7,0,0.7,0.4C109.5,7.7,109,7.5,109,7.1z M87.9,8.5c-0.8,0.7-1.2-0.6-1.3-1.2C87.6,6.8,87.4,8.2,87.9,8.5z M88.9,7.2
	c0.4-0.1,0.4,0.2,0.9,0.1C89.6,8,90.1,8.6,89.9,9c-0.3,0-0.3-0.2-0.6-0.1C89.1,8.4,89.1,7.7,88.9,7.2L88.9,7.2z M96.7,7.2
	c-0.4,0.3-1.2,0.2-1.6,0.6C94.9,7.3,96,7.2,96.7,7.2z M82.4,7.3c0.6,0.4,0.8,1.1,1.7,1.2C83.6,9.1,82.4,8.2,82.4,7.3z M97.9,7.4
	c0.2-0.3,0.9,0,1.2-0.1C99,7.6,98.3,7.4,97.9,7.4z M85.6,7.4h0.6c0.2,0.5,0.7,1,0.5,1.5C86,8.8,85.8,8.1,85.6,7.4z M91,7.8
	c-0.1,0.6-0.2,1.2-0.4,1.7c-0.7-0.5-0.1-1.1-0.4-1.8C90.5,7.4,90.6,7.8,91,7.8L91,7.8z M100.9,8.3c-1.2,3.6-2.6,7-5.6,8.8
	c-0.6-0.6-0.7-1.3-0.9-2.1c-0.1-0.6-0.6-1.6-0.5-2.4c0.2-1.2,2.2-1.5,2.1-2.4c-0.1-0.9-1-0.5-1.3-0.5C94.8,9,95,8.4,95.4,7.9
	C97.1,7.2,99.1,7.8,100.9,8.3L100.9,8.3z M96.1,9c0.6,0.7,0.1,1.8-0.2,2.6c-2.5,0.5-1.5,3.7,1.1,3.1c1.6-0.4,2.2-3.2,0.9-4.4
	C100.8,9.5,96.8,6.5,96.1,9L96.1,9z M85.8,9c-0.7-0.1-1.2-0.4-1.2-1.1C85.4,7.3,85.7,8.4,85.8,9z"/>
<path class="st0" d="M101.5,7.9c1.4,1,0.5,3.3-0.9,3.9C101.1,10.6,102.1,9.5,101.5,7.9z M97.4,8.4c0.4,0,0.7,0.2,0.9,0.5
	c0.1,0.4-0.1,0.6-0.2,0.9c-0.4,0-0.8,0.1-1-0.1C97.2,9.2,97.4,8.9,97.4,8.4z M96.7,8.5c0.3,0.1,0.1,0.8-0.2,0.6
	C96.4,8.8,96.6,8.7,96.7,8.5z M83.3,9.2c0.4-0.1,0.4,0.1,0.7,0.1v0.5c0.4,0,0.4-0.4,0.6-0.5c3.1,0.1,1.7,3.5,1.1,5.2h-0.9
	c-0.1-0.1-0.2-0.3-0.1-0.6c-0.3,0.1-0.4,0.4-0.4,0.9c0.6,0.1,0.5,1.5,0.1,1.7c-0.4-0.1-0.4,0-0.9-0.1c-0.4,0.2-0.3,0.8-0.6,1
	c-0.3-0.2-0.7-0.2-1-0.5c0.1-0.7,0.2-1.5,1.1-1.5c-0.9-0.5-1-3,0.5-3.1c0-0.5-0.8-0.3-0.7-0.9c0.3,0.2,1.1,0.4,1.5,0.1
	c-0.2-0.6-0.6-1-1.3-1.1C83,9.9,83.1,9.5,83.3,9.2L83.3,9.2z M84.9,13.4c0.3-0.8,0.4-2,0.6-2.9c-0.2,0-0.2-0.2-0.4-0.1
	C85.1,11.3,84.4,12.8,84.9,13.4L84.9,13.4z M84.4,16.1c0.2-0.2,0.2-1-0.1-1C84.4,15.6,83.9,16,84.4,16.1z M83.7,16.1
	c0.2-0.2,0-0.7-0.5-0.6C83.2,15.8,83.3,16.1,83.7,16.1z M92.9,9.5c0.5-0.2,0.3,0.4,0.6,0.5c-0.2,0.5-0.6,0.8-0.9,1.3
	C91.8,10.9,93.1,10.3,92.9,9.5L92.9,9.5z M103.2,9.6c0.4,1.3-0.2,2.6,0.1,3.8c-1.2,0.2,0.2-1.4-0.6-1.6c-0.4,0.2,0,0.8-0.6,1
	c-0.1,0.5,0.5,0.2,0.4,0.6c-0.5,0-0.5,0.5-1,0.5c-0.2-0.6-0.1-1.5-0.5-1.8C102.2,11.8,102.8,10.9,103.2,9.6L103.2,9.6z M96.8,10.1
	h0.2c1.7,1,0.7,4.4-1.1,4.1c-0.9-0.1-1.7-1.7-0.2-2.2c-0.1,0.4-0.4,0.7-0.5,1.1c1,1.5,2.8-0.6,1.2-1.3
	C96.5,11.2,96.8,10.7,96.8,10.1z M103.8,10.3c0.4,0.4,0.8,0.9,0.7,1.7c-0.3,0-0.5,0.2-0.9,0.1C103.7,11.5,103.5,10.7,103.8,10.3
	L103.8,10.3z M93.8,10.5c0.2,0,0.2,0.3,0.4,0.5c-0.2,0.6-0.7,0.9-1.3,1.1C92.8,11.3,93.5,11,93.8,10.5z"/>
<path class="st0" d="M82.7,10.9c0.5,0.1-0.1,0.8,0,1.1c-0.5-0.2-1.2-0.3-1.8-0.5c-0.4,0.1-0.7-0.2-0.1-0.1
	C81.5,11.3,82.4,11.4,82.7,10.9L82.7,10.9z M96.3,12.1c0.6,0.1,0.5,1.4-0.4,1.1C95.9,12.7,96.1,12.4,96.3,12.1z M100.4,12.2h0.4
	c0.2,0.3,0.1,0.9,0.1,1.3c-0.2,0.2-0.6,0.1-1,0.1C99.8,13,100.5,13,100.4,12.2L100.4,12.2z M122.3,12.2c1.4-0.1,2.1,0.4,3.2,0.6
	c0.1,1,1,1.2,1.3,2C124.5,14.8,123.8,13.1,122.3,12.2L122.3,12.2z M104.9,12.3c0.2,0.4,0.7,0.7,0.7,1.3c-0.6-0.3-1.1-0.7-1.8-0.9
	C103.9,12.4,104.3,12.2,104.9,12.3L104.9,12.3z M86.9,12.8c0.5,0.1,0.2,1.5,0.1,1.8C86.1,14.5,87.2,13.7,86.9,12.8z M117.2,21
	c-4.6-1.7-8.7-4.8-13.4-6.7c0-0.4,0.1-0.6,0.2-0.9C108.4,16,112.8,18.5,117.2,21L117.2,21z M86.3,13.7c0.4,0-0.1,0.8-0.4,0.9
	C85.9,14.1,86.3,14.1,86.3,13.7z M103.3,13.8c0,0.4-1.3,0.6-1.3,0.1C102.2,13.7,102.9,13.8,103.3,13.8z M99.4,13.9
	c0.4,1.6,0,3.2-1.2,4c-1,0.7-2.6,0.7-2,2.4c-0.7-0.1-0.2-1.2-0.2-1.7C97.9,17.9,99.5,16.7,99.4,13.9L99.4,13.9z"/>
<path class="st0" d="M100.2,14h0.9c-0.1,0.8,0.2,1.2,0.1,2c-0.8,0.7-1.4,1.5-2.3,2.1c0-0.8,0.5-1,1-1.3
	C99.9,15.4,100.3,15.3,100.2,14z M102.3,17.1c0.1-0.7-0.7-1.9-0.5-2.7C104,13.5,103.7,17,102.3,17.1z M93.9,14.9
	c-0.7,0.5-0.3,1.3-1.1,1.7c-0.3-0.3-0.7-0.5-1.1-0.1c0.3,0.7-0.1,0.9-0.5,1.2c-0.2-0.1-0.4-0.3-0.6-0.5c-0.2,0.1-0.4,0.3-0.6,0.4
	c-0.1,0.4,0.1,0.4,0.1,0.7c-0.2,0.1-0.4,0.3-0.6,0.4c-0.7-0.3-0.7-0.3-1.6-0.1c-0.1-0.4,0.2-0.4,0.1-0.7c2.3-0.7,3.5-2.5,5.7-3.3
	C93.7,14.7,93.9,14.7,93.9,14.9L93.9,14.9z"/>
<path class="st0" d="M103.9,14.8c0.4,0,0.2,0.5,0.2,0.9C103.7,15.7,103.7,15,103.9,14.8z M85.2,14.9c2.5,0.4,1.3,2.2,0.7,3.4
	c0.4-0.5,0.7-1,1.1-1.5c0.4,0.6-0.7,0.7-0.6,1.3c0,0.7,0.6,1.1,1.6,0.7c-0.6,0.8-1.8,0-2.4-0.4c-0.2-1.3,0.8-1.4,1.1-2.2
	c0-0.6-0.5-0.7-0.9-1c-0.4,0.1,0,1-0.6,0.9C85.1,15.8,85,15.4,85.2,14.9L85.2,14.9z M129.7,16.1c-1.4,0-1.8-1-2.9-1
	C127.7,14.6,129.5,15,129.7,16.1z M86.7,15c0.2,0,0.3,0.1,0.5,0.1v0.7C87,15.6,86.8,15.4,86.7,15z M98.5,15h0.4
	c-0.3,1.2-0.7,2.3-1.8,2.7C97,16.8,98.4,16.1,98.5,15z M105.4,16.4c0.1,0.6-0.4,1.1-0.9,0.7c0-0.3,0.5-0.1,0.6-0.4
	c-0.2-0.4-0.6,0.1-1,0c-0.3,0.4-0.5,0.8-0.6,1.5c0.3-0.5,1-1.2,1.7-0.6c0.1,1.6-1.9,1.8-2.2,2.7c-0.1,0.3,0.7,0.8,0.1,1.1
	c0.7-0.1,0.4-1.3,1.2-1.3c-0.7,1.3-1.4,4.5-3.5,2.9c0.2-0.3,2,0.6,2.1-0.6c-0.5-0.2-0.3,0.5-0.7,0.4c-0.9-1.6,0.3-3,1.1-3.7
	c-0.1-0.4-0.4,0.1-0.6,0C103.4,18,103.3,15.2,105.4,16.4L105.4,16.4z M93.9,16.5c-0.5,0.8-1.3,1.4-1.2,2.8c-0.7-0.2-1.4-0.4-2.3-0.4
	C91.4,18,92.7,17.2,93.9,16.5L93.9,16.5z M84.5,16.6c0,0.5-0.6,0.8-1,0.6C83.5,16.7,84.1,16.7,84.5,16.6z"/>
<path class="st0" d="M94.1,17.1c0.4,0.3,0.5,0.9,1.2,1c-0.6,0.4-1.1,0.8-2,0.9C93,18.1,93.7,17.4,94.1,17.1z M87.2,17.9
	c0.3-0.1,0.3,0.1,0.5,0.1c-0.1,0.2-0.1,0.5-0.5,0.5V17.9z M95.6,18.7c0.1,0.6-0.3,0.7-0.2,1.3c-0.6-0.1-1.1-0.4-1.7-0.5
	C94.3,19.2,94.8,18.8,95.6,18.7L95.6,18.7z M98.2,19.2c-0.4,0.5-1.4,0.4-1.3,1.3c-0.3,0-0.2-0.4-0.2-0.7
	C97.2,19.7,97.5,18.8,98.2,19.2z M89.8,19.4v0.4c-0.2,0.2-0.4-0.1-0.6-0.1C89.2,19.4,89.4,19.4,89.8,19.4z M88.3,19.5
	c0.2,0,0.5-0.1,0.5,0.1C88.9,20.1,88,20,88.3,19.5z M90.7,19.5v0.4c-0.2,0-0.6,0.1-0.5-0.2C90.4,19.6,90.5,19.5,90.7,19.5z
	 M87.8,19.6c0.1,0.5-0.4,0.6-0.6,0.4C87.3,19.8,87.4,19.6,87.8,19.6z M91.2,19.6c0.2,0.1,0.6-0.1,0.6,0.1C91.9,20.2,91,20,91.2,19.6
	z M92.9,20.3c-0.4,0-0.7,0-0.6-0.4C92.5,19.7,93.1,19.8,92.9,20.3z M114.4,22.5c-2.2-1.5-5.7-2.4-9.2-2.3c-0.2,0-0.2-0.1-0.2-0.2
	C108.9,19.5,112.4,20.5,114.4,22.5z M98.1,20c0.2,0.2,0.2,0.8,0,1c-0.3-0.2-0.8-0.3-0.7-0.9C97.5,20,97.7,20,98.1,20z M93.5,20.1
	c0.2,0,0.2,0.1,0.4,0.1c0,0.3-0.2,0.4-0.5,0.4C93.4,20.4,93.5,20.3,93.5,20.1L93.5,20.1z M94.9,20.9c-0.3,0.1-0.6,0.2-0.6-0.2
	C94.5,20.4,95,20.4,94.9,20.9z M106,20.8c-0.1,3.2-1.3,5.4-2.3,7.7c-0.7-0.2-1.2-0.7-2.1-0.7c0.8-2.6,2.1-4.7,3.2-7.1
	C105.2,20.7,105.8,20.5,106,20.8z"/>
<path class="st0" d="M106.5,20.6c0.4-0.1,0.7,0,1,0.1c0.1,0.7,0.5,1.7,0.4,2.3c-0.5-0.2-0.9-0.4-1.5-0.6
	C106.4,21.9,106.2,21,106.5,20.6L106.5,20.6z M95.7,21c0.1,0.5-0.7,0.4-0.6,0C95.4,20.8,95.4,21,95.7,21z M107.9,20.9h0.9
	c0.7,1.6,1.6,3,2,5c-0.8-0.8-1.4-1.8-2.4-2.4C108.4,22.4,108.2,21.5,107.9,20.9z M109.3,21c2.2,0.1,2.5,2.1,3.3,3.7
	c-0.2,0.7-1.1,0.7-1.3,1.5C111,24,110.2,22.5,109.3,21L109.3,21z M96.2,21.2c0.3,0,0.4,0.2,0.4,0.5h-0.5
	C96,21.5,96.2,21.4,96.2,21.2L96.2,21.2z M97.1,21.5c0.2,0,0.2,0.1,0.4,0.1c0,0.3-0.2,0.4-0.5,0.4C96.9,21.7,97,21.6,97.1,21.5
	L97.1,21.5z"/>
<path class="st0" d="M111.4,21.7c1.5-0.2,2.4,1.4,2.8,2.7c-0.4,0-0.7,0.1-1,0.2C112.5,23.8,112.3,22.3,111.4,21.7z M125.5,24.2
	c0.5,0.3,0.7,0.9,1.2,1.2c-1.2-0.7-3.1-0.1-5-0.2c-1-0.6-1.3-1.9-2.7-2.1c0,0.6,0.5,0.6,1,0.7c0.8,2.3,3.7,2.5,5.9,3.4
	c0.3,0.5,0.6,0.9,0.9,1.5c-0.7-0.1-0.9-0.8-1.3-1.1c-1.2-0.2-2.4,0.2-3.4,0.6c0.5,0.2,1.9-0.4,2,0.6c-1.8-0.4-2.7-0.2-3.8-1
	c-1.7-1.2-1.3-3.6-2.9-4.8c-0.6,0.4-1.8,0.1-2.1-0.6c1.9-0.2,2.6-0.8,4.1-0.4C121.5,22.7,122.3,26,125.5,24.2z M121.2,27.3
	c-0.1-0.8-0.8-0.9-1.2-1.3C120.1,26.8,120.6,27.1,121.2,27.3z M101.3,22.1c0.2,0.1,0.2,0.5,0.5,0.5c-0.2,0.5-0.3-0.1-0.7,0
	C101.2,22.4,101.3,22.3,101.3,22.1L101.3,22.1z"/>
<path class="st0" d="M113.6,22.7c2.2,0.4,2.5,3.6,2.8,6.2c-0.2,0.2-0.5,0.3-0.9,0.4C115.7,26.6,114.9,24.2,113.6,22.7L113.6,22.7z
	 M97.3,22.8c0.1,0,0.1,0,0.1,0.1h0.2c-0.3,0.6-0.6,1.2-0.9,1.7C96.2,24.2,97.3,23.4,97.3,22.8L97.3,22.8z M106.2,22.9
	c0.7,0.2,1.6,0.3,1.7,1.1C107.3,23.7,106.2,23.9,106.2,22.9z M99.9,24.2c-0.6,2-2.2,3.1-2.9,5c-0.3-0.2-0.6-0.3-0.9-0.6
	c0-0.9,0.8-2.1,1.2-3.3c0.3-0.8,0.1-1.9,1.2-2C99.1,23.5,99.1,24.2,99.9,24.2L99.9,24.2z M102.6,24c-0.3,1.3-1,2.3-1.6,3.4
	c-0.6-0.1-1.3-0.2-2.1-0.1c0.6-1.3,1.6-2.3,2.3-3.5C101.9,23.7,101.9,24.4,102.6,24L102.6,24z M106,23.9c0.9,0.2,1.9,0.3,2,1.3
	c-0.9-0.1-1.2-0.6-2.1-0.7C105.8,24.2,106,24.2,106,23.9L106,23.9z M108.3,24c1,0.7,2.1,1.4,2.3,2.9C110,25.9,108.8,25.3,108.3,24z
	 M91.7,25.9c0,0.3,0.2,0.4,0.1,0.7c1.1,0.1,1.8,0.3,2.4,0.4c-0.3,1.5-1.7,0.6-3.1,1.1c0-0.4,0.3-0.4,0.2-0.7
	c-0.7-0.2-1.4-1.2-2.6-1.3c-0.2,0.7,1.1,0.8,1.6,1.2v1c-0.3,0.2-0.9,0.2-0.9,0.7c-0.5-0.3-1.1-0.1-1.6,0c-1.9,0.3-3.5-1-4.9-0.6
	c0.7,1.2,1.4,2.3,2.8,2.8c0,0.3-0.4,0.3-0.4,0.6c0.5,0.4,0.9-0.1,1-0.5h1.3c0.4,0.6,1,1,1.1,2c-0.7,0.1-1.3,0.4-2.1,0.5
	C86.1,33,85,32.6,84,32.1C83.4,30,80,28.3,81.8,26c2.4,0.4,4.8-1,6.8-0.1c0.2-0.7-1.4-0.8-2-0.9C88.7,23.9,89.5,26.1,91.7,25.9z
	 M88.5,28.3c-1.7-0.5-3.6-0.9-5.4-1.3C84.3,28.1,86.3,28.3,88.5,28.3z M82.1,27.7c0.4,0,0.7-0.2,0.7-0.5
	C82.5,26.9,82,27.2,82.1,27.7z M84.1,30.5c-0.2-0.7-0.7-1.2-1.2-1.6C82.8,29.5,83.7,30.1,84.1,30.5z M87.7,33.1
	c0.3-0.2-0.1-0.7-0.1-1h-0.4C87.4,32.4,87.2,33.1,87.7,33.1z"/>
<path class="st0" d="M114.5,25.3c-0.3,0.1-0.8,0.1-1.3,0.2C113,24.8,114.7,24.4,114.5,25.3z M105.6,25c0.8,0.3,2,0.3,2.1,1.3
	c-0.7-0.2-1.3-0.7-2.2-0.7C105.4,25.3,105.7,25.4,105.6,25z M110.5,27.8c-0.8-0.8-1.8-1.4-2.2-2.6C109.3,25.4,110.1,26.8,110.5,27.8
	z M96.2,25.3c0.2,0,0.2,0.1,0.4,0.1c0.1,0.4-0.2,0.5-0.2,0.7c-0.2,0-0.2-0.2-0.4-0.2C96,25.6,96.2,25.6,96.2,25.3L96.2,25.3z
	 M112.6,25.4c0.1,0,0.1,0.1,0.1,0.2c-0.5,0.5-1,1-1.6,1.3C111.4,26.2,112.1,25.9,112.6,25.4z M127.1,27.6c-1.1-0.9-2.3-1.7-4.3-1.7
	C124.7,24.7,126.7,25.9,127.1,27.6z M114.8,26c-0.2,0.5-0.9,0.4-1.5,0.5C113.2,25.8,114.4,25.8,114.8,26z M105.3,26
	c0.9,0.4,2.3,0.2,2.3,1.5c-0.7,0.1-1.3-0.9-2.4-0.9C105.1,26.3,105.2,26.1,105.3,26L105.3,26z M108.2,26.2c1,0.5,1.5,1.5,2.3,2.3
	c-0.7,0.3-1.4-1.5-2.3-1.8V26.2L108.2,26.2z M112.9,26.4c-0.2,0.9-1.5,0.8-1.8,1.6C111.1,27.4,112.3,26.2,112.9,26.4z M95.7,26.5
	c0.2,0,0.2,0.1,0.4,0.1c-0.3,1.1-0.5,2.2-0.9,3.2c-0.3-0.2-0.6-0.3-1-0.4C94.6,28.3,95.2,27.5,95.7,26.5z M115,27.1
	c-0.4,0.1-1.2,0.4-1.6,0.1C113.5,26.8,115,26.4,115,27.1z M107.3,28c0,0.7-0.2,1.1-0.5,1.6c-0.7-0.5-1.3-1-2.7-0.9
	C104.1,26.4,106.2,27.1,107.3,28z M108.1,27.3c1,0.5,1.8,1.3,2.3,2.3C109.7,28.8,108.3,28.7,108.1,27.3z M113.1,27.3
	c-0.5,0.7-1.4,0.9-2.2,1.3C111.4,28,112.1,27.6,113.1,27.3z M94.5,27.6c0,0.3,0,0.5-0.4,0.5C93.9,27.9,94.2,27.6,94.5,27.6z
	 M115.1,27.7c-0.1,0.6-1.2,0.3-1.7,0.5C113.5,27.5,114.4,27.7,115.1,27.7z M100.7,28c0.2,0.3-0.1,0.5,0.2,0.7c1.3-0.3,1.7,0.6,2.6,1
	c-1.8,0.3-4.4,1-5.9-0.1c0.5,0.2,1.7-0.2,2.2,0.2c0.2,0,0.2-0.2,0.4-0.2c-0.2-0.9-1.6-0.1-2.6-0.4C97.9,27.9,99.2,27.8,100.7,28z
	 M113.1,28.2c-0.5,0.6-1.7,1.2-2.2,1.3C111.4,28.9,112,28.3,113.1,28.2z M94.1,28.4c-0.2,1.7-2,0-3.3,0.2
	C91.6,28.1,93.1,28.3,94.1,28.4z M107.8,28.3c1,0.5,2,1.2,2.6,2.2c-1-0.1-1.6-1.3-2.9-0.7C107.4,29.1,107.7,28.9,107.8,28.3z
	 M113.7,28.6h1.5v1c-1.1,0-1.4,0.8-2,1.3c-0.5-0.6-1.9-0.5-2.4-0.4c0.4-0.9,1.4-1.2,2.3-1.6c0.1,0.6-0.2,0.9-0.1,1.5
	C113.7,30.3,113.4,29.1,113.7,28.6z M95.7,29.2c0.6-0.1,0.7,0.3,1.2,0.4c0.1,0.5-0.2,0.6-0.4,0.9c-0.4-0.1-0.6-0.4-1-0.5
	C95.6,29.6,95.8,29.5,95.7,29.2z M104.8,29.4c-0.1,0.1-1,0.5-1,0C104.2,29.2,104.3,29.4,104.8,29.4z M117.9,30.9
	c-0.9,0-1.5-0.3-2-0.7C116.5,29.5,117.7,30,117.9,30.9z M105.5,30.1c1,0.1,2.5,0.3,2.1,1.3c-0.6,0.1-0.4-0.7-0.7-0.9
	C106.5,30.3,105.4,30.8,105.5,30.1L105.5,30.1z"/>
<path class="st0" d="M107.8,30.1c0.8,0.4,1.5,0.9,2.3,1.3c1-0.2,2.3-0.5,3.1,0.1c0.7-0.3,1.1-1.2,2-1.2c0.6,0,1.6,0.8,2.6,0.9
	c0.4,0,1.1-0.2,1.3-0.1c1.7,0.5,2.1,5.4,3.7,6.3c0,0.4-0.3,0.8,0,1.1c0.9,0,0.7-0.7,1.5-0.7c1,0,1.3,1.3,1.2,2.3
	c-0.6,0.1-1.3,0.3-1.6-0.4c-0.4-0.1-0.1,0.7-0.4,0.7c-0.6,0-0.9-0.2-0.9-0.9c-0.4-0.1-0.6-0.4-0.7-0.9c-0.4-0.1-0.5,0-1-0.2
	c-0.6-1.9-1.4-3.7-2.7-5C113.7,33.9,108.5,33.6,107.8,30.1L107.8,30.1z M120.9,35.8c-0.4-0.6-0.4-1.5-1-1.8
	C120.1,34.6,120.4,35.3,120.9,35.8z M121.7,37.8c-0.1-0.8-0.3-1.6-0.9-2C121,36.7,121.2,37.5,121.7,37.8z"/>
<path class="st0" d="M118.3,34.3c0.1,1.4,0.5,2.6,0.9,3.4c0.4,0.1,0.4-0.2,0.9-0.1c-0.1,1.5,1.6,1.3,1.1,2.9c-0.8,0-1.3-0.7-1.3-1.2
	c-0.4-0.1-0.3,0.4-0.7,0.4c-0.4-0.5-0.7-1.7-1.6-1.5c-0.4-1.3-0.3-2.5-0.6-4C117.3,33.9,117.9,34.3,118.3,34.3L118.3,34.3z
	 M117.9,36.3c0-0.4,0-0.9-0.4-0.9C117.6,35.8,117.7,36.1,117.9,36.3z M99.9,7.7c0.5-0.3,1.2,0.2,1.3,0.7
	C100.8,8.2,100.7,7.6,99.9,7.7z M91,9.8c0.2-0.4,0.2-1.1,0.4-1.6c1.1,0.1,0.1,0.9,0.2,1.7c0.6-0.1,0.3-1.1,1-1.1
	c0.5,0.5-0.2,1.2-0.5,1.7C91.7,10.3,91.5,9.8,91,9.8L91,9.8z M101,9.2V8.9c-0.7,3.2-2.6,7.3-6,8.7C98.2,16,99.5,12.5,101,9.2
	L101,9.2z M95.9,22.9c-0.3-0.4-0.7,0.1-1,0.1c0.1-0.5,0.5-0.5,0.2-1c-0.5-0.1-0.2,0.6-0.7,0.5c0.1-0.4-0.2-0.5-0.4-0.7
	c-0.6,0.4,0.3,0.9,0.2,1.6c-0.6-0.1-0.4-1.1-1-1.2c-0.3,0.6,0.3,1.2,0.6,1.6c-0.6,0.4-0.5-1.2-1.2-1.1c-0.4,0.8,1.1,1.4,0.7,2.2
	c-0.6-0.3-0.6-1.2-1.2-1.5c-0.2,0.8,0.6,1.5,1,2.1c-0.7,0.1-1.4-0.1-1.8-0.7c-1.3,0.3-1.3-1-2.7-0.5c0.2-0.7,1.5-0.2,1.8-0.9
	c-0.4-0.3-1,0.2-1.6,0.1c0.4-0.5,1.4-0.4,2-0.7c-0.3-0.6-1,0.1-1.6,0c0.4-0.5,1.5-0.3,1.8-0.9c-0.2-0.3-0.7,0.1-1.1,0.1
	c0.1-0.5,0.9-0.2,1.1-0.6c0-0.5-0.5-0.1-0.7-0.1c0.1-0.2,0.4-0.4,0.1-0.6C90.2,20.8,90,21,90,21.2c-0.4,0-0.3-0.5-0.6-0.5
	c-0.2,0.6,0.4,0.8,0.1,1.2c-0.4-0.2-0.4-0.8-0.7-1c-0.4,0.5,0.6,1.1,0.2,1.5c-0.5-0.1-0.4-0.9-1-1c-0.2,0.5,0.4,1.1,0.6,1.6
	c-0.5,0.3-0.6-0.9-1.2-0.9c-0.3,0.7,1.1,1.3,0.4,2.1c-0.8,0.1-1.5-0.2-2.6,0C85,25,85.9,24.5,85.8,25c-2.1,0.8-5.6-0.4-5.5,2.4
	c0,1.1,1,1.6,1.6,2.4c0.1,0.3-0.1,0.3-0.1,0.5c1.2,0.4,1.1,2.1,2.4,2.3c-0.9,1.3-2.5-0.2-2.7-1.2c-0.2,0-0.5-0.1-0.5,0.1
	c-0.9-0.7-0.8-2.9-1.1-4.4c-0.2-1.2-0.5-2.1,0.5-2.9c1.9,0.1,3,0.7,4.1-0.1c1.1-0.8,1.4-2.6,2.4-3.5c1.9-0.3,3.6-0.4,5.2,0
	c-0.5,1.4-1.3,2.5-1.7,4c1.1-0.9,1.4-2.5,2.2-3.8c1.5,0.4,2.6,1.1,4,1.6c-0.5,1.5-1.1,2.9-1.7,4.3c-0.5-0.2-0.6-0.8-1.5-0.6
	c0.2-0.7,1.3-0.4,1.6-1c-0.4-0.4-0.8,0.3-1.3,0.1c0.4-0.5,1.3-0.4,1.6-1c-0.4-0.4-0.8,0.3-1.2,0.2c0.2-0.6,1.3-0.3,1.5-1
	c-0.4-0.4-0.8,0.4-1.2,0.4C94.6,23.3,95.7,23.5,95.9,22.9L95.9,22.9z M80.1,26c0.7,0.1,0.7-0.4,0.7-0.9C80.2,25,80.2,25.5,80.1,26z
	 M108.3,3.7c0.3-0.1,0.2-0.8-0.1-0.7c0.8-0.3,2.3,0.3,1.5,1.5c-0.2,0.5,0.5,0,0.4,0.5c-1.9,1-3.2-0.4-3.9-1.6
	c-0.3,0.3,0.5,0.5,0.1,1c-0.5-0.1-0.8,0.1-1.2,0.1c-0.4-0.7-0.7-1.4-1.3-1.7c0,0.7,0.6,0.6,0.6,1.2c-1.6,1.1-2.5-1.7-4.5-1
	c0.2-0.7,1-0.8,2-0.7c0.7-0.5,2.1,0,2.7,0.4C106,2,106.9,3.3,108.3,3.7L108.3,3.7z M90.2,9.6c0.1,0.4-0.4,0.1-0.2,0.5
	c0.5,0.2,0.2-0.3,0.6-0.2c1.5,0.8,1.8,2.8,2.8,4.1c-2.1,0.7-3.3,2.3-5.2,3.2c-1.2-1.3,0.1-4.3-1.1-5.4c0.1-1.1-0.4-1.6-0.6-2.4
	C87.8,9.1,89,9.1,90.2,9.6L90.2,9.6z M86.9,9.6c0,0.3,0.2,0.4,0.5,0.4C87.4,9.7,87.2,9.4,86.9,9.6z M88.8,10.5c0-0.3,0-0.5-0.4-0.5
	C88.4,10.3,88.5,10.5,88.8,10.5z M89,10.7c0,0.3,0.2,0.4,0.5,0.4C89.5,10.6,89.4,10.6,89,10.7z M89.6,11.5c-0.1,0.4,0.3,0.2,0.5,0.2
	v-0.4C89.9,11.3,89.7,11.4,89.6,11.5L89.6,11.5z M89.3,12.3c-0.1,0.4,0.3,0.2,0.5,0.2v-0.4C89.5,12.2,89.4,12.2,89.3,12.3L89.3,12.3
	z M92.2,12.2h-0.5C91.6,12.7,92.3,12.7,92.2,12.2z M90.1,13.1c0.2,0,0.2,0.2,0.5,0.1v-0.4C90.3,12.8,90.1,12.8,90.1,13.1L90.1,13.1z
	 M89.8,13.1h-0.5C89.2,13.5,89.8,13.5,89.8,13.1z M88.4,13.3v0.2c0.1,0,0.1,0,0.1,0.1h0.2c0-0.1,0-0.1,0.1-0.1v-0.2
	c-0.1,0-0.1,0-0.1-0.1h-0.2C88.5,13.3,88.5,13.3,88.4,13.3L88.4,13.3z M90.7,13.9h0.5c0-0.3,0-0.5-0.4-0.5
	C90.8,13.6,90.7,13.7,90.7,13.9z M88.7,14.5c0.3,0,0.4-0.2,0.5-0.4c-0.2,0-0.2-0.2-0.5-0.1V14.5z M90.2,14.5c0.2,0,0.2,0.2,0.5,0.1
	v-0.4C90.5,14.2,90.3,14.3,90.2,14.5L90.2,14.5z M91.1,14.5c0.2,0,0.2,0.2,0.5,0.1v-0.4C91.3,14.2,91.1,14.3,91.1,14.5L91.1,14.5z
	 M89.3,14.8V15c0.1,0,0.1,0,0.1,0.1h0.2c0-0.1,0-0.1,0.1-0.1v-0.2c-0.1,0-0.1,0-0.1-0.1h-0.2C89.4,14.7,89.4,14.8,89.3,14.8
	L89.3,14.8z M88,15.4c0.3,0,0.5,0,0.5-0.4C88.2,15,88,15.1,88,15.4z M101.8,16.1v0.4c0.1,0.5-0.3-0.1-0.5,0.2c0.3,0.6,0.8,1,1.3,1.3
	c-0.9,0.6-1.4,1.7-2,2.7c-0.9-0.7-1.8,0.2-2.3,0.6c0.3-0.6,0.4-0.9,0.1-1.5c0.1-1.7,1.8-1.7,2.9-2.3c-0.4-0.2-1.2,0.1-1.5,0.4
	C100.3,17.5,101.1,16.5,101.8,16.1L101.8,16.1z M99.9,18.7c0-0.3,0.7,0.1,0.5-0.4C100,18.2,99.5,18.5,99.9,18.7z"/>
<path class="st0" d="M100.9,21.4c-0.1,0.8-0.3,1.6-0.5,2.6c-0.8-0.1-1.4-0.5-1.7-1.2c-0.4,0-0.5,0.2-0.9,0c-0.1-0.4-0.1-0.2,0-0.6
	C99.2,22.1,99.5,20.4,100.9,21.4z M100.5,21.4h-1C99.4,21.9,100.6,21.9,100.5,21.4z M100.4,23.6c0-0.6-0.8-0.3-1-0.6
	C99.5,23.4,99.8,23.6,100.4,23.6z M22,54.3v-0.5h0.7c0.4,0,0.7-0.1,0.9-0.2c0.2-0.1,0.3-0.3,0.3-0.6c0-0.3,0.1-0.8,0.1-1.6v-5.4
	c0-0.8,0-1.3-0.1-1.6c0-0.3-0.1-0.5-0.3-0.6c-0.2-0.1-0.5-0.2-0.9-0.2H22V43h9.3c1,0,2,0.1,2.9,0.2c0.9,0.2,1.7,0.4,2.3,0.8
	c0.6,0.4,0.9,0.9,0.9,1.6c0,0.5-0.2,0.9-0.7,1.3s-1,0.7-1.8,0.9s-1.5,0.4-2.3,0.4v0c0.9,0,1.7,0.1,2.5,0.4s1.5,0.5,2,1
	c0.5,0.4,0.8,0.9,0.8,1.4c0,2.1-2.6,3.2-7.8,3.2L22,54.3L22,54.3z M28,43.6v4.5h1.8c1.2,0,2.1-0.2,2.6-0.6c0.6-0.4,0.9-1,0.9-1.7
	c0-0.4-0.1-0.8-0.3-1.1c-0.2-0.3-0.6-0.6-1.1-0.8c-0.5-0.2-1.2-0.3-2.1-0.3L28,43.6L28,43.6z M28,48.6v5.1h1.9
	c1.3,0,2.2-0.2,2.9-0.5c0.7-0.3,1-1,1-1.8c0-1-0.3-1.7-0.9-2.1c-0.6-0.4-1.6-0.6-3-0.6H28z M59.7,43v0.5H59c-0.4,0-0.7,0.1-0.9,0.2
	c-0.2,0.1-0.3,0.3-0.3,0.6c0,0.3-0.1,0.8-0.1,1.6v4.7c0,1.2-0.6,2.1-1.8,2.8c-1.2,0.7-2.8,1-4.9,1c-2.4,0-4.2-0.4-5.5-1.1
	c-1.3-0.7-1.9-1.7-1.9-2.9v-4.7c0-0.8,0-1.3-0.1-1.6c0-0.3-0.1-0.5-0.3-0.6c-0.2-0.1-0.5-0.2-0.9-0.2h-0.7V43h8v0.5h-0.7
	c-0.4,0-0.7,0.1-0.9,0.2c-0.2,0.1-0.3,0.3-0.3,0.6c0,0.3-0.1,0.8-0.1,1.6v5c0,0.7,0.2,1.2,0.5,1.7c0.4,0.4,0.9,0.7,1.5,0.9
	c0.6,0.2,1.3,0.3,2.1,0.3c1.3,0,2.4-0.3,3.3-0.9s1.3-1.4,1.3-2.5v-4.5c0-0.6,0-1,0-1.3c0-0.3-0.1-0.5-0.1-0.7
	c-0.1-0.2-0.2-0.3-0.4-0.4c-0.2-0.1-0.4-0.1-0.8-0.1h-0.7V43L59.7,43z M62.4,54.3v-0.5h0.7c0.4,0,0.7-0.1,0.9-0.2
	c0.2-0.1,0.3-0.3,0.3-0.6c0-0.3,0.1-0.8,0.1-1.6v-5.4c0-0.8,0-1.3-0.1-1.6c0-0.3-0.1-0.5-0.3-0.6c-0.2-0.1-0.5-0.2-0.9-0.2h-0.7V43
	h9.1c1.2,0,2.3,0.1,3.3,0.3c1,0.2,1.7,0.5,2.2,0.9c0.5,0.4,0.8,0.9,0.8,1.5c0,0.7-0.4,1.3-1.3,1.8c-0.9,0.5-1.9,0.8-3.1,0.9v0
	c1.1,0.1,2,0.3,2.6,0.6c0.6,0.3,1,0.6,1.2,1c0.2,0.4,0.3,0.9,0.3,1.6c0,0.6,0,1.1,0.1,1.5c0.1,0.4,0.3,0.6,0.7,0.6
	c0.3,0,0.7-0.2,1.2-0.6l0.7,0.2c-0.3,0.4-0.7,0.7-1.3,0.9c-0.6,0.2-1.3,0.3-2,0.3c-1.4,0-2.3-0.3-2.7-1c-0.4-0.7-0.7-1.6-0.7-2.7
	c0-0.7-0.2-1.2-0.5-1.5c-0.4-0.4-1.1-0.5-2.2-0.5h-2.2v2.6c0,0.8,0,1.3,0.1,1.6c0,0.3,0.1,0.5,0.3,0.6c0.2,0.1,0.5,0.2,0.9,0.2h0.7
	v0.5L62.4,54.3L62.4,54.3z M68.5,43.6v4.6H70c2.4,0,3.6-0.8,3.6-2.3c0-0.5-0.2-1-0.5-1.3s-0.8-0.6-1.3-0.7c-0.6-0.1-1.2-0.2-1.9-0.2
	L68.5,43.6z M82.6,54.3v-0.5h0.7c0.4,0,0.7-0.1,0.9-0.2c0.2-0.1,0.3-0.3,0.3-0.6c0-0.3,0.1-0.8,0.1-1.6v-5.4c0-0.8,0-1.3-0.1-1.6
	c0-0.3-0.1-0.5-0.3-0.6c-0.2-0.1-0.5-0.2-0.9-0.2h-0.7V43h9.3c1,0,2,0.1,2.9,0.2c0.9,0.2,1.7,0.4,2.3,0.8c0.6,0.4,0.9,0.9,0.9,1.6
	c0,0.5-0.2,0.9-0.7,1.3s-1,0.7-1.8,0.9s-1.5,0.4-2.3,0.4v0c0.9,0,1.7,0.1,2.5,0.4c0.8,0.2,1.5,0.5,2,1c0.5,0.4,0.8,0.9,0.8,1.4
	c0,2.1-2.6,3.2-7.8,3.2L82.6,54.3L82.6,54.3z M88.7,43.6v4.5h1.8c1.2,0,2.1-0.2,2.6-0.6c0.6-0.4,0.9-1,0.9-1.7
	c0-0.4-0.1-0.8-0.3-1.1c-0.2-0.3-0.6-0.6-1.1-0.8c-0.5-0.2-1.2-0.3-2.1-0.3L88.7,43.6L88.7,43.6z M88.7,48.6v5.1h1.9
	c1.3,0,2.2-0.2,2.9-0.5c0.7-0.3,1-1,1-1.8c0-1-0.3-1.7-0.9-2.1c-0.6-0.4-1.6-0.6-3-0.6H88.7z M102.3,54.3v-0.5h0.7
	c0.4,0,0.7-0.1,0.9-0.2c0.2-0.1,0.3-0.3,0.3-0.6c0-0.3,0.1-0.8,0.1-1.6v-5.4c0-0.8,0-1.3-0.1-1.6c0-0.3-0.1-0.5-0.3-0.6
	c-0.2-0.1-0.5-0.2-0.9-0.2h-0.7V43H117v2.7h-1c-0.1-0.4-0.2-0.8-0.4-1.1c-0.2-0.3-0.5-0.5-0.9-0.7c-0.4-0.2-0.8-0.3-1.3-0.3
	c-0.5-0.1-1-0.1-1.6-0.1h-3.4v4.6h2.3c0.7,0,1.3,0,1.8-0.1c0.5-0.1,0.9-0.3,1.2-0.5c0.3-0.3,0.5-0.6,0.5-1.1h1v4h-1
	c0-0.7-0.3-1.1-0.9-1.4c-0.6-0.2-1.4-0.4-2.5-0.4h-2.3v5h3c1,0,1.8-0.1,2.5-0.2s1.3-0.3,1.7-0.7c0.4-0.3,0.7-0.8,0.7-1.4h1v2.8
	H102.3L102.3,54.3z M121.1,54.3v-0.5h0.7c0.4,0,0.7-0.1,0.9-0.2c0.2-0.1,0.3-0.3,0.3-0.6c0-0.3,0.1-0.8,0.1-1.6v-5.4
	c0-0.8,0-1.3-0.1-1.6c0-0.3-0.1-0.5-0.3-0.6c-0.2-0.1-0.5-0.2-0.9-0.2h-0.7V43h9.1c1.2,0,2.3,0.1,3.3,0.3c1,0.2,1.7,0.5,2.2,0.9
	c0.5,0.4,0.8,0.9,0.8,1.5c0,0.7-0.4,1.3-1.3,1.8c-0.9,0.5-1.9,0.8-3.1,0.9v0c1.1,0.1,2,0.3,2.6,0.6s1,0.6,1.2,1
	c0.2,0.4,0.3,0.9,0.3,1.6c0,0.6,0,1.1,0.1,1.5c0.1,0.4,0.3,0.6,0.7,0.6c0.3,0,0.7-0.2,1.2-0.6l0.7,0.2c-0.3,0.4-0.7,0.7-1.3,0.9
	c-0.6,0.2-1.3,0.3-2,0.3c-1.4,0-2.3-0.3-2.7-1c-0.4-0.7-0.7-1.6-0.7-2.7c0-0.7-0.2-1.2-0.5-1.5c-0.4-0.4-1.1-0.5-2.2-0.5h-2.2v2.6
	c0,0.8,0,1.3,0.1,1.6c0,0.3,0.1,0.5,0.3,0.6c0.2,0.1,0.5,0.2,0.9,0.2h0.7v0.5L121.1,54.3L121.1,54.3z M127.1,43.6v4.6h1.5
	c2.4,0,3.6-0.8,3.6-2.3c0-0.5-0.2-1-0.5-1.3c-0.3-0.3-0.8-0.6-1.3-0.7c-0.6-0.1-1.2-0.2-1.9-0.2L127.1,43.6L127.1,43.6z M141.3,54.3
	v-0.5h0.7c0.4,0,0.7-0.1,0.9-0.2c0.2-0.1,0.3-0.3,0.3-0.6c0-0.3,0.1-0.8,0.1-1.6v-5.4c0-0.8,0-1.3-0.1-1.6c0-0.3-0.1-0.5-0.3-0.6
	c-0.2-0.1-0.5-0.2-0.9-0.2h-0.7V43h9.1c1.2,0,2.3,0.1,3.3,0.3c1,0.2,1.7,0.5,2.2,0.9c0.5,0.4,0.8,0.9,0.8,1.5c0,0.7-0.4,1.3-1.3,1.8
	c-0.9,0.5-1.9,0.8-3.1,0.9v0c1.1,0.1,2,0.3,2.6,0.6s1,0.6,1.2,1c0.2,0.4,0.3,0.9,0.3,1.6c0,0.6,0,1.1,0.1,1.5
	c0.1,0.4,0.3,0.6,0.7,0.6c0.3,0,0.7-0.2,1.2-0.6l0.7,0.2c-0.3,0.4-0.7,0.7-1.3,0.9c-0.6,0.2-1.3,0.3-2,0.3c-1.4,0-2.3-0.3-2.7-1
	c-0.4-0.7-0.7-1.6-0.7-2.7c0-0.7-0.2-1.2-0.5-1.5c-0.4-0.4-1.1-0.5-2.2-0.5h-2.2v2.6c0,0.8,0,1.3,0.1,1.6c0,0.3,0.1,0.5,0.3,0.6
	c0.2,0.1,0.5,0.2,0.9,0.2h0.7v0.5L141.3,54.3L141.3,54.3z M147.3,43.6v4.6h1.5c2.4,0,3.6-0.8,3.6-2.3c0-0.5-0.2-1-0.5-1.3
	c-0.3-0.3-0.8-0.6-1.3-0.7c-0.6-0.1-1.2-0.2-1.9-0.2L147.3,43.6L147.3,43.6z M171.8,49.7v1.7c0,0.8,0,1.3,0.1,1.6
	c0,0.3,0.1,0.5,0.3,0.6c0.2,0.1,0.5,0.2,0.9,0.2h0.9v0.5h-8.4v-0.5h0.9c0.4,0,0.7-0.1,0.9-0.2c0.2-0.1,0.3-0.3,0.3-0.6
	c0-0.3,0.1-0.8,0.1-1.6v-1.5l-4.3-5c-0.5-0.5-0.9-0.9-1.3-1.1c-0.4-0.2-0.8-0.3-1.2-0.3h-0.3V43h8.7v0.5h-0.6
	c-0.9,0-1.3,0.1-1.3,0.4c0,0.1,0.1,0.3,0.2,0.5c0.1,0.2,0.3,0.4,0.5,0.6c0.2,0.2,0.3,0.4,0.4,0.4l3,3.5l3.4-4.1
	c0.2-0.2,0.3-0.5,0.3-0.8c0-0.3-0.5-0.5-1.5-0.5h-0.5V43h5.5v0.5h-0.5c-0.3,0-0.6,0.1-0.9,0.2s-0.5,0.3-0.7,0.5
	c-0.2,0.2-0.5,0.5-0.8,0.9L171.8,49.7L171.8,49.7z M73.4,62.9h2.3v0.2h-0.6c-0.1,0-0.2,0-0.2,0c0,0-0.1,0.1-0.1,0.2v2.8
	c0,0.1,0,0.1,0.1,0.1c0.1,0,0.2,0,0.3,0h0.7c0.4,0,0.7-0.1,0.9-0.3c0.2-0.2,0.4-0.5,0.5-0.9h0.2l-0.1,1.4h-4.2v-0.2h0.4
	c0.1,0,0.2,0,0.3-0.1c0.1,0,0.1-0.1,0.1-0.2v-2.8c0-0.1,0-0.1-0.1-0.1c0,0-0.1,0-0.2,0h-0.5V62.9L73.4,62.9z M84.9,62.8
	c0.4,0,0.8,0.1,1.2,0.2c0.4,0.2,0.7,0.4,0.9,0.7c0.2,0.3,0.3,0.6,0.3,1c0,0.4-0.1,0.7-0.3,1c-0.2,0.3-0.5,0.5-0.9,0.7
	s-0.8,0.2-1.2,0.2c-0.4,0-0.8-0.1-1.1-0.2c-0.4-0.2-0.6-0.4-0.9-0.7c-0.2-0.3-0.3-0.6-0.3-1c0-0.3,0.1-0.7,0.3-0.9
	c0.2-0.3,0.5-0.5,0.9-0.7C84.2,62.9,84.6,62.8,84.9,62.8L84.9,62.8z M85,63c-0.4,0-0.8,0.1-1.1,0.4c-0.3,0.3-0.4,0.7-0.4,1.3
	c0,0.6,0.1,1.1,0.4,1.3c0.3,0.2,0.6,0.4,1,0.4c0.3,0,0.5-0.1,0.8-0.2c0.2-0.1,0.4-0.3,0.5-0.5c0.1-0.2,0.2-0.6,0.2-0.9
	c0-0.4-0.1-0.8-0.2-1c-0.1-0.2-0.3-0.4-0.5-0.5C85.5,63,85.3,63,85,63L85,63z M92.5,62.9h1.2l3,2.8v-2c0-0.2-0.1-0.4-0.2-0.5
	c-0.1-0.1-0.3-0.1-0.5-0.1v-0.2h1.7V63c-0.2,0-0.3,0-0.4,0.1c-0.1,0-0.2,0.1-0.2,0.2C97,63.4,97,63.5,97,63.6v2.8h-0.3l-3.1-2.9v2.1
	c0,0.2,0.1,0.3,0.2,0.4c0.1,0.1,0.4,0.1,0.6,0.1v0.2h-1.9v-0.2c0.2,0,0.4-0.1,0.6-0.2c0.1-0.1,0.2-0.2,0.2-0.4v-2.4l-0.1,0
	c-0.1-0.1-0.2-0.1-0.2-0.2c-0.1,0-0.1,0-0.3,0h-0.2L92.5,62.9L92.5,62.9z M102.7,62.9h2.6c0.4,0,0.7,0,1,0.1
	c0.3,0.1,0.6,0.3,0.9,0.6c0.2,0.3,0.4,0.6,0.4,1c0,0.3-0.1,0.6-0.2,0.9c-0.1,0.2-0.3,0.4-0.5,0.5c-0.2,0.1-0.5,0.3-0.8,0.3
	c-0.2,0.1-0.6,0.1-0.9,0.1h-2.3v-0.2h0.5c0.1,0,0.2,0,0.2,0c0,0,0.1-0.1,0.1-0.1v-2.8c0,0,0-0.1-0.1-0.1c0,0-0.1,0-0.2,0h-0.5
	L102.7,62.9L102.7,62.9z M104.5,63.1c-0.1,0-0.2,0-0.2,0c0,0-0.1,0.1-0.1,0.1v2.8c0,0.1,0,0.1,0.1,0.1c0.1,0,0.2,0,0.3,0h0.4
	c0.4,0,0.7-0.1,1-0.2c0.2-0.1,0.3-0.2,0.4-0.4c0.1-0.2,0.2-0.5,0.2-0.9c0-0.6-0.1-1-0.4-1.3c-0.2-0.2-0.6-0.3-1.1-0.3L104.5,63.1
	L104.5,63.1L104.5,63.1z M115,62.8c0.4,0,0.8,0.1,1.2,0.2c0.4,0.2,0.7,0.4,0.9,0.7c0.2,0.3,0.3,0.6,0.3,1c0,0.4-0.1,0.7-0.3,1
	c-0.2,0.3-0.5,0.5-0.9,0.7s-0.8,0.2-1.2,0.2c-0.4,0-0.8-0.1-1.1-0.2s-0.6-0.4-0.9-0.7c-0.2-0.3-0.3-0.6-0.3-1c0-0.3,0.1-0.7,0.3-0.9
	c0.2-0.3,0.5-0.5,0.9-0.7C114.3,62.9,114.6,62.8,115,62.8L115,62.8z M115.1,63c-0.4,0-0.8,0.1-1.1,0.4c-0.3,0.3-0.4,0.7-0.4,1.3
	c0,0.6,0.1,1.1,0.4,1.3s0.6,0.4,1,0.4c0.3,0,0.5-0.1,0.8-0.2c0.2-0.1,0.4-0.3,0.5-0.5c0.1-0.2,0.2-0.6,0.2-0.9c0-0.4-0.1-0.8-0.2-1
	c-0.1-0.2-0.3-0.4-0.5-0.5C115.6,63,115.3,63,115.1,63L115.1,63z M122.6,62.9h1.2l3,2.8v-2c0-0.2-0.1-0.4-0.2-0.5
	c-0.1-0.1-0.3-0.1-0.5-0.1v-0.2h1.7V63c-0.2,0-0.3,0-0.4,0.1c-0.1,0-0.2,0.1-0.2,0.2c-0.1,0.1-0.1,0.2-0.1,0.3v2.8h-0.3l-3.1-2.9
	v2.1c0,0.2,0.1,0.3,0.2,0.4c0.1,0.1,0.4,0.1,0.6,0.1v0.2h-1.9v-0.2c0.2,0,0.4-0.1,0.6-0.2c0.1-0.1,0.2-0.2,0.2-0.4v-2.4l-0.1,0
	c-0.1-0.1-0.2-0.1-0.2-0.2c-0.1,0-0.1,0-0.3,0h-0.2L122.6,62.9L122.6,62.9z"/>
</svg>
