<?xml version="1.0" encoding="utf-8"?>
<!-- Generator: Adobe Illustrator 23.0.3, SVG Export Plug-In . SVG Version: 6.00 Build 0)  -->
<svg version="1.1" id="Layer_1" xmlns="http://www.w3.org/2000/svg" xmlns:xlink="http://www.w3.org/1999/xlink" x="0px" y="0px"
	 viewBox="0 0 200.4 66.5" style="enable-background:new 0 0 200.4 66.5;" xml:space="preserve">
<style type="text/css">
	.st0{fill:#8C98A4;}
</style>
<path class="st0" d="M44,59v-7.5h10.5v2.8h-7.2v3.5h6.3v2.6h-6.3v6.1H44V59z M55.8,59v-7.5l4.7,0.1c5.1,0.1,5.3,0.1,6.5,1.1
	c0.9,0.8,1.3,1.8,1.3,3.1c0,1.5-0.5,2.5-1.5,3.2L66,59.5l0.5,0.3c0.9,0.4,1.3,1.4,1.5,3.3c0.1,0.9,0.3,2.1,0.4,2.5l0.2,0.9H67
	c-1.3,0-1.6,0-1.7-0.3c-0.1-0.1-0.2-1-0.3-1.8c-0.2-2.1-0.4-2.7-0.9-3.2c-0.4-0.4-0.6-0.4-2.7-0.5l-2.3-0.1v5.8h-3.3V59z"/>
<path class="st0" d="M64.1,58c0.6-0.3,0.9-0.8,0.9-1.8c0-0.9-0.4-1.5-1.1-1.9c-0.3-0.1-1.2-0.2-2.6-0.2l-2.2,0v4.1h2.2
	C63,58.3,63.7,58.2,64.1,58L64.1,58z"/>
<path class="st0" d="M70,59v-7.5h11.2v2.8h-7.9v3.3h7.2v2.5h-7.2v3.6h8.1v2.8H70V59z M82.5,59v-7.5l4,0.1c4.5,0.1,5,0.2,6.5,1.2
	c1,0.7,1.8,1.7,2.3,3c0.3,0.8,0.4,1.3,0.4,3.2c0,2,0,2.4-0.4,3.3c-0.6,1.4-1.3,2.4-2.3,3.1c-1.4,1-2.3,1.1-6.6,1.1h-3.8V59z"/>
<path class="st0" d="M90.7,63.1c0.4-0.3,0.9-0.8,1.1-1.3c0.4-0.7,0.4-1,0.4-2.7c0-1.7-0.1-2-0.4-2.7c-0.7-1.5-2-2.1-4.7-2.1h-1.4
	v9.4l2.1-0.1C90,63.6,90.1,63.6,90.7,63.1L90.7,63.1z"/>
<path class="st0" d="M99.9,59v-7.5l4.1,0.1c3.3,0.1,4.2,0.1,4.8,0.4c2.1,0.8,3.3,3.1,2.8,5.6c-0.3,1.4-1,2.4-2.3,3.1
	c-1.1,0.5-1.2,0.6-3.6,0.6l-2.5,0.1v5.2h-3.3V59z"/>
<path class="st0" d="M107.6,58.2c0.6-0.4,0.9-1,0.9-1.9c0-1.6-0.9-2.2-3.6-2.2h-1.7v4.5l1.9-0.1C106.7,58.5,107.2,58.4,107.6,58.2
	L107.6,58.2z"/>
<path class="st0" d="M112.8,59v-7.5H124v2.8h-7.9l0,1.6l0,1.6l3.6,0l3.6,0v2.5h-7.2v3.6h8.1v2.8h-11.4L112.8,59L112.8,59z M125.5,59
	v-7.5l4.6,0.1l4.6,0.1l1,0.5c1.2,0.6,1.8,1.5,2.1,2.8c0.4,1.8-0.3,3.5-1.6,4.3l-0.6,0.3l0.5,0.2c1.1,0.5,1.5,1.4,1.7,3.9
	c0.1,1,0.2,2.1,0.3,2.3c0.1,0.3,0.2,0.5,0.2,0.5s-0.7,0.1-1.6,0.1h-1.6l-0.1-0.5c-0.1-0.2-0.2-1.2-0.3-2.1c-0.2-1.7-0.4-2.4-1.1-2.9
	c-0.4-0.3-0.7-0.3-2.6-0.3h-2.2v5.8h-3.1V59L125.5,59z"/>
<path class="st0" d="M134,57.7c0.9-1,0.7-2.8-0.4-3.3c-0.5-0.2-1-0.3-2.8-0.3l-2.2,0v4.1l2.5-0.1C133.6,58.2,133.6,58.2,134,57.7z"
	/>
<path class="st0" d="M139.5,59v-7.5l4.7,0.1c5.1,0.1,5.3,0.1,6.5,1.1c0.9,0.8,1.2,1.6,1.2,3.1c0,1.6-0.4,2.5-1.4,3.2l-0.7,0.5
	l0.5,0.3c0.9,0.5,1.3,1.4,1.5,3.7c0.1,1.2,0.3,2.3,0.4,2.5l0.2,0.5H149l-0.2-0.6c-0.1-0.3-0.2-1.2-0.3-1.8c-0.1-1.6-0.4-2.4-0.9-2.8
	c-0.4-0.3-0.6-0.4-2.7-0.4l-2.3-0.1v5.8h-3.3V59z"/>
<path class="st0" d="M147.7,58c0.9-0.5,1.2-2.2,0.6-3c-0.5-0.7-1-0.8-3.3-0.8l-2.2,0v4.1h2.2C146.6,58.3,147.4,58.2,147.7,58z"/>
<path class="st0" d="M157.3,63.7v-2.8l-2.7-4.5c-1.5-2.5-2.8-4.6-2.8-4.7c0-0.1,0.8-0.1,1.8-0.1h1.9l1.7,2.9
	c0.9,1.6,1.8,2.9,1.8,2.9c0.1,0,0.9-1.3,1.8-2.8l1.7-2.8l1.8,0c1,0,1.8,0,1.8,0s-1.3,2.2-2.8,4.7l-2.8,4.7v5.6h-3.1V63.7z"/>
<path class="st0" d="M73,46.4c-0.2-0.2-0.9-1-1.4-1.8c-0.5-0.8-1.1-1.5-1.4-1.6c-0.4-0.2-0.5-0.2-1.1,0.3c-0.4,0.3-1.1,1.1-1.6,1.8
	c-0.9,1.2-1.2,1.4-1.7,1.1c-0.3-0.2,0.1-0.8,1.8-2.3c1.8-1.6,1.7-1.9-0.1-1c-1.8,0.8-3,1.1-5.2,1.2c-1.8,0.1-2.8-0.1-2.8-0.4
	c0-0.1,0.5-0.4,1.1-0.7c2.4-1.3,5.9-1.6,8.2-0.9l1.1,0.4l0.7-0.4c1.4-0.7,3.1-0.9,5.2-0.7c2.2,0.2,5.2,1.3,5.4,1.9
	c0.2,0.5-2.3,0.8-4.5,0.5c-1.5-0.2-2.6-0.5-5-1.4c-0.5-0.2-0.8-0.2-1-0.1c-0.3,0.2-0.2,0.3,1.1,1.8c0.8,0.9,1.5,1.7,1.7,1.7
	c0.3,0.2,0.3,0.5,0,0.8C73.5,46.7,73.4,46.7,73,46.4L73,46.4z"/>
<path class="st0" d="M55.7,41.9c-0.5-0.1-1-0.3-1.2-0.4l-0.4-0.2l0.4-0.4c1.5-1.2,6.8-1.7,8.9-0.7l0.8,0.4l-0.5,0.3
	C62.1,41.9,58,42.5,55.7,41.9L55.7,41.9z"/>
<path class="st0" d="M67.6,41.2c-2.8-0.9-6.7-4.3-6.7-5.8c0-0.4,0-0.4,0.6-0.3c0.7,0.1,2.5,1,3.3,1.6c1.6,1.2,3.1,3,3.6,4.3
	C68.7,41.5,68.6,41.6,67.6,41.2z"/>
<path class="st0" d="M79.2,41.1c-0.9-0.2-2.2-0.6-2.8-0.9L76,40l0.9-0.4c1.6-0.8,4.2-1,6.6-0.5c1.2,0.2,2.6,0.8,2.6,1.1
	c0,0.2-1.3,0.8-2.3,1C82.8,41.3,80.3,41.3,79.2,41.1L79.2,41.1z"/>
<path class="st0" d="M71.2,40.7c0.6-1.7,3-3.9,5.5-5.1c1.2-0.6,2.5-0.8,2.5-0.4c0,0.8-1.7,2.7-3.3,3.8c-1.3,0.9-3.2,1.7-4,1.9
	C71.2,41,71.1,41,71.2,40.7L71.2,40.7z"/>
<path class="st0" d="M54.3,38.8c-2.1-0.3-4.7-1.4-4.9-2.1c-0.1-0.3,0.5-0.5,1.7-0.7c1-0.1,3.5,0.2,5.1,0.7c1.2,0.4,2.9,1.3,2.9,1.6
	C59,38.8,56.1,39.1,54.3,38.8L54.3,38.8z"/>
<path class="st0" d="M81.9,38.2c-0.8-0.1-0.8-0.3,0-0.9c1.8-1.3,4.8-2.2,7.2-2.1c1.6,0.1,2,0.3,1.4,0.9c-1,1.1-4,2.1-6.5,2.2
	C83.2,38.3,82.2,38.3,81.9,38.2L81.9,38.2z"/>
<path class="st0" d="M59.4,37.4c-1.1-0.8-2.4-2.4-3.3-4.3c-0.7-1.3-0.8-1.9-0.9-2.8c0-0.6,0-1.1,0-1.1c0.7,0,2.6,1.9,3.5,3.6
	c0.9,1.5,1.5,3.5,1.5,4.4l0,0.7L59.4,37.4L59.4,37.4z"/>
<path class="st0" d="M79.9,37.4c0-1.4,0.9-3.7,2.1-5.6c0.7-1.1,2.4-2.7,2.8-2.7c0.4,0,0.2,1.8-0.4,3.1c-0.9,2.1-2.9,4.8-4.2,5.4
	C79.9,37.8,79.9,37.8,79.9,37.4z"/>
<path class="st0" d="M55,35.8c-1.9-0.7-3.9-2-5.2-3.5c-0.8-0.9-1.2-1.8-1-2c0.2-0.2,2,0.3,3.3,1.1c1.5,0.9,3.5,2.7,4.1,3.8
	c0.3,0.5,0.5,0.9,0.5,1C56.6,36.3,56.1,36.2,55,35.8z"/>
<path class="st0" d="M84.4,34.7c0.7-2.2,4.6-5.6,7-6c0.7-0.1,0.7-0.1,0.6,0.3c-0.4,1.3-1.6,2.8-3.3,4c-1.2,0.9-2.9,1.8-3.8,2
	C84.3,35.1,84.3,35.1,84.4,34.7L84.4,34.7z"/>
<path class="st0" d="M53.5,31c-1.3-1.9-2-4.5-2-7c0.1-1.8,0.2-2.2,0.8-1.7c0.5,0.5,1.6,2.8,1.9,4.2c0.3,1.4,0.3,4.7,0,5.1
	C54.1,31.7,53.9,31.6,53.5,31z"/>
<path class="st0" d="M85.8,30c-0.3-0.9-0.3-4.3,0.1-5.6c0.4-1.6,1.4-3.5,1.7-3.4c1,0.2,0.8,5-0.2,7.6c-0.3,0.8-1.1,2.1-1.2,2.1
	C86,30.6,85.9,30.3,85.8,30L85.8,30z"/>
<path class="st0" d="M50.3,29.6c-2.7-0.9-5.9-3.6-6.3-5.2c-0.1-0.5-0.1-0.5,0.6-0.4c1,0.1,3.2,1.3,4.5,2.3c1.2,0.9,2.1,2,2.6,3
	l0.3,0.5l-0.5,0C51.3,29.9,50.7,29.8,50.3,29.6L50.3,29.6z"/>
<path class="st0" d="M87.8,28.9c0-0.4,0.9-1.8,1.7-2.7c1.4-1.6,3.9-3.2,5.2-3.4c0.6-0.1,0.6-0.1,0.6,0.3c0,0.7-1.3,2.4-2.6,3.5
	C90.8,28.2,87.8,29.6,87.8,28.9z"/>
<path class="st0" d="M49.5,25.8c-2.1-1.6-4.1-4.8-4.3-6.9c-0.1-0.6,0-0.9,0.1-0.9c0.4,0,1.8,1.2,2.7,2.3c1.5,1.9,2.7,4.6,2.6,5.8
	l-0.1,0.5L49.5,25.8L49.5,25.8z"/>
<path class="st0" d="M89,24.4c0.2-2.2,1.9-5.4,3.6-6.9c1.1-1,1.3-1,1.3,0.1c0,1.9-1.5,4.7-3.4,6.7c-0.7,0.7-1.3,1.2-1.4,1.2
	C88.9,25.5,88.9,25.2,89,24.4L89,24.4z"/>
<path class="st0" d="M50.4,21.2c0.2-2.4,1.5-5.5,2.9-6.9c1.1-1.1,1.3-1.1,1.3,0.1c0,2.1-1.5,5.6-3.1,7.2c-0.5,0.5-1,0.9-1.1,0.9
	C50.4,22.5,50.4,22.2,50.4,21.2z"/>
<path class="st0" d="M88.5,20.4c-1.6-1.2-3.2-3.4-3.9-5.6c-0.4-1.2-0.5-2.4-0.2-2.4c1.1,0,3.3,2.7,4.4,5.4c0.5,1.3,0.8,3,0.5,3
	C89.2,20.9,88.8,20.7,88.5,20.4L88.5,20.4z"/>
<path class="st0" d="M49.1,20.1c-1.5-1.3-3.3-4.5-3.7-6.6c-0.3-1.9,0-2.2,1.2-1c1,1,2.2,3,2.7,4.5c0.5,1.4,0.8,3.2,0.5,3.5
	C49.8,20.7,49.5,20.5,49.1,20.1z"/>
<path class="st0" d="M90,18.7c-0.2-0.6-0.1-2.7,0.2-4c0.4-1.7,1.5-3.8,2.3-4.7c0.8-0.9,1-0.7,1,1c0,2.3-1.2,5.5-2.7,7.2
	C90.2,18.8,90.1,18.9,90,18.7z"/>
<path class="st0" d="M49.8,15.5c-1.4-2.3-1.9-6.7-1.1-8.6L49,6.3l0.5,0.6c0.6,0.8,1.2,2.5,1.4,4.1c0.3,2,0,5.3-0.5,5.3
	C50.3,16.3,50,15.9,49.8,15.5L49.8,15.5z"/>
<path class="st0" d="M88.7,14.3c-0.2-0.4-0.5-1.1-0.7-1.6c-0.4-1.2-0.5-4.8-0.3-6.1c0.2-1,0.6-1.7,0.8-1.6c0.3,0.2,0.9,1.6,1.2,2.5
	c0.3,1.4,0.3,4.9-0.1,6.2c-0.2,0.6-0.4,1.1-0.4,1.1C89.2,14.9,88.9,14.6,88.7,14.3z"/>
<path class="st0" d="M51.9,13.6c0.4-2.2,4.8-6.5,6.6-6.5c0.6,0,0.5,0.2-0.1,1.4c-1.2,2.4-4,4.9-6.2,5.5
	C51.8,14.1,51.8,14.1,51.9,13.6L51.9,13.6z"/>
<path class="st0" d="M85.6,12.5c-2-0.7-4.4-2.6-5.6-4.2c-0.4-0.6-0.7-1.1-0.7-1.2c0-0.1,0.3-0.2,0.7-0.2c1.3,0,4.1,1.7,5.7,3.4
	c0.7,0.7,1.7,2.2,1.7,2.4C87.4,12.9,86.6,12.8,85.6,12.5z"/>
<path class="st0" d="M51.6,10.8C50.7,8.6,51,4,52.2,2c0.2-0.3,0.4-0.5,0.5-0.5s0.4,0.4,0.5,0.9c0.3,1,0.4,4.5,0.1,5.8
	c-0.3,1.1-0.8,2.5-1.2,2.9l-0.3,0.4L51.6,10.8z"/>
<path class="st0" d="M85.7,9.3c-1.3-1.9-1.7-5.8-1-8.4c0.3-0.9,0.4-1,0.8-0.6c1.2,1.3,1.8,5.7,1.2,8.3C86.4,9.9,86.2,10,85.7,9.3z"
	/>
<path class="st0" d="M53.7,8.7c0-1.4,1.7-4.6,3.2-6.2c1.2-1.2,2.4-1.9,2.4-1.3c0,1.3-1.4,4.2-2.8,5.8c-0.8,1-2.3,2.2-2.7,2.2
	C53.7,9.2,53.7,9,53.7,8.7z"/>
<path class="st0" d="M83.9,8c-0.6-0.2-2-1.4-2.7-2.2c-1.4-1.6-2.5-3.7-2.8-5c-0.1-0.6-0.1-0.6,0.3-0.6c1,0,3.3,2.4,4.6,4.6
	c0.4,0.8,1.1,2.6,1.1,3C84.5,8.2,84.4,8.2,83.9,8z"/>
</svg>
