<?xml version="1.0" encoding="utf-8"?>
<!-- Generator: Adobe Illustrator 23.0.3, SVG Export Plug-In . SVG Version: 6.00 Build 0)  -->
<svg version="1.1" id="Layer_1" xmlns="http://www.w3.org/2000/svg" xmlns:xlink="http://www.w3.org/1999/xlink" x="0px" y="0px"
	 viewBox="0 0 200.4 66.5" style="enable-background:new 0 0 200.4 66.5;" xml:space="preserve">
<style type="text/css">
	.st0{fill:#8C98A4;}
</style>
<path class="st0" d="M126.8,1.1c-2.2-0.7-5.1-0.8-7.4-1c-2.6-0.2-4.1,0.2-6.2,0.3c-2.6,0.1-12.1,9.6-19,17.4c0,0-5-3.9-8.7-6.1
	c-3.7-2.2-4.6-2.5-7-0.9c-2.4,1.6-16.2,7.8-14.8,8.1c1.4,0.3,7.5,0.9,9.9,0.5c2.4-0.3,6.3-2.6,6.3-2.6l6.3,3.9
	c-0.5,0.3-1,0.5-1.5,0.8c-0.3,0.2-0.6,0.3-0.9,0.5c-0.6,0.4-1,1.2-1.4,1.7c-0.1,0.1-0.7,0.4-0.8,0.5c-0.7,0.5-1.4,1.1-1.5,1.4
	c-0.1,0.7,0.3,1.1,1,0.8c1.5-0.4,3.1-0.8,3.1-0.8l3.3,1c0,0,3.4,1,8.2,0.6c0.9-0.1,10.8-2.4,10.8-2.4s5.9,1.7,6.6,2
	c0.7,0.3,3.9-0.3,5.2-1c1.3-0.8,4.2-4.1,4.2-4.9c0-0.7-7-1.5-7.9-1.6c-2.3-0.2-6.5-0.2-6.5-0.2s3.9-10,6.9-13.1
	c3-3.1,17.2,0.1,20.9-1C139.5,4.2,131.3,2.6,126.8,1.1L126.8,1.1z M21.9,65.9c0.5,0,0.9-0.4,0.9-0.9V52.2c0-0.5,0.4-0.9,0.9-0.9h3.3
	c0.5,0,0.9,0.4,0.9,0.9V65c0,0.5,0.4,0.9,0.9,0.9h3c0.5,0,0.9-0.4,0.9-0.9V33.7c0-0.5-0.4-0.9-0.9-0.9h-3c-0.5,0-0.9,0.4-0.9,0.9
	v11.6c0,0.5-0.4,0.9-0.9,0.9h-3.3c-0.5,0-0.9-0.4-0.9-0.9V33.7c0-0.5-0.4-0.9-0.9-0.9h-3c-0.5,0-0.9,0.4-0.9,0.9V65
	c0,0.5,0.4,0.9,0.9,0.9L21.9,65.9L21.9,65.9z M44.3,57.8c0,2.5,0.7,3.7,2.6,3.7s2.6-1.2,2.6-3.7V41c0-2.5-0.7-3.7-2.6-3.7
	c-2,0-2.6,1.2-2.6,3.7V57.8z M39.4,40.8c0-4.7,2.4-8.5,7.6-8.5s7.6,3.8,7.6,8.5v17.1c0,4.7-2.4,8.5-7.6,8.5s-7.6-3.8-7.6-8.5V40.8z
	 M67.4,61c-0.5,0-0.9-0.4-0.9-0.9V33.7c0-0.5-0.4-0.9-0.9-0.9h-3c-0.5,0-1,0.4-1,0.9V65c0,0.5,0.4,0.9,1,0.9h10.8
	c0.5,0,0.9-0.4,0.9-0.9v-3c0-0.5-0.4-0.9-0.9-0.9H67.4z M90.8,65.9c0.5,0,1-0.4,1-0.9v-3c0-0.5-0.4-0.9-1-0.9h-5.8
	c-0.5,0-0.9-0.4-0.9-0.9V33.7c0-0.5-0.4-0.9-0.9-0.9h-3c-0.5,0-0.9,0.4-0.9,0.9V65c0,0.5,0.4,0.9,0.9,0.9L90.8,65.9L90.8,65.9z
	 M101.4,65.9c0.5,0,0.9-0.4,0.9-0.9V33.7c0-0.5-0.4-0.9-0.9-0.9h-3c-0.5,0-0.9,0.4-0.9,0.9V65c0,0.5,0.4,0.9,0.9,0.9L101.4,65.9
	L101.4,65.9z M108.7,58.7c0.7,4.3,3.2,7.7,7.3,7.7c4.6,0,7.8-3,7.8-8.5c0-9-10-11.7-10-17.4c0-2.1,0.7-3.4,2.2-3.5
	c1.4-0.1,2.8,0.9,2.9,2.9c0,0,0.2,0.9,0.9,0.9l2.7-0.4c0.5-0.1,0.8-0.8,0.6-1.3c0,0-0.8-6.9-6.5-6.9c-4.9,0-7.7,3-7.7,8.3
	c0,9.5,10,11.3,10,17.8c0,2-1.2,3-2.9,3c-2.6,0-2.8-3.7-2.8-3.7c-0.1-0.5-0.8-1.2-1.3-1.1l-2.7,0.5
	C109.3,57.2,108.4,57.2,108.7,58.7L108.7,58.7z M132.4,65c0,0.5,0.4,0.9,1,0.9h3c0.5,0,0.9-0.4,0.9-0.9V38.7c0-0.5,0.4-0.9,0.9-0.9
	h2.9c0.5,0,0.9-0.4,0.9-1v-3c0-0.5-0.4-0.9-0.9-0.9h-12.6c-0.5,0-0.9,0.4-0.9,0.9v3c0,0.5,0.4,1,0.9,1h2.9c0.5,0,0.9,0.4,0.9,0.9
	L132.4,65L132.4,65z M159.9,65.9c0.5,0,0.9-0.4,0.9-0.9v-3c0-0.5-0.4-0.9-0.9-0.9h-6.9c-0.5,0-0.9-0.4-0.9-0.9v-7.8
	c0-0.5,0.4-0.9,0.9-0.9h4.5c0.5,0,0.9-0.4,0.9-0.9v-3c0-0.5-0.4-0.9-0.9-0.9h-4.5c-0.5,0-0.9-0.4-0.9-0.9v-6.6
	c0-0.5,0.4-0.9,0.9-0.9h6.4c0.5,0,0.9-0.4,0.9-1v-3c0-0.5-0.4-0.9-0.9-0.9H148c-0.5,0-0.9,0.4-0.9,0.9v31.3c0,0.5,0.4,0.9,0.9,0.9
	h11.9V65.9z M171.6,46.7c0,0.5,0.4,0.9,0.9,0.9c0.5,0,1.3-0.1,1.8-0.3c0,0,2.8-0.9,2.8-4.8s-1-5.1-3.7-5.1h-0.8
	c-0.5,0-0.9,0.4-0.9,0.9V46.7z M171.6,65c0,0.5-0.4,0.9-0.9,0.9h-3c-0.5,0-0.9-0.4-0.9-0.9V33.7c0-0.5,0.4-0.9,0.9-0.9h5
	c4.7,0,9.3,2.7,9.3,9.8c0,5.3-1.8,7.5-3.5,8.4l3.9,14.1c0.1,0.5-0.2,0.9-0.7,0.9h-3.1c-0.5,0-1.1-0.4-1.2-0.9l-3-11.9
	c-0.1-0.5-0.6-0.9-1.1-0.9c-0.5,0-0.8,0-0.8,0c-0.5,0-0.9,0.5-0.9,1L171.6,65L171.6,65z"/>
</svg>
