<?xml version="1.0" encoding="utf-8"?>
<!-- Generator: Adobe Illustrator 23.0.3, SVG Export Plug-In . SVG Version: 6.00 Build 0)  -->
<svg version="1.1" id="Layer_1" xmlns="http://www.w3.org/2000/svg" xmlns:xlink="http://www.w3.org/1999/xlink" x="0px" y="0px"
	 viewBox="0 0 200.4 66.5" style="enable-background:new 0 0 200.4 66.5;" xml:space="preserve">
<style type="text/css">
	.st0{fill:#8C98A4;}
</style>
<path class="st0" d="M149.6,60.3c-0.5-0.3-1-0.4-1.6-0.4c-0.6,0-1.1,0.1-1.6,0.4c-0.5,0.3-0.9,0.7-1.2,1.2c-0.3,0.5-0.4,1.1-0.4,1.7
	c0,0.6,0.1,1.1,0.4,1.6c0.3,0.5,0.7,0.9,1.2,1.2c0.5,0.3,1,0.4,1.6,0.4c0.6,0,1.1-0.1,1.6-0.4c0.5-0.3,0.9-0.7,1.2-1.2
	c0.3-0.5,0.4-1.1,0.4-1.6c0-0.6-0.1-1.1-0.4-1.7C150.5,61,150.1,60.6,149.6,60.3 M150.3,64.6c-0.3,0.4-0.6,0.8-1,1
	c-0.4,0.2-0.9,0.4-1.3,0.4c-0.5,0-0.9-0.1-1.3-0.4c-0.4-0.2-0.8-0.6-1-1c-0.2-0.4-0.3-0.9-0.3-1.4c0-0.5,0.1-0.9,0.3-1.4
	c0.2-0.4,0.6-0.8,1-1c0.4-0.2,0.9-0.4,1.3-0.4c0.4,0,0.9,0.1,1.3,0.4c0.4,0.2,0.7,0.6,1,1c0.2,0.4,0.3,0.9,0.3,1.4
	C150.6,63.7,150.5,64.2,150.3,64.6 M148.5,63.6c-0.1-0.1-0.2-0.1-0.3-0.2c0.3,0,0.6-0.1,0.7-0.3c0.2-0.2,0.3-0.4,0.3-0.7
	c0-0.2-0.1-0.4-0.2-0.5c-0.1-0.2-0.3-0.3-0.4-0.3c-0.2-0.1-0.5-0.1-0.9-0.1h-1.2V65h0.6v-1.5h0.3c0.2,0,0.3,0,0.4,0.1
	c0.1,0.1,0.3,0.4,0.6,0.8l0.3,0.6h0.7l-0.4-0.7C148.8,64,148.7,63.8,148.5,63.6 M147.8,63h-0.7V62h0.6c0.3,0,0.5,0,0.5,0.1
	c0.1,0.1,0.2,0.1,0.2,0.2c0.1,0.1,0.1,0.2,0.1,0.3c0,0.2-0.1,0.3-0.2,0.4C148.3,63,148.1,63,147.8,63 M80.3,20.9c-2.1,0-2.9,2-2.9,4
	h5.8C83.2,22.6,82.5,20.9,80.3,20.9 M32.8,0l12.9,61l1-0.5c13.7-7.2,27.4-6.8,36.5-5.1c9.9,1.8,16.6,5.3,16.6,5.3l0.4,0.2l0.4-0.2
	c16.2-7.2,29.6-6.8,38-5.2c9.1,1.8,14.4,5.3,14.4,5.3l1,0.7l0.3-1.2L167.6,0H32.8L32.8,0z M68.5,37.2h-19v-20H57v14.9h11.4V37.2
	L68.5,37.2z M80.7,37.9c-7.8,0-11.9-4-11.9-10.7c0-6.7,4.3-10.7,11.4-10.7c7.6,0,11.4,4.9,11.4,10.7c0,0.5,0,0.9-0.1,1.2H77.1
	c0,2.8,1.6,4.6,4.1,4.6c2.2,0,3.8-0.6,4.2-2.4h6.3C91,35.2,87.7,37.9,80.7,37.9 M105.7,37.3h-6.2L89.6,17h8.7l5.3,11.7h0.1l5.3-11.7
	h6.3L105.7,37.3L105.7,37.3z M124.1,37.2h-7.6V17h7.6V37.2L124.1,37.2z M131.1,18.6l-2.6,3.2h-1.1l1.2-3.4h-2.4v-4.6h4.9L131.1,18.6
	L131.1,18.6z M140.9,37.7c-6.9,0-9.5-3.1-9.5-6.7v-0.1h6.3c0,1.8,1.4,2.6,3.3,2.6c1.7,0,2.6-0.6,2.6-1.7c0-2.9-12.1-0.1-12.1-8.3
	c0-4.4,4.1-6.9,10.4-6.9c5.7,0,9.1,2.8,9.1,6.2h-5.8c0-1-1.2-1.9-3.3-1.9c-2.1,0-2.9,0.7-2.9,1.4c0,3.2,12.6,0.1,12.6,8.4
	C151.8,34.6,148.8,37.7,140.9,37.7"/>
</svg>
