<?xml version="1.0" encoding="utf-8"?>
<!-- Generator: Adobe Illustrator 23.0.3, SVG Export Plug-In . SVG Version: 6.00 Build 0)  -->
<svg version="1.1" id="Layer_1" xmlns="http://www.w3.org/2000/svg" xmlns:xlink="http://www.w3.org/1999/xlink" x="0px" y="0px"
	 viewBox="0 0 200.4 66.5" style="enable-background:new 0 0 200.4 66.5;" xml:space="preserve">
<style type="text/css">
	.st0{fill-rule:evenodd;clip-rule:evenodd;fill:#8C98A4;}
</style>
<path class="st0" d="M136,0h-23.8l-0.7,1.2l11.9,0.6c0.1,0,0.1,0.2-0.1,0.2l-12.6,0.4l-1.2,2.1l11.8,0.7c0.2,0,0.1,0.2,0,0.2
	l-12.6,0.4l-1.2,2l11.8,0.7c0.3,0,0.3,0.2,0,0.2l-12.6,0.4l-1.2,2.1l11.8,0.7c0.3,0,0.2,0.3,0,0.3L105,12.8l-1.2,2.1l11.8,0.7
	c0.2,0,0.2,0.2,0,0.2L79.3,17l34.4,1.9c0.2,0,0.2,0.3,0,0.3l-36.3,1.3l34.4,1.9c0.2,0,0.2,0.3,0,0.3L75.4,24l34.4,1.9
	c0.1,0,0.3,0.3,0,0.3l-36.3,1.3l34.4,1.9c0.1,0,0.2,0.3,0,0.3l-18.3,0.7l0.1,1.6l16.3,0.9c0.1,0,0.2,0.3,0,0.3l-16.2,0.6l0.1,1.8
	l14.1,0.8c0.1,0,0.2,0.3,0,0.3l-14,0.5l0.1,2l12,0.7c0.1,0,0.2,0.3-0.1,0.3l-11.9,0.4l0.1,2.2l9.9,0.6c0.1,0,0.1,0.3-0.1,0.3
	L90,43.9l0,1h32.1c8.5,0,16.1-6.2,17.6-11.1c1.4-4.9,1.4-9.4-5.4-11.6c3.8-0.9,10.5-5.2,11.8-11.1C147.3,5.5,145.3,0,136,0L136,0z
	 M119.9,34.5H110l5.6-9.9h7.3C130.5,24.7,126.8,34.5,119.9,34.5z M132.6,13.4c-0.3,1.2-2.7,4.2-5.7,4.2h-7.3l4.7-8.3h3.7
	C132.8,9.5,133,12.2,132.6,13.4L132.6,13.4z M172.1,59.1c0-3.8-3.2-7-7-7c-3.9,0-7.1,3.3-7.1,7.2c0,3.9,3.2,7.1,7.1,7.1
	c0,0,0,0,0.1,0c2.9,0,5.7-2,6.5-4.7H168c-0.7,1.1-1.7,1.7-3,1.7c-1.6,0-3.1-1.1-3.6-2.7H172C172.1,60,172.1,59.6,172.1,59.1z
	 M161.4,58.2c0.5-1.9,2-3.1,3.8-3.1c1.8,0,3.3,1.2,3.7,3.1H161.4z M125.1,52.8v1.1c-1-1.1-2.6-1.8-4.2-1.8c-3.6,0-6.6,3.1-6.6,7
	c0,3.7,2.7,7.1,6.7,7.1c1.8,0,3.1-0.4,4.4-1.8v1.8h3V52.8L125.1,52.8L125.1,52.8z M121.4,63.4c-2.3,0-4.2-1.9-4.2-4.2
	c0-2.3,1.9-4.2,4.2-4.2s4.2,1.9,4.2,4.2C125.6,61.6,123.7,63.4,121.4,63.4z M34.9,52.1c-1.4,0-2.4,0.5-3.5,1.6v-1.3h-3.1v13.7h3.3
	v-6.5c0-1.8,0.1-4.6,2.6-4.6c2.3,0,2.5,2.6,2.5,4.3v6.7H40v-7.4c0-1.9-0.1-2.9-0.7-3.9C38.5,53.2,36.7,52.1,34.9,52.1L34.9,52.1z
	 M55.4,59.1c0-3.8-3.2-7-7-7c-3.9,0-7.1,3.3-7.1,7.2c0,3.9,3.2,7.1,7.1,7.1c0,0,0,0,0.1,0c2.9,0,5.7-2,6.5-4.7h-3.6
	c-0.7,1.1-1.7,1.7-3,1.7c-1.6,0-3.1-1.1-3.6-2.7h10.5C55.3,60,55.4,59.6,55.4,59.1L55.4,59.1z M44.6,58.2c0.5-1.9,2-3.1,3.8-3.1
	c1.8,0,3.3,1.2,3.7,3.1H44.6z M109.7,66.2h3.3V47.8h-3.3V66.2z M137.1,52.1c-1.4,0-2.4,0.5-3.5,1.6v-1.3h-3.1v13.7h3.3v-6.5
	c0-1.8,0.1-4.6,2.6-4.6c2.3,0,2.5,2.6,2.5,4.3v6.7h3.3v-7.4c0-1.9-0.1-2.9-0.7-3.9C140.8,53.2,139,52.1,137.1,52.1L137.1,52.1z
	 M150.5,55.1c1.5,0,2.4,0.5,3.2,1.9h3.7c-1-3-3.6-4.9-6.8-4.9c-4,0-7.2,3.2-7.2,7.1c0,4,3.3,7.2,7.2,7.2c2.1,0,4-0.9,5.4-2.4
	c0.7-0.8,0.9-1.2,1.4-2.4h-3.7c-0.8,1.2-1.8,1.8-3,1.8c-2.3,0-4-1.8-4-4.2C146.6,56.9,148.3,55.1,150.5,55.1L150.5,55.1z M68,60.8
	l-2.3-8.4H63l-2.4,8.4l-2.8-8.4h-2.9l4.6,13.7h2.1l2.7-8.9l2.6,8.9h2.2l4.4-13.7h-2.7L68,60.8L68,60.8z M85.7,52.1
	c-1.6,0-3.1,0.6-4.2,1.8v-6h-3.3v18.3h3v-1.8c1.3,1.4,2.6,1.8,4.4,1.8c4,0,6.7-3.4,6.7-7.1C92.3,55.2,89.2,52.1,85.7,52.1L85.7,52.1
	z M85.2,63.4c-2.3,0-4.2-1.9-4.2-4.2c0-2.3,1.9-4.2,4.2-4.2l0,0c2.3,0,4.2,1.9,4.2,4.2C89.4,61.6,87.5,63.4,85.2,63.4z M104.2,52.8
	v1.1c-1-1.1-2.6-1.8-4.2-1.8c-3.6,0-6.6,3.1-6.6,7c0,3.7,2.7,7.1,6.7,7.1c1.8,0,3.1-0.4,4.4-1.8v1.8h3V52.8L104.2,52.8L104.2,52.8z
	 M100.5,63.4c-2.3,0-4.2-1.9-4.2-4.2c0-2.3,1.9-4.2,4.2-4.2s4.2,1.9,4.2,4.2C104.6,61.6,102.8,63.4,100.5,63.4z"/>
</svg>
