<?xml version="1.0" encoding="utf-8"?>
<!-- Generator: Adobe Illustrator 23.0.3, SVG Export Plug-In . SVG Version: 6.00 Build 0)  -->
<svg version="1.1" id="Layer_1" xmlns="http://www.w3.org/2000/svg" xmlns:xlink="http://www.w3.org/1999/xlink" x="0px" y="0px"
	 viewBox="0 0 200.4 66.5" style="enable-background:new 0 0 200.4 66.5;" xml:space="preserve">
<style type="text/css">
	.st0{fill-rule:evenodd;clip-rule:evenodd;fill:#8C98A4;}
</style>
<path class="st0" d="M57.8,40.7c-1,0-1.8,0.7-1.8,1.7c0,1,0.8,1.7,1.8,1.7c1,0,1.8-0.7,1.8-1.7C59.6,41.4,58.8,40.7,57.8,40.7z
	 M57.8,43.7c-0.7,0-1.3-0.5-1.3-1.2c0-0.7,0.5-1.2,1.3-1.2c0.7,0,1.3,0.5,1.3,1.2C59.1,43.1,58.5,43.7,57.8,43.7z M75.4,34.6h-8.8
	l1-15.3l-5.7,15.3h-8.2L66.7,0h8.7l-1,15.5L80.2,0h8.2L75.4,34.6z M76.5,34.6L89.4,0h8.2l-13,34.6H76.5z"/>
<path class="st0" d="M52.8,22.7C41.4,36.1,30.6,53.9,40.1,62.1c9.2,8,20.7,3.2,28.6,0.1c7.9-3.1,94.7-40.9,94.7-40.9
	c0.8-0.4,0.7-0.9-0.4-0.7c-0.4,0.1-94.5,25.6-94.5,25.6C56.6,49.7,42.9,42.3,52.8,22.7L52.8,22.7z"/>
<path class="st0" d="M140.3,1.8c0.3,0,0.5-0.1,0.5-0.5c0-0.5-0.3-0.6-0.8-0.6h-0.7v1.9h0.5V1.8h0.1l0.4,0.8h0.5L140.3,1.8z M140,1.5
	h-0.3V1h0.2c0.1,0,0.3,0,0.3,0.2C140.2,1.4,140.1,1.5,140,1.5L140,1.5z M134.6,5.8l2.2-5.8h-24.9l-8.6,10.4l4-10.4H99L86.1,34.6h8.2
	l5.5-14.5l0.4,14.5l25.1-0.1l2.4-6.6h-9.5l3.1-8.4h7.9l2.4-6.4h-7.9l2.7-7.3L134.6,5.8L134.6,5.8z M108.2,32.3l-0.5-18l12.4-13.6
	L108.2,32.3L108.2,32.3z"/>
</svg>
