<?xml version="1.0" encoding="utf-8"?>
<!-- Generator: Adobe Illustrator 23.0.3, SVG Export Plug-In . SVG Version: 6.00 Build 0)  -->
<svg version="1.1" id="Layer_1" xmlns="http://www.w3.org/2000/svg" xmlns:xlink="http://www.w3.org/1999/xlink" x="0px" y="0px"
	 viewBox="0 0 200.4 66.5" style="enable-background:new 0 0 200.4 66.5;" xml:space="preserve">
<style type="text/css">
	.st0{fill-rule:evenodd;clip-rule:evenodd;fill:#8C98A4;}
	.st1{fill-rule:evenodd;clip-rule:evenodd;fill:#FFFFFF;}
</style>
<path class="st0" d="M109.2,0.5l0.8,1.7c2.5,0.2,5,0.8,7.1,2c1.6,0.8,3,2,4.7,2.6c0,0.2,0,0.4,0,0.6l0.4,0l7.5,5.9
	c1.4,1.3,2.8,2.6,4.4,3.5v0.7l0.5,0c3.3,2.3,7,4.2,11.4,3.4c2.4-0.5,4.8-2.5,5.8-4.8l3.8-8.3c1.3-2.6,3.9-5.1,6.4-6.7
	c0.9-0.4,2.1-0.9,3.1-0.3c0.8,0.5,1.1,1.4,1.1,2.4c-0.1,1.5-1.3,3-2.7,3.5c-1.8,1.1-3.9,1.6-5.5,3.2c-0.8,1.2-2,2.3-2.6,3.5
	c-0.9,1.8-1.5,3.6-2.3,5.5H153l-0.7,1.5c-1,1.3-2.3,2.6-3.7,3.4l-0.1,0.4c1.8,2.8,2.5,6.1,3,9.5c0.1,1.7-0.3,3.6,0.3,5.1
	c0.1,0.3,0.4,0.7,0.6,1v0.6l2.3,1.8c0.6,2.3,2,4.3,1.7,6.9c-0.3,1.1-0.4,2.5-0.2,3.7c-0.3,0.4-0.8,0.2-1.2,0.2
	c-1.3-0.2-2.8-0.9-3.1-2.3c-0.2-1.9-0.2-3.9-0.3-5.8l-4.6-4c-1.1-1.3-1.8-2.8-3-4.1l-0.7-1.2l-2.9-6.8c-1-1.6-2.7-2.7-4.6-2.9
	l-6.5-0.6c-2.6-0.6-5-1.7-7.2-3.2c-1.8-1.3-3.3-3.2-5.1-4.5h-0.7c-1.3,1.4-3.1,1.9-5,1.7c-2.8-0.2-5-1.9-7.7-2.4
	c-0.2,0.5-0.3,1.1-0.5,1.7c-1,0.1-2.3,0.4-3.1-0.5c-0.6-0.7-0.7-1.7-0.5-2.5c0.7-1.8,2.7-2.5,4.5-2.6c1.4-0.1,2.8,0.3,4.2,0.2
	l0.2-0.1l-0.3-1.4l-1.1-1l-3,0.3l-2.9-2.2l-0.5-0.6V6.7l1.2-1.4l0.6-1.4l2-1.7l0.9-1.7c0.7-0.2,1.1,0.3,1.7,0.6l0.7-0.2l0.8-0.8h0.7
	L109.2,0.5L109.2,0.5z M52.1,34.1c1.4,0.2,3,0.4,3.5,1.9l0.1,0.7v17.5c-0.1,1.4-0.5,3-2,3.6c-0.7,0.3-1.5,0.4-2.4,0.4h-8v7.7h-9.2
	V34.1H52.1z M67.4,53.1l-0.2,1.4v5.8c0,0.6,0.2,1.1,0.8,1.4c0.5,0.2,1,0.1,1.4-0.2c0.5-0.4,0.6-1,0.6-1.7V34.1H79v11.3L78.8,47
	l0,15.3c-0.1,1.2-0.3,2.5-1.5,3.1c-0.9,0.4-2,0.5-3.1,0.5l-12.1,0c-1.1-0.1-2.4-0.2-3.1-1.3c-0.5-0.9-0.6-2-0.6-3.2V34.1h9.2
	L67.4,53.1L67.4,53.1L67.4,53.1z M110.3,34.1c1.3,0.1,2.8,0.9,3.1,2.3c0.3,1,0.3,2.4,0,3.4l0,6.5l0.2,1.2v18.4h-8.9V49.4l0.2-0.8
	l0-7.6c-0.1-0.6-0.3-1.2-0.2-1.9c-0.1-0.4-0.4-0.7-0.7-0.8c-0.5-0.2-1.1-0.1-1.4,0.2c-0.7,0.5-0.3,1.5-0.4,2.3l-0.3,0.4l0,8.9
	l0.2,0.8v15.1h-8.8l0-11.6l0.3-1.1V42.4l-0.3-0.7l0-2.8c-0.1-0.4-0.5-0.8-0.9-0.9c-0.5,0-1.1,0-1.5,0.4c-0.3,0.3-0.2,0.8-0.2,1.3
	c0,1.1,0.1,2.2-0.3,3.1l0,12.6l0.2,1.1v9.3h-8.7l0-20.8L81.7,44l0-7.6c0.1-1,1-1.8,1.9-2c0.6-0.2,1.1-0.3,1.7-0.3L110.3,34.1
	L110.3,34.1L110.3,34.1z"/>
<path class="st0" d="M133.2,34.1c1.2,0.2,2.4,0.4,3,1.5l0.1,0.6c0,1.8-0.1,4.1,0.3,5.6v24h-8.9v-7.7h-2.4v7.7h-9.2v-19l0.2-0.8v-6.5
	c-0.3-1-0.1-2.2-0.2-3.2c0.4-1.2,1.7-2.3,2.9-2.3H133.2z"/>
<path class="st1" d="M46.1,38.3c0.2,0.4,0.3,0.9,0.3,1.4l0,12.7c-0.1,0.6-0.3,1.2-0.9,1.5c-0.6,0.3-1.4,0.3-2.1,0.3V37.5
	C44.4,37.4,45.6,37.3,46.1,38.3L46.1,38.3z M127.9,38.7L128,39c0,1.7,0.1,3.9-0.3,5.2v10h-2.4v-9.4l-0.4-1.2v-4.3
	c0-0.5,0.6-1,1.1-1.2C126.8,37.9,127.5,38.1,127.9,38.7L127.9,38.7z M63,65.1c0.2,0,0.4-0.2,0.4-0.4l0,0v-5c0-0.2-0.2-0.4-0.4-0.4
	c-0.2,0-0.4,0.2-0.4,0.4v5C62.6,64.9,62.8,65.1,63,65.1C63,65.1,63,65.1,63,65.1L63,65.1z M61.4,65.1c0.2,0,0.4-0.2,0.4-0.4l0,0
	v-1.9c0-0.2-0.2-0.4-0.4-0.4c-0.2,0-0.4,0.2-0.4,0.4v1.9C61,64.9,61.1,65.1,61.4,65.1L61.4,65.1z M67.8,65.1c0.2,0,0.4-0.2,0.4-0.4
	l0,0v-1.9c0-0.2-0.2-0.4-0.4-0.4s-0.4,0.2-0.4,0.4v1.9C67.4,64.9,67.6,65.1,67.8,65.1L67.8,65.1z M69.6,65.1c0.2,0,0.4-0.2,0.4-0.4
	c0,0,0,0,0,0v-1.9c0-0.2-0.2-0.4-0.4-0.4s-0.4,0.2-0.4,0.4v1.9C69.2,64.9,69.4,65.1,69.6,65.1C69.6,65.1,69.6,65.1,69.6,65.1
	L69.6,65.1z M64.5,65.1c0.2,0,0.4-0.2,0.4-0.4l0,0v-7.3c0-0.2-0.2-0.4-0.4-0.4s-0.4,0.2-0.4,0.4l0,0v7.3
	C64.1,64.9,64.3,65.1,64.5,65.1L64.5,65.1z M66,65.1c0.2,0,0.4-0.2,0.4-0.4l0,0V55c0-0.2-0.2-0.4-0.4-0.4c-0.2,0-0.4,0.2-0.4,0.4
	v9.7C65.6,64.9,65.8,65.1,66,65.1L66,65.1z M71.4,65.1c0.2,0,0.4-0.2,0.4-0.4l0,0V55c0-0.2-0.2-0.4-0.4-0.4c-0.2,0-0.4,0.2-0.4,0.4
	v9.7C71,64.9,71.2,65.1,71.4,65.1C71.4,65.1,71.4,65.1,71.4,65.1L71.4,65.1z M73,65.1c0.2,0,0.4-0.2,0.4-0.4l0,0V50.2
	c0-0.2-0.2-0.4-0.4-0.4s-0.4,0.2-0.4,0.4v14.5C72.6,64.9,72.8,65.1,73,65.1L73,65.1z M74.5,65.1c0.2,0,0.4-0.2,0.4-0.4l0,0V49.5
	c0-0.2-0.2-0.4-0.4-0.4c-0.2,0-0.4,0.2-0.4,0.4v15.2C74.1,64.9,74.3,65.1,74.5,65.1z M76,65.1c0.2,0,0.4-0.2,0.4-0.4c0,0,0,0,0,0
	V48.5c0-0.2-0.2-0.4-0.4-0.4s-0.4,0.2-0.4,0.4v16.2C75.6,64.9,75.8,65.1,76,65.1z M77.5,65.1c0.2,0,0.4-0.2,0.4-0.4c0,0,0,0,0,0
	V47.8c0-0.2-0.2-0.4-0.4-0.4c-0.2,0-0.4,0.2-0.4,0.4v16.9C77.1,64.9,77.2,65.1,77.5,65.1z M83,65.1c0.2,0,0.4-0.2,0.4-0.4V45
	c0-0.2-0.2-0.4-0.4-0.4s-0.4,0.2-0.4,0.4v19.7C82.6,64.9,82.8,65.1,83,65.1z M84.5,65.1c0.2,0,0.4-0.2,0.4-0.4c0,0,0,0,0,0V44.6
	c0-0.2-0.2-0.4-0.4-0.4s-0.4,0.2-0.4,0.4v20.1C84.1,64.9,84.3,65.1,84.5,65.1C84.5,65.1,84.5,65.1,84.5,65.1z M86.1,65.1
	c0.2,0,0.4-0.2,0.4-0.4l0,0V44.1c0-0.2-0.2-0.4-0.4-0.4c-0.2,0-0.4,0.2-0.4,0.4v20.6C85.7,64.9,85.9,65.1,86.1,65.1z M87.6,57.8
	c0.2,0,0.4-0.2,0.4-0.4V43.7c0-0.2-0.2-0.4-0.4-0.4c-0.2,0-0.4,0.2-0.4,0.4v13.7C87.2,57.6,87.4,57.8,87.6,57.8L87.6,57.8z
	 M89.2,56.6c0.2,0,0.4-0.2,0.4-0.4V43.6c0-0.2-0.2-0.4-0.4-0.4c-0.2,0-0.4,0.2-0.4,0.4v12.6C88.8,56.4,88.9,56.6,89.2,56.6z
	 M94.5,53.2c0.2,0,0.4-0.2,0.4-0.4V42.6c0-0.2-0.2-0.4-0.4-0.4c-0.2,0-0.4,0.2-0.4,0.4v10.2C94.1,53.1,94.3,53.2,94.5,53.2z
	 M96.1,52.8c0.2,0,0.4-0.2,0.4-0.4v-10c0-0.2-0.2-0.4-0.4-0.4c-0.2,0-0.4,0.2-0.4,0.4v10C95.7,52.6,95.8,52.8,96.1,52.8L96.1,52.8z
	 M97.6,52.1c0.2,0,0.4-0.2,0.4-0.4v-9.8c0-0.2-0.2-0.4-0.4-0.4c-0.2,0-0.4,0.2-0.4,0.4v9.8C97.2,51.9,97.4,52.1,97.6,52.1z
	 M99.1,51.4c0.2,0,0.4-0.2,0.4-0.4c0,0,0,0,0,0v-9.3c0-0.2-0.2-0.4-0.4-0.4c-0.2,0-0.4,0.2-0.4,0.4V51
	C98.7,51.2,98.9,51.4,99.1,51.4C99.1,51.4,99.1,51.4,99.1,51.4z M100.7,50.7c0.2,0,0.4-0.2,0.4-0.4v-8.8c0-0.2-0.2-0.4-0.4-0.4
	c-0.2,0-0.4,0.2-0.4,0.4v8.8C100.3,50.5,100.5,50.7,100.7,50.7z M106,48.8c0.2,0,0.4-0.2,0.4-0.4v-7.6c0-0.2-0.2-0.4-0.4-0.4
	c-0.2,0-0.4,0.2-0.4,0.4c0,0,0,0,0,0v7.6C105.6,48.6,105.8,48.8,106,48.8z M107.7,48.6c0.2,0,0.4-0.2,0.4-0.4v-7.6
	c0-0.2-0.2-0.4-0.4-0.4c-0.2,0-0.4,0.2-0.4,0.4v7.6C107.3,48.4,107.4,48.6,107.7,48.6z M109.3,48.1c0.2,0,0.4-0.2,0.4-0.4v-7.4
	c0-0.2-0.2-0.4-0.4-0.4c-0.2,0-0.4,0.2-0.4,0.4v7.4C108.9,47.9,109,48.1,109.3,48.1z M110.9,47.7c0.2,0,0.4-0.2,0.4-0.4c0,0,0,0,0,0
	v-7.1c0-0.2-0.2-0.4-0.4-0.4c-0.2,0-0.4,0.2-0.4,0.4v7.1C110.5,47.5,110.6,47.7,110.9,47.7C110.9,47.7,110.9,47.7,110.9,47.7z
	 M112.5,47.2c0.2,0,0.4-0.2,0.4-0.4v-7.1c0-0.2-0.2-0.4-0.4-0.4c-0.2,0-0.4,0.2-0.4,0.4c0,0,0,0,0,0v7.1
	C112.1,47,112.3,47.2,112.5,47.2C112.5,47.2,112.5,47.2,112.5,47.2z M117.6,46.1c0.2,0,0.4-0.2,0.4-0.4c0,0,0,0,0,0v-6
	c0-0.2-0.2-0.4-0.4-0.4c-0.2,0-0.4,0.2-0.4,0.4c0,0,0,0,0,0v6C117.2,45.9,117.4,46.1,117.6,46.1C117.6,46.1,117.6,46.1,117.6,46.1z
	 M119.1,45.6c0.2,0,0.4-0.2,0.4-0.4c0,0,0,0,0,0v-5.8c0-0.2-0.2-0.4-0.4-0.4c0,0,0,0,0,0c-0.2,0-0.4,0.2-0.4,0.4c0,0,0,0,0,0v5.8
	C118.7,45.4,118.9,45.6,119.1,45.6z M120.6,45.1c0.2,0,0.4-0.2,0.4-0.4c0,0,0,0,0,0v-5.5c0-0.2-0.2-0.4-0.4-0.4
	c-0.2,0-0.4,0.2-0.4,0.4c0,0,0,0,0,0v5.5C120.2,45,120.4,45.1,120.6,45.1C120.6,45.1,120.6,45.1,120.6,45.1z M122.1,44.7
	c0.2,0,0.4-0.2,0.4-0.4c0,0,0,0,0,0V39c0-0.2-0.2-0.4-0.4-0.4c-0.2,0-0.4,0.2-0.4,0.4c0,0,0,0,0,0v5.3
	C121.7,44.5,121.9,44.7,122.1,44.7L122.1,44.7z M123.6,44.4c0.2,0,0.4-0.2,0.4-0.4c0,0,0,0,0,0v-5.3c0-0.2-0.2-0.4-0.4-0.4
	c-0.2,0-0.4,0.2-0.4,0.4c0,0,0,0,0,0V44C123.2,44.3,123.4,44.4,123.6,44.4L123.6,44.4z M129.3,43c0.2,0,0.4-0.2,0.4-0.4v0v-4.3
	c0-0.2-0.2-0.4-0.4-0.4c-0.2,0-0.4,0.2-0.4,0.4c0,0,0,0,0,0v4.3C128.9,42.8,129.1,43,129.3,43C129.3,43,129.3,43,129.3,43L129.3,43z
	 M130.8,42.5c0.2,0,0.4-0.2,0.4-0.4v0V38c0-0.2-0.2-0.4-0.4-0.4c0,0,0,0,0,0c-0.2,0-0.4,0.2-0.4,0.4c0,0,0,0,0,0v4.1
	C130.4,42.4,130.6,42.5,130.8,42.5C130.8,42.5,130.8,42.5,130.8,42.5z M132.3,42.1c0.2,0,0.4-0.2,0.4-0.4v0v-3.9
	c0-0.2-0.2-0.4-0.4-0.4c-0.2,0-0.4,0.2-0.4,0.4c0,0,0,0,0,0v3.9C131.9,41.9,132.1,42.1,132.3,42.1C132.3,42.1,132.3,42.1,132.3,42.1
	L132.3,42.1z M133.8,41.7c0.2,0,0.4-0.2,0.4-0.4c0,0,0,0,0,0v-3.7c0-0.2-0.2-0.4-0.4-0.4c-0.2,0-0.4,0.2-0.4,0.4c0,0,0,0,0,0v3.7
	C133.4,41.5,133.6,41.7,133.8,41.7C133.8,41.7,133.8,41.7,133.8,41.7L133.8,41.7z M135.3,41c0.2,0,0.4-0.2,0.4-0.4c0,0,0,0,0,0v-3.3
	c0-0.2-0.2-0.4-0.4-0.4c-0.2,0-0.4,0.2-0.4,0.4v3.3C134.9,40.8,135.1,41,135.3,41L135.3,41z"/>
<path class="st0" d="M145.4,60.9c0.6,0.6,0.9,1.3,0.9,2.1c0,0.8-0.3,1.5-0.9,2.1c-0.6,0.6-1.3,0.9-2.1,0.9c-0.8,0-1.5-0.3-2.1-0.9
	c-0.6-0.6-0.9-1.3-0.9-2.1c0-0.8,0.3-1.5,0.8-2.1c0.6-0.6,1.3-0.9,2.1-0.9C144.2,60,144.8,60.3,145.4,60.9L145.4,60.9z M145.9,60.4
	c-0.7-0.7-1.5-1-2.5-1c-0.9,0-1.7,0.3-2.4,1c-0.7,0.7-1.1,1.6-1.1,2.6c0,1,0.3,1.8,1,2.5c0.7,0.7,1.5,1,2.5,1c1,0,1.8-0.3,2.5-1
	c0.7-0.7,1.1-1.5,1.1-2.5C146.9,62,146.6,61.1,145.9,60.4L145.9,60.4z M143.8,62.7c-0.1,0.1-0.3,0.1-0.6,0.1h-0.4v-1.1h0.2
	c0.3,0,0.5,0,0.6,0.1c0.2,0.1,0.3,0.2,0.3,0.4C144,62.4,143.9,62.6,143.8,62.7L143.8,62.7z M142.8,63.5h0.2l0.2,0
	c0.2,0,0.3,0,0.4,0.1c0.1,0,0.2,0.2,0.3,0.3c0,0.1,0.1,0.2,0.1,0.5c0,0.2,0,0.4,0.1,0.5h1l0-0.1c0,0,0-0.1,0-0.1c0,0,0-0.1,0-0.1
	v-0.4c0-0.4-0.1-0.7-0.3-0.9c-0.1-0.1-0.3-0.2-0.6-0.2c0.3,0,0.5-0.1,0.7-0.3c0.2-0.1,0.3-0.4,0.3-0.7c0-0.4-0.2-0.7-0.5-0.9
	c-0.2-0.1-0.5-0.2-0.8-0.2c-0.3,0-0.5,0-0.8,0c-0.5,0-0.9,0-1.1,0v3.9h1L142.8,63.5L142.8,63.5L142.8,63.5z"/>
</svg>
