<?xml version="1.0" encoding="utf-8"?>
<!-- Generator: Adobe Illustrator 23.0.3, SVG Export Plug-In . SVG Version: 6.00 Build 0)  -->
<svg version="1.1" id="Layer_1" xmlns="http://www.w3.org/2000/svg" xmlns:xlink="http://www.w3.org/1999/xlink" x="0px" y="0px"
	 viewBox="0 0 200.4 66.5" style="enable-background:new 0 0 200.4 66.5;" xml:space="preserve">
<style type="text/css">
	.st0{fill:#377DFF;}
</style>
<g>
	<g>
		<path class="st0" d="M64,47.8l2.5-5.8c2.7,2,6.3,3.1,9.9,3.1c2.6,0,4.3-1,4.3-2.5c0-4.3-15.7-0.9-15.8-11.7
			c0-5.5,4.8-9.6,11.7-9.6c4.1,0,8.2,1,11.1,3.3l-2.3,5.9c-2.7-1.7-6-2.9-9.1-2.9c-2.1,0-3.6,1-3.6,2.3c0,4.2,15.8,1.9,16,12.2
			c0,5.6-4.7,9.5-11.5,9.5C72,51.5,67.5,50.3,64,47.8"/>
		<path class="st0" d="M160.1,39.9c-1.3,2.2-3.6,3.7-6.3,3.7c-4,0-7.2-3.2-7.2-7.2s3.2-7.2,7.2-7.2c2.7,0,5,1.5,6.3,3.7l6.9-3.8
			c-2.6-4.6-7.5-7.8-13.2-7.8c-8.4,0-15.1,6.8-15.1,15.1s6.8,15.1,15.1,15.1c5.7,0,10.6-3.1,13.2-7.8L160.1,39.9z"/>
		<rect x="92" y="8.7" class="st0" width="8.6" height="42.3"/>
		<polygon class="st0" points="170.3,8.7 170.3,50.9 179,50.9 179,38.3 189.2,50.9 200.3,50.9 187.3,35.9 199.3,21.8 188.8,21.8 
			179,33.5 179,8.7 		"/>
		<path class="st0" d="M126.3,40c-1.3,2.1-3.8,3.6-6.7,3.6c-4,0-7.2-3.2-7.2-7.2s3.2-7.2,7.2-7.2c2.9,0,5.5,1.6,6.7,3.7V40z
			 M126.3,21.8v3.4c-1.4-2.4-4.9-4-8.6-4c-7.6,0-13.6,6.7-13.6,15.1s6,15.2,13.6,15.2c3.7,0,7.2-1.7,8.6-4v3.4h8.6V21.8H126.3z"/>
	</g>
	<g>
		<g>
			<path class="st0" d="M10.6,40c0,2.9-2.4,5.3-5.3,5.3s-5.4-2.4-5.4-5.3s2.4-5.3,5.3-5.3h5.3L10.6,40L10.6,40z"/>
			<path class="st0" d="M13.3,40c0-2.9,2.4-5.3,5.3-5.3s5.3,2.3,5.3,5.3v13.3c0,2.9-2.4,5.3-5.3,5.3s-5.3-2.4-5.3-5.3
				C13.3,53.3,13.3,40,13.3,40z"/>
		</g>
		<g>
			<path class="st0" d="M18.6,18.6c-2.9,0-5.3-2.4-5.3-5.3S15.7,8,18.6,8s5.3,2.4,5.3,5.3v5.3H18.6z"/>
			<path class="st0" d="M18.6,21.3c2.9,0,5.3,2.4,5.3,5.3c0,2.9-2.4,5.3-5.3,5.3H5.2c-2.9,0-5.3-2.4-5.3-5.3c0-2.9,2.4-5.3,5.3-5.3
				H18.6z"/>
		</g>
		<g>
			<path class="st0" d="M39.9,26.6c0-2.9,2.4-5.3,5.3-5.3s5.3,2.4,5.3,5.3c0,2.9-2.4,5.3-5.3,5.3h-5.3V26.6z"/>
			<path class="st0" d="M37.3,26.6c0,2.9-2.4,5.3-5.3,5.3s-5.3-2.4-5.3-5.3V13.2c0-2.9,2.4-5.3,5.3-5.3s5.3,2.4,5.3,5.3V26.6z"/>
		</g>
		<g>
			<path class="st0" d="M32,47.9c2.9,0,5.3,2.4,5.3,5.3s-2.4,5.3-5.3,5.3s-5.3-2.4-5.3-5.3v-5.3H32z"/>
			<path class="st0" d="M32,45.3c-2.9,0-5.3-2.4-5.3-5.3s2.4-5.3,5.3-5.3h13.4c2.9,0,5.3,2.4,5.3,5.3s-2.4,5.3-5.3,5.3H32z"/>
		</g>
	</g>
</g>
</svg>
