<?xml version="1.0" encoding="utf-8"?>
<!-- Generator: Adobe Illustrator 23.0.3, SVG Export Plug-In . SVG Version: 6.00 Build 0)  -->
<svg version="1.1" id="Layer_1" xmlns="http://www.w3.org/2000/svg" xmlns:xlink="http://www.w3.org/1999/xlink" x="0px" y="0px"
	 viewBox="0 0 200.4 66.5" style="enable-background:new 0 0 200.4 66.5;" xml:space="preserve">
<style type="text/css">
	.st0{fill-rule:evenodd;clip-rule:evenodd;fill:#8C98A4;}
</style>
<path class="st0" d="M121.6,3.7V0h-15v20.5h15v-3.4h-10.8v-5.6h9.5V7.9h-9.5V3.7H121.6z M117.4,22.6v7.9h-8.2v-7.9H105v20.5h4.2
	v-9.2h8.2v9.2h4.2V22.6H117.4L117.4,22.6z M121.6,48.9v-3.7h-15V66h15v-3.7h-10.8v-5.5h9.5v-3.4h-9.5v-4.5L121.6,48.9L121.6,48.9z
	 M104.3,0h-4.2v7.9h-8.2V0h-4.2v20.5h4.2v-9.2h8.2v9.2h4.2V0z M69.8,0v3.7h6.3v16.8h4.2V3.7h6.3V0H69.8z M56.7,22.1
	c-6.6,0-10,3.7-10,10.8c0,7.4,3.5,11.1,10,11.1s9.9-3.7,9.9-11.1C66.7,25.8,63.3,22.1,56.7,22.1z M51.2,32.9c0-4.7,1.8-7.1,5.5-7.1
	c3.9,0,5.8,2.3,5.8,7.1c0,5-1.8,7.4-5.8,7.4C53.1,40.3,51.2,37.9,51.2,32.9z M40.7,22.6v14.5l-8.2-14.5h-4.4v20.5H32V28.7l8.4,14.4
	h4.4V22.6H40.7z M60.1,53.7v-4.8h10.5v-3.7H55.9V66h4.2v-8.7h9.2v-3.7L60.1,53.7L60.1,53.7z M103.5,26.3v-3.7H86.7v3.7H93v16.8h4.2
	V26.3H103.5L103.5,26.3z M77.5,35.3c1.3,0,2.4,0.2,2.9,0.8l0.8,7.1h4.7v-0.5c-0.5-0.3-0.8-1.6-0.8-4c0-2.9-1.1-4.4-2.6-5.2
	c2.1-0.8,3.2-2.4,3.2-5c0-3.7-2.1-5.8-6.6-5.8H68.8v20.5H73v-7.8H77.5z M73,31.8v-5.5h5.2c2.1,0,3.2,0.8,3.2,2.6s-1.1,2.9-3.4,2.9
	L73,31.8L73,31.8z M80.3,45.2h-5L68,66h4.4l1.6-4.5h7.6L83,66h4.5L80.3,45.2L80.3,45.2z M77.7,49.9l2.6,8.2h-5.2L77.7,49.9
	L77.7,49.9z M100.9,52h4.2c-0.2-1.8-0.8-3.4-2-4.7c-1.8-1.6-3.9-2.6-6.8-2.6c-2.9,0-5,1.1-6.8,2.9c-1.6,1.8-2.6,4.4-2.6,7.9
	c0,7.3,3.1,11,9.2,11c5.3,0,8.2-2.6,9.2-7.6h-4.2c-0.6,2.4-2.4,3.7-4.7,3.7c-3.5,0-5-2.3-5-6.8c0-4.9,1.6-7.3,5-7.3
	C98.5,48.4,99.8,49.7,100.9,52L100.9,52z M48.5,65.7L48.5,65.7L48.5,65.7z M48.6,65.7c0.7,0,1.3-0.3,1.7-0.6c0.4-0.4,0.6-1,0.6-1.8
	c0-0.8-0.3-1.4-0.6-1.8c-0.4-0.4-1-0.6-1.7-0.6h-0.1c-0.8,0-1.4,0.2-1.8,0.6c-0.4,0.4-0.6,0.9-0.6,1.8v0.1c0,0.7,0.2,1.3,0.6,1.7
	C47.1,65.4,47.7,65.7,48.6,65.7L48.6,65.7L48.6,65.7z M48.5,66.3c-1,0-1.7-0.4-2.2-0.8c-0.5-0.5-0.7-1.2-0.7-2v-0.1
	c0-1,0.2-1.7,0.7-2.2c0.5-0.5,1.2-0.7,2.2-0.7h0.1c0.8,0,1.6,0.2,2,0.7c0.5,0.5,0.8,1.2,0.8,2.2c0,0.9-0.4,1.6-0.8,2.1
	C50.1,66,49.4,66.3,48.5,66.3L48.5,66.3z M48.8,63L48.8,63c0.4,0,0.5-0.1,0.5-0.5v-0.1c0,0-0.1,0-0.1-0.1c-0.1-0.1-0.2-0.1-0.4-0.1
	H48V63L48.8,63L48.8,63L48.8,63z M49.3,63.5l0.6,0.7c0.1,0.1,0,0.3-0.1,0.4c-0.1,0.1-0.4,0.1-0.4,0l-0.7-1H48v0.8
	c0,0.1-0.1,0.3-0.3,0.3s-0.3-0.1-0.3-0.3v-2.3c0-0.1,0.1-0.3,0.3-0.3h1.1c0.3,0,0.6,0.1,0.7,0.2c0.1,0.1,0.1,0.1,0.1,0.1
	c0.1,0.1,0.1,0.3,0.1,0.4C49.9,63.1,49.7,63.4,49.3,63.5L49.3,63.5z M124.5,0c13.1,0,24.5,4.8,33.6,14c9.4,9.4,14.2,20.7,14.2,33.9
	V66h-19.2V47.3c0-7.3-2.6-13.7-7.9-18.9c-1.3-1.3-2.6-2.4-4.2-3.5c-4.2-2.9-9.2-4.2-14.5-4.2h-2.1L124.5,0L124.5,0L124.5,0z
	 M151.3,66h-15V51.6c0-2.4-0.8-4.2-2.4-5.8c-1.6-1.6-3.7-2.4-5.8-2.4h-3.7V22.6h2.1c5.5,0,10.2,1.6,14.5,4.7
	c1.1,0.5,2.1,1.6,2.9,2.3c5,5,7.3,10.8,7.3,17.6V66z M134.5,66h-10V45.2h3.7c1.6,0,3.2,0.6,4.5,1.8c1.1,1.1,1.8,2.7,1.8,4.5V66z"/>
</svg>
